M48
;Layer_Color=6321
;FILE_FORMAT=2:5
INCH,LZ
;TYPE=PLATED
T1F00S00C0.01181
T2F00S00C0.01575
T3F00S00C0.01968
T5F00S00C0.02800
T6F00S00C0.11811
%
T01
X010561Y0105413
X0110925Y0103051
X011624Y0105413
X0120472Y010315
X0118602Y0110728
X011624Y0116043
X0110925Y0118405
X010561Y0116043
X0103248Y0110728
X0127795Y0106693
X0133465Y010315
X0138583Y0106929
X0146063Y0110728
X015079Y0113386
X0150492Y0115551
X0155807Y0115945
X0150092Y0101929
X014498Y0101969
X0142224Y0122638
X0142913Y0127559
Y0131102
X0137638Y0131102
X0137795Y0127559
X0133465Y0122047
X0127165Y0125984
X0125984Y013189
X0145866Y0134843
X0147933Y0133071
X0149803Y0134941
X0144095Y015315
X0142423Y0155318
X0134744Y0155315
X0174016Y0154921
X0176969Y0155512
X0177953Y0142126
X0181496Y0141043
X0187402Y0137008
X0189862Y0138878
X0190256Y0134449
X0177067Y013435
X0174016Y0138189
X0169095Y0136614
X016644Y0136124
X0168701Y013248
X0169488Y0121653
X017185
X0160138Y0121457
X0163976Y0143209
X0201969Y0149803
X0207776Y0145669
Y014065
X0211319Y0137303
X0214764Y0133661
X0216344Y012067
X0225689Y0116043
X0223425Y0110728
X0225689Y0105413
X0231004Y0103051
X0236319Y0105413
X0238681Y0110728
X0236319Y0116043
X0231004Y0118405
X0236984Y0123622
X0230709Y0137894
X0222736Y0144882
X0224803Y0155118
X0220472
X0212205Y0151969
X0211024Y0106693
X0205512Y010315
X0200394Y0106535
X0193701Y010315
X0188976
X0180709Y0112598
X0186319Y0120571
X0219291Y010315
X0220374Y0163091
X0216142Y0168898
X0212303Y0169095
X0210537Y0161913
X0216929Y0177165
X0216142Y0180315
X0220866Y0181496
X0225689Y0180413
X0217717Y018937
X0215945Y0194095
X0214961Y0198819
X022126Y0202756
Y0206653
X0219685Y0218602
X0225689Y0225492
X0223327Y0230807
X0225689Y0236122
X0231004Y0238484
X0236319Y0236122
X0238681Y0230807
X0236319Y0225492
X0237795Y0221358
X0231004Y022313
X0237008Y020748
Y0201181
X0233071Y0195276
X0229921
X0239272Y0186713
X0212598Y0184252
X0204724Y019252
X0201181
X0198425Y0192717
X0200787Y018937
X0193012Y0204823
X0188583Y0207087
X018563Y0206693
X0181598Y0208667
X0181894Y0214272
X0184646Y0218504
X0188193Y0221069
X0192913Y0216929
X0193856Y0211811
X0197047
X0190664
X0187473
X0186417Y0199803
X0176969Y0200886
X0169885Y0209553
X0164961Y0208169
X0160355Y0218807
X0160332Y0228705
X0168701Y0230315
X0168268Y0238996
X0165256Y023937
X0161909
X0179138Y0239574
X0183701Y0236555
X0185965
X0188189Y0236614
X0183465Y0226181
X0204232Y0224803
X0209055Y0228346
X0202716Y0216535
X0187303Y0174705
X018524Y0166932
X0170079Y0176378
X0169685Y0179921
X0158268Y0172835
X0160236Y0168898
X0158465Y0163484
X0158268Y0156299
X0165354Y0158268
X0156595Y0187205
X0232087Y0162992
X0238976Y0157677
X0155512Y0156693
X015502Y0162008
X014252Y0158071
X0141043Y0168405
X013888Y0166834
X0141142Y0176181
Y0179724
X0133858Y0175984
X0132677Y0172539
X0124409Y0181496
X0121358Y0190945
X0119291Y019311
X0119291Y0196555
X0119291Y0199705
X011939Y0202854
X0122736Y020876
X0131496Y0201476
X0136025Y020217
X0133171Y0197446
X0151772Y0195571
Y0192126
Y0188878
X0151378Y0209154
X0151575Y0234646
X0149409
X015374
X0155905
X0126614Y0236221
X0122441Y0229921
X0118602Y0230807
X011624Y0236122
X0110925Y0238484
X010561Y0236122
X0103248Y0230807
X010561Y0225492
X0110925Y022313
X011624Y0225492
X0116929Y0191535
X0126378Y0161024
T02
X0151181Y0144488
X0236713Y014252
X0234055Y0134449
X0232677Y0150984
X0216587Y015935
X0172441Y0164567
X0168405Y0169587
X0188189Y0193012
X0194291Y018937
X0227559Y0209842
X0148327Y0194095
X0148425Y0191437
Y0188976
X0145472Y0194095
X0124213Y0193799
Y0188189
X0121431Y0157703
X010689Y0210138
X0128543Y0219587
T03
X0147653Y0104331
X0122048Y0135041
X0158268Y0131102
X0183465Y012874
X021752Y0222146
X0220768Y0235925
X0112992Y0161417
T05
X0171653Y0105512
T06
X0110925Y0110728
X0231004
Y0230807
X0110925
M30
