G04 Layer_Color=20142*
%FSLAX25Y25*%
%MOIN*%
G70*
G01*
G75*
%ADD95R,0.07493X0.04540*%
%ADD96R,0.04343X0.04540*%
%ADD97R,0.04540X0.03359*%
%ADD98R,0.02965X0.02572*%
%ADD99R,0.07493X0.03950*%
%ADD100R,0.03753X0.03359*%
%ADD101R,0.04737X0.06706*%
%ADD102R,0.04737X0.07493*%
%ADD103R,0.02572X0.02965*%
%ADD104R,0.02965X0.03359*%
G04:AMPARAMS|DCode=105|XSize=78.87mil|YSize=78.87mil|CornerRadius=21.72mil|HoleSize=0mil|Usage=FLASHONLY|Rotation=0.000|XOffset=0mil|YOffset=0mil|HoleType=Round|Shape=RoundedRectangle|*
%AMROUNDEDRECTD105*
21,1,0.07887,0.03543,0,0,0.0*
21,1,0.03543,0.07887,0,0,0.0*
1,1,0.04343,0.01772,-0.01772*
1,1,0.04343,-0.01772,-0.01772*
1,1,0.04343,-0.01772,0.01772*
1,1,0.04343,0.01772,0.01772*
%
%ADD105ROUNDEDRECTD105*%
%ADD106R,0.03556X0.04343*%
%ADD107R,0.04343X0.03556*%
%ADD108R,0.04343X0.03359*%
%ADD109R,0.03359X0.03753*%
%ADD110R,0.05328X0.06312*%
%ADD111R,0.08280X0.06115*%
%ADD112O,0.08674X0.02375*%
%ADD113R,0.12611X0.22453*%
%ADD114R,0.03950X0.03162*%
%ADD115R,0.03950X0.03162*%
%ADD116R,0.04343X0.04737*%
%ADD117R,0.04737X0.04343*%
%ADD118R,0.02847X0.02847*%
G04:AMPARAMS|DCode=119|XSize=78.87mil|YSize=78.87mil|CornerRadius=21.72mil|HoleSize=0mil|Usage=FLASHONLY|Rotation=270.000|XOffset=0mil|YOffset=0mil|HoleType=Round|Shape=RoundedRectangle|*
%AMROUNDEDRECTD119*
21,1,0.07887,0.03543,0,0,270.0*
21,1,0.03543,0.07887,0,0,270.0*
1,1,0.04343,-0.01772,-0.01772*
1,1,0.04343,-0.01772,0.01772*
1,1,0.04343,0.01772,0.01772*
1,1,0.04343,0.01772,-0.01772*
%
%ADD119ROUNDEDRECTD119*%
%ADD120R,0.03556X0.03162*%
%ADD121O,0.06115X0.02375*%
%ADD122R,0.07887X0.08280*%
G04:AMPARAMS|DCode=123|XSize=70.99mil|YSize=63.12mil|CornerRadius=17.78mil|HoleSize=0mil|Usage=FLASHONLY|Rotation=90.000|XOffset=0mil|YOffset=0mil|HoleType=Round|Shape=RoundedRectangle|*
%AMROUNDEDRECTD123*
21,1,0.07099,0.02756,0,0,90.0*
21,1,0.03543,0.06312,0,0,90.0*
1,1,0.03556,0.01378,0.01772*
1,1,0.03556,0.01378,-0.01772*
1,1,0.03556,-0.01378,-0.01772*
1,1,0.03556,-0.01378,0.01772*
%
%ADD123ROUNDEDRECTD123*%
%ADD124R,0.02178X0.02769*%
%ADD125R,0.02769X0.02178*%
G04:AMPARAMS|DCode=126|XSize=47.37mil|YSize=86.74mil|CornerRadius=13.84mil|HoleSize=0mil|Usage=FLASHONLY|Rotation=270.000|XOffset=0mil|YOffset=0mil|HoleType=Round|Shape=RoundedRectangle|*
%AMROUNDEDRECTD126*
21,1,0.04737,0.05906,0,0,270.0*
21,1,0.01969,0.08674,0,0,270.0*
1,1,0.02769,-0.02953,-0.00984*
1,1,0.02769,-0.02953,0.00984*
1,1,0.02769,0.02953,0.00984*
1,1,0.02769,0.02953,-0.00984*
%
%ADD126ROUNDEDRECTD126*%
%ADD127R,0.02847X0.02847*%
%ADD128P,0.04027X4X180.0*%
%ADD129R,0.05328X0.06115*%
%ADD130R,0.06902X0.03162*%
%ADD131R,0.07887X0.05524*%
%ADD132R,0.04147X0.04540*%
%ADD133R,0.03162X0.04737*%
%ADD134R,0.06312X0.06509*%
%ADD135R,0.15721X0.05524*%
%ADD136R,0.05721X0.03162*%
%ADD137O,0.07099X0.04343*%
%ADD138C,0.19501*%
%ADD139C,0.18517*%
G36*
X200745Y142507D02*
X200811D01*
Y142441D01*
X200877D01*
Y142376D01*
Y142310D01*
X200943D01*
Y142244D01*
Y142178D01*
Y142112D01*
X200877D01*
Y142046D01*
Y141981D01*
X200811D01*
Y141915D01*
X200745D01*
Y141849D01*
Y141783D01*
X200679D01*
Y141717D01*
X200613D01*
Y141651D01*
X200548D01*
Y141586D01*
X200482D01*
Y141520D01*
Y141454D01*
X200416D01*
Y141388D01*
X200350D01*
Y141322D01*
Y141256D01*
X200284D01*
Y141191D01*
Y141125D01*
Y141059D01*
Y140993D01*
Y140927D01*
Y140861D01*
X200350D01*
Y140796D01*
Y140730D01*
X200416D01*
Y140664D01*
X200613D01*
Y140598D01*
X201009D01*
Y140532D01*
X201403D01*
Y140467D01*
X201469D01*
Y140532D01*
Y140598D01*
Y140664D01*
Y140730D01*
Y140796D01*
Y140861D01*
Y140927D01*
Y140993D01*
Y141059D01*
Y141125D01*
Y141191D01*
X201535D01*
Y141256D01*
Y141322D01*
X201601D01*
Y141388D01*
X201667D01*
Y141454D01*
Y141520D01*
X201733D01*
Y141586D01*
X201799D01*
Y141651D01*
X201864D01*
Y141717D01*
X201996D01*
Y141783D01*
X202062D01*
Y141849D01*
X202193D01*
Y141915D01*
X202259D01*
Y141981D01*
X202391D01*
Y142046D01*
X202457D01*
Y142112D01*
X202588D01*
Y142178D01*
X202918D01*
Y142112D01*
X203049D01*
Y142046D01*
Y141981D01*
X203115D01*
Y141915D01*
Y141849D01*
Y141783D01*
Y141717D01*
Y141651D01*
X203049D01*
Y141586D01*
X202983D01*
Y141520D01*
X202918D01*
Y141454D01*
X202786D01*
Y141388D01*
X202720D01*
Y141322D01*
X202588D01*
Y141256D01*
X202523D01*
Y141191D01*
X202391D01*
Y141125D01*
X202325D01*
Y141059D01*
X202259D01*
Y140993D01*
X202193D01*
Y140927D01*
Y140861D01*
X202128D01*
Y140796D01*
Y140730D01*
Y140664D01*
Y140598D01*
Y140532D01*
Y140467D01*
Y140401D01*
Y140335D01*
X202259D01*
Y140269D01*
X202457D01*
Y140203D01*
X202654D01*
Y140137D01*
X202852D01*
Y140072D01*
X203049D01*
Y140006D01*
X203247D01*
Y140072D01*
Y140137D01*
Y140203D01*
Y140269D01*
Y140335D01*
X203313D01*
Y140401D01*
Y140467D01*
Y140532D01*
X203378D01*
Y140598D01*
Y140664D01*
X203444D01*
Y140730D01*
X203510D01*
Y140796D01*
X203576D01*
Y140861D01*
X203708D01*
Y140927D01*
X203773D01*
Y140993D01*
X203905D01*
Y141059D01*
X204037D01*
Y141125D01*
X204168D01*
Y141191D01*
X204300D01*
Y141256D01*
X204498D01*
Y141322D01*
X204629D01*
Y141388D01*
X204958D01*
Y141322D01*
X205024D01*
Y141256D01*
X205090D01*
Y141191D01*
Y141125D01*
Y141059D01*
Y140993D01*
Y140927D01*
Y140861D01*
X205024D01*
Y140796D01*
Y140730D01*
X204892D01*
Y140664D01*
X204761D01*
Y140598D01*
X204629D01*
Y140532D01*
X204432D01*
Y140467D01*
X204300D01*
Y140401D01*
X204234D01*
Y140335D01*
X204102D01*
Y140269D01*
X204037D01*
Y140203D01*
X203971D01*
Y140137D01*
Y140072D01*
X203905D01*
Y140006D01*
Y139940D01*
Y139874D01*
Y139808D01*
Y139742D01*
Y139677D01*
X204037D01*
Y139611D01*
X204168D01*
Y139545D01*
X204300D01*
Y139479D01*
X204432D01*
Y139413D01*
X204563D01*
Y139347D01*
X204695D01*
Y139413D01*
X204761D01*
Y139479D01*
Y139545D01*
X204827D01*
Y139611D01*
Y139677D01*
X204892D01*
Y139742D01*
Y139808D01*
X204958D01*
Y139874D01*
X205024D01*
Y139940D01*
X205090D01*
Y140006D01*
X205156D01*
Y140072D01*
X205222D01*
Y140137D01*
X205353D01*
Y140203D01*
X205485D01*
Y140269D01*
X205748D01*
Y140335D01*
X206802D01*
Y140269D01*
X206867D01*
Y140203D01*
X206933D01*
Y140137D01*
Y140072D01*
Y140006D01*
Y139940D01*
Y139874D01*
Y139808D01*
X206867D01*
Y139742D01*
X206802D01*
Y139677D01*
X206538D01*
Y139611D01*
X205814D01*
Y139545D01*
X205617D01*
Y139479D01*
X205551D01*
Y139413D01*
X205485D01*
Y139347D01*
Y139282D01*
X205419D01*
Y139216D01*
Y139150D01*
X205353D01*
Y139084D01*
Y139018D01*
Y138952D01*
X205419D01*
Y138887D01*
X205551D01*
Y138821D01*
X205617D01*
Y138755D01*
X205748D01*
Y138689D01*
X205814D01*
Y138623D01*
X205946D01*
Y138558D01*
X206012D01*
Y138492D01*
X206143D01*
Y138426D01*
X206209D01*
Y138360D01*
X206275D01*
Y138426D01*
X206341D01*
Y138492D01*
Y138558D01*
X206407D01*
Y138623D01*
X206472D01*
Y138689D01*
X206538D01*
Y138755D01*
X206604D01*
Y138821D01*
X206670D01*
Y138887D01*
X206736D01*
Y138952D01*
X206802D01*
Y139018D01*
X206933D01*
Y139084D01*
X207131D01*
Y139150D01*
X207855D01*
Y139084D01*
X208184D01*
Y139018D01*
X208513D01*
Y138952D01*
X208579D01*
Y138887D01*
X208645D01*
Y138821D01*
Y138755D01*
X208711D01*
Y138689D01*
Y138623D01*
X208645D01*
Y138558D01*
Y138492D01*
Y138426D01*
X208579D01*
Y138360D01*
X208447D01*
Y138294D01*
X208184D01*
Y138360D01*
X207855D01*
Y138426D01*
X207197D01*
Y138360D01*
X207131D01*
Y138294D01*
X207065D01*
Y138228D01*
X206999D01*
Y138163D01*
Y138097D01*
X206933D01*
Y138031D01*
X206867D01*
Y137965D01*
Y137899D01*
X206933D01*
Y137833D01*
X206999D01*
Y137768D01*
X207065D01*
Y137702D01*
X207131D01*
Y137636D01*
X207197D01*
Y137570D01*
X207262D01*
Y137504D01*
X207328D01*
Y137438D01*
X207394D01*
Y137373D01*
X207460D01*
Y137307D01*
X207526D01*
Y137241D01*
X207592D01*
Y137307D01*
X207657D01*
Y137373D01*
X207723D01*
Y137438D01*
X207789D01*
Y137504D01*
X207855D01*
Y137570D01*
X207921D01*
Y137636D01*
X207986D01*
Y137702D01*
X208052D01*
Y137768D01*
X208184D01*
Y137833D01*
X208382D01*
Y137899D01*
X209106D01*
Y137833D01*
X209435D01*
Y137768D01*
X209764D01*
Y137702D01*
X209830D01*
Y137636D01*
X209896D01*
Y137570D01*
Y137504D01*
X209962D01*
Y137438D01*
X209896D01*
Y137373D01*
Y137307D01*
Y137241D01*
X209830D01*
Y137175D01*
X209764D01*
Y137109D01*
X209698D01*
Y137043D01*
X209501D01*
Y137109D01*
X209172D01*
Y137175D01*
X208447D01*
Y137109D01*
X208382D01*
Y137043D01*
X208316D01*
Y136978D01*
X208250D01*
Y136912D01*
X208184D01*
Y136846D01*
Y136780D01*
X208118D01*
Y136714D01*
X208052D01*
Y136648D01*
X208118D01*
Y136583D01*
X208184D01*
Y136517D01*
Y136451D01*
X208250D01*
Y136385D01*
X208316D01*
Y136319D01*
X208382D01*
Y136253D01*
Y136188D01*
X208447D01*
Y136122D01*
X208513D01*
Y136056D01*
Y135990D01*
X208645D01*
Y136056D01*
X208711D01*
Y136122D01*
X208776D01*
Y136188D01*
X208842D01*
Y136253D01*
X208974D01*
Y136319D01*
X209040D01*
Y136385D01*
X209237D01*
Y136451D01*
X210093D01*
Y136385D01*
X210422D01*
Y136319D01*
X210686D01*
Y136253D01*
X210751D01*
Y136188D01*
X210817D01*
Y136122D01*
Y136056D01*
Y135990D01*
Y135924D01*
Y135858D01*
Y135793D01*
X210751D01*
Y135727D01*
X210686D01*
Y135661D01*
X210093D01*
Y135727D01*
X209369D01*
Y135661D01*
X209303D01*
Y135595D01*
X209172D01*
Y135529D01*
Y135463D01*
X209106D01*
Y135398D01*
X209040D01*
Y135332D01*
Y135266D01*
X208974D01*
Y135200D01*
Y135134D01*
X209040D01*
Y135068D01*
Y135003D01*
Y134937D01*
X209106D01*
Y134871D01*
Y134805D01*
X209172D01*
Y134739D01*
Y134674D01*
X209369D01*
Y134739D01*
X209435D01*
Y134805D01*
X209632D01*
Y134871D01*
X209830D01*
Y134937D01*
X210291D01*
Y134871D01*
X210488D01*
Y134805D01*
X210620D01*
Y134739D01*
X210751D01*
Y134674D01*
X210883D01*
Y134608D01*
X210949D01*
Y134542D01*
X211081D01*
Y134476D01*
X211146D01*
Y134410D01*
X211278D01*
Y134344D01*
X211344D01*
Y134279D01*
Y134213D01*
Y134147D01*
Y134081D01*
Y134015D01*
Y133949D01*
Y133884D01*
X211278D01*
Y133818D01*
X211212D01*
Y133752D01*
X210883D01*
Y133818D01*
X210751D01*
Y133884D01*
X210686D01*
Y133949D01*
X210554D01*
Y134015D01*
X210488D01*
Y134081D01*
X210356D01*
Y134147D01*
X210225D01*
Y134213D01*
X209896D01*
Y134147D01*
X209764D01*
Y134081D01*
X209632D01*
Y134015D01*
X209566D01*
Y133949D01*
X209435D01*
Y133884D01*
Y133818D01*
Y133752D01*
Y133686D01*
X209501D01*
Y133620D01*
Y133554D01*
Y133489D01*
Y133423D01*
Y133357D01*
X209566D01*
Y133291D01*
Y133225D01*
Y133159D01*
X209632D01*
Y133225D01*
X209896D01*
Y133291D01*
X210554D01*
Y133225D01*
X210751D01*
Y133159D01*
X210817D01*
Y133094D01*
X210949D01*
Y133028D01*
X211015D01*
Y132962D01*
X211081D01*
Y132896D01*
X211146D01*
Y132830D01*
X211212D01*
Y132764D01*
X211278D01*
Y132699D01*
X211344D01*
Y132633D01*
X211410D01*
Y132567D01*
X211476D01*
Y132501D01*
Y132435D01*
X211541D01*
Y132369D01*
Y132304D01*
Y132238D01*
Y132172D01*
Y132106D01*
Y132040D01*
X211476D01*
Y131974D01*
X211410D01*
Y131909D01*
X211081D01*
Y131974D01*
X210949D01*
Y132040D01*
X210883D01*
Y132106D01*
X210817D01*
Y132172D01*
X210751D01*
Y132238D01*
Y132304D01*
X210686D01*
Y132369D01*
X210554D01*
Y132435D01*
X210488D01*
Y132501D01*
X210422D01*
Y132567D01*
X210291D01*
Y132633D01*
X210093D01*
Y132567D01*
X209896D01*
Y132501D01*
X209698D01*
Y132435D01*
X209632D01*
Y132369D01*
Y132304D01*
Y132238D01*
X209698D01*
Y132172D01*
Y132106D01*
Y132040D01*
Y131974D01*
Y131909D01*
Y131843D01*
Y131777D01*
Y131711D01*
Y131645D01*
Y131579D01*
X209830D01*
Y131645D01*
X210620D01*
Y131579D01*
X210751D01*
Y131514D01*
X210883D01*
Y131448D01*
X210949D01*
Y131382D01*
X211015D01*
Y131316D01*
X211081D01*
Y131250D01*
X211146D01*
Y131184D01*
X211212D01*
Y131119D01*
X211278D01*
Y131053D01*
X211344D01*
Y130987D01*
X211410D01*
Y130921D01*
X211476D01*
Y130855D01*
X211541D01*
Y130789D01*
Y130724D01*
Y130658D01*
Y130592D01*
Y130526D01*
Y130460D01*
Y130394D01*
X211476D01*
Y130329D01*
X211344D01*
Y130263D01*
X211081D01*
Y130329D01*
X211015D01*
Y130394D01*
X210949D01*
Y130460D01*
X210883D01*
Y130526D01*
X210817D01*
Y130592D01*
X210751D01*
Y130658D01*
X210686D01*
Y130724D01*
X210620D01*
Y130789D01*
X210554D01*
Y130855D01*
X210422D01*
Y130921D01*
X210356D01*
Y130987D01*
X210027D01*
Y130921D01*
X209830D01*
Y130855D01*
X209698D01*
Y130789D01*
X209632D01*
Y130724D01*
Y130658D01*
Y130592D01*
Y130526D01*
Y130460D01*
Y130394D01*
Y130329D01*
Y130263D01*
Y130197D01*
Y130131D01*
X209698D01*
Y130197D01*
X210027D01*
Y130131D01*
X210291D01*
Y130065D01*
X210422D01*
Y129999D01*
X210554D01*
Y129934D01*
X210620D01*
Y129868D01*
X210686D01*
Y129802D01*
X210751D01*
Y129736D01*
X210817D01*
Y129670D01*
X210883D01*
Y129604D01*
X210949D01*
Y129539D01*
X211015D01*
Y129473D01*
X211081D01*
Y129407D01*
X211146D01*
Y129341D01*
X211212D01*
Y129275D01*
Y129209D01*
Y129144D01*
Y129078D01*
Y129012D01*
Y128946D01*
X211146D01*
Y128880D01*
X211081D01*
Y128814D01*
X210949D01*
Y128749D01*
X210817D01*
Y128814D01*
X210686D01*
Y128880D01*
X210620D01*
Y128946D01*
X210554D01*
Y129012D01*
X210488D01*
Y129078D01*
X210422D01*
Y129144D01*
X210356D01*
Y129209D01*
X210291D01*
Y129275D01*
X210225D01*
Y129341D01*
X210093D01*
Y129407D01*
X210027D01*
Y129473D01*
X209632D01*
Y129407D01*
X209501D01*
Y129341D01*
Y129275D01*
Y129209D01*
Y129144D01*
X209435D01*
Y129078D01*
Y129012D01*
Y128946D01*
Y128880D01*
X209369D01*
Y128814D01*
Y128749D01*
Y128683D01*
X209303D01*
Y128617D01*
Y128551D01*
X209237D01*
Y128485D01*
Y128419D01*
X209172D01*
Y128354D01*
Y128288D01*
X209106D01*
Y128222D01*
X209040D01*
Y128156D01*
X208974D01*
Y128090D01*
Y128024D01*
X208908D01*
Y127959D01*
X208842D01*
Y127893D01*
X208776D01*
Y127827D01*
X208711D01*
Y127761D01*
X208645D01*
Y127695D01*
X208513D01*
Y127630D01*
X208447D01*
Y127564D01*
X208382D01*
Y127498D01*
X208250D01*
Y127432D01*
X208118D01*
Y127366D01*
X208052D01*
Y127300D01*
X207921D01*
Y127235D01*
X207723D01*
Y127169D01*
X207592D01*
Y127103D01*
X207328D01*
Y127037D01*
X207065D01*
Y126971D01*
X206012D01*
Y127037D01*
X205682D01*
Y127103D01*
X205485D01*
Y127169D01*
X205288D01*
Y127235D01*
X205156D01*
Y127300D01*
X205024D01*
Y127366D01*
X204958D01*
Y127432D01*
X204827D01*
Y127498D01*
X204761D01*
Y127564D01*
X204695D01*
Y127630D01*
X204563D01*
Y127695D01*
X204498D01*
Y127761D01*
X204432D01*
Y127695D01*
X204300D01*
Y127630D01*
X204168D01*
Y127564D01*
X204037D01*
Y127498D01*
X203971D01*
Y127432D01*
X203905D01*
Y127366D01*
Y127300D01*
Y127235D01*
X203839D01*
Y127169D01*
Y127103D01*
Y127037D01*
Y126971D01*
Y126905D01*
Y126840D01*
Y126774D01*
Y126708D01*
Y126642D01*
Y126576D01*
Y126510D01*
X203773D01*
Y126445D01*
X203708D01*
Y126379D01*
X203378D01*
Y126445D01*
X203247D01*
Y126510D01*
X203181D01*
Y126576D01*
Y126642D01*
Y126708D01*
Y126774D01*
Y126840D01*
Y126905D01*
Y126971D01*
Y127037D01*
Y127103D01*
Y127169D01*
Y127235D01*
Y127300D01*
Y127366D01*
Y127432D01*
Y127498D01*
Y127564D01*
X203247D01*
Y127630D01*
Y127695D01*
X203313D01*
Y127761D01*
Y127827D01*
X203378D01*
Y127893D01*
X203444D01*
Y127959D01*
X203510D01*
Y128024D01*
X203576D01*
Y128090D01*
X203642D01*
Y128156D01*
X203773D01*
Y128222D01*
X203905D01*
Y128288D01*
X203971D01*
Y128354D01*
Y128419D01*
Y128485D01*
X203905D01*
Y128551D01*
Y128617D01*
X203839D01*
Y128683D01*
Y128749D01*
Y128814D01*
X203773D01*
Y128880D01*
Y128946D01*
X203708D01*
Y129012D01*
X203642D01*
Y128946D01*
X203313D01*
Y128880D01*
X203115D01*
Y128814D01*
X202983D01*
Y128749D01*
X202918D01*
Y128683D01*
Y128617D01*
X202852D01*
Y128551D01*
Y128485D01*
X202786D01*
Y128419D01*
Y128354D01*
Y128288D01*
Y128222D01*
X202720D01*
Y128156D01*
Y128090D01*
Y128024D01*
X202654D01*
Y127959D01*
X202588D01*
Y127893D01*
X202193D01*
Y127959D01*
X202128D01*
Y128024D01*
X202062D01*
Y128090D01*
Y128156D01*
Y128222D01*
Y128288D01*
Y128354D01*
Y128419D01*
Y128485D01*
Y128551D01*
X202128D01*
Y128617D01*
Y128683D01*
Y128749D01*
X202193D01*
Y128814D01*
Y128880D01*
Y128946D01*
X202259D01*
Y129012D01*
Y129078D01*
X202325D01*
Y129144D01*
X202391D01*
Y129209D01*
X202457D01*
Y129275D01*
X202523D01*
Y129341D01*
X202588D01*
Y129407D01*
X202720D01*
Y129473D01*
X202852D01*
Y129539D01*
X203049D01*
Y129604D01*
X203313D01*
Y129670D01*
X203576D01*
Y129736D01*
Y129802D01*
Y129868D01*
Y129934D01*
Y129999D01*
Y130065D01*
Y130131D01*
Y130197D01*
Y130263D01*
Y130329D01*
Y130394D01*
Y130460D01*
X203247D01*
Y130526D01*
X202852D01*
Y130460D01*
X202720D01*
Y130394D01*
X202654D01*
Y130329D01*
X202588D01*
Y130263D01*
X202523D01*
Y130197D01*
Y130131D01*
X202457D01*
Y130065D01*
Y129999D01*
X202391D01*
Y129934D01*
X202325D01*
Y129868D01*
X202259D01*
Y129802D01*
X201930D01*
Y129868D01*
X201799D01*
Y129934D01*
Y129999D01*
X201733D01*
Y130065D01*
Y130131D01*
Y130197D01*
Y130263D01*
Y130329D01*
X201799D01*
Y130394D01*
Y130460D01*
X201864D01*
Y130526D01*
X201930D01*
Y130592D01*
Y130658D01*
X201996D01*
Y130724D01*
X202062D01*
Y130789D01*
X202128D01*
Y130855D01*
X202193D01*
Y130921D01*
X202259D01*
Y130987D01*
X202325D01*
Y131053D01*
X202391D01*
Y131119D01*
X202523D01*
Y131184D01*
X203642D01*
Y131250D01*
X203708D01*
Y131316D01*
Y131382D01*
Y131448D01*
Y131514D01*
Y131579D01*
Y131645D01*
X203576D01*
Y131711D01*
X203313D01*
Y131777D01*
X202786D01*
Y131711D01*
X202720D01*
Y131645D01*
X202654D01*
Y131579D01*
X202588D01*
Y131514D01*
X202523D01*
Y131448D01*
X202457D01*
Y131382D01*
Y131316D01*
X202391D01*
Y131250D01*
X202325D01*
Y131184D01*
X202193D01*
Y131119D01*
X201930D01*
Y131184D01*
X201799D01*
Y131250D01*
X201733D01*
Y131316D01*
Y131382D01*
Y131448D01*
Y131514D01*
Y131579D01*
Y131645D01*
X201799D01*
Y131711D01*
Y131777D01*
X201864D01*
Y131843D01*
X201930D01*
Y131909D01*
X201996D01*
Y131974D01*
Y132040D01*
X202062D01*
Y132106D01*
X202128D01*
Y132172D01*
X202193D01*
Y132238D01*
X202259D01*
Y132304D01*
X202391D01*
Y132369D01*
X202523D01*
Y132435D01*
X203510D01*
Y132369D01*
X203576D01*
Y132435D01*
X203510D01*
Y132501D01*
Y132567D01*
X203444D01*
Y132633D01*
Y132699D01*
X203378D01*
Y132764D01*
Y132830D01*
X203313D01*
Y132896D01*
X203247D01*
Y132962D01*
Y133028D01*
X203181D01*
Y133094D01*
X203115D01*
Y133159D01*
X203049D01*
Y133225D01*
X202852D01*
Y133159D01*
X202654D01*
Y133094D01*
X202391D01*
Y133028D01*
X202259D01*
Y132962D01*
X202193D01*
Y132896D01*
X202128D01*
Y132830D01*
Y132764D01*
X202062D01*
Y132699D01*
Y132633D01*
Y132567D01*
X201996D01*
Y132501D01*
Y132435D01*
Y132369D01*
Y132304D01*
Y132238D01*
X201930D01*
Y132172D01*
Y132106D01*
X201799D01*
Y132040D01*
X201403D01*
Y132106D01*
X201338D01*
Y132172D01*
X201272D01*
Y132238D01*
Y132304D01*
Y132369D01*
Y132435D01*
Y132501D01*
X201338D01*
Y132567D01*
Y132633D01*
Y132699D01*
Y132764D01*
Y132830D01*
X201403D01*
Y132896D01*
Y132962D01*
Y133028D01*
Y133094D01*
X201469D01*
Y133159D01*
Y133225D01*
X201535D01*
Y133291D01*
X201601D01*
Y133357D01*
Y133423D01*
X201667D01*
Y133489D01*
X201799D01*
Y133554D01*
X201864D01*
Y133620D01*
X201996D01*
Y133686D01*
X202193D01*
Y133752D01*
X202128D01*
Y133818D01*
X201996D01*
Y133884D01*
X201864D01*
Y133949D01*
X201733D01*
Y134015D01*
X201667D01*
Y133949D01*
X201535D01*
Y133884D01*
X201403D01*
Y133818D01*
X201338D01*
Y133752D01*
X201206D01*
Y133686D01*
X201140D01*
Y133620D01*
X201074D01*
Y133554D01*
X201009D01*
Y133489D01*
X200943D01*
Y133423D01*
X200877D01*
Y133357D01*
Y133291D01*
Y133225D01*
Y133159D01*
Y133094D01*
Y133028D01*
Y132962D01*
Y132896D01*
X200943D01*
Y132830D01*
Y132764D01*
Y132699D01*
Y132633D01*
X200877D01*
Y132567D01*
X200811D01*
Y132501D01*
X200745D01*
Y132435D01*
X200350D01*
Y132501D01*
X200284D01*
Y132567D01*
Y132633D01*
X200219D01*
Y132699D01*
Y132764D01*
Y132830D01*
Y132896D01*
Y132962D01*
Y133028D01*
Y133094D01*
Y133159D01*
Y133225D01*
Y133291D01*
Y133357D01*
Y133423D01*
Y133489D01*
Y133554D01*
Y133620D01*
Y133686D01*
X200284D01*
Y133752D01*
Y133818D01*
X200350D01*
Y133884D01*
Y133949D01*
X200416D01*
Y134015D01*
X200482D01*
Y134081D01*
X200548D01*
Y134147D01*
X200613D01*
Y134213D01*
X200679D01*
Y134279D01*
X200811D01*
Y134344D01*
X200679D01*
Y134410D01*
X200416D01*
Y134476D01*
X200284D01*
Y134410D01*
X200219D01*
Y134344D01*
X200153D01*
Y134279D01*
X200087D01*
Y134213D01*
X200021D01*
Y134147D01*
X199955D01*
Y134081D01*
X199889D01*
Y134015D01*
X199824D01*
Y133949D01*
X199758D01*
Y133884D01*
X199692D01*
Y133818D01*
Y133752D01*
X199626D01*
Y133686D01*
Y133620D01*
Y133554D01*
X199692D01*
Y133489D01*
Y133423D01*
Y133357D01*
Y133291D01*
X199758D01*
Y133225D01*
Y133159D01*
X199824D01*
Y133094D01*
Y133028D01*
Y132962D01*
Y132896D01*
Y132830D01*
X199758D01*
Y132764D01*
Y132699D01*
X199560D01*
Y132633D01*
X199429D01*
Y132699D01*
X199231D01*
Y132764D01*
X199165D01*
Y132830D01*
Y132896D01*
X199099D01*
Y132962D01*
Y133028D01*
X199034D01*
Y133094D01*
Y133159D01*
Y133225D01*
Y133291D01*
X198968D01*
Y133357D01*
Y133423D01*
Y133489D01*
Y133554D01*
Y133620D01*
Y133686D01*
Y133752D01*
Y133818D01*
Y133884D01*
Y133949D01*
Y134015D01*
X199034D01*
Y134081D01*
Y134147D01*
Y134213D01*
X199099D01*
Y134279D01*
X199165D01*
Y134344D01*
Y134410D01*
X199231D01*
Y134476D01*
X199297D01*
Y134542D01*
X199363D01*
Y134608D01*
X198770D01*
Y134542D01*
X198704D01*
Y134476D01*
X198639D01*
Y134410D01*
X198573D01*
Y134344D01*
X198507D01*
Y134279D01*
X198441D01*
Y134213D01*
Y134147D01*
X198375D01*
Y134081D01*
Y134015D01*
Y133949D01*
Y133884D01*
Y133818D01*
X198441D01*
Y133752D01*
Y133686D01*
Y133620D01*
X198507D01*
Y133554D01*
Y133489D01*
X198573D01*
Y133423D01*
Y133357D01*
X198639D01*
Y133291D01*
Y133225D01*
Y133159D01*
X198573D01*
Y133094D01*
Y133028D01*
X198507D01*
Y132962D01*
X198441D01*
Y132896D01*
X198112D01*
Y132962D01*
X197980D01*
Y133028D01*
Y133094D01*
X197915D01*
Y133159D01*
Y133225D01*
X197849D01*
Y133291D01*
Y133357D01*
X197783D01*
Y133423D01*
Y133489D01*
Y133554D01*
X197717D01*
Y133620D01*
Y133686D01*
Y133752D01*
Y133818D01*
X197651D01*
Y133884D01*
Y133949D01*
Y134015D01*
Y134081D01*
Y134147D01*
X197717D01*
Y134213D01*
Y134279D01*
Y134344D01*
X197783D01*
Y134410D01*
Y134476D01*
X197849D01*
Y134542D01*
Y134608D01*
X197915D01*
Y134674D01*
X197849D01*
Y134739D01*
X197585D01*
Y134674D01*
X197454D01*
Y134608D01*
X197388D01*
Y134542D01*
X197322D01*
Y134476D01*
X197256D01*
Y134410D01*
Y134344D01*
X197190D01*
Y134279D01*
X197125D01*
Y134213D01*
Y134147D01*
Y134081D01*
Y134015D01*
Y133949D01*
X197190D01*
Y133884D01*
Y133818D01*
Y133752D01*
X197256D01*
Y133686D01*
Y133620D01*
Y133554D01*
Y133489D01*
Y133423D01*
Y133357D01*
X197190D01*
Y133291D01*
X197125D01*
Y133225D01*
X196993D01*
Y133159D01*
X196795D01*
Y133225D01*
X196664D01*
Y133291D01*
X196598D01*
Y133357D01*
Y133423D01*
X196532D01*
Y133489D01*
Y133554D01*
Y133620D01*
Y133686D01*
X196466D01*
Y133752D01*
Y133818D01*
Y133884D01*
Y133949D01*
Y134015D01*
Y134081D01*
Y134147D01*
Y134213D01*
Y134279D01*
Y134344D01*
Y134410D01*
Y134476D01*
Y134542D01*
X196532D01*
Y134608D01*
Y134674D01*
X196598D01*
Y134739D01*
X196664D01*
Y134805D01*
Y134871D01*
X196730D01*
Y134937D01*
X196795D01*
Y135003D01*
X196861D01*
Y135068D01*
X196927D01*
Y135134D01*
X196993D01*
Y135200D01*
X196927D01*
Y135266D01*
X196861D01*
Y135332D01*
X196795D01*
Y135398D01*
X196730D01*
Y135463D01*
X196664D01*
Y135529D01*
X196532D01*
Y135463D01*
X196466D01*
Y135398D01*
X196335D01*
Y135332D01*
X196269D01*
Y135266D01*
X196203D01*
Y135200D01*
X196137D01*
Y135134D01*
Y135068D01*
X196071D01*
Y135003D01*
Y134937D01*
Y134871D01*
Y134805D01*
Y134739D01*
Y134674D01*
Y134608D01*
X196137D01*
Y134542D01*
Y134476D01*
Y134410D01*
Y134344D01*
Y134279D01*
X196071D01*
Y134213D01*
Y134147D01*
X196005D01*
Y134081D01*
X195874D01*
Y134015D01*
X195676D01*
Y134081D01*
X195545D01*
Y134147D01*
X195479D01*
Y134213D01*
Y134279D01*
X195413D01*
Y134344D01*
Y134410D01*
Y134476D01*
Y134542D01*
Y134608D01*
Y134674D01*
Y134739D01*
Y134805D01*
X195347D01*
Y134871D01*
Y134937D01*
Y135003D01*
X195413D01*
Y135068D01*
Y135134D01*
Y135200D01*
Y135266D01*
Y135332D01*
X195479D01*
Y135398D01*
Y135463D01*
Y135529D01*
X195545D01*
Y135595D01*
X195610D01*
Y135661D01*
X195676D01*
Y135727D01*
X195742D01*
Y135793D01*
X195808D01*
Y135858D01*
X195874D01*
Y135924D01*
X196005D01*
Y135990D01*
X196071D01*
Y136056D01*
X196137D01*
Y136122D01*
X196203D01*
Y136188D01*
X196137D01*
Y136253D01*
Y136319D01*
X195874D01*
Y136253D01*
X195676D01*
Y136188D01*
X195545D01*
Y136122D01*
X195479D01*
Y136056D01*
Y135990D01*
X195413D01*
Y135924D01*
Y135858D01*
Y135793D01*
Y135727D01*
Y135661D01*
X195347D01*
Y135595D01*
Y135529D01*
Y135463D01*
Y135398D01*
Y135332D01*
Y135266D01*
X195281D01*
Y135200D01*
X195215D01*
Y135134D01*
X195018D01*
Y135068D01*
X194952D01*
Y135134D01*
X194755D01*
Y135200D01*
X194689D01*
Y135266D01*
Y135332D01*
Y135398D01*
Y135463D01*
Y135529D01*
Y135595D01*
Y135661D01*
Y135727D01*
Y135793D01*
Y135858D01*
Y135924D01*
Y135990D01*
Y136056D01*
X194755D01*
Y136122D01*
Y136188D01*
Y136253D01*
X194820D01*
Y136319D01*
Y136385D01*
X194886D01*
Y136451D01*
Y136517D01*
X194952D01*
Y136583D01*
X195018D01*
Y136648D01*
X195084D01*
Y136714D01*
X195215D01*
Y136780D01*
X195281D01*
Y136846D01*
X195413D01*
Y136912D01*
X195610D01*
Y136978D01*
X195742D01*
Y137043D01*
X195808D01*
Y137109D01*
Y137175D01*
Y137241D01*
Y137307D01*
Y137373D01*
Y137438D01*
Y137504D01*
Y137570D01*
Y137636D01*
Y137702D01*
Y137768D01*
Y137833D01*
Y137899D01*
Y137965D01*
Y138031D01*
Y138097D01*
Y138163D01*
Y138228D01*
X195874D01*
Y138294D01*
Y138360D01*
Y138426D01*
Y138492D01*
X195940D01*
Y138558D01*
Y138623D01*
Y138689D01*
Y138755D01*
X196005D01*
Y138821D01*
Y138887D01*
X196071D01*
Y138952D01*
Y139018D01*
X196137D01*
Y139084D01*
Y139150D01*
X196203D01*
Y139216D01*
X196269D01*
Y139282D01*
Y139347D01*
X196335D01*
Y139413D01*
X196400D01*
Y139479D01*
Y139545D01*
X196466D01*
Y139611D01*
X196532D01*
Y139677D01*
X196598D01*
Y139742D01*
X196664D01*
Y139808D01*
X196730D01*
Y139874D01*
X196861D01*
Y139940D01*
X196927D01*
Y140006D01*
X196993D01*
Y140072D01*
X197125D01*
Y140137D01*
X197190D01*
Y140203D01*
X197322D01*
Y140269D01*
X197454D01*
Y140335D01*
X197585D01*
Y140401D01*
X197783D01*
Y140467D01*
X197980D01*
Y140532D01*
X198112D01*
Y140598D01*
Y140664D01*
X198046D01*
Y140730D01*
Y140796D01*
Y140861D01*
X197980D01*
Y140927D01*
Y140993D01*
Y141059D01*
Y141125D01*
Y141191D01*
Y141256D01*
Y141322D01*
Y141388D01*
Y141454D01*
X198046D01*
Y141520D01*
Y141586D01*
Y141651D01*
X198112D01*
Y141717D01*
Y141783D01*
X198178D01*
Y141849D01*
Y141915D01*
X198244D01*
Y141981D01*
Y142046D01*
X198309D01*
Y142112D01*
X198375D01*
Y142178D01*
Y142244D01*
X198441D01*
Y142310D01*
X198507D01*
Y142376D01*
Y142441D01*
X198573D01*
Y142507D01*
X198639D01*
Y142573D01*
X198968D01*
Y142507D01*
X199099D01*
Y142441D01*
X199165D01*
Y142376D01*
Y142310D01*
Y142244D01*
Y142178D01*
Y142112D01*
Y142046D01*
X199099D01*
Y141981D01*
Y141915D01*
X199034D01*
Y141849D01*
X198968D01*
Y141783D01*
Y141717D01*
X198902D01*
Y141651D01*
Y141586D01*
X198836D01*
Y141520D01*
Y141454D01*
X198770D01*
Y141388D01*
Y141322D01*
X198704D01*
Y141256D01*
Y141191D01*
Y141125D01*
Y141059D01*
Y140993D01*
Y140927D01*
X198770D01*
Y140861D01*
Y140796D01*
X198836D01*
Y140730D01*
X198902D01*
Y140664D01*
X199297D01*
Y140730D01*
X199626D01*
Y140796D01*
Y140861D01*
X199560D01*
Y140927D01*
Y140993D01*
Y141059D01*
Y141125D01*
Y141191D01*
Y141256D01*
Y141322D01*
Y141388D01*
Y141454D01*
X199626D01*
Y141520D01*
Y141586D01*
X199692D01*
Y141651D01*
Y141717D01*
X199758D01*
Y141783D01*
X199824D01*
Y141849D01*
Y141915D01*
X199889D01*
Y141981D01*
X199955D01*
Y142046D01*
X200021D01*
Y142112D01*
Y142178D01*
X200087D01*
Y142244D01*
X200153D01*
Y142310D01*
X200219D01*
Y142376D01*
X200284D01*
Y142441D01*
X200350D01*
Y142507D01*
X200416D01*
Y142573D01*
X200745D01*
Y142507D01*
D02*
G37*
%LPC*%
G36*
X199626Y139940D02*
X199363D01*
Y139874D01*
X198639D01*
Y139808D01*
X198309D01*
Y139742D01*
X198112D01*
Y139677D01*
X197980D01*
Y139611D01*
X197849D01*
Y139545D01*
X197651D01*
Y139479D01*
X197585D01*
Y139413D01*
X197520D01*
Y139347D01*
X197388D01*
Y139282D01*
X197322D01*
Y139216D01*
X197256D01*
Y139150D01*
X197190D01*
Y139084D01*
X197125D01*
Y139018D01*
X197059D01*
Y138952D01*
X196993D01*
Y138887D01*
X196927D01*
Y138821D01*
Y138755D01*
X196861D01*
Y138689D01*
X196795D01*
Y138623D01*
Y138558D01*
X196730D01*
Y138492D01*
Y138426D01*
Y138360D01*
X196664D01*
Y138294D01*
Y138228D01*
Y138163D01*
X196598D01*
Y138097D01*
Y138031D01*
Y137965D01*
Y137899D01*
Y137833D01*
Y137768D01*
Y137702D01*
Y137636D01*
Y137570D01*
Y137504D01*
Y137438D01*
Y137373D01*
Y137307D01*
Y137241D01*
Y137175D01*
X196664D01*
Y137109D01*
Y137043D01*
Y136978D01*
X196730D01*
Y136912D01*
Y136846D01*
Y136780D01*
X196795D01*
Y136714D01*
Y136648D01*
X196861D01*
Y136583D01*
Y136517D01*
X196927D01*
Y136451D01*
X196993D01*
Y136385D01*
Y136319D01*
X197059D01*
Y136253D01*
X197125D01*
Y136188D01*
X197190D01*
Y136122D01*
Y136056D01*
X197256D01*
Y135990D01*
X197322D01*
Y135924D01*
X197454D01*
Y135858D01*
X197520D01*
Y135793D01*
X197585D01*
Y135727D01*
X197651D01*
Y135661D01*
X197783D01*
Y135595D01*
X197915D01*
Y135529D01*
X198046D01*
Y135463D01*
X198309D01*
Y135398D01*
X199889D01*
Y135332D01*
X200284D01*
Y135266D01*
X200613D01*
Y135200D01*
X200811D01*
Y135134D01*
X201074D01*
Y135068D01*
X201272D01*
Y135003D01*
X201469D01*
Y134937D01*
X201601D01*
Y134871D01*
X201799D01*
Y134805D01*
X201930D01*
Y134739D01*
X202062D01*
Y134674D01*
X202193D01*
Y134608D01*
X202325D01*
Y134542D01*
X202523D01*
Y134476D01*
X202654D01*
Y134410D01*
X202720D01*
Y134344D01*
X202852D01*
Y134279D01*
X202983D01*
Y134213D01*
X203049D01*
Y134147D01*
X203181D01*
Y134081D01*
X203247D01*
Y134015D01*
X203378D01*
Y133949D01*
X203444D01*
Y133884D01*
X203510D01*
Y133818D01*
X203576D01*
Y133752D01*
X203642D01*
Y133686D01*
X203708D01*
Y133620D01*
X203773D01*
Y133554D01*
X203839D01*
Y133489D01*
X203905D01*
Y133423D01*
Y133357D01*
X203971D01*
Y133291D01*
X204037D01*
Y133225D01*
Y133159D01*
X204102D01*
Y133094D01*
X204168D01*
Y133028D01*
Y132962D01*
Y132896D01*
X204234D01*
Y132830D01*
Y132764D01*
X204300D01*
Y132699D01*
Y132633D01*
X204366D01*
Y132567D01*
Y132501D01*
Y132435D01*
Y132369D01*
X204432D01*
Y132304D01*
Y132238D01*
Y132172D01*
Y132106D01*
Y132040D01*
Y131974D01*
Y131909D01*
X204498D01*
Y131843D01*
Y131777D01*
Y131711D01*
Y131645D01*
Y131579D01*
Y131514D01*
Y131448D01*
Y131382D01*
Y131316D01*
Y131250D01*
Y131184D01*
Y131119D01*
X204432D01*
Y131053D01*
Y130987D01*
Y130921D01*
Y130855D01*
Y130789D01*
Y130724D01*
Y130658D01*
Y130592D01*
X204366D01*
Y130526D01*
Y130460D01*
Y130394D01*
Y130329D01*
Y130263D01*
Y130197D01*
Y130131D01*
Y130065D01*
Y129999D01*
Y129934D01*
Y129868D01*
Y129802D01*
Y129736D01*
Y129670D01*
X204432D01*
Y129604D01*
Y129539D01*
Y129473D01*
Y129407D01*
Y129341D01*
X204498D01*
Y129275D01*
Y129209D01*
Y129144D01*
X204563D01*
Y129078D01*
Y129012D01*
Y128946D01*
X204629D01*
Y128880D01*
X204695D01*
Y128814D01*
Y128749D01*
X204761D01*
Y128683D01*
Y128617D01*
X204827D01*
Y128551D01*
X204892D01*
Y128485D01*
X204958D01*
Y128419D01*
X205024D01*
Y128354D01*
X205090D01*
Y128288D01*
X205156D01*
Y128222D01*
X205222D01*
Y128156D01*
X205353D01*
Y128090D01*
X205419D01*
Y128024D01*
X205551D01*
Y127959D01*
X205682D01*
Y127893D01*
X205880D01*
Y127827D01*
X206078D01*
Y127761D01*
X206933D01*
Y127827D01*
X207197D01*
Y127893D01*
X207394D01*
Y127959D01*
X207592D01*
Y128024D01*
X207657D01*
Y128090D01*
X207789D01*
Y128156D01*
X207921D01*
Y128222D01*
X207986D01*
Y128288D01*
X208052D01*
Y128354D01*
X208184D01*
Y128419D01*
X208250D01*
Y128485D01*
Y128551D01*
X208316D01*
Y128617D01*
X208382D01*
Y128683D01*
X208447D01*
Y128749D01*
X208513D01*
Y128814D01*
Y128880D01*
X208579D01*
Y128946D01*
Y129012D01*
X208645D01*
Y129078D01*
Y129144D01*
Y129209D01*
Y129275D01*
X208711D01*
Y129341D01*
Y129407D01*
Y129473D01*
Y129539D01*
Y129604D01*
Y129670D01*
X208776D01*
Y129736D01*
Y129802D01*
Y129868D01*
Y129934D01*
Y129999D01*
Y130065D01*
Y130131D01*
Y130197D01*
X208842D01*
Y130263D01*
Y130329D01*
Y130394D01*
Y130460D01*
Y130526D01*
Y130592D01*
Y130658D01*
Y130724D01*
Y130789D01*
Y130855D01*
X208908D01*
Y130921D01*
Y130987D01*
Y131053D01*
Y131119D01*
Y131184D01*
Y131250D01*
Y131316D01*
Y131382D01*
Y131448D01*
Y131514D01*
Y131579D01*
Y131645D01*
Y131711D01*
Y131777D01*
Y131843D01*
Y131909D01*
Y131974D01*
Y132040D01*
Y132106D01*
Y132172D01*
X208842D01*
Y132238D01*
Y132304D01*
Y132369D01*
Y132435D01*
Y132501D01*
Y132567D01*
Y132633D01*
Y132699D01*
Y132764D01*
Y132830D01*
X208776D01*
Y132896D01*
Y132962D01*
Y133028D01*
Y133094D01*
Y133159D01*
Y133225D01*
Y133291D01*
X208711D01*
Y133357D01*
Y133423D01*
Y133489D01*
Y133554D01*
X208645D01*
Y133620D01*
Y133686D01*
Y133752D01*
Y133818D01*
X208579D01*
Y133884D01*
Y133949D01*
Y134015D01*
X208513D01*
Y134081D01*
Y134147D01*
Y134213D01*
Y134279D01*
X208447D01*
Y134344D01*
Y134410D01*
X208382D01*
Y134476D01*
Y134542D01*
Y134608D01*
X208316D01*
Y134674D01*
Y134739D01*
X208250D01*
Y134805D01*
Y134871D01*
X208184D01*
Y134937D01*
Y135003D01*
Y135068D01*
X208118D01*
Y135134D01*
Y135200D01*
X208052D01*
Y135266D01*
X207986D01*
Y135332D01*
Y135398D01*
X207921D01*
Y135463D01*
Y135529D01*
X207855D01*
Y135595D01*
X207789D01*
Y135661D01*
Y135727D01*
X207723D01*
Y135793D01*
X207657D01*
Y135858D01*
Y135924D01*
X207592D01*
Y135990D01*
X207526D01*
Y136056D01*
Y136122D01*
X207460D01*
Y136188D01*
X207394D01*
Y136253D01*
X207328D01*
Y136319D01*
X207262D01*
Y136385D01*
Y136451D01*
X207197D01*
Y136517D01*
X207131D01*
Y136583D01*
X207065D01*
Y136648D01*
X206999D01*
Y136714D01*
X206933D01*
Y136780D01*
X206867D01*
Y136846D01*
X206802D01*
Y136912D01*
X206736D01*
Y136978D01*
X206670D01*
Y137043D01*
X206604D01*
Y137109D01*
X206538D01*
Y137175D01*
X206407D01*
Y137241D01*
X206341D01*
Y137307D01*
X206275D01*
Y137373D01*
X206209D01*
Y137438D01*
X206143D01*
Y137504D01*
X206012D01*
Y137570D01*
X205946D01*
Y137636D01*
X205880D01*
Y137702D01*
X205748D01*
Y137768D01*
X205682D01*
Y137833D01*
X205551D01*
Y137899D01*
X205485D01*
Y137965D01*
X205353D01*
Y138031D01*
X205288D01*
Y138097D01*
X205156D01*
Y138163D01*
X205090D01*
Y138228D01*
X204958D01*
Y138294D01*
X204827D01*
Y138360D01*
X204695D01*
Y138426D01*
X204629D01*
Y138492D01*
X204498D01*
Y138558D01*
X204366D01*
Y138623D01*
X204234D01*
Y138689D01*
X204102D01*
Y138755D01*
X203971D01*
Y138821D01*
X203839D01*
Y138887D01*
X203642D01*
Y138952D01*
X203510D01*
Y139018D01*
X203378D01*
Y139084D01*
X203181D01*
Y139150D01*
X203049D01*
Y139216D01*
X202852D01*
Y139282D01*
X202654D01*
Y139347D01*
X202457D01*
Y139413D01*
X202259D01*
Y139479D01*
X202062D01*
Y139545D01*
X201799D01*
Y139611D01*
X201535D01*
Y139677D01*
X201272D01*
Y139742D01*
X200943D01*
Y139808D01*
X200482D01*
Y139874D01*
X199626D01*
Y139940D01*
D02*
G37*
%LPD*%
G36*
X207789Y133291D02*
X207921D01*
Y133225D01*
X208052D01*
Y133159D01*
X208118D01*
Y133094D01*
Y133028D01*
X208184D01*
Y132962D01*
X208250D01*
Y132896D01*
Y132830D01*
Y132764D01*
Y132699D01*
X208316D01*
Y132633D01*
Y132567D01*
X208250D01*
Y132501D01*
Y132435D01*
Y132369D01*
Y132304D01*
X208184D01*
Y132238D01*
X208118D01*
Y132172D01*
Y132106D01*
X207986D01*
Y132040D01*
X207921D01*
Y131974D01*
X207723D01*
Y131909D01*
X207394D01*
Y131974D01*
X207197D01*
Y132040D01*
X207131D01*
Y132106D01*
X206999D01*
Y132172D01*
Y132238D01*
X206933D01*
Y132304D01*
X206867D01*
Y132369D01*
Y132435D01*
Y132501D01*
Y132567D01*
Y132633D01*
Y132699D01*
Y132764D01*
Y132830D01*
Y132896D01*
Y132962D01*
X206933D01*
Y133028D01*
X206999D01*
Y133094D01*
Y133159D01*
X207065D01*
Y133225D01*
X207197D01*
Y133291D01*
X207328D01*
Y133357D01*
X207789D01*
Y133291D01*
D02*
G37*
G36*
X204958Y134410D02*
X205024D01*
Y134344D01*
X205090D01*
Y134279D01*
X205156D01*
Y134213D01*
Y134147D01*
Y134081D01*
Y134015D01*
Y133949D01*
Y133884D01*
X205090D01*
Y133818D01*
Y133752D01*
X204958D01*
Y133686D01*
X204563D01*
Y133752D01*
X204498D01*
Y133818D01*
X204432D01*
Y133884D01*
Y133949D01*
X204366D01*
Y134015D01*
Y134081D01*
Y134147D01*
Y134213D01*
X204432D01*
Y134279D01*
Y134344D01*
X204498D01*
Y134410D01*
X204629D01*
Y134476D01*
X204958D01*
Y134410D01*
D02*
G37*
G36*
X206209Y131711D02*
X206407D01*
Y131645D01*
X206472D01*
Y131579D01*
X206538D01*
Y131514D01*
X206604D01*
Y131448D01*
Y131382D01*
Y131316D01*
Y131250D01*
Y131184D01*
Y131119D01*
Y131053D01*
Y130987D01*
X206538D01*
Y130921D01*
X206472D01*
Y130855D01*
X206407D01*
Y130789D01*
X206341D01*
Y130724D01*
X205946D01*
Y130789D01*
X205814D01*
Y130855D01*
X205748D01*
Y130921D01*
X205682D01*
Y130987D01*
X205617D01*
Y131053D01*
Y131119D01*
Y131184D01*
Y131250D01*
Y131316D01*
Y131382D01*
Y131448D01*
X205682D01*
Y131514D01*
Y131579D01*
X205748D01*
Y131645D01*
X205814D01*
Y131711D01*
X206012D01*
Y131777D01*
X206209D01*
Y131711D01*
D02*
G37*
G36*
X205617Y129868D02*
X205880D01*
Y129802D01*
X205946D01*
Y129736D01*
X206012D01*
Y129670D01*
X206078D01*
Y129604D01*
Y129539D01*
X206143D01*
Y129473D01*
Y129407D01*
Y129341D01*
Y129275D01*
Y129209D01*
Y129144D01*
X206078D01*
Y129078D01*
Y129012D01*
X206012D01*
Y128946D01*
X205946D01*
Y128880D01*
X205880D01*
Y128814D01*
X205682D01*
Y128749D01*
X205419D01*
Y128814D01*
X205288D01*
Y128880D01*
X205156D01*
Y128946D01*
X205090D01*
Y129012D01*
Y129078D01*
X205024D01*
Y129144D01*
Y129209D01*
Y129275D01*
Y129341D01*
Y129407D01*
Y129473D01*
Y129539D01*
Y129604D01*
X205090D01*
Y129670D01*
Y129736D01*
X205156D01*
Y129802D01*
X205288D01*
Y129868D01*
X205485D01*
Y129934D01*
X205617D01*
Y129868D01*
D02*
G37*
G36*
X207394Y129670D02*
X207460D01*
Y129604D01*
X207526D01*
Y129539D01*
X207592D01*
Y129473D01*
Y129407D01*
Y129341D01*
Y129275D01*
Y129209D01*
Y129144D01*
X207526D01*
Y129078D01*
Y129012D01*
X207394D01*
Y128946D01*
X206999D01*
Y129012D01*
X206933D01*
Y129078D01*
X206867D01*
Y129144D01*
Y129209D01*
X206802D01*
Y129275D01*
Y129341D01*
Y129407D01*
Y129473D01*
X206867D01*
Y129539D01*
Y129604D01*
X206933D01*
Y129670D01*
X207065D01*
Y129736D01*
X207394D01*
Y129670D01*
D02*
G37*
G36*
X206670Y135332D02*
X206736D01*
Y135266D01*
X206802D01*
Y135200D01*
X206867D01*
Y135134D01*
Y135068D01*
Y135003D01*
Y134937D01*
Y134871D01*
Y134805D01*
X206802D01*
Y134739D01*
Y134674D01*
X206670D01*
Y134608D01*
X206275D01*
Y134674D01*
X206209D01*
Y134739D01*
X206143D01*
Y134805D01*
X206078D01*
Y134871D01*
Y134937D01*
Y135003D01*
Y135068D01*
Y135134D01*
Y135200D01*
X206143D01*
Y135266D01*
X206209D01*
Y135332D01*
X206275D01*
Y135398D01*
X206670D01*
Y135332D01*
D02*
G37*
G36*
X198309Y137307D02*
X198375D01*
Y137241D01*
X198441D01*
Y137175D01*
Y137109D01*
Y137043D01*
Y136978D01*
Y136912D01*
X198375D01*
Y136846D01*
Y136780D01*
X198178D01*
Y136714D01*
X198112D01*
Y136780D01*
X197915D01*
Y136846D01*
X197849D01*
Y136912D01*
Y136978D01*
Y137043D01*
Y137109D01*
Y137175D01*
Y137241D01*
X197915D01*
Y137307D01*
X197980D01*
Y137373D01*
X198309D01*
Y137307D01*
D02*
G37*
G36*
X202588Y138426D02*
X202720D01*
Y138360D01*
X202786D01*
Y138294D01*
X202852D01*
Y138228D01*
Y138163D01*
Y138097D01*
X202918D01*
Y138031D01*
Y137965D01*
Y137899D01*
Y137833D01*
X202852D01*
Y137768D01*
Y137702D01*
X202786D01*
Y137636D01*
X202720D01*
Y137570D01*
X202654D01*
Y137504D01*
X202457D01*
Y137438D01*
X202325D01*
Y137504D01*
X202128D01*
Y137570D01*
X202062D01*
Y137636D01*
X201996D01*
Y137702D01*
X201930D01*
Y137768D01*
Y137833D01*
X201864D01*
Y137899D01*
Y137965D01*
Y138031D01*
Y138097D01*
Y138163D01*
X201930D01*
Y138228D01*
Y138294D01*
X201996D01*
Y138360D01*
X202062D01*
Y138426D01*
X202193D01*
Y138492D01*
X202588D01*
Y138426D01*
D02*
G37*
G36*
X199363Y139150D02*
X199560D01*
Y139084D01*
X199626D01*
Y139018D01*
X199692D01*
Y138952D01*
X199758D01*
Y138887D01*
X199824D01*
Y138821D01*
Y138755D01*
Y138689D01*
X199889D01*
Y138623D01*
Y138558D01*
Y138492D01*
Y138426D01*
Y138360D01*
Y138294D01*
Y138228D01*
X199824D01*
Y138163D01*
Y138097D01*
X199758D01*
Y138031D01*
Y137965D01*
X199692D01*
Y137899D01*
X199560D01*
Y137833D01*
X199494D01*
Y137768D01*
X199297D01*
Y137702D01*
X199034D01*
Y137768D01*
X198770D01*
Y137833D01*
X198704D01*
Y137899D01*
X198573D01*
Y137965D01*
Y138031D01*
X198507D01*
Y138097D01*
X198441D01*
Y138163D01*
Y138228D01*
Y138294D01*
Y138360D01*
X198375D01*
Y138426D01*
Y138492D01*
Y138558D01*
Y138623D01*
X198441D01*
Y138689D01*
Y138755D01*
Y138821D01*
X198507D01*
Y138887D01*
Y138952D01*
X198573D01*
Y139018D01*
X198639D01*
Y139084D01*
X198770D01*
Y139150D01*
X198902D01*
Y139216D01*
X199363D01*
Y139150D01*
D02*
G37*
G36*
X203049Y136780D02*
X203247D01*
Y136714D01*
X203313D01*
Y136648D01*
X203444D01*
Y136583D01*
Y136517D01*
X203510D01*
Y136451D01*
X203576D01*
Y136385D01*
Y136319D01*
Y136253D01*
X203642D01*
Y136188D01*
Y136122D01*
Y136056D01*
Y135990D01*
Y135924D01*
X203576D01*
Y135858D01*
Y135793D01*
Y135727D01*
X203510D01*
Y135661D01*
X203444D01*
Y135595D01*
Y135529D01*
X203378D01*
Y135463D01*
X203247D01*
Y135398D01*
X203049D01*
Y135332D01*
X202654D01*
Y135398D01*
X202523D01*
Y135463D01*
X202391D01*
Y135529D01*
X202325D01*
Y135595D01*
X202259D01*
Y135661D01*
Y135727D01*
X202193D01*
Y135793D01*
Y135858D01*
X202128D01*
Y135924D01*
Y135990D01*
Y136056D01*
Y136122D01*
Y136188D01*
Y136253D01*
Y136319D01*
X202193D01*
Y136385D01*
Y136451D01*
X202259D01*
Y136517D01*
Y136583D01*
X202325D01*
Y136648D01*
X202391D01*
Y136714D01*
X202523D01*
Y136780D01*
X202720D01*
Y136846D01*
X203049D01*
Y136780D01*
D02*
G37*
G36*
X200021Y137043D02*
X200153D01*
Y136978D01*
X200284D01*
Y136912D01*
X200350D01*
Y136846D01*
Y136780D01*
X200416D01*
Y136714D01*
Y136648D01*
Y136583D01*
Y136517D01*
Y136451D01*
Y136385D01*
X200350D01*
Y136319D01*
Y136253D01*
X200284D01*
Y136188D01*
X200219D01*
Y136122D01*
X200087D01*
Y136056D01*
X199692D01*
Y136122D01*
X199626D01*
Y136188D01*
X199494D01*
Y136253D01*
Y136319D01*
X199429D01*
Y136385D01*
Y136451D01*
Y136517D01*
X199363D01*
Y136583D01*
Y136648D01*
X199429D01*
Y136714D01*
Y136780D01*
Y136846D01*
X199494D01*
Y136912D01*
X199560D01*
Y136978D01*
X199626D01*
Y137043D01*
X199824D01*
Y137109D01*
X200021D01*
Y137043D01*
D02*
G37*
G36*
X204892Y137175D02*
X204958D01*
Y137109D01*
Y137043D01*
X205024D01*
Y136978D01*
Y136912D01*
Y136846D01*
X204958D01*
Y136780D01*
Y136714D01*
X204892D01*
Y136648D01*
X204498D01*
Y136714D01*
X204432D01*
Y136780D01*
X204366D01*
Y136846D01*
Y136912D01*
Y136978D01*
Y137043D01*
X204432D01*
Y137109D01*
Y137175D01*
X204498D01*
Y137241D01*
X204892D01*
Y137175D01*
D02*
G37*
D95*
X147835Y123721D02*
D03*
Y134350D02*
D03*
D96*
X175689Y223031D02*
D03*
X163287D02*
D03*
D97*
X163484Y216142D02*
D03*
Y208661D02*
D03*
X172539Y212402D02*
D03*
D98*
X158760Y210728D02*
D03*
Y214272D02*
D03*
X155512Y107677D02*
D03*
Y104134D02*
D03*
X188189Y226181D02*
D03*
Y229724D02*
D03*
X183465Y226181D02*
D03*
Y229724D02*
D03*
X192913Y226181D02*
D03*
Y229724D02*
D03*
X176378Y173031D02*
D03*
Y176575D02*
D03*
D99*
X236516Y154724D02*
D03*
Y168110D02*
D03*
Y173327D02*
D03*
Y186713D02*
D03*
D100*
X102953Y160039D02*
D03*
Y164370D02*
D03*
X107185Y160039D02*
D03*
Y164370D02*
D03*
D101*
X143898Y209154D02*
D03*
X151378D02*
D03*
D102*
X147638Y217913D02*
D03*
D103*
X145768Y203248D02*
D03*
X149311D02*
D03*
D104*
X149606Y199016D02*
D03*
X145669D02*
D03*
D105*
X126378Y221850D02*
D03*
X136378D02*
D03*
X161653Y105512D02*
D03*
X171653D02*
D03*
X181653D02*
D03*
X202362Y236221D02*
D03*
X212362D02*
D03*
X136614D02*
D03*
X126614D02*
D03*
X164075Y235827D02*
D03*
X174075D02*
D03*
D106*
X135925Y181299D02*
D03*
X130413D02*
D03*
D107*
X148031Y182973D02*
D03*
Y188484D02*
D03*
X142618Y188583D02*
D03*
Y194095D02*
D03*
X200000Y216929D02*
D03*
Y222441D02*
D03*
D108*
X128445Y194783D02*
D03*
Y191043D02*
D03*
Y187303D02*
D03*
X137894D02*
D03*
Y194783D02*
D03*
D109*
X168701Y132480D02*
D03*
X164370D02*
D03*
X132087Y138189D02*
D03*
X127756D02*
D03*
X132087Y142126D02*
D03*
X127756D02*
D03*
D110*
X220669Y161221D02*
D03*
Y169882D02*
D03*
X226969Y161221D02*
D03*
Y169882D02*
D03*
D111*
X161417Y125984D02*
D03*
Y113386D02*
D03*
X171653Y125984D02*
D03*
Y113386D02*
D03*
D112*
X205906Y154232D02*
D03*
Y156791D02*
D03*
Y159350D02*
D03*
Y161909D02*
D03*
Y164469D02*
D03*
Y167027D02*
D03*
Y169587D02*
D03*
Y172146D02*
D03*
Y174705D02*
D03*
Y177264D02*
D03*
Y179823D02*
D03*
Y182382D02*
D03*
Y184941D02*
D03*
Y187500D02*
D03*
X182283Y154232D02*
D03*
Y156791D02*
D03*
Y159350D02*
D03*
Y161909D02*
D03*
Y164469D02*
D03*
Y167027D02*
D03*
Y169587D02*
D03*
Y172146D02*
D03*
Y174705D02*
D03*
Y177264D02*
D03*
Y179823D02*
D03*
Y182382D02*
D03*
Y184941D02*
D03*
Y187500D02*
D03*
D113*
X194095Y170866D02*
D03*
D114*
X192913Y233760D02*
D03*
Y239469D02*
D03*
X188189Y233760D02*
D03*
Y239469D02*
D03*
D115*
X183465D02*
D03*
Y233760D02*
D03*
D116*
X147307Y226984D02*
D03*
X153606D02*
D03*
D117*
X150457Y238878D02*
D03*
Y232579D02*
D03*
X144095Y238878D02*
D03*
Y232579D02*
D03*
X156819Y238878D02*
D03*
Y232579D02*
D03*
D118*
X207480Y222835D02*
D03*
X210630D02*
D03*
D119*
X212106Y116437D02*
D03*
Y106437D02*
D03*
X127953Y116929D02*
D03*
Y106929D02*
D03*
X198622Y116535D02*
D03*
Y106535D02*
D03*
X141240Y116929D02*
D03*
Y106929D02*
D03*
D120*
X118602Y161516D02*
D03*
X126476Y157776D02*
D03*
Y165256D02*
D03*
D121*
X117028Y138386D02*
D03*
Y135827D02*
D03*
Y146063D02*
D03*
Y143504D02*
D03*
Y140945D02*
D03*
D122*
X106496Y145669D02*
D03*
Y136221D02*
D03*
D123*
X116142Y153543D02*
D03*
Y128347D02*
D03*
D124*
X206693Y218976D02*
D03*
X209055D02*
D03*
X211417D02*
D03*
Y211732D02*
D03*
X209055D02*
D03*
X206693D02*
D03*
D125*
X212677Y216535D02*
D03*
Y214173D02*
D03*
X205433D02*
D03*
Y216535D02*
D03*
D126*
X127165Y125984D02*
D03*
Y131890D02*
D03*
D127*
X172835Y173228D02*
D03*
Y176378D02*
D03*
X212992Y159055D02*
D03*
Y162205D02*
D03*
D128*
X171980Y164499D02*
D03*
X169753Y162272D02*
D03*
D129*
X127559Y149409D02*
D03*
X134449D02*
D03*
D130*
X221383Y141732D02*
D03*
Y137795D02*
D03*
X221432Y133858D02*
D03*
Y129921D02*
D03*
X221334Y198425D02*
D03*
Y202362D02*
D03*
X221285Y206299D02*
D03*
Y210236D02*
D03*
D131*
X236689Y146850D02*
D03*
Y124803D02*
D03*
X236591Y193307D02*
D03*
Y215354D02*
D03*
D132*
X122835Y208760D02*
D03*
D133*
X118996Y212402D02*
D03*
D134*
X114075Y211516D02*
D03*
D135*
X117047Y170276D02*
D03*
D136*
X107283Y174803D02*
D03*
Y179134D02*
D03*
Y183465D02*
D03*
Y187795D02*
D03*
Y192126D02*
D03*
Y196457D02*
D03*
Y200787D02*
D03*
Y205118D02*
D03*
D137*
X106496Y153937D02*
D03*
Y127953D02*
D03*
D138*
X231004Y110728D02*
D03*
X110925D02*
D03*
D139*
Y230807D02*
D03*
X231004D02*
D03*
M02*
