G04 Layer_Color=7318015*
%FSLAX25Y25*%
%MOIN*%
G70*
G01*
G75*
%ADD10R,0.06693X0.03740*%
%ADD11R,0.03543X0.03740*%
%ADD12R,0.03740X0.02559*%
%ADD13R,0.02165X0.01772*%
%ADD14R,0.06693X0.03150*%
%ADD15R,0.02953X0.02559*%
%ADD16R,0.03937X0.05906*%
%ADD17R,0.03937X0.06693*%
%ADD18R,0.01772X0.02165*%
%ADD19R,0.02165X0.02559*%
G04:AMPARAMS|DCode=20|XSize=70.87mil|YSize=70.87mil|CornerRadius=17.72mil|HoleSize=0mil|Usage=FLASHONLY|Rotation=0.000|XOffset=0mil|YOffset=0mil|HoleType=Round|Shape=RoundedRectangle|*
%AMROUNDEDRECTD20*
21,1,0.07087,0.03543,0,0,0.0*
21,1,0.03543,0.07087,0,0,0.0*
1,1,0.03543,0.01772,-0.01772*
1,1,0.03543,-0.01772,-0.01772*
1,1,0.03543,-0.01772,0.01772*
1,1,0.03543,0.01772,0.01772*
%
%ADD20ROUNDEDRECTD20*%
%ADD21R,0.02756X0.03543*%
%ADD22R,0.03543X0.02756*%
%ADD23R,0.03543X0.02559*%
%ADD24R,0.02559X0.02953*%
%ADD25R,0.04528X0.05512*%
%ADD26R,0.07480X0.05315*%
%ADD27O,0.07874X0.01575*%
%ADD28R,0.11811X0.21654*%
%ADD29R,0.03150X0.02362*%
%ADD30R,0.03150X0.02362*%
%ADD31R,0.03543X0.03937*%
%ADD32R,0.03937X0.03543*%
%ADD33R,0.02047X0.02047*%
G04:AMPARAMS|DCode=34|XSize=70.87mil|YSize=70.87mil|CornerRadius=17.72mil|HoleSize=0mil|Usage=FLASHONLY|Rotation=270.000|XOffset=0mil|YOffset=0mil|HoleType=Round|Shape=RoundedRectangle|*
%AMROUNDEDRECTD34*
21,1,0.07087,0.03543,0,0,270.0*
21,1,0.03543,0.07087,0,0,270.0*
1,1,0.03543,-0.01772,-0.01772*
1,1,0.03543,-0.01772,0.01772*
1,1,0.03543,0.01772,0.01772*
1,1,0.03543,0.01772,-0.01772*
%
%ADD34ROUNDEDRECTD34*%
%ADD36O,0.05315X0.01575*%
%ADD37R,0.07087X0.07480*%
G04:AMPARAMS|DCode=38|XSize=62.99mil|YSize=55.12mil|CornerRadius=13.78mil|HoleSize=0mil|Usage=FLASHONLY|Rotation=90.000|XOffset=0mil|YOffset=0mil|HoleType=Round|Shape=RoundedRectangle|*
%AMROUNDEDRECTD38*
21,1,0.06299,0.02756,0,0,90.0*
21,1,0.03543,0.05512,0,0,90.0*
1,1,0.02756,0.01378,0.01772*
1,1,0.02756,0.01378,-0.01772*
1,1,0.02756,-0.01378,-0.01772*
1,1,0.02756,-0.01378,0.01772*
%
%ADD38ROUNDEDRECTD38*%
%ADD39R,0.01378X0.01969*%
%ADD40R,0.01969X0.01378*%
G04:AMPARAMS|DCode=41|XSize=39.37mil|YSize=78.74mil|CornerRadius=9.84mil|HoleSize=0mil|Usage=FLASHONLY|Rotation=270.000|XOffset=0mil|YOffset=0mil|HoleType=Round|Shape=RoundedRectangle|*
%AMROUNDEDRECTD41*
21,1,0.03937,0.05906,0,0,270.0*
21,1,0.01969,0.07874,0,0,270.0*
1,1,0.01969,-0.02953,-0.00984*
1,1,0.01969,-0.02953,0.00984*
1,1,0.01969,0.02953,0.00984*
1,1,0.01969,0.02953,-0.00984*
%
%ADD41ROUNDEDRECTD41*%
%ADD42R,0.02047X0.02047*%
%ADD43P,0.02895X4X180.0*%
%ADD44R,0.04528X0.05315*%
%ADD45R,0.06102X0.02362*%
%ADD46R,0.07087X0.04724*%
%ADD47R,0.03347X0.03740*%
%ADD48R,0.02362X0.03937*%
%ADD49R,0.05512X0.05709*%
%ADD50R,0.14921X0.04724*%
%ADD51R,0.04921X0.02362*%
%ADD95R,0.02362X0.01969*%
D10*
X47736Y23819D02*
D03*
Y34449D02*
D03*
D11*
X75590Y123130D02*
D03*
X63189D02*
D03*
D12*
X63386Y116240D02*
D03*
Y108760D02*
D03*
X72441Y112500D02*
D03*
D13*
X58661Y110827D02*
D03*
Y114370D02*
D03*
X55413Y7776D02*
D03*
Y4232D02*
D03*
X88091Y126279D02*
D03*
Y129823D02*
D03*
X83366Y126279D02*
D03*
Y129823D02*
D03*
X92815Y126279D02*
D03*
Y129823D02*
D03*
X76279Y73130D02*
D03*
Y76673D02*
D03*
D14*
X136417Y54823D02*
D03*
Y68209D02*
D03*
Y73425D02*
D03*
Y86811D02*
D03*
D15*
X2854Y60138D02*
D03*
Y64468D02*
D03*
X7087Y60138D02*
D03*
Y64468D02*
D03*
D16*
X43799Y109252D02*
D03*
X51279D02*
D03*
D17*
X47539Y118012D02*
D03*
D18*
X45669Y103347D02*
D03*
X49213D02*
D03*
D19*
X49508Y99114D02*
D03*
X45571D02*
D03*
D20*
X26280Y121949D02*
D03*
X36279D02*
D03*
X61555Y5610D02*
D03*
X71555D02*
D03*
X81555D02*
D03*
X102264Y136319D02*
D03*
X112264D02*
D03*
X36516D02*
D03*
X26516D02*
D03*
X63976Y135925D02*
D03*
X73976D02*
D03*
D21*
X35827Y81398D02*
D03*
X30315D02*
D03*
D22*
X47933Y83071D02*
D03*
Y88583D02*
D03*
X42520Y88681D02*
D03*
Y94193D02*
D03*
X99902Y117028D02*
D03*
Y122539D02*
D03*
D23*
X28346Y94882D02*
D03*
Y91142D02*
D03*
Y87402D02*
D03*
X37795D02*
D03*
Y94882D02*
D03*
D24*
X68602Y32579D02*
D03*
X64272D02*
D03*
X31988Y38287D02*
D03*
X27657D02*
D03*
X31988Y42224D02*
D03*
X27657D02*
D03*
D25*
X120571Y61319D02*
D03*
Y69980D02*
D03*
X126870Y61319D02*
D03*
Y69980D02*
D03*
D26*
X61319Y26083D02*
D03*
Y13484D02*
D03*
X71555Y26083D02*
D03*
Y13484D02*
D03*
D27*
X105807Y54331D02*
D03*
Y56890D02*
D03*
Y59449D02*
D03*
Y62008D02*
D03*
Y64567D02*
D03*
Y67126D02*
D03*
Y69685D02*
D03*
Y72244D02*
D03*
Y74803D02*
D03*
Y77362D02*
D03*
Y79921D02*
D03*
Y82480D02*
D03*
Y85039D02*
D03*
Y87599D02*
D03*
X82185Y54331D02*
D03*
Y56890D02*
D03*
Y59449D02*
D03*
Y62008D02*
D03*
Y64567D02*
D03*
Y67126D02*
D03*
Y69685D02*
D03*
Y72244D02*
D03*
Y74803D02*
D03*
Y77362D02*
D03*
Y79921D02*
D03*
Y82480D02*
D03*
Y85039D02*
D03*
Y87599D02*
D03*
D28*
X93996Y70965D02*
D03*
D29*
X92815Y133858D02*
D03*
Y139567D02*
D03*
X88091Y133858D02*
D03*
Y139567D02*
D03*
D30*
X83366D02*
D03*
Y133858D02*
D03*
D31*
X47209Y127083D02*
D03*
X53508D02*
D03*
D32*
X50358Y138976D02*
D03*
Y132677D02*
D03*
X43996Y138976D02*
D03*
Y132677D02*
D03*
X56721Y138976D02*
D03*
Y132677D02*
D03*
D33*
X107382Y122933D02*
D03*
X110531D02*
D03*
D34*
X112008Y16535D02*
D03*
Y6535D02*
D03*
X27854Y17028D02*
D03*
Y7028D02*
D03*
X98524Y16634D02*
D03*
Y6634D02*
D03*
X41142Y17028D02*
D03*
Y7028D02*
D03*
D36*
X16929Y38484D02*
D03*
Y35925D02*
D03*
Y46161D02*
D03*
Y43602D02*
D03*
Y41043D02*
D03*
D37*
X6398Y45768D02*
D03*
Y36319D02*
D03*
D38*
X16043Y53642D02*
D03*
Y28445D02*
D03*
D39*
X106595Y119074D02*
D03*
X108957D02*
D03*
X111319D02*
D03*
Y111830D02*
D03*
X108957D02*
D03*
X106595D02*
D03*
D40*
X112579Y116633D02*
D03*
Y114271D02*
D03*
X105335D02*
D03*
Y116633D02*
D03*
D41*
X27067Y26083D02*
D03*
Y31988D02*
D03*
D42*
X72736Y73327D02*
D03*
Y76476D02*
D03*
X112894Y59153D02*
D03*
Y62303D02*
D03*
D43*
X71881Y64598D02*
D03*
X69654Y62371D02*
D03*
D44*
X27461Y49508D02*
D03*
X34350D02*
D03*
D45*
X121284Y41831D02*
D03*
Y37894D02*
D03*
X121334Y33957D02*
D03*
Y30020D02*
D03*
X121235Y98524D02*
D03*
Y102461D02*
D03*
X121186Y106398D02*
D03*
Y110335D02*
D03*
D46*
X136591Y46949D02*
D03*
Y24902D02*
D03*
X136492Y93405D02*
D03*
Y115453D02*
D03*
D47*
X22736Y108858D02*
D03*
D48*
X18898Y112500D02*
D03*
D49*
X13976Y111614D02*
D03*
D50*
X16949Y70374D02*
D03*
D51*
X7185Y74902D02*
D03*
Y79232D02*
D03*
Y83563D02*
D03*
Y87894D02*
D03*
Y92224D02*
D03*
Y96555D02*
D03*
Y100886D02*
D03*
Y105217D02*
D03*
D95*
X18504Y61614D02*
D03*
X26378Y57874D02*
D03*
Y65354D02*
D03*
M02*
