G04 Layer_Color=20142*
%FSLAX25Y25*%
%MOIN*%
G70*
G01*
G75*
G04:AMPARAMS|DCode=95|XSize=78.87mil|YSize=78.87mil|CornerRadius=21.72mil|HoleSize=0mil|Usage=FLASHONLY|Rotation=0.000|XOffset=0mil|YOffset=0mil|HoleType=Round|Shape=RoundedRectangle|*
%AMROUNDEDRECTD95*
21,1,0.07887,0.03543,0,0,0.0*
21,1,0.03543,0.07887,0,0,0.0*
1,1,0.04343,0.01772,-0.01772*
1,1,0.04343,-0.01772,-0.01772*
1,1,0.04343,-0.01772,0.01772*
1,1,0.04343,0.01772,0.01772*
%
%ADD95ROUNDEDRECTD95*%
%ADD96R,0.05721X0.03162*%
%ADD97R,0.15721X0.05524*%
%ADD98R,0.06312X0.06509*%
%ADD99R,0.03162X0.04737*%
%ADD100R,0.04147X0.04540*%
%ADD101R,0.06902X0.03162*%
%ADD102R,0.07887X0.05524*%
%ADD103R,0.05328X0.06115*%
%ADD104R,0.02965X0.02572*%
%ADD105R,0.02847X0.02847*%
%ADD106P,0.04027X4X180.0*%
G04:AMPARAMS|DCode=107|XSize=47.37mil|YSize=86.74mil|CornerRadius=13.84mil|HoleSize=0mil|Usage=FLASHONLY|Rotation=270.000|XOffset=0mil|YOffset=0mil|HoleType=Round|Shape=RoundedRectangle|*
%AMROUNDEDRECTD107*
21,1,0.04737,0.05906,0,0,270.0*
21,1,0.01969,0.08674,0,0,270.0*
1,1,0.02769,-0.02953,-0.00984*
1,1,0.02769,-0.02953,0.00984*
1,1,0.02769,0.02953,0.00984*
1,1,0.02769,0.02953,-0.00984*
%
%ADD107ROUNDEDRECTD107*%
%ADD108R,0.02769X0.02178*%
%ADD109R,0.02178X0.02769*%
%ADD110R,0.07887X0.08280*%
G04:AMPARAMS|DCode=111|XSize=70.99mil|YSize=63.12mil|CornerRadius=17.78mil|HoleSize=0mil|Usage=FLASHONLY|Rotation=270.000|XOffset=0mil|YOffset=0mil|HoleType=Round|Shape=RoundedRectangle|*
%AMROUNDEDRECTD111*
21,1,0.07099,0.02756,0,0,270.0*
21,1,0.03543,0.06312,0,0,270.0*
1,1,0.03556,-0.01378,-0.01772*
1,1,0.03556,-0.01378,0.01772*
1,1,0.03556,0.01378,0.01772*
1,1,0.03556,0.01378,-0.01772*
%
%ADD111ROUNDEDRECTD111*%
%ADD112O,0.06115X0.02375*%
%ADD113R,0.03556X0.03162*%
G04:AMPARAMS|DCode=114|XSize=78.87mil|YSize=78.87mil|CornerRadius=21.72mil|HoleSize=0mil|Usage=FLASHONLY|Rotation=270.000|XOffset=0mil|YOffset=0mil|HoleType=Round|Shape=RoundedRectangle|*
%AMROUNDEDRECTD114*
21,1,0.07887,0.03543,0,0,270.0*
21,1,0.03543,0.07887,0,0,270.0*
1,1,0.04343,-0.01772,-0.01772*
1,1,0.04343,-0.01772,0.01772*
1,1,0.04343,0.01772,0.01772*
1,1,0.04343,0.01772,-0.01772*
%
%ADD114ROUNDEDRECTD114*%
%ADD115R,0.04343X0.03556*%
%ADD116R,0.02847X0.02847*%
%ADD117R,0.04737X0.04343*%
%ADD118R,0.04343X0.04737*%
%ADD119R,0.03950X0.03162*%
%ADD120R,0.03950X0.03162*%
%ADD121R,0.03359X0.03753*%
%ADD122R,0.12611X0.22453*%
%ADD123O,0.08674X0.02375*%
%ADD124R,0.08280X0.06115*%
%ADD125R,0.05328X0.06312*%
%ADD126R,0.07493X0.03950*%
%ADD127R,0.04343X0.03359*%
%ADD128R,0.03556X0.04343*%
%ADD129R,0.02965X0.03359*%
%ADD130R,0.02572X0.02965*%
%ADD131R,0.04737X0.07493*%
%ADD132R,0.04737X0.06706*%
%ADD133R,0.03753X0.03359*%
%ADD134R,0.04540X0.03359*%
%ADD135R,0.04343X0.04540*%
%ADD136R,0.07493X0.04540*%
%ADD137C,0.18517*%
%ADD138C,0.19501*%
%ADD139O,0.07099X0.04343*%
%ADD140C,0.02769*%
G36*
X176531Y196015D02*
X176584D01*
Y195961D01*
Y195908D01*
Y195855D01*
X176638D01*
Y195802D01*
Y195749D01*
Y195695D01*
X176691D01*
Y195642D01*
Y195589D01*
X176744D01*
Y195536D01*
Y195483D01*
Y195430D01*
X176797D01*
Y195376D01*
Y195323D01*
Y195270D01*
X176850D01*
Y195217D01*
Y195164D01*
Y195110D01*
Y195057D01*
X176903D01*
Y195004D01*
Y194951D01*
Y194898D01*
X176957D01*
Y194844D01*
Y194791D01*
Y194738D01*
Y194685D01*
X177010D01*
Y194632D01*
Y194578D01*
Y194525D01*
Y194472D01*
X177063D01*
Y194419D01*
Y194366D01*
Y194312D01*
Y194259D01*
Y194206D01*
X177116D01*
Y194153D01*
Y194100D01*
Y194046D01*
Y193993D01*
Y193940D01*
Y193887D01*
X177170D01*
Y193834D01*
Y193781D01*
Y193727D01*
Y193674D01*
Y193621D01*
Y193568D01*
Y193515D01*
Y193461D01*
X177223D01*
Y193408D01*
Y193355D01*
Y193302D01*
Y193248D01*
Y193195D01*
Y193142D01*
Y193089D01*
Y193036D01*
Y192982D01*
Y192929D01*
Y192876D01*
Y192823D01*
Y192770D01*
Y192717D01*
Y192663D01*
Y192610D01*
Y192557D01*
Y192504D01*
Y192451D01*
Y192397D01*
Y192344D01*
Y192291D01*
Y192238D01*
Y192185D01*
Y192131D01*
Y192078D01*
Y192025D01*
Y191972D01*
Y191919D01*
Y191865D01*
Y191812D01*
X177170D01*
Y191759D01*
Y191706D01*
Y191653D01*
Y191599D01*
Y191546D01*
Y191493D01*
Y191440D01*
X177116D01*
Y191387D01*
Y191333D01*
Y191280D01*
Y191227D01*
Y191174D01*
Y191121D01*
X177063D01*
Y191068D01*
Y191014D01*
Y190961D01*
Y190908D01*
X177010D01*
Y190855D01*
Y190802D01*
Y190748D01*
Y190695D01*
X176957D01*
Y190642D01*
Y190589D01*
Y190535D01*
Y190482D01*
X176903D01*
Y190429D01*
Y190376D01*
Y190323D01*
X176850D01*
Y190269D01*
Y190216D01*
Y190163D01*
X176797D01*
Y190110D01*
Y190057D01*
Y190004D01*
X176744D01*
Y189950D01*
Y189897D01*
Y189844D01*
X176691D01*
Y189791D01*
Y189738D01*
X176638D01*
Y189684D01*
Y189631D01*
Y189578D01*
X176584D01*
Y189525D01*
Y189472D01*
X176531D01*
Y189418D01*
Y189365D01*
X176478D01*
Y189312D01*
Y189259D01*
X176425D01*
Y189206D01*
Y189152D01*
X176372D01*
Y189099D01*
Y189046D01*
X176318D01*
Y188993D01*
Y188940D01*
X176265D01*
Y188886D01*
Y188833D01*
X176212D01*
Y188780D01*
Y188727D01*
X176159D01*
Y188674D01*
X176106D01*
Y188620D01*
Y188567D01*
X176052D01*
Y188514D01*
Y188461D01*
X175999D01*
Y188408D01*
Y188355D01*
X175946D01*
Y188301D01*
X175893D01*
Y188248D01*
Y188195D01*
X175840D01*
Y188142D01*
X175786D01*
Y188089D01*
Y188035D01*
X175733D01*
Y187982D01*
X175680D01*
Y187929D01*
X175627D01*
Y187876D01*
Y187822D01*
X175574D01*
Y187769D01*
X175520D01*
Y187716D01*
X175467D01*
Y187663D01*
X175414D01*
Y187610D01*
Y187557D01*
X175361D01*
Y187503D01*
X175308D01*
Y187450D01*
X175254D01*
Y187397D01*
X175201D01*
Y187344D01*
X175148D01*
Y187291D01*
X175095D01*
Y187237D01*
X175042D01*
Y187184D01*
Y187131D01*
X174988D01*
Y187078D01*
X174935D01*
Y187024D01*
X174882D01*
Y186971D01*
X174829D01*
Y186918D01*
X174723D01*
Y186865D01*
X174669D01*
Y186812D01*
X174616D01*
Y186759D01*
X174563D01*
Y186705D01*
X174510D01*
Y186652D01*
X174457D01*
Y186599D01*
X174403D01*
Y186546D01*
X174350D01*
Y186493D01*
X174244D01*
Y186439D01*
X174190D01*
Y186386D01*
X174137D01*
Y186333D01*
X174031D01*
Y186280D01*
X173978D01*
Y186227D01*
X173925D01*
Y186173D01*
X173818D01*
Y186120D01*
X173765D01*
Y186067D01*
X173659D01*
Y186014D01*
X173605D01*
Y185961D01*
X173499D01*
Y185907D01*
X173446D01*
Y185854D01*
X173339D01*
Y185801D01*
X173233D01*
Y185748D01*
X173180D01*
Y185695D01*
X173073D01*
Y185642D01*
X172967D01*
Y185588D01*
X172861D01*
Y185535D01*
X172754D01*
Y185482D01*
X172648D01*
Y185429D01*
X172541D01*
Y185375D01*
X172435D01*
Y185322D01*
X172275D01*
Y185269D01*
X172169D01*
Y185216D01*
X172010D01*
Y185163D01*
X171850D01*
Y185109D01*
X171690D01*
Y185056D01*
X171531D01*
Y185003D01*
X171371D01*
Y184950D01*
X171158D01*
Y184897D01*
X170892D01*
Y184844D01*
X170520D01*
Y184790D01*
X169988D01*
Y184844D01*
Y184897D01*
Y184950D01*
Y185003D01*
Y185056D01*
Y185109D01*
Y185163D01*
Y185216D01*
Y185269D01*
X170041D01*
Y185322D01*
Y185375D01*
Y185429D01*
Y185482D01*
Y185535D01*
Y185588D01*
Y185642D01*
Y185695D01*
Y185748D01*
X170094D01*
Y185801D01*
X170148D01*
Y185854D01*
X170307D01*
Y185907D01*
X170573D01*
Y185961D01*
X170839D01*
Y186014D01*
X171052D01*
Y186067D01*
X171212D01*
Y186120D01*
X171371D01*
Y186173D01*
X171531D01*
Y186227D01*
X171690D01*
Y186280D01*
X171850D01*
Y186333D01*
X171956D01*
Y186386D01*
X172116D01*
Y186439D01*
X172222D01*
Y186493D01*
X172329D01*
Y186546D01*
X172435D01*
Y186599D01*
X172541D01*
Y186652D01*
X172648D01*
Y186705D01*
X172701D01*
Y186759D01*
X172807D01*
Y186812D01*
X172914D01*
Y186865D01*
X172967D01*
Y186918D01*
X173073D01*
Y186971D01*
X173127D01*
Y187024D01*
X173233D01*
Y187078D01*
X173286D01*
Y187131D01*
X173339D01*
Y187184D01*
X173446D01*
Y187237D01*
X173499D01*
Y187291D01*
X173552D01*
Y187344D01*
X173605D01*
Y187397D01*
X173712D01*
Y187450D01*
X173765D01*
Y187503D01*
X173818D01*
Y187557D01*
X173871D01*
Y187610D01*
X173925D01*
Y187663D01*
X173978D01*
Y187716D01*
X174031D01*
Y187769D01*
X174084D01*
Y187822D01*
X174137D01*
Y187876D01*
X174190D01*
Y187929D01*
X174244D01*
Y187982D01*
X174297D01*
Y188035D01*
X174350D01*
Y188089D01*
X174403D01*
Y188142D01*
X174457D01*
Y188195D01*
Y188248D01*
X174510D01*
Y188301D01*
X174563D01*
Y188355D01*
X174616D01*
Y188408D01*
X174669D01*
Y188461D01*
Y188514D01*
X174723D01*
Y188567D01*
X174776D01*
Y188620D01*
X174829D01*
Y188674D01*
Y188727D01*
X174882D01*
Y188780D01*
X174935D01*
Y188833D01*
Y188886D01*
X174988D01*
Y188940D01*
X175042D01*
Y188993D01*
Y189046D01*
X175095D01*
Y189099D01*
X175148D01*
Y189152D01*
Y189206D01*
X175201D01*
Y189259D01*
Y189312D01*
X175254D01*
Y189365D01*
Y189418D01*
X175308D01*
Y189472D01*
X175361D01*
Y189525D01*
Y189578D01*
X175414D01*
Y189631D01*
Y189684D01*
X175467D01*
Y189738D01*
Y189791D01*
X175520D01*
Y189844D01*
Y189897D01*
X175574D01*
Y189950D01*
Y190004D01*
Y190057D01*
X175627D01*
Y190110D01*
Y190163D01*
X175680D01*
Y190216D01*
Y190269D01*
X175733D01*
Y190323D01*
Y190376D01*
Y190429D01*
X175786D01*
Y190482D01*
Y190535D01*
Y190589D01*
X175840D01*
Y190642D01*
Y190695D01*
Y190748D01*
X175893D01*
Y190802D01*
Y190855D01*
Y190908D01*
X175946D01*
Y190961D01*
Y191014D01*
Y191068D01*
Y191121D01*
X175999D01*
Y191174D01*
Y191227D01*
Y191280D01*
Y191333D01*
Y191387D01*
X176052D01*
Y191440D01*
Y191493D01*
Y191546D01*
Y191599D01*
Y191653D01*
X176106D01*
Y191706D01*
Y191759D01*
Y191812D01*
Y191865D01*
Y191919D01*
Y191972D01*
Y192025D01*
Y192078D01*
X176159D01*
Y192131D01*
Y192185D01*
Y192238D01*
Y192291D01*
Y192344D01*
Y192397D01*
Y192451D01*
Y192504D01*
Y192557D01*
Y192610D01*
Y192663D01*
Y192717D01*
Y192770D01*
Y192823D01*
Y192876D01*
Y192929D01*
Y192982D01*
Y193036D01*
Y193089D01*
Y193142D01*
Y193195D01*
Y193248D01*
X176106D01*
Y193302D01*
Y193355D01*
Y193408D01*
Y193461D01*
Y193515D01*
Y193568D01*
Y193621D01*
Y193674D01*
X176052D01*
Y193727D01*
Y193781D01*
Y193834D01*
Y193887D01*
Y193940D01*
Y193993D01*
X175999D01*
Y194046D01*
Y194100D01*
Y194153D01*
Y194206D01*
X175946D01*
Y194259D01*
Y194312D01*
Y194366D01*
Y194419D01*
X175893D01*
Y194472D01*
Y194525D01*
Y194578D01*
Y194632D01*
X175840D01*
Y194685D01*
Y194738D01*
Y194791D01*
X175786D01*
Y194844D01*
Y194898D01*
Y194951D01*
X175733D01*
Y195004D01*
Y195057D01*
Y195110D01*
X175680D01*
Y195164D01*
Y195217D01*
Y195270D01*
X175627D01*
Y195323D01*
Y195376D01*
Y195430D01*
Y195483D01*
X175680D01*
Y195536D01*
X175786D01*
Y195589D01*
X175840D01*
Y195642D01*
X175893D01*
Y195695D01*
X175999D01*
Y195749D01*
X176052D01*
Y195802D01*
X176159D01*
Y195855D01*
X176212D01*
Y195908D01*
X176265D01*
Y195961D01*
X176372D01*
Y196015D01*
X176425D01*
Y196068D01*
X176531D01*
Y196015D01*
D02*
G37*
G36*
X172914Y193621D02*
X173073D01*
Y193568D01*
X173286D01*
Y193515D01*
X173499D01*
Y193461D01*
X173712D01*
Y193408D01*
X173871D01*
Y193355D01*
X174084D01*
Y193302D01*
X174244D01*
Y193248D01*
X174403D01*
Y193195D01*
X174457D01*
Y193142D01*
X174510D01*
Y193089D01*
Y193036D01*
Y192982D01*
Y192929D01*
Y192876D01*
Y192823D01*
Y192770D01*
Y192717D01*
Y192663D01*
Y192610D01*
Y192557D01*
Y192504D01*
Y192451D01*
Y192397D01*
Y192344D01*
Y192291D01*
Y192238D01*
Y192185D01*
Y192131D01*
Y192078D01*
Y192025D01*
Y191972D01*
Y191919D01*
Y191865D01*
Y191812D01*
Y191759D01*
Y191706D01*
Y191653D01*
X174297D01*
Y191599D01*
X173925D01*
Y191546D01*
X173552D01*
Y191493D01*
Y191440D01*
Y191387D01*
Y191333D01*
Y191280D01*
X173605D01*
Y191227D01*
Y191174D01*
Y191121D01*
Y191068D01*
Y191014D01*
Y190961D01*
Y190908D01*
Y190855D01*
Y190802D01*
Y190748D01*
Y190695D01*
Y190642D01*
Y190589D01*
Y190535D01*
Y190482D01*
Y190429D01*
Y190376D01*
Y190323D01*
Y190269D01*
Y190216D01*
Y190163D01*
Y190110D01*
X173659D01*
Y190057D01*
Y190004D01*
Y189950D01*
Y189897D01*
Y189844D01*
Y189791D01*
Y189738D01*
Y189684D01*
Y189631D01*
Y189578D01*
Y189525D01*
Y189472D01*
Y189418D01*
Y189365D01*
Y189312D01*
X173605D01*
Y189259D01*
Y189206D01*
Y189152D01*
Y189099D01*
Y189046D01*
X173552D01*
Y188993D01*
Y188940D01*
X173499D01*
Y188886D01*
Y188833D01*
X173446D01*
Y188780D01*
Y188727D01*
X173393D01*
Y188674D01*
Y188620D01*
X173339D01*
Y188567D01*
X173286D01*
Y188514D01*
Y188461D01*
X173233D01*
Y188408D01*
X173180D01*
Y188355D01*
X173127D01*
Y188301D01*
X173073D01*
Y188248D01*
X173020D01*
Y188195D01*
X172967D01*
Y188142D01*
X172914D01*
Y188089D01*
X172861D01*
Y188035D01*
X172807D01*
Y187982D01*
X172754D01*
Y187929D01*
X172701D01*
Y187876D01*
X172648D01*
Y187822D01*
X172595D01*
Y187769D01*
X172541D01*
Y187716D01*
Y187663D01*
X172488D01*
Y187610D01*
X172435D01*
Y187557D01*
X172382D01*
Y187503D01*
X172329D01*
Y187450D01*
X172275D01*
Y187397D01*
X172222D01*
Y187344D01*
X172169D01*
Y187291D01*
X172116D01*
Y187237D01*
X172063D01*
Y187184D01*
X172010D01*
Y187131D01*
X171956D01*
Y187078D01*
X171903D01*
Y187024D01*
X171850D01*
Y186971D01*
X171797D01*
Y186918D01*
X171744D01*
Y186865D01*
X171637D01*
Y186812D01*
X171531D01*
Y186759D01*
X171424D01*
Y186705D01*
X167062D01*
Y186759D01*
X166903D01*
Y186812D01*
X166796D01*
Y186865D01*
X166690D01*
Y186918D01*
X166637D01*
Y186971D01*
X166584D01*
Y187024D01*
X166530D01*
Y187078D01*
X166477D01*
Y187131D01*
X166424D01*
Y187184D01*
X166371D01*
Y187237D01*
X166317D01*
Y187291D01*
X166264D01*
Y187344D01*
Y187397D01*
X166211D01*
Y187450D01*
X166158D01*
Y187503D01*
X166105D01*
Y187557D01*
X166051D01*
Y187610D01*
X165998D01*
Y187663D01*
X165945D01*
Y187716D01*
X165892D01*
Y187769D01*
X165839D01*
Y187822D01*
X165786D01*
Y187876D01*
X165732D01*
Y187929D01*
X165679D01*
Y187982D01*
X165626D01*
Y188035D01*
X165573D01*
Y188089D01*
X165520D01*
Y188142D01*
X165466D01*
Y188195D01*
X165413D01*
Y188248D01*
X165360D01*
Y188301D01*
Y188355D01*
X165307D01*
Y188408D01*
X165254D01*
Y188461D01*
X165200D01*
Y188514D01*
X165147D01*
Y188567D01*
X165094D01*
Y188620D01*
Y188674D01*
X165041D01*
Y188727D01*
Y188780D01*
X164988D01*
Y188833D01*
X164934D01*
Y188886D01*
Y188940D01*
Y188993D01*
X164881D01*
Y189046D01*
Y189099D01*
Y189152D01*
X164828D01*
Y189206D01*
Y189259D01*
Y189312D01*
Y189365D01*
Y189418D01*
Y189472D01*
Y189525D01*
X164775D01*
Y189578D01*
Y189631D01*
Y189684D01*
Y189738D01*
Y189791D01*
X164828D01*
Y189844D01*
Y189897D01*
Y189950D01*
Y190004D01*
Y190057D01*
Y190110D01*
Y190163D01*
Y190216D01*
Y190269D01*
Y190323D01*
Y190376D01*
Y190429D01*
Y190482D01*
Y190535D01*
Y190589D01*
Y190642D01*
Y190695D01*
Y190748D01*
Y190802D01*
X164881D01*
Y190855D01*
Y190908D01*
Y190961D01*
Y191014D01*
Y191068D01*
Y191121D01*
Y191174D01*
Y191227D01*
Y191280D01*
Y191333D01*
Y191387D01*
Y191440D01*
Y191493D01*
Y191546D01*
X164668D01*
Y191599D01*
X164296D01*
Y191653D01*
X163977D01*
Y191706D01*
Y191759D01*
Y191812D01*
Y191865D01*
Y191919D01*
Y191972D01*
Y192025D01*
Y192078D01*
Y192131D01*
Y192185D01*
Y192238D01*
Y192291D01*
Y192344D01*
Y192397D01*
Y192451D01*
Y192504D01*
Y192557D01*
Y192610D01*
Y192663D01*
Y192717D01*
Y192770D01*
Y192823D01*
Y192876D01*
Y192929D01*
Y192982D01*
Y193036D01*
X164030D01*
Y193089D01*
Y193142D01*
X164083D01*
Y193195D01*
X164137D01*
Y193248D01*
X164243D01*
Y193302D01*
X164456D01*
Y193355D01*
X164615D01*
Y193408D01*
X164775D01*
Y193461D01*
X164988D01*
Y193515D01*
X165200D01*
Y193568D01*
X165360D01*
Y193621D01*
X165573D01*
Y193674D01*
X165626D01*
Y193621D01*
Y193568D01*
Y193515D01*
Y193461D01*
Y193408D01*
Y193355D01*
Y193302D01*
Y193248D01*
Y193195D01*
Y193142D01*
Y193089D01*
Y193036D01*
Y192982D01*
Y192929D01*
Y192876D01*
Y192823D01*
Y192770D01*
Y192717D01*
Y192663D01*
Y192610D01*
Y192557D01*
Y192504D01*
Y192451D01*
Y192397D01*
X165679D01*
Y192344D01*
Y192291D01*
X165732D01*
Y192238D01*
X165786D01*
Y192185D01*
X165998D01*
Y192238D01*
X166211D01*
Y192291D01*
X166424D01*
Y192344D01*
X166637D01*
Y192397D01*
X166850D01*
Y192451D01*
X167062D01*
Y192504D01*
X167275D01*
Y192557D01*
X167488D01*
Y192610D01*
X167701D01*
Y192663D01*
X167913D01*
Y192717D01*
X168126D01*
Y192770D01*
X168339D01*
Y192823D01*
X168605D01*
Y192876D01*
X169084D01*
Y192929D01*
X169456D01*
Y192876D01*
X169935D01*
Y192823D01*
X170201D01*
Y192770D01*
X170360D01*
Y192717D01*
X170573D01*
Y192663D01*
X170786D01*
Y192610D01*
X170999D01*
Y192557D01*
X171212D01*
Y192504D01*
X171424D01*
Y192451D01*
X171584D01*
Y192397D01*
X171797D01*
Y192344D01*
X172010D01*
Y192291D01*
X172222D01*
Y192238D01*
X172435D01*
Y192185D01*
X172648D01*
Y192238D01*
X172754D01*
Y192291D01*
Y192344D01*
X172807D01*
Y192397D01*
Y192451D01*
Y192504D01*
Y192557D01*
Y192610D01*
Y192663D01*
Y192717D01*
Y192770D01*
Y192823D01*
Y192876D01*
Y192929D01*
Y192982D01*
Y193036D01*
Y193089D01*
Y193142D01*
Y193195D01*
Y193248D01*
Y193302D01*
Y193355D01*
Y193408D01*
Y193461D01*
Y193515D01*
Y193568D01*
Y193621D01*
Y193674D01*
X172914D01*
Y193621D01*
D02*
G37*
G36*
X162009Y196015D02*
X162115D01*
Y195961D01*
X162168D01*
Y195908D01*
X162275D01*
Y195855D01*
X162328D01*
Y195802D01*
X162381D01*
Y195749D01*
X162487D01*
Y195695D01*
X162541D01*
Y195642D01*
X162647D01*
Y195589D01*
X162700D01*
Y195536D01*
X162753D01*
Y195483D01*
X162806D01*
Y195430D01*
X162860D01*
Y195376D01*
X162806D01*
Y195323D01*
Y195270D01*
Y195217D01*
X162753D01*
Y195164D01*
Y195110D01*
Y195057D01*
X162700D01*
Y195004D01*
Y194951D01*
Y194898D01*
X162647D01*
Y194844D01*
Y194791D01*
Y194738D01*
X162594D01*
Y194685D01*
Y194632D01*
Y194578D01*
X162541D01*
Y194525D01*
Y194472D01*
Y194419D01*
Y194366D01*
X162487D01*
Y194312D01*
Y194259D01*
Y194206D01*
Y194153D01*
X162434D01*
Y194100D01*
Y194046D01*
Y193993D01*
Y193940D01*
Y193887D01*
X162381D01*
Y193834D01*
Y193781D01*
Y193727D01*
Y193674D01*
Y193621D01*
Y193568D01*
Y193515D01*
X162328D01*
Y193461D01*
Y193408D01*
Y193355D01*
Y193302D01*
Y193248D01*
Y193195D01*
Y193142D01*
Y193089D01*
Y193036D01*
Y192982D01*
Y192929D01*
Y192876D01*
Y192823D01*
Y192770D01*
Y192717D01*
Y192663D01*
Y192610D01*
Y192557D01*
Y192504D01*
Y192451D01*
Y192397D01*
Y192344D01*
Y192291D01*
Y192238D01*
Y192185D01*
Y192131D01*
Y192078D01*
Y192025D01*
Y191972D01*
Y191919D01*
Y191865D01*
X162381D01*
Y191812D01*
Y191759D01*
Y191706D01*
Y191653D01*
Y191599D01*
Y191546D01*
Y191493D01*
X162434D01*
Y191440D01*
Y191387D01*
Y191333D01*
Y191280D01*
Y191227D01*
X162487D01*
Y191174D01*
Y191121D01*
Y191068D01*
Y191014D01*
X162541D01*
Y190961D01*
Y190908D01*
Y190855D01*
X162594D01*
Y190802D01*
Y190748D01*
Y190695D01*
Y190642D01*
X162647D01*
Y190589D01*
Y190535D01*
Y190482D01*
X162700D01*
Y190429D01*
Y190376D01*
Y190323D01*
X162753D01*
Y190269D01*
Y190216D01*
X162806D01*
Y190163D01*
Y190110D01*
Y190057D01*
X162860D01*
Y190004D01*
Y189950D01*
X162913D01*
Y189897D01*
Y189844D01*
X162966D01*
Y189791D01*
Y189738D01*
X163019D01*
Y189684D01*
Y189631D01*
X163073D01*
Y189578D01*
Y189525D01*
X163126D01*
Y189472D01*
Y189418D01*
X163179D01*
Y189365D01*
Y189312D01*
X163232D01*
Y189259D01*
Y189206D01*
X163285D01*
Y189152D01*
X163338D01*
Y189099D01*
Y189046D01*
X163392D01*
Y188993D01*
X163445D01*
Y188940D01*
Y188886D01*
X163498D01*
Y188833D01*
X163551D01*
Y188780D01*
Y188727D01*
X163604D01*
Y188674D01*
X163658D01*
Y188620D01*
Y188567D01*
X163711D01*
Y188514D01*
X163764D01*
Y188461D01*
X163817D01*
Y188408D01*
X163871D01*
Y188355D01*
Y188301D01*
X163924D01*
Y188248D01*
X163977D01*
Y188195D01*
X164030D01*
Y188142D01*
X164083D01*
Y188089D01*
X164137D01*
Y188035D01*
X164190D01*
Y187982D01*
Y187929D01*
X164243D01*
Y187876D01*
X164296D01*
Y187822D01*
X164349D01*
Y187769D01*
X164402D01*
Y187716D01*
X164456D01*
Y187663D01*
X164562D01*
Y187610D01*
X164615D01*
Y187557D01*
X164668D01*
Y187503D01*
X164722D01*
Y187450D01*
X164775D01*
Y187397D01*
X164828D01*
Y187344D01*
X164881D01*
Y187291D01*
X164988D01*
Y187237D01*
X165041D01*
Y187184D01*
X165094D01*
Y187131D01*
X165200D01*
Y187078D01*
X165254D01*
Y187024D01*
X165360D01*
Y186971D01*
X165413D01*
Y186918D01*
X165520D01*
Y186865D01*
X165573D01*
Y186812D01*
X165679D01*
Y186759D01*
X165732D01*
Y186705D01*
X165839D01*
Y186652D01*
X165945D01*
Y186599D01*
X166051D01*
Y186546D01*
X166158D01*
Y186493D01*
X166264D01*
Y186439D01*
X166371D01*
Y186386D01*
X166477D01*
Y186333D01*
X166584D01*
Y186280D01*
X166743D01*
Y186227D01*
X166903D01*
Y186173D01*
X167062D01*
Y186120D01*
X167222D01*
Y186067D01*
X167381D01*
Y186014D01*
X167594D01*
Y185961D01*
X167860D01*
Y185907D01*
X168126D01*
Y185854D01*
X168286D01*
Y185801D01*
X168339D01*
Y185748D01*
X168392D01*
Y185695D01*
Y185642D01*
X168445D01*
Y185588D01*
Y185535D01*
Y185482D01*
Y185429D01*
Y185375D01*
Y185322D01*
Y185269D01*
Y185216D01*
Y185163D01*
Y185109D01*
Y185056D01*
X168499D01*
Y185003D01*
Y184950D01*
Y184897D01*
Y184844D01*
Y184790D01*
Y184737D01*
X168126D01*
Y184790D01*
X167860D01*
Y184844D01*
X167594D01*
Y184897D01*
X167328D01*
Y184950D01*
X167169D01*
Y185003D01*
X166956D01*
Y185056D01*
X166796D01*
Y185109D01*
X166637D01*
Y185163D01*
X166477D01*
Y185216D01*
X166317D01*
Y185269D01*
X166158D01*
Y185322D01*
X166051D01*
Y185375D01*
X165945D01*
Y185429D01*
X165786D01*
Y185482D01*
X165679D01*
Y185535D01*
X165573D01*
Y185588D01*
X165466D01*
Y185642D01*
X165360D01*
Y185695D01*
X165254D01*
Y185748D01*
X165200D01*
Y185801D01*
X165094D01*
Y185854D01*
X164988D01*
Y185907D01*
X164934D01*
Y185961D01*
X164828D01*
Y186014D01*
X164722D01*
Y186067D01*
X164668D01*
Y186120D01*
X164615D01*
Y186173D01*
X164509D01*
Y186227D01*
X164456D01*
Y186280D01*
X164349D01*
Y186333D01*
X164296D01*
Y186386D01*
X164243D01*
Y186439D01*
X164190D01*
Y186493D01*
X164083D01*
Y186546D01*
X164030D01*
Y186599D01*
X163977D01*
Y186652D01*
X163924D01*
Y186705D01*
X163871D01*
Y186759D01*
X163817D01*
Y186812D01*
X163764D01*
Y186865D01*
X163711D01*
Y186918D01*
X163658D01*
Y186971D01*
X163604D01*
Y187024D01*
X163551D01*
Y187078D01*
X163498D01*
Y187131D01*
X163445D01*
Y187184D01*
X163392D01*
Y187237D01*
X163338D01*
Y187291D01*
X163285D01*
Y187344D01*
X163232D01*
Y187397D01*
X163179D01*
Y187450D01*
X163126D01*
Y187503D01*
X163073D01*
Y187557D01*
Y187610D01*
X163019D01*
Y187663D01*
X162966D01*
Y187716D01*
X162913D01*
Y187769D01*
Y187822D01*
X162860D01*
Y187876D01*
X162806D01*
Y187929D01*
X162753D01*
Y187982D01*
Y188035D01*
X162700D01*
Y188089D01*
X162647D01*
Y188142D01*
Y188195D01*
X162594D01*
Y188248D01*
X162541D01*
Y188301D01*
Y188355D01*
X162487D01*
Y188408D01*
X162434D01*
Y188461D01*
Y188514D01*
X162381D01*
Y188567D01*
X162328D01*
Y188620D01*
Y188674D01*
X162275D01*
Y188727D01*
Y188780D01*
X162221D01*
Y188833D01*
Y188886D01*
X162168D01*
Y188940D01*
Y188993D01*
X162115D01*
Y189046D01*
X162062D01*
Y189099D01*
Y189152D01*
X162009D01*
Y189206D01*
Y189259D01*
X161955D01*
Y189312D01*
Y189365D01*
Y189418D01*
X161902D01*
Y189472D01*
Y189525D01*
X161849D01*
Y189578D01*
Y189631D01*
X161796D01*
Y189684D01*
Y189738D01*
X161743D01*
Y189791D01*
Y189844D01*
Y189897D01*
X161689D01*
Y189950D01*
Y190004D01*
Y190057D01*
X161636D01*
Y190110D01*
Y190163D01*
X161583D01*
Y190216D01*
Y190269D01*
Y190323D01*
X161530D01*
Y190376D01*
Y190429D01*
Y190482D01*
Y190535D01*
X161477D01*
Y190589D01*
Y190642D01*
Y190695D01*
X161424D01*
Y190748D01*
Y190802D01*
Y190855D01*
Y190908D01*
X161370D01*
Y190961D01*
Y191014D01*
Y191068D01*
Y191121D01*
Y191174D01*
X161317D01*
Y191227D01*
Y191280D01*
Y191333D01*
Y191387D01*
Y191440D01*
X161264D01*
Y191493D01*
Y191546D01*
Y191599D01*
Y191653D01*
Y191706D01*
Y191759D01*
Y191812D01*
Y191865D01*
X161211D01*
Y191919D01*
Y191972D01*
Y192025D01*
Y192078D01*
Y192131D01*
Y192185D01*
Y192238D01*
Y192291D01*
Y192344D01*
Y192397D01*
Y192451D01*
Y192504D01*
Y192557D01*
Y192610D01*
Y192663D01*
Y192717D01*
Y192770D01*
Y192823D01*
Y192876D01*
Y192929D01*
Y192982D01*
Y193036D01*
Y193089D01*
Y193142D01*
Y193195D01*
Y193248D01*
Y193302D01*
Y193355D01*
Y193408D01*
X161264D01*
Y193461D01*
Y193515D01*
Y193568D01*
Y193621D01*
Y193674D01*
Y193727D01*
Y193781D01*
Y193834D01*
X161317D01*
Y193887D01*
Y193940D01*
Y193993D01*
Y194046D01*
Y194100D01*
Y194153D01*
X161370D01*
Y194206D01*
Y194259D01*
Y194312D01*
Y194366D01*
Y194419D01*
X161424D01*
Y194472D01*
Y194525D01*
Y194578D01*
Y194632D01*
X161477D01*
Y194685D01*
Y194738D01*
Y194791D01*
Y194844D01*
X161530D01*
Y194898D01*
Y194951D01*
Y195004D01*
X161583D01*
Y195057D01*
Y195110D01*
Y195164D01*
Y195217D01*
X161636D01*
Y195270D01*
Y195323D01*
Y195376D01*
X161689D01*
Y195430D01*
Y195483D01*
Y195536D01*
X161743D01*
Y195589D01*
Y195642D01*
X161796D01*
Y195695D01*
Y195749D01*
Y195802D01*
X161849D01*
Y195855D01*
Y195908D01*
X161902D01*
Y195961D01*
Y196015D01*
Y196068D01*
X162009D01*
Y196015D01*
D02*
G37*
G36*
X200745Y142507D02*
X200811D01*
Y142441D01*
X200877D01*
Y142376D01*
Y142310D01*
X200943D01*
Y142244D01*
Y142178D01*
Y142112D01*
X200877D01*
Y142046D01*
Y141981D01*
X200811D01*
Y141915D01*
X200745D01*
Y141849D01*
Y141783D01*
X200679D01*
Y141717D01*
X200613D01*
Y141651D01*
X200548D01*
Y141586D01*
X200482D01*
Y141520D01*
Y141454D01*
X200416D01*
Y141388D01*
X200350D01*
Y141322D01*
Y141256D01*
X200284D01*
Y141191D01*
Y141125D01*
Y141059D01*
Y140993D01*
Y140927D01*
Y140861D01*
X200350D01*
Y140796D01*
Y140730D01*
X200416D01*
Y140664D01*
X200613D01*
Y140598D01*
X201009D01*
Y140532D01*
X201403D01*
Y140467D01*
X201469D01*
Y140532D01*
Y140598D01*
Y140664D01*
Y140730D01*
Y140796D01*
Y140861D01*
Y140927D01*
Y140993D01*
Y141059D01*
Y141125D01*
Y141191D01*
X201535D01*
Y141256D01*
Y141322D01*
X201601D01*
Y141388D01*
X201667D01*
Y141454D01*
Y141520D01*
X201733D01*
Y141586D01*
X201799D01*
Y141651D01*
X201864D01*
Y141717D01*
X201996D01*
Y141783D01*
X202062D01*
Y141849D01*
X202193D01*
Y141915D01*
X202259D01*
Y141981D01*
X202391D01*
Y142046D01*
X202457D01*
Y142112D01*
X202588D01*
Y142178D01*
X202918D01*
Y142112D01*
X203049D01*
Y142046D01*
Y141981D01*
X203115D01*
Y141915D01*
Y141849D01*
Y141783D01*
Y141717D01*
Y141651D01*
X203049D01*
Y141586D01*
X202983D01*
Y141520D01*
X202918D01*
Y141454D01*
X202786D01*
Y141388D01*
X202720D01*
Y141322D01*
X202588D01*
Y141256D01*
X202523D01*
Y141191D01*
X202391D01*
Y141125D01*
X202325D01*
Y141059D01*
X202259D01*
Y140993D01*
X202193D01*
Y140927D01*
Y140861D01*
X202128D01*
Y140796D01*
Y140730D01*
Y140664D01*
Y140598D01*
Y140532D01*
Y140467D01*
Y140401D01*
Y140335D01*
X202259D01*
Y140269D01*
X202457D01*
Y140203D01*
X202654D01*
Y140137D01*
X202852D01*
Y140072D01*
X203049D01*
Y140006D01*
X203247D01*
Y140072D01*
Y140137D01*
Y140203D01*
Y140269D01*
Y140335D01*
X203313D01*
Y140401D01*
Y140467D01*
Y140532D01*
X203378D01*
Y140598D01*
Y140664D01*
X203444D01*
Y140730D01*
X203510D01*
Y140796D01*
X203576D01*
Y140861D01*
X203708D01*
Y140927D01*
X203773D01*
Y140993D01*
X203905D01*
Y141059D01*
X204037D01*
Y141125D01*
X204168D01*
Y141191D01*
X204300D01*
Y141256D01*
X204498D01*
Y141322D01*
X204629D01*
Y141388D01*
X204958D01*
Y141322D01*
X205024D01*
Y141256D01*
X205090D01*
Y141191D01*
Y141125D01*
Y141059D01*
Y140993D01*
Y140927D01*
Y140861D01*
X205024D01*
Y140796D01*
Y140730D01*
X204892D01*
Y140664D01*
X204761D01*
Y140598D01*
X204629D01*
Y140532D01*
X204432D01*
Y140467D01*
X204300D01*
Y140401D01*
X204234D01*
Y140335D01*
X204102D01*
Y140269D01*
X204037D01*
Y140203D01*
X203971D01*
Y140137D01*
Y140072D01*
X203905D01*
Y140006D01*
Y139940D01*
Y139874D01*
Y139808D01*
Y139742D01*
Y139677D01*
X204037D01*
Y139611D01*
X204168D01*
Y139545D01*
X204300D01*
Y139479D01*
X204432D01*
Y139413D01*
X204563D01*
Y139347D01*
X204695D01*
Y139413D01*
X204761D01*
Y139479D01*
Y139545D01*
X204827D01*
Y139611D01*
Y139677D01*
X204892D01*
Y139742D01*
Y139808D01*
X204958D01*
Y139874D01*
X205024D01*
Y139940D01*
X205090D01*
Y140006D01*
X205156D01*
Y140072D01*
X205222D01*
Y140137D01*
X205353D01*
Y140203D01*
X205485D01*
Y140269D01*
X205748D01*
Y140335D01*
X206802D01*
Y140269D01*
X206867D01*
Y140203D01*
X206933D01*
Y140137D01*
Y140072D01*
Y140006D01*
Y139940D01*
Y139874D01*
Y139808D01*
X206867D01*
Y139742D01*
X206802D01*
Y139677D01*
X206538D01*
Y139611D01*
X205814D01*
Y139545D01*
X205617D01*
Y139479D01*
X205551D01*
Y139413D01*
X205485D01*
Y139347D01*
Y139282D01*
X205419D01*
Y139216D01*
Y139150D01*
X205353D01*
Y139084D01*
Y139018D01*
Y138952D01*
X205419D01*
Y138887D01*
X205551D01*
Y138821D01*
X205617D01*
Y138755D01*
X205748D01*
Y138689D01*
X205814D01*
Y138623D01*
X205946D01*
Y138558D01*
X206012D01*
Y138492D01*
X206143D01*
Y138426D01*
X206209D01*
Y138360D01*
X206275D01*
Y138426D01*
X206341D01*
Y138492D01*
Y138558D01*
X206407D01*
Y138623D01*
X206472D01*
Y138689D01*
X206538D01*
Y138755D01*
X206604D01*
Y138821D01*
X206670D01*
Y138887D01*
X206736D01*
Y138952D01*
X206802D01*
Y139018D01*
X206933D01*
Y139084D01*
X207131D01*
Y139150D01*
X207855D01*
Y139084D01*
X208184D01*
Y139018D01*
X208513D01*
Y138952D01*
X208579D01*
Y138887D01*
X208645D01*
Y138821D01*
Y138755D01*
X208711D01*
Y138689D01*
Y138623D01*
X208645D01*
Y138558D01*
Y138492D01*
Y138426D01*
X208579D01*
Y138360D01*
X208447D01*
Y138294D01*
X208184D01*
Y138360D01*
X207855D01*
Y138426D01*
X207197D01*
Y138360D01*
X207131D01*
Y138294D01*
X207065D01*
Y138228D01*
X206999D01*
Y138163D01*
Y138097D01*
X206933D01*
Y138031D01*
X206867D01*
Y137965D01*
Y137899D01*
X206933D01*
Y137833D01*
X206999D01*
Y137768D01*
X207065D01*
Y137702D01*
X207131D01*
Y137636D01*
X207197D01*
Y137570D01*
X207262D01*
Y137504D01*
X207328D01*
Y137438D01*
X207394D01*
Y137373D01*
X207460D01*
Y137307D01*
X207526D01*
Y137241D01*
X207592D01*
Y137307D01*
X207657D01*
Y137373D01*
X207723D01*
Y137438D01*
X207789D01*
Y137504D01*
X207855D01*
Y137570D01*
X207921D01*
Y137636D01*
X207986D01*
Y137702D01*
X208052D01*
Y137768D01*
X208184D01*
Y137833D01*
X208382D01*
Y137899D01*
X209106D01*
Y137833D01*
X209435D01*
Y137768D01*
X209764D01*
Y137702D01*
X209830D01*
Y137636D01*
X209896D01*
Y137570D01*
Y137504D01*
X209962D01*
Y137438D01*
X209896D01*
Y137373D01*
Y137307D01*
Y137241D01*
X209830D01*
Y137175D01*
X209764D01*
Y137109D01*
X209698D01*
Y137043D01*
X209501D01*
Y137109D01*
X209172D01*
Y137175D01*
X208447D01*
Y137109D01*
X208382D01*
Y137043D01*
X208316D01*
Y136978D01*
X208250D01*
Y136912D01*
X208184D01*
Y136846D01*
Y136780D01*
X208118D01*
Y136714D01*
X208052D01*
Y136648D01*
X208118D01*
Y136583D01*
X208184D01*
Y136517D01*
Y136451D01*
X208250D01*
Y136385D01*
X208316D01*
Y136319D01*
X208382D01*
Y136253D01*
Y136188D01*
X208447D01*
Y136122D01*
X208513D01*
Y136056D01*
Y135990D01*
X208645D01*
Y136056D01*
X208711D01*
Y136122D01*
X208776D01*
Y136188D01*
X208842D01*
Y136253D01*
X208974D01*
Y136319D01*
X209040D01*
Y136385D01*
X209237D01*
Y136451D01*
X210093D01*
Y136385D01*
X210422D01*
Y136319D01*
X210686D01*
Y136253D01*
X210751D01*
Y136188D01*
X210817D01*
Y136122D01*
Y136056D01*
Y135990D01*
Y135924D01*
Y135858D01*
Y135793D01*
X210751D01*
Y135727D01*
X210686D01*
Y135661D01*
X210093D01*
Y135727D01*
X209369D01*
Y135661D01*
X209303D01*
Y135595D01*
X209172D01*
Y135529D01*
Y135463D01*
X209106D01*
Y135398D01*
X209040D01*
Y135332D01*
Y135266D01*
X208974D01*
Y135200D01*
Y135134D01*
X209040D01*
Y135068D01*
Y135003D01*
Y134937D01*
X209106D01*
Y134871D01*
Y134805D01*
X209172D01*
Y134739D01*
Y134674D01*
X209369D01*
Y134739D01*
X209435D01*
Y134805D01*
X209632D01*
Y134871D01*
X209830D01*
Y134937D01*
X210291D01*
Y134871D01*
X210488D01*
Y134805D01*
X210620D01*
Y134739D01*
X210751D01*
Y134674D01*
X210883D01*
Y134608D01*
X210949D01*
Y134542D01*
X211081D01*
Y134476D01*
X211146D01*
Y134410D01*
X211278D01*
Y134344D01*
X211344D01*
Y134279D01*
Y134213D01*
Y134147D01*
Y134081D01*
Y134015D01*
Y133949D01*
Y133884D01*
X211278D01*
Y133818D01*
X211212D01*
Y133752D01*
X210883D01*
Y133818D01*
X210751D01*
Y133884D01*
X210686D01*
Y133949D01*
X210554D01*
Y134015D01*
X210488D01*
Y134081D01*
X210356D01*
Y134147D01*
X210225D01*
Y134213D01*
X209896D01*
Y134147D01*
X209764D01*
Y134081D01*
X209632D01*
Y134015D01*
X209566D01*
Y133949D01*
X209435D01*
Y133884D01*
Y133818D01*
Y133752D01*
Y133686D01*
X209501D01*
Y133620D01*
Y133554D01*
Y133489D01*
Y133423D01*
Y133357D01*
X209566D01*
Y133291D01*
Y133225D01*
Y133159D01*
X209632D01*
Y133225D01*
X209896D01*
Y133291D01*
X210554D01*
Y133225D01*
X210751D01*
Y133159D01*
X210817D01*
Y133094D01*
X210949D01*
Y133028D01*
X211015D01*
Y132962D01*
X211081D01*
Y132896D01*
X211146D01*
Y132830D01*
X211212D01*
Y132764D01*
X211278D01*
Y132699D01*
X211344D01*
Y132633D01*
X211410D01*
Y132567D01*
X211476D01*
Y132501D01*
Y132435D01*
X211541D01*
Y132369D01*
Y132304D01*
Y132238D01*
Y132172D01*
Y132106D01*
Y132040D01*
X211476D01*
Y131974D01*
X211410D01*
Y131909D01*
X211081D01*
Y131974D01*
X210949D01*
Y132040D01*
X210883D01*
Y132106D01*
X210817D01*
Y132172D01*
X210751D01*
Y132238D01*
Y132304D01*
X210686D01*
Y132369D01*
X210554D01*
Y132435D01*
X210488D01*
Y132501D01*
X210422D01*
Y132567D01*
X210291D01*
Y132633D01*
X210093D01*
Y132567D01*
X209896D01*
Y132501D01*
X209698D01*
Y132435D01*
X209632D01*
Y132369D01*
Y132304D01*
Y132238D01*
X209698D01*
Y132172D01*
Y132106D01*
Y132040D01*
Y131974D01*
Y131909D01*
Y131843D01*
Y131777D01*
Y131711D01*
Y131645D01*
Y131579D01*
X209830D01*
Y131645D01*
X210620D01*
Y131579D01*
X210751D01*
Y131514D01*
X210883D01*
Y131448D01*
X210949D01*
Y131382D01*
X211015D01*
Y131316D01*
X211081D01*
Y131250D01*
X211146D01*
Y131184D01*
X211212D01*
Y131119D01*
X211278D01*
Y131053D01*
X211344D01*
Y130987D01*
X211410D01*
Y130921D01*
X211476D01*
Y130855D01*
X211541D01*
Y130789D01*
Y130724D01*
Y130658D01*
Y130592D01*
Y130526D01*
Y130460D01*
Y130394D01*
X211476D01*
Y130329D01*
X211344D01*
Y130263D01*
X211081D01*
Y130329D01*
X211015D01*
Y130394D01*
X210949D01*
Y130460D01*
X210883D01*
Y130526D01*
X210817D01*
Y130592D01*
X210751D01*
Y130658D01*
X210686D01*
Y130724D01*
X210620D01*
Y130789D01*
X210554D01*
Y130855D01*
X210422D01*
Y130921D01*
X210356D01*
Y130987D01*
X210027D01*
Y130921D01*
X209830D01*
Y130855D01*
X209698D01*
Y130789D01*
X209632D01*
Y130724D01*
Y130658D01*
Y130592D01*
Y130526D01*
Y130460D01*
Y130394D01*
Y130329D01*
Y130263D01*
Y130197D01*
Y130131D01*
X209698D01*
Y130197D01*
X210027D01*
Y130131D01*
X210291D01*
Y130065D01*
X210422D01*
Y129999D01*
X210554D01*
Y129934D01*
X210620D01*
Y129868D01*
X210686D01*
Y129802D01*
X210751D01*
Y129736D01*
X210817D01*
Y129670D01*
X210883D01*
Y129604D01*
X210949D01*
Y129539D01*
X211015D01*
Y129473D01*
X211081D01*
Y129407D01*
X211146D01*
Y129341D01*
X211212D01*
Y129275D01*
Y129209D01*
Y129144D01*
Y129078D01*
Y129012D01*
Y128946D01*
X211146D01*
Y128880D01*
X211081D01*
Y128814D01*
X210949D01*
Y128749D01*
X210817D01*
Y128814D01*
X210686D01*
Y128880D01*
X210620D01*
Y128946D01*
X210554D01*
Y129012D01*
X210488D01*
Y129078D01*
X210422D01*
Y129144D01*
X210356D01*
Y129209D01*
X210291D01*
Y129275D01*
X210225D01*
Y129341D01*
X210093D01*
Y129407D01*
X210027D01*
Y129473D01*
X209632D01*
Y129407D01*
X209501D01*
Y129341D01*
Y129275D01*
Y129209D01*
Y129144D01*
X209435D01*
Y129078D01*
Y129012D01*
Y128946D01*
Y128880D01*
X209369D01*
Y128814D01*
Y128749D01*
Y128683D01*
X209303D01*
Y128617D01*
Y128551D01*
X209237D01*
Y128485D01*
Y128419D01*
X209172D01*
Y128354D01*
Y128288D01*
X209106D01*
Y128222D01*
X209040D01*
Y128156D01*
X208974D01*
Y128090D01*
Y128024D01*
X208908D01*
Y127959D01*
X208842D01*
Y127893D01*
X208776D01*
Y127827D01*
X208711D01*
Y127761D01*
X208645D01*
Y127695D01*
X208513D01*
Y127630D01*
X208447D01*
Y127564D01*
X208382D01*
Y127498D01*
X208250D01*
Y127432D01*
X208118D01*
Y127366D01*
X208052D01*
Y127300D01*
X207921D01*
Y127235D01*
X207723D01*
Y127169D01*
X207592D01*
Y127103D01*
X207328D01*
Y127037D01*
X207065D01*
Y126971D01*
X206012D01*
Y127037D01*
X205682D01*
Y127103D01*
X205485D01*
Y127169D01*
X205288D01*
Y127235D01*
X205156D01*
Y127300D01*
X205024D01*
Y127366D01*
X204958D01*
Y127432D01*
X204827D01*
Y127498D01*
X204761D01*
Y127564D01*
X204695D01*
Y127630D01*
X204563D01*
Y127695D01*
X204498D01*
Y127761D01*
X204432D01*
Y127695D01*
X204300D01*
Y127630D01*
X204168D01*
Y127564D01*
X204037D01*
Y127498D01*
X203971D01*
Y127432D01*
X203905D01*
Y127366D01*
Y127300D01*
Y127235D01*
X203839D01*
Y127169D01*
Y127103D01*
Y127037D01*
Y126971D01*
Y126905D01*
Y126840D01*
Y126774D01*
Y126708D01*
Y126642D01*
Y126576D01*
Y126510D01*
X203773D01*
Y126445D01*
X203708D01*
Y126379D01*
X203378D01*
Y126445D01*
X203247D01*
Y126510D01*
X203181D01*
Y126576D01*
Y126642D01*
Y126708D01*
Y126774D01*
Y126840D01*
Y126905D01*
Y126971D01*
Y127037D01*
Y127103D01*
Y127169D01*
Y127235D01*
Y127300D01*
Y127366D01*
Y127432D01*
Y127498D01*
Y127564D01*
X203247D01*
Y127630D01*
Y127695D01*
X203313D01*
Y127761D01*
Y127827D01*
X203378D01*
Y127893D01*
X203444D01*
Y127959D01*
X203510D01*
Y128024D01*
X203576D01*
Y128090D01*
X203642D01*
Y128156D01*
X203773D01*
Y128222D01*
X203905D01*
Y128288D01*
X203971D01*
Y128354D01*
Y128419D01*
Y128485D01*
X203905D01*
Y128551D01*
Y128617D01*
X203839D01*
Y128683D01*
Y128749D01*
Y128814D01*
X203773D01*
Y128880D01*
Y128946D01*
X203708D01*
Y129012D01*
X203642D01*
Y128946D01*
X203313D01*
Y128880D01*
X203115D01*
Y128814D01*
X202983D01*
Y128749D01*
X202918D01*
Y128683D01*
Y128617D01*
X202852D01*
Y128551D01*
Y128485D01*
X202786D01*
Y128419D01*
Y128354D01*
Y128288D01*
Y128222D01*
X202720D01*
Y128156D01*
Y128090D01*
Y128024D01*
X202654D01*
Y127959D01*
X202588D01*
Y127893D01*
X202193D01*
Y127959D01*
X202128D01*
Y128024D01*
X202062D01*
Y128090D01*
Y128156D01*
Y128222D01*
Y128288D01*
Y128354D01*
Y128419D01*
Y128485D01*
Y128551D01*
X202128D01*
Y128617D01*
Y128683D01*
Y128749D01*
X202193D01*
Y128814D01*
Y128880D01*
Y128946D01*
X202259D01*
Y129012D01*
Y129078D01*
X202325D01*
Y129144D01*
X202391D01*
Y129209D01*
X202457D01*
Y129275D01*
X202523D01*
Y129341D01*
X202588D01*
Y129407D01*
X202720D01*
Y129473D01*
X202852D01*
Y129539D01*
X203049D01*
Y129604D01*
X203313D01*
Y129670D01*
X203576D01*
Y129736D01*
Y129802D01*
Y129868D01*
Y129934D01*
Y129999D01*
Y130065D01*
Y130131D01*
Y130197D01*
Y130263D01*
Y130329D01*
Y130394D01*
Y130460D01*
X203247D01*
Y130526D01*
X202852D01*
Y130460D01*
X202720D01*
Y130394D01*
X202654D01*
Y130329D01*
X202588D01*
Y130263D01*
X202523D01*
Y130197D01*
Y130131D01*
X202457D01*
Y130065D01*
Y129999D01*
X202391D01*
Y129934D01*
X202325D01*
Y129868D01*
X202259D01*
Y129802D01*
X201930D01*
Y129868D01*
X201799D01*
Y129934D01*
Y129999D01*
X201733D01*
Y130065D01*
Y130131D01*
Y130197D01*
Y130263D01*
Y130329D01*
X201799D01*
Y130394D01*
Y130460D01*
X201864D01*
Y130526D01*
X201930D01*
Y130592D01*
Y130658D01*
X201996D01*
Y130724D01*
X202062D01*
Y130789D01*
X202128D01*
Y130855D01*
X202193D01*
Y130921D01*
X202259D01*
Y130987D01*
X202325D01*
Y131053D01*
X202391D01*
Y131119D01*
X202523D01*
Y131184D01*
X203642D01*
Y131250D01*
X203708D01*
Y131316D01*
Y131382D01*
Y131448D01*
Y131514D01*
Y131579D01*
Y131645D01*
X203576D01*
Y131711D01*
X203313D01*
Y131777D01*
X202786D01*
Y131711D01*
X202720D01*
Y131645D01*
X202654D01*
Y131579D01*
X202588D01*
Y131514D01*
X202523D01*
Y131448D01*
X202457D01*
Y131382D01*
Y131316D01*
X202391D01*
Y131250D01*
X202325D01*
Y131184D01*
X202193D01*
Y131119D01*
X201930D01*
Y131184D01*
X201799D01*
Y131250D01*
X201733D01*
Y131316D01*
Y131382D01*
Y131448D01*
Y131514D01*
Y131579D01*
Y131645D01*
X201799D01*
Y131711D01*
Y131777D01*
X201864D01*
Y131843D01*
X201930D01*
Y131909D01*
X201996D01*
Y131974D01*
Y132040D01*
X202062D01*
Y132106D01*
X202128D01*
Y132172D01*
X202193D01*
Y132238D01*
X202259D01*
Y132304D01*
X202391D01*
Y132369D01*
X202523D01*
Y132435D01*
X203510D01*
Y132369D01*
X203576D01*
Y132435D01*
X203510D01*
Y132501D01*
Y132567D01*
X203444D01*
Y132633D01*
Y132699D01*
X203378D01*
Y132764D01*
Y132830D01*
X203313D01*
Y132896D01*
X203247D01*
Y132962D01*
Y133028D01*
X203181D01*
Y133094D01*
X203115D01*
Y133159D01*
X203049D01*
Y133225D01*
X202852D01*
Y133159D01*
X202654D01*
Y133094D01*
X202391D01*
Y133028D01*
X202259D01*
Y132962D01*
X202193D01*
Y132896D01*
X202128D01*
Y132830D01*
Y132764D01*
X202062D01*
Y132699D01*
Y132633D01*
Y132567D01*
X201996D01*
Y132501D01*
Y132435D01*
Y132369D01*
Y132304D01*
Y132238D01*
X201930D01*
Y132172D01*
Y132106D01*
X201799D01*
Y132040D01*
X201403D01*
Y132106D01*
X201338D01*
Y132172D01*
X201272D01*
Y132238D01*
Y132304D01*
Y132369D01*
Y132435D01*
Y132501D01*
X201338D01*
Y132567D01*
Y132633D01*
Y132699D01*
Y132764D01*
Y132830D01*
X201403D01*
Y132896D01*
Y132962D01*
Y133028D01*
Y133094D01*
X201469D01*
Y133159D01*
Y133225D01*
X201535D01*
Y133291D01*
X201601D01*
Y133357D01*
Y133423D01*
X201667D01*
Y133489D01*
X201799D01*
Y133554D01*
X201864D01*
Y133620D01*
X201996D01*
Y133686D01*
X202193D01*
Y133752D01*
X202128D01*
Y133818D01*
X201996D01*
Y133884D01*
X201864D01*
Y133949D01*
X201733D01*
Y134015D01*
X201667D01*
Y133949D01*
X201535D01*
Y133884D01*
X201403D01*
Y133818D01*
X201338D01*
Y133752D01*
X201206D01*
Y133686D01*
X201140D01*
Y133620D01*
X201074D01*
Y133554D01*
X201009D01*
Y133489D01*
X200943D01*
Y133423D01*
X200877D01*
Y133357D01*
Y133291D01*
Y133225D01*
Y133159D01*
Y133094D01*
Y133028D01*
Y132962D01*
Y132896D01*
X200943D01*
Y132830D01*
Y132764D01*
Y132699D01*
Y132633D01*
X200877D01*
Y132567D01*
X200811D01*
Y132501D01*
X200745D01*
Y132435D01*
X200350D01*
Y132501D01*
X200284D01*
Y132567D01*
Y132633D01*
X200219D01*
Y132699D01*
Y132764D01*
Y132830D01*
Y132896D01*
Y132962D01*
Y133028D01*
Y133094D01*
Y133159D01*
Y133225D01*
Y133291D01*
Y133357D01*
Y133423D01*
Y133489D01*
Y133554D01*
Y133620D01*
Y133686D01*
X200284D01*
Y133752D01*
Y133818D01*
X200350D01*
Y133884D01*
Y133949D01*
X200416D01*
Y134015D01*
X200482D01*
Y134081D01*
X200548D01*
Y134147D01*
X200613D01*
Y134213D01*
X200679D01*
Y134279D01*
X200811D01*
Y134344D01*
X200679D01*
Y134410D01*
X200416D01*
Y134476D01*
X200284D01*
Y134410D01*
X200219D01*
Y134344D01*
X200153D01*
Y134279D01*
X200087D01*
Y134213D01*
X200021D01*
Y134147D01*
X199955D01*
Y134081D01*
X199889D01*
Y134015D01*
X199824D01*
Y133949D01*
X199758D01*
Y133884D01*
X199692D01*
Y133818D01*
Y133752D01*
X199626D01*
Y133686D01*
Y133620D01*
Y133554D01*
X199692D01*
Y133489D01*
Y133423D01*
Y133357D01*
Y133291D01*
X199758D01*
Y133225D01*
Y133159D01*
X199824D01*
Y133094D01*
Y133028D01*
Y132962D01*
Y132896D01*
Y132830D01*
X199758D01*
Y132764D01*
Y132699D01*
X199560D01*
Y132633D01*
X199429D01*
Y132699D01*
X199231D01*
Y132764D01*
X199165D01*
Y132830D01*
Y132896D01*
X199099D01*
Y132962D01*
Y133028D01*
X199034D01*
Y133094D01*
Y133159D01*
Y133225D01*
Y133291D01*
X198968D01*
Y133357D01*
Y133423D01*
Y133489D01*
Y133554D01*
Y133620D01*
Y133686D01*
Y133752D01*
Y133818D01*
Y133884D01*
Y133949D01*
Y134015D01*
X199034D01*
Y134081D01*
Y134147D01*
Y134213D01*
X199099D01*
Y134279D01*
X199165D01*
Y134344D01*
Y134410D01*
X199231D01*
Y134476D01*
X199297D01*
Y134542D01*
X199363D01*
Y134608D01*
X198770D01*
Y134542D01*
X198704D01*
Y134476D01*
X198639D01*
Y134410D01*
X198573D01*
Y134344D01*
X198507D01*
Y134279D01*
X198441D01*
Y134213D01*
Y134147D01*
X198375D01*
Y134081D01*
Y134015D01*
Y133949D01*
Y133884D01*
Y133818D01*
X198441D01*
Y133752D01*
Y133686D01*
Y133620D01*
X198507D01*
Y133554D01*
Y133489D01*
X198573D01*
Y133423D01*
Y133357D01*
X198639D01*
Y133291D01*
Y133225D01*
Y133159D01*
X198573D01*
Y133094D01*
Y133028D01*
X198507D01*
Y132962D01*
X198441D01*
Y132896D01*
X198112D01*
Y132962D01*
X197980D01*
Y133028D01*
Y133094D01*
X197915D01*
Y133159D01*
Y133225D01*
X197849D01*
Y133291D01*
Y133357D01*
X197783D01*
Y133423D01*
Y133489D01*
Y133554D01*
X197717D01*
Y133620D01*
Y133686D01*
Y133752D01*
Y133818D01*
X197651D01*
Y133884D01*
Y133949D01*
Y134015D01*
Y134081D01*
Y134147D01*
X197717D01*
Y134213D01*
Y134279D01*
Y134344D01*
X197783D01*
Y134410D01*
Y134476D01*
X197849D01*
Y134542D01*
Y134608D01*
X197915D01*
Y134674D01*
X197849D01*
Y134739D01*
X197585D01*
Y134674D01*
X197454D01*
Y134608D01*
X197388D01*
Y134542D01*
X197322D01*
Y134476D01*
X197256D01*
Y134410D01*
Y134344D01*
X197190D01*
Y134279D01*
X197125D01*
Y134213D01*
Y134147D01*
Y134081D01*
Y134015D01*
Y133949D01*
X197190D01*
Y133884D01*
Y133818D01*
Y133752D01*
X197256D01*
Y133686D01*
Y133620D01*
Y133554D01*
Y133489D01*
Y133423D01*
Y133357D01*
X197190D01*
Y133291D01*
X197125D01*
Y133225D01*
X196993D01*
Y133159D01*
X196795D01*
Y133225D01*
X196664D01*
Y133291D01*
X196598D01*
Y133357D01*
Y133423D01*
X196532D01*
Y133489D01*
Y133554D01*
Y133620D01*
Y133686D01*
X196466D01*
Y133752D01*
Y133818D01*
Y133884D01*
Y133949D01*
Y134015D01*
Y134081D01*
Y134147D01*
Y134213D01*
Y134279D01*
Y134344D01*
Y134410D01*
Y134476D01*
Y134542D01*
X196532D01*
Y134608D01*
Y134674D01*
X196598D01*
Y134739D01*
X196664D01*
Y134805D01*
Y134871D01*
X196730D01*
Y134937D01*
X196795D01*
Y135003D01*
X196861D01*
Y135068D01*
X196927D01*
Y135134D01*
X196993D01*
Y135200D01*
X196927D01*
Y135266D01*
X196861D01*
Y135332D01*
X196795D01*
Y135398D01*
X196730D01*
Y135463D01*
X196664D01*
Y135529D01*
X196532D01*
Y135463D01*
X196466D01*
Y135398D01*
X196335D01*
Y135332D01*
X196269D01*
Y135266D01*
X196203D01*
Y135200D01*
X196137D01*
Y135134D01*
Y135068D01*
X196071D01*
Y135003D01*
Y134937D01*
Y134871D01*
Y134805D01*
Y134739D01*
Y134674D01*
Y134608D01*
X196137D01*
Y134542D01*
Y134476D01*
Y134410D01*
Y134344D01*
Y134279D01*
X196071D01*
Y134213D01*
Y134147D01*
X196005D01*
Y134081D01*
X195874D01*
Y134015D01*
X195676D01*
Y134081D01*
X195545D01*
Y134147D01*
X195479D01*
Y134213D01*
Y134279D01*
X195413D01*
Y134344D01*
Y134410D01*
Y134476D01*
Y134542D01*
Y134608D01*
Y134674D01*
Y134739D01*
Y134805D01*
X195347D01*
Y134871D01*
Y134937D01*
Y135003D01*
X195413D01*
Y135068D01*
Y135134D01*
Y135200D01*
Y135266D01*
Y135332D01*
X195479D01*
Y135398D01*
Y135463D01*
Y135529D01*
X195545D01*
Y135595D01*
X195610D01*
Y135661D01*
X195676D01*
Y135727D01*
X195742D01*
Y135793D01*
X195808D01*
Y135858D01*
X195874D01*
Y135924D01*
X196005D01*
Y135990D01*
X196071D01*
Y136056D01*
X196137D01*
Y136122D01*
X196203D01*
Y136188D01*
X196137D01*
Y136253D01*
Y136319D01*
X195874D01*
Y136253D01*
X195676D01*
Y136188D01*
X195545D01*
Y136122D01*
X195479D01*
Y136056D01*
Y135990D01*
X195413D01*
Y135924D01*
Y135858D01*
Y135793D01*
Y135727D01*
Y135661D01*
X195347D01*
Y135595D01*
Y135529D01*
Y135463D01*
Y135398D01*
Y135332D01*
Y135266D01*
X195281D01*
Y135200D01*
X195215D01*
Y135134D01*
X195018D01*
Y135068D01*
X194952D01*
Y135134D01*
X194755D01*
Y135200D01*
X194689D01*
Y135266D01*
Y135332D01*
Y135398D01*
Y135463D01*
Y135529D01*
Y135595D01*
Y135661D01*
Y135727D01*
Y135793D01*
Y135858D01*
Y135924D01*
Y135990D01*
Y136056D01*
X194755D01*
Y136122D01*
Y136188D01*
Y136253D01*
X194820D01*
Y136319D01*
Y136385D01*
X194886D01*
Y136451D01*
Y136517D01*
X194952D01*
Y136583D01*
X195018D01*
Y136648D01*
X195084D01*
Y136714D01*
X195215D01*
Y136780D01*
X195281D01*
Y136846D01*
X195413D01*
Y136912D01*
X195610D01*
Y136978D01*
X195742D01*
Y137043D01*
X195808D01*
Y137109D01*
Y137175D01*
Y137241D01*
Y137307D01*
Y137373D01*
Y137438D01*
Y137504D01*
Y137570D01*
Y137636D01*
Y137702D01*
Y137768D01*
Y137833D01*
Y137899D01*
Y137965D01*
Y138031D01*
Y138097D01*
Y138163D01*
Y138228D01*
X195874D01*
Y138294D01*
Y138360D01*
Y138426D01*
Y138492D01*
X195940D01*
Y138558D01*
Y138623D01*
Y138689D01*
Y138755D01*
X196005D01*
Y138821D01*
Y138887D01*
X196071D01*
Y138952D01*
Y139018D01*
X196137D01*
Y139084D01*
Y139150D01*
X196203D01*
Y139216D01*
X196269D01*
Y139282D01*
Y139347D01*
X196335D01*
Y139413D01*
X196400D01*
Y139479D01*
Y139545D01*
X196466D01*
Y139611D01*
X196532D01*
Y139677D01*
X196598D01*
Y139742D01*
X196664D01*
Y139808D01*
X196730D01*
Y139874D01*
X196861D01*
Y139940D01*
X196927D01*
Y140006D01*
X196993D01*
Y140072D01*
X197125D01*
Y140137D01*
X197190D01*
Y140203D01*
X197322D01*
Y140269D01*
X197454D01*
Y140335D01*
X197585D01*
Y140401D01*
X197783D01*
Y140467D01*
X197980D01*
Y140532D01*
X198112D01*
Y140598D01*
Y140664D01*
X198046D01*
Y140730D01*
Y140796D01*
Y140861D01*
X197980D01*
Y140927D01*
Y140993D01*
Y141059D01*
Y141125D01*
Y141191D01*
Y141256D01*
Y141322D01*
Y141388D01*
Y141454D01*
X198046D01*
Y141520D01*
Y141586D01*
Y141651D01*
X198112D01*
Y141717D01*
Y141783D01*
X198178D01*
Y141849D01*
Y141915D01*
X198244D01*
Y141981D01*
Y142046D01*
X198309D01*
Y142112D01*
X198375D01*
Y142178D01*
Y142244D01*
X198441D01*
Y142310D01*
X198507D01*
Y142376D01*
Y142441D01*
X198573D01*
Y142507D01*
X198639D01*
Y142573D01*
X198968D01*
Y142507D01*
X199099D01*
Y142441D01*
X199165D01*
Y142376D01*
Y142310D01*
Y142244D01*
Y142178D01*
Y142112D01*
Y142046D01*
X199099D01*
Y141981D01*
Y141915D01*
X199034D01*
Y141849D01*
X198968D01*
Y141783D01*
Y141717D01*
X198902D01*
Y141651D01*
Y141586D01*
X198836D01*
Y141520D01*
Y141454D01*
X198770D01*
Y141388D01*
Y141322D01*
X198704D01*
Y141256D01*
Y141191D01*
Y141125D01*
Y141059D01*
Y140993D01*
Y140927D01*
X198770D01*
Y140861D01*
Y140796D01*
X198836D01*
Y140730D01*
X198902D01*
Y140664D01*
X199297D01*
Y140730D01*
X199626D01*
Y140796D01*
Y140861D01*
X199560D01*
Y140927D01*
Y140993D01*
Y141059D01*
Y141125D01*
Y141191D01*
Y141256D01*
Y141322D01*
Y141388D01*
Y141454D01*
X199626D01*
Y141520D01*
Y141586D01*
X199692D01*
Y141651D01*
Y141717D01*
X199758D01*
Y141783D01*
X199824D01*
Y141849D01*
Y141915D01*
X199889D01*
Y141981D01*
X199955D01*
Y142046D01*
X200021D01*
Y142112D01*
Y142178D01*
X200087D01*
Y142244D01*
X200153D01*
Y142310D01*
X200219D01*
Y142376D01*
X200284D01*
Y142441D01*
X200350D01*
Y142507D01*
X200416D01*
Y142573D01*
X200745D01*
Y142507D01*
D02*
G37*
G36*
X169775Y186227D02*
Y186173D01*
Y186120D01*
Y186067D01*
Y186014D01*
Y185961D01*
Y185907D01*
Y185854D01*
Y185801D01*
Y185748D01*
Y185695D01*
Y185642D01*
X169722D01*
Y185588D01*
Y185535D01*
Y185482D01*
Y185429D01*
Y185375D01*
Y185322D01*
Y185269D01*
Y185216D01*
Y185163D01*
Y185109D01*
X169669D01*
Y185056D01*
Y185003D01*
Y184950D01*
Y184897D01*
Y184844D01*
Y184790D01*
Y184737D01*
Y184684D01*
Y184631D01*
Y184578D01*
X169616D01*
Y184524D01*
Y184471D01*
Y184418D01*
Y184365D01*
Y184311D01*
Y184258D01*
Y184205D01*
Y184152D01*
X169562D01*
Y184099D01*
X169509D01*
Y184046D01*
X169297D01*
Y183992D01*
X169084D01*
Y184046D01*
X168977D01*
Y184099D01*
X168924D01*
Y184152D01*
X168871D01*
Y184205D01*
Y184258D01*
Y184311D01*
Y184365D01*
X168818D01*
Y184418D01*
Y184471D01*
Y184524D01*
Y184578D01*
Y184631D01*
Y184684D01*
Y184737D01*
Y184790D01*
Y184844D01*
Y184897D01*
X168764D01*
Y184950D01*
Y185003D01*
Y185056D01*
Y185109D01*
Y185163D01*
Y185216D01*
Y185269D01*
Y185322D01*
Y185375D01*
Y185429D01*
X168711D01*
Y185482D01*
Y185535D01*
Y185588D01*
Y185642D01*
Y185695D01*
Y185748D01*
Y185801D01*
Y185854D01*
Y185907D01*
Y185961D01*
Y186014D01*
X168658D01*
Y186067D01*
Y186120D01*
Y186173D01*
Y186227D01*
Y186280D01*
X169775D01*
Y186227D01*
D02*
G37*
G36*
X169616Y198941D02*
X169828D01*
Y198887D01*
X170041D01*
Y198834D01*
X170201D01*
Y198781D01*
X170307D01*
Y198728D01*
X170414D01*
Y198674D01*
X170467D01*
Y198621D01*
X170520D01*
Y198568D01*
X170573D01*
Y198515D01*
Y198462D01*
X170626D01*
Y198408D01*
Y198355D01*
Y198302D01*
Y198249D01*
X170733D01*
Y198302D01*
X170786D01*
Y198355D01*
X170839D01*
Y198408D01*
X170892D01*
Y198462D01*
X171052D01*
Y198408D01*
X171158D01*
Y198355D01*
X171212D01*
Y198302D01*
X171265D01*
Y198249D01*
X171318D01*
Y198196D01*
X171424D01*
Y198143D01*
X171477D01*
Y198089D01*
X171531D01*
Y198036D01*
X171637D01*
Y197983D01*
X171690D01*
Y197930D01*
Y197877D01*
Y197823D01*
Y197770D01*
X171637D01*
Y197717D01*
Y197664D01*
Y197611D01*
X171584D01*
Y197557D01*
Y197504D01*
X171531D01*
Y197451D01*
Y197398D01*
Y197345D01*
X171477D01*
Y197291D01*
Y197238D01*
X171424D01*
Y197185D01*
Y197132D01*
Y197079D01*
X171371D01*
Y197025D01*
Y196972D01*
Y196919D01*
X171318D01*
Y196866D01*
Y196813D01*
X171265D01*
Y196759D01*
Y196706D01*
Y196653D01*
Y196600D01*
Y196547D01*
Y196493D01*
X171318D01*
Y196440D01*
Y196387D01*
X171371D01*
Y196334D01*
X171424D01*
Y196281D01*
X171477D01*
Y196228D01*
X171531D01*
Y196174D01*
X171584D01*
Y196121D01*
X171637D01*
Y196068D01*
X171744D01*
Y196015D01*
X171850D01*
Y195961D01*
X171956D01*
Y195908D01*
X172169D01*
Y195855D01*
X172861D01*
Y195802D01*
X172967D01*
Y195749D01*
X173073D01*
Y195695D01*
Y195642D01*
X173127D01*
Y195589D01*
X173180D01*
Y195536D01*
Y195483D01*
X173233D01*
Y195430D01*
X173286D01*
Y195376D01*
Y195323D01*
X173339D01*
Y195270D01*
Y195217D01*
X173393D01*
Y195164D01*
X173446D01*
Y195110D01*
Y195057D01*
X173499D01*
Y195004D01*
X173552D01*
Y194951D01*
Y194898D01*
X173605D01*
Y194844D01*
X173659D01*
Y194791D01*
Y194738D01*
X173712D01*
Y194685D01*
X173765D01*
Y194632D01*
Y194578D01*
X173818D01*
Y194525D01*
Y194472D01*
Y194419D01*
Y194366D01*
Y194312D01*
Y194259D01*
X173765D01*
Y194206D01*
X173712D01*
Y194153D01*
X173659D01*
Y194100D01*
X173552D01*
Y194046D01*
X172967D01*
Y194100D01*
X172754D01*
Y194153D01*
X172701D01*
Y194206D01*
X172595D01*
Y194259D01*
X172541D01*
Y194312D01*
X172435D01*
Y194366D01*
X172329D01*
Y194419D01*
X172222D01*
Y194472D01*
X172116D01*
Y194525D01*
X171956D01*
Y194578D01*
X171744D01*
Y194632D01*
X171424D01*
Y194685D01*
X170307D01*
Y194632D01*
X169988D01*
Y194578D01*
X169882D01*
Y194525D01*
X169775D01*
Y194472D01*
X169722D01*
Y194419D01*
X169669D01*
Y194366D01*
X169616D01*
Y194312D01*
X169562D01*
Y194259D01*
X169509D01*
Y194206D01*
X169456D01*
Y194153D01*
X169350D01*
Y194100D01*
X169137D01*
Y194153D01*
X169030D01*
Y194206D01*
X168977D01*
Y194259D01*
X168924D01*
Y194312D01*
X168871D01*
Y194366D01*
X168818D01*
Y194419D01*
X168764D01*
Y194472D01*
X168711D01*
Y194525D01*
X168605D01*
Y194578D01*
X168499D01*
Y194632D01*
X167860D01*
Y194685D01*
X167169D01*
Y194632D01*
X166903D01*
Y194578D01*
X166743D01*
Y194525D01*
X166530D01*
Y194472D01*
X166371D01*
Y194419D01*
X166211D01*
Y194366D01*
X166051D01*
Y194312D01*
X165892D01*
Y194259D01*
X165732D01*
Y194206D01*
X165573D01*
Y194153D01*
X165413D01*
Y194100D01*
X165254D01*
Y194046D01*
X164881D01*
Y194100D01*
X164775D01*
Y194153D01*
X164722D01*
Y194206D01*
X164668D01*
Y194259D01*
X164615D01*
Y194312D01*
Y194366D01*
Y194419D01*
Y194472D01*
Y194525D01*
X164668D01*
Y194578D01*
Y194632D01*
X164722D01*
Y194685D01*
Y194738D01*
X164775D01*
Y194791D01*
X164828D01*
Y194844D01*
Y194898D01*
X164881D01*
Y194951D01*
X164934D01*
Y195004D01*
Y195057D01*
X164988D01*
Y195110D01*
X165041D01*
Y195164D01*
Y195217D01*
X165094D01*
Y195270D01*
X165147D01*
Y195323D01*
Y195376D01*
X165200D01*
Y195430D01*
Y195483D01*
X165254D01*
Y195536D01*
X165307D01*
Y195589D01*
Y195642D01*
X165360D01*
Y195695D01*
X165413D01*
Y195749D01*
X165466D01*
Y195802D01*
X165573D01*
Y195855D01*
X166264D01*
Y195908D01*
X166477D01*
Y195961D01*
X166584D01*
Y196015D01*
X166690D01*
Y196068D01*
X166796D01*
Y196121D01*
X166850D01*
Y196174D01*
X166956D01*
Y196228D01*
X167009D01*
Y196281D01*
X167062D01*
Y196334D01*
X167115D01*
Y196387D01*
X167169D01*
Y196440D01*
Y196493D01*
X167222D01*
Y196547D01*
Y196600D01*
Y196653D01*
Y196706D01*
Y196759D01*
X167169D01*
Y196813D01*
Y196866D01*
X167115D01*
Y196919D01*
Y196972D01*
X167062D01*
Y197025D01*
Y197079D01*
Y197132D01*
X167009D01*
Y197185D01*
Y197238D01*
X166956D01*
Y197291D01*
Y197345D01*
Y197398D01*
X166903D01*
Y197451D01*
Y197504D01*
Y197557D01*
X166850D01*
Y197611D01*
Y197664D01*
X166796D01*
Y197717D01*
Y197770D01*
Y197823D01*
X166743D01*
Y197877D01*
Y197930D01*
X166796D01*
Y197983D01*
X166850D01*
Y198036D01*
X166903D01*
Y198089D01*
X166956D01*
Y198143D01*
X167062D01*
Y198196D01*
X167115D01*
Y198249D01*
X167169D01*
Y198302D01*
X167222D01*
Y198355D01*
X167328D01*
Y198408D01*
X167381D01*
Y198462D01*
X167435D01*
Y198515D01*
X167488D01*
Y198462D01*
X167541D01*
Y198408D01*
X167594D01*
Y198355D01*
X167701D01*
Y198302D01*
X167807D01*
Y198355D01*
Y198408D01*
X167860D01*
Y198462D01*
X167913D01*
Y198515D01*
Y198568D01*
X167967D01*
Y198621D01*
X168020D01*
Y198674D01*
X168073D01*
Y198728D01*
X168126D01*
Y198781D01*
X168233D01*
Y198834D01*
X168392D01*
Y198887D01*
X168605D01*
Y198941D01*
X168818D01*
Y198994D01*
X168977D01*
Y198941D01*
Y198887D01*
Y198834D01*
Y198781D01*
Y198728D01*
Y198674D01*
Y198621D01*
Y198568D01*
Y198515D01*
Y198462D01*
Y198408D01*
X169030D01*
Y198355D01*
Y198302D01*
Y198249D01*
Y198196D01*
Y198143D01*
Y198089D01*
Y198036D01*
Y197983D01*
Y197930D01*
Y197877D01*
Y197823D01*
Y197770D01*
Y197717D01*
Y197664D01*
X169084D01*
Y197611D01*
Y197557D01*
Y197504D01*
Y197451D01*
Y197398D01*
Y197345D01*
Y197291D01*
Y197238D01*
Y197185D01*
Y197132D01*
Y197079D01*
Y197025D01*
Y196972D01*
Y196919D01*
Y196866D01*
X169137D01*
Y196813D01*
Y196759D01*
Y196706D01*
Y196653D01*
Y196600D01*
Y196547D01*
Y196493D01*
Y196440D01*
Y196387D01*
X168977D01*
Y196440D01*
X168818D01*
Y196493D01*
X168658D01*
Y196440D01*
X168711D01*
Y196387D01*
Y196334D01*
X168764D01*
Y196281D01*
Y196228D01*
X168818D01*
Y196174D01*
Y196121D01*
X168871D01*
Y196068D01*
Y196015D01*
X168924D01*
Y195961D01*
Y195908D01*
X168977D01*
Y195855D01*
Y195802D01*
X169030D01*
Y195749D01*
Y195695D01*
X169084D01*
Y195642D01*
Y195589D01*
Y195536D01*
X169137D01*
Y195483D01*
Y195430D01*
X169190D01*
Y195376D01*
Y195323D01*
X169243D01*
Y195376D01*
X169297D01*
Y195430D01*
Y195483D01*
Y195536D01*
X169350D01*
Y195589D01*
Y195642D01*
X169403D01*
Y195695D01*
Y195749D01*
X169456D01*
Y195802D01*
Y195855D01*
X169509D01*
Y195908D01*
Y195961D01*
X169562D01*
Y196015D01*
Y196068D01*
X169616D01*
Y196121D01*
Y196174D01*
X169669D01*
Y196228D01*
Y196281D01*
X169722D01*
Y196334D01*
Y196387D01*
X169775D01*
Y196440D01*
Y196493D01*
X169616D01*
Y196440D01*
X169456D01*
Y196387D01*
X169297D01*
Y196440D01*
Y196493D01*
X169350D01*
Y196547D01*
Y196600D01*
Y196653D01*
Y196706D01*
Y196759D01*
Y196813D01*
Y196866D01*
Y196919D01*
Y196972D01*
Y197025D01*
Y197079D01*
Y197132D01*
Y197185D01*
Y197238D01*
Y197291D01*
X169403D01*
Y197345D01*
Y197398D01*
Y197451D01*
Y197504D01*
Y197557D01*
Y197611D01*
Y197664D01*
Y197717D01*
Y197770D01*
Y197823D01*
Y197877D01*
Y197930D01*
Y197983D01*
Y198036D01*
Y198089D01*
X169456D01*
Y198143D01*
Y198196D01*
Y198249D01*
Y198302D01*
Y198355D01*
Y198408D01*
Y198462D01*
Y198515D01*
Y198568D01*
Y198621D01*
Y198674D01*
Y198728D01*
Y198781D01*
Y198834D01*
Y198887D01*
X169509D01*
Y198941D01*
Y198994D01*
X169616D01*
Y198941D01*
D02*
G37*
G36*
X170148Y200643D02*
X170573D01*
Y200590D01*
X170839D01*
Y200536D01*
X171105D01*
Y200483D01*
X171318D01*
Y200430D01*
X171531D01*
Y200377D01*
X171690D01*
Y200324D01*
X171850D01*
Y200270D01*
X172010D01*
Y200217D01*
X172169D01*
Y200164D01*
X172275D01*
Y200111D01*
X172435D01*
Y200058D01*
X172541D01*
Y200004D01*
X172648D01*
Y199951D01*
X172754D01*
Y199898D01*
X172861D01*
Y199845D01*
X172967D01*
Y199792D01*
X173073D01*
Y199738D01*
X173180D01*
Y199685D01*
X173233D01*
Y199632D01*
X173339D01*
Y199579D01*
X173393D01*
Y199526D01*
X173499D01*
Y199472D01*
X173605D01*
Y199419D01*
X173659D01*
Y199366D01*
X173765D01*
Y199313D01*
X173818D01*
Y199260D01*
X173871D01*
Y199206D01*
X173978D01*
Y199153D01*
X174031D01*
Y199100D01*
X174084D01*
Y199047D01*
X174190D01*
Y198994D01*
X174244D01*
Y198941D01*
X174297D01*
Y198887D01*
X174350D01*
Y198834D01*
X174403D01*
Y198781D01*
X174457D01*
Y198728D01*
X174563D01*
Y198674D01*
X174616D01*
Y198621D01*
X174669D01*
Y198568D01*
X174723D01*
Y198515D01*
X174776D01*
Y198462D01*
X174829D01*
Y198408D01*
X174882D01*
Y198355D01*
X174935D01*
Y198302D01*
X174988D01*
Y198249D01*
X175042D01*
Y198196D01*
X175095D01*
Y198143D01*
X175148D01*
Y198089D01*
X175201D01*
Y198036D01*
X175254D01*
Y197983D01*
Y197930D01*
X175308D01*
Y197877D01*
X175361D01*
Y197823D01*
X175414D01*
Y197770D01*
X175467D01*
Y197717D01*
X175520D01*
Y197664D01*
X175574D01*
Y197611D01*
Y197557D01*
X175627D01*
Y197504D01*
X175680D01*
Y197451D01*
X175733D01*
Y197398D01*
X175786D01*
Y197345D01*
X175733D01*
Y197291D01*
X175627D01*
Y197238D01*
X175520D01*
Y197185D01*
X175414D01*
Y197132D01*
X175308D01*
Y197079D01*
X175201D01*
Y197025D01*
X175042D01*
Y196972D01*
X174935D01*
Y196919D01*
X174829D01*
Y196866D01*
X174776D01*
Y196919D01*
X174723D01*
Y196972D01*
X174669D01*
Y197025D01*
X174616D01*
Y197079D01*
X174563D01*
Y197132D01*
Y197185D01*
X174510D01*
Y197238D01*
X174457D01*
Y197291D01*
X174403D01*
Y197345D01*
X174350D01*
Y197398D01*
X174297D01*
Y197451D01*
X174244D01*
Y197504D01*
X174190D01*
Y197557D01*
X174137D01*
Y197611D01*
X174084D01*
Y197664D01*
X174031D01*
Y197717D01*
X173978D01*
Y197770D01*
X173925D01*
Y197823D01*
X173871D01*
Y197877D01*
X173818D01*
Y197930D01*
X173765D01*
Y197983D01*
X173659D01*
Y198036D01*
X173605D01*
Y198089D01*
X173552D01*
Y198143D01*
X173499D01*
Y198196D01*
X173393D01*
Y198249D01*
X173339D01*
Y198302D01*
X173286D01*
Y198355D01*
X173180D01*
Y198408D01*
X173127D01*
Y198462D01*
X173020D01*
Y198515D01*
X172967D01*
Y198568D01*
X172861D01*
Y198621D01*
X172807D01*
Y198674D01*
X172701D01*
Y198728D01*
X172595D01*
Y198781D01*
X172488D01*
Y198834D01*
X172382D01*
Y198887D01*
X172275D01*
Y198941D01*
X172169D01*
Y198994D01*
X172063D01*
Y199047D01*
X171956D01*
Y199100D01*
X171797D01*
Y199153D01*
X171690D01*
Y199206D01*
X171531D01*
Y199260D01*
X171371D01*
Y199313D01*
X171212D01*
Y199366D01*
X170999D01*
Y199419D01*
X170786D01*
Y199472D01*
X170573D01*
Y199526D01*
X170254D01*
Y199579D01*
X169775D01*
Y199632D01*
X168711D01*
Y199579D01*
X168233D01*
Y199526D01*
X167913D01*
Y199472D01*
X167701D01*
Y199419D01*
X167488D01*
Y199366D01*
X167275D01*
Y199313D01*
X167115D01*
Y199260D01*
X166956D01*
Y199206D01*
X166796D01*
Y199153D01*
X166690D01*
Y199100D01*
X166530D01*
Y199047D01*
X166424D01*
Y198994D01*
X166317D01*
Y198941D01*
X166211D01*
Y198887D01*
X166105D01*
Y198834D01*
X165998D01*
Y198781D01*
X165892D01*
Y198728D01*
X165786D01*
Y198674D01*
X165679D01*
Y198621D01*
X165626D01*
Y198568D01*
X165520D01*
Y198515D01*
X165466D01*
Y198462D01*
X165360D01*
Y198408D01*
X165307D01*
Y198355D01*
X165200D01*
Y198302D01*
X165147D01*
Y198249D01*
X165094D01*
Y198196D01*
X164988D01*
Y198143D01*
X164934D01*
Y198089D01*
X164881D01*
Y198036D01*
X164775D01*
Y197983D01*
X164722D01*
Y197930D01*
X164668D01*
Y197877D01*
X164615D01*
Y197823D01*
X164562D01*
Y197770D01*
X164509D01*
Y197717D01*
X164456D01*
Y197664D01*
X164402D01*
Y197611D01*
X164349D01*
Y197557D01*
X164296D01*
Y197504D01*
X164243D01*
Y197451D01*
X164190D01*
Y197398D01*
X164137D01*
Y197345D01*
X164083D01*
Y197291D01*
X164030D01*
Y197238D01*
X163977D01*
Y197185D01*
X163924D01*
Y197132D01*
X163871D01*
Y197079D01*
X163817D01*
Y197025D01*
Y196972D01*
X163764D01*
Y196919D01*
X163711D01*
Y196866D01*
X163658D01*
Y196919D01*
X163498D01*
Y196972D01*
X163392D01*
Y197025D01*
X163285D01*
Y197079D01*
X163179D01*
Y197132D01*
X163073D01*
Y197185D01*
X162913D01*
Y197238D01*
X162806D01*
Y197291D01*
X162700D01*
Y197345D01*
Y197398D01*
X162753D01*
Y197451D01*
Y197504D01*
X162806D01*
Y197557D01*
X162860D01*
Y197611D01*
X162913D01*
Y197664D01*
X162966D01*
Y197717D01*
Y197770D01*
X163019D01*
Y197823D01*
X163073D01*
Y197877D01*
X163126D01*
Y197930D01*
X163179D01*
Y197983D01*
X163232D01*
Y198036D01*
X163285D01*
Y198089D01*
X163338D01*
Y198143D01*
Y198196D01*
X163392D01*
Y198249D01*
X163445D01*
Y198302D01*
X163498D01*
Y198355D01*
X163551D01*
Y198408D01*
X163604D01*
Y198462D01*
X163658D01*
Y198515D01*
X163711D01*
Y198568D01*
X163764D01*
Y198621D01*
X163817D01*
Y198674D01*
X163924D01*
Y198728D01*
X163977D01*
Y198781D01*
X164030D01*
Y198834D01*
X164083D01*
Y198887D01*
X164137D01*
Y198941D01*
X164190D01*
Y198994D01*
X164296D01*
Y199047D01*
X164349D01*
Y199100D01*
X164402D01*
Y199153D01*
X164456D01*
Y199206D01*
X164562D01*
Y199260D01*
X164615D01*
Y199313D01*
X164722D01*
Y199366D01*
X164775D01*
Y199419D01*
X164881D01*
Y199472D01*
X164934D01*
Y199526D01*
X165041D01*
Y199579D01*
X165094D01*
Y199632D01*
X165200D01*
Y199685D01*
X165307D01*
Y199738D01*
X165360D01*
Y199792D01*
X165466D01*
Y199845D01*
X165573D01*
Y199898D01*
X165679D01*
Y199951D01*
X165786D01*
Y200004D01*
X165892D01*
Y200058D01*
X166051D01*
Y200111D01*
X166158D01*
Y200164D01*
X166317D01*
Y200217D01*
X166424D01*
Y200270D01*
X166584D01*
Y200324D01*
X166743D01*
Y200377D01*
X166956D01*
Y200430D01*
X167115D01*
Y200483D01*
X167381D01*
Y200536D01*
X167594D01*
Y200590D01*
X167913D01*
Y200643D01*
X168392D01*
Y200696D01*
X170148D01*
Y200643D01*
D02*
G37*
G36*
X162168Y197238D02*
X162275D01*
Y197185D01*
X162381D01*
Y197132D01*
X162487D01*
Y197079D01*
X162594D01*
Y197025D01*
X162753D01*
Y196972D01*
X162860D01*
Y196919D01*
X162966D01*
Y196866D01*
X163073D01*
Y196813D01*
X163179D01*
Y196759D01*
X163285D01*
Y196706D01*
X163392D01*
Y196653D01*
X163551D01*
Y196600D01*
X163658D01*
Y196547D01*
X163764D01*
Y196493D01*
X163871D01*
Y196440D01*
X163977D01*
Y196387D01*
X164083D01*
Y196334D01*
X164243D01*
Y196281D01*
X164349D01*
Y196228D01*
X164456D01*
Y196174D01*
X164562D01*
Y196121D01*
X164668D01*
Y196068D01*
X164828D01*
Y196015D01*
X164934D01*
Y195961D01*
X165041D01*
Y195908D01*
Y195855D01*
X164988D01*
Y195802D01*
Y195749D01*
X164934D01*
Y195695D01*
X164881D01*
Y195642D01*
Y195589D01*
X164828D01*
Y195536D01*
X164775D01*
Y195483D01*
Y195430D01*
X164722D01*
Y195376D01*
X164668D01*
Y195323D01*
Y195270D01*
X164615D01*
Y195217D01*
X164562D01*
Y195164D01*
Y195110D01*
X164509D01*
Y195057D01*
Y195004D01*
X164456D01*
Y194951D01*
X164402D01*
Y194898D01*
Y194844D01*
X164349D01*
Y194791D01*
X164243D01*
Y194844D01*
X164190D01*
Y194898D01*
X164083D01*
Y194951D01*
X164030D01*
Y195004D01*
X163924D01*
Y195057D01*
X163871D01*
Y195110D01*
X163764D01*
Y195164D01*
X163711D01*
Y195217D01*
X163604D01*
Y195270D01*
X163551D01*
Y195323D01*
X163498D01*
Y195376D01*
X163392D01*
Y195430D01*
X163338D01*
Y195483D01*
X163232D01*
Y195536D01*
X163179D01*
Y195589D01*
X163126D01*
Y195642D01*
X163019D01*
Y195695D01*
X162966D01*
Y195749D01*
X162860D01*
Y195802D01*
X162806D01*
Y195855D01*
X162753D01*
Y195908D01*
X162647D01*
Y195961D01*
X162594D01*
Y196015D01*
X162487D01*
Y196068D01*
X162434D01*
Y196121D01*
X162381D01*
Y196174D01*
X162275D01*
Y196228D01*
X162221D01*
Y196281D01*
X162115D01*
Y196334D01*
X162062D01*
Y196387D01*
X161955D01*
Y196440D01*
X161902D01*
Y196493D01*
X161849D01*
Y196547D01*
X161743D01*
Y196600D01*
X161689D01*
Y196653D01*
X161636D01*
Y196706D01*
X161583D01*
Y196759D01*
Y196813D01*
Y196866D01*
Y196919D01*
Y196972D01*
X161636D01*
Y197025D01*
Y197079D01*
X161689D01*
Y197132D01*
Y197185D01*
X161743D01*
Y197238D01*
X161796D01*
Y197291D01*
X162168D01*
Y197238D01*
D02*
G37*
G36*
X176584Y197291D02*
X176691D01*
Y197238D01*
X176744D01*
Y197185D01*
Y197132D01*
X176797D01*
Y197079D01*
Y197025D01*
X176850D01*
Y196972D01*
X176903D01*
Y196919D01*
Y196866D01*
Y196813D01*
Y196759D01*
Y196706D01*
X176850D01*
Y196653D01*
X176797D01*
Y196600D01*
X176691D01*
Y196547D01*
X176638D01*
Y196493D01*
X176584D01*
Y196440D01*
X176478D01*
Y196387D01*
X176425D01*
Y196334D01*
X176318D01*
Y196281D01*
X176265D01*
Y196228D01*
X176159D01*
Y196174D01*
X176106D01*
Y196121D01*
X176052D01*
Y196068D01*
X175946D01*
Y196015D01*
X175893D01*
Y195961D01*
X175786D01*
Y195908D01*
X175733D01*
Y195855D01*
X175680D01*
Y195802D01*
X175574D01*
Y195749D01*
X175520D01*
Y195695D01*
X175414D01*
Y195642D01*
X175361D01*
Y195589D01*
X175254D01*
Y195536D01*
X175201D01*
Y195483D01*
X175148D01*
Y195430D01*
X175042D01*
Y195376D01*
X174988D01*
Y195323D01*
X174882D01*
Y195270D01*
X174829D01*
Y195217D01*
X174776D01*
Y195164D01*
X174669D01*
Y195110D01*
X174616D01*
Y195057D01*
X174510D01*
Y195004D01*
X174457D01*
Y194951D01*
X174403D01*
Y194898D01*
X174297D01*
Y194844D01*
X174244D01*
Y194791D01*
X174137D01*
Y194844D01*
X174084D01*
Y194898D01*
X174031D01*
Y194951D01*
Y195004D01*
X173978D01*
Y195057D01*
X173925D01*
Y195110D01*
Y195164D01*
X173871D01*
Y195217D01*
X173818D01*
Y195270D01*
Y195323D01*
X173765D01*
Y195376D01*
X173712D01*
Y195430D01*
Y195483D01*
X173659D01*
Y195536D01*
X173605D01*
Y195589D01*
Y195642D01*
X173552D01*
Y195695D01*
X173499D01*
Y195749D01*
Y195802D01*
X173446D01*
Y195855D01*
Y195908D01*
Y195961D01*
X173552D01*
Y196015D01*
X173659D01*
Y196068D01*
X173765D01*
Y196121D01*
X173925D01*
Y196174D01*
X174031D01*
Y196228D01*
X174137D01*
Y196281D01*
X174244D01*
Y196334D01*
X174350D01*
Y196387D01*
X174457D01*
Y196440D01*
X174563D01*
Y196493D01*
X174669D01*
Y196547D01*
X174829D01*
Y196600D01*
X174935D01*
Y196653D01*
X175042D01*
Y196706D01*
X175148D01*
Y196759D01*
X175254D01*
Y196813D01*
X175414D01*
Y196866D01*
X175520D01*
Y196919D01*
X175627D01*
Y196972D01*
X175733D01*
Y197025D01*
X175840D01*
Y197079D01*
X175946D01*
Y197132D01*
X176106D01*
Y197185D01*
X176212D01*
Y197238D01*
X176318D01*
Y197291D01*
X176478D01*
Y197345D01*
X176584D01*
Y197291D01*
D02*
G37*
%LPC*%
G36*
X199626Y139940D02*
X199363D01*
Y139874D01*
X198639D01*
Y139808D01*
X198309D01*
Y139742D01*
X198112D01*
Y139677D01*
X197980D01*
Y139611D01*
X197849D01*
Y139545D01*
X197651D01*
Y139479D01*
X197585D01*
Y139413D01*
X197520D01*
Y139347D01*
X197388D01*
Y139282D01*
X197322D01*
Y139216D01*
X197256D01*
Y139150D01*
X197190D01*
Y139084D01*
X197125D01*
Y139018D01*
X197059D01*
Y138952D01*
X196993D01*
Y138887D01*
X196927D01*
Y138821D01*
Y138755D01*
X196861D01*
Y138689D01*
X196795D01*
Y138623D01*
Y138558D01*
X196730D01*
Y138492D01*
Y138426D01*
Y138360D01*
X196664D01*
Y138294D01*
Y138228D01*
Y138163D01*
X196598D01*
Y138097D01*
Y138031D01*
Y137965D01*
Y137899D01*
Y137833D01*
Y137768D01*
Y137702D01*
Y137636D01*
Y137570D01*
Y137504D01*
Y137438D01*
Y137373D01*
Y137307D01*
Y137241D01*
Y137175D01*
X196664D01*
Y137109D01*
Y137043D01*
Y136978D01*
X196730D01*
Y136912D01*
Y136846D01*
Y136780D01*
X196795D01*
Y136714D01*
Y136648D01*
X196861D01*
Y136583D01*
Y136517D01*
X196927D01*
Y136451D01*
X196993D01*
Y136385D01*
Y136319D01*
X197059D01*
Y136253D01*
X197125D01*
Y136188D01*
X197190D01*
Y136122D01*
Y136056D01*
X197256D01*
Y135990D01*
X197322D01*
Y135924D01*
X197454D01*
Y135858D01*
X197520D01*
Y135793D01*
X197585D01*
Y135727D01*
X197651D01*
Y135661D01*
X197783D01*
Y135595D01*
X197915D01*
Y135529D01*
X198046D01*
Y135463D01*
X198309D01*
Y135398D01*
X199889D01*
Y135332D01*
X200284D01*
Y135266D01*
X200613D01*
Y135200D01*
X200811D01*
Y135134D01*
X201074D01*
Y135068D01*
X201272D01*
Y135003D01*
X201469D01*
Y134937D01*
X201601D01*
Y134871D01*
X201799D01*
Y134805D01*
X201930D01*
Y134739D01*
X202062D01*
Y134674D01*
X202193D01*
Y134608D01*
X202325D01*
Y134542D01*
X202523D01*
Y134476D01*
X202654D01*
Y134410D01*
X202720D01*
Y134344D01*
X202852D01*
Y134279D01*
X202983D01*
Y134213D01*
X203049D01*
Y134147D01*
X203181D01*
Y134081D01*
X203247D01*
Y134015D01*
X203378D01*
Y133949D01*
X203444D01*
Y133884D01*
X203510D01*
Y133818D01*
X203576D01*
Y133752D01*
X203642D01*
Y133686D01*
X203708D01*
Y133620D01*
X203773D01*
Y133554D01*
X203839D01*
Y133489D01*
X203905D01*
Y133423D01*
Y133357D01*
X203971D01*
Y133291D01*
X204037D01*
Y133225D01*
Y133159D01*
X204102D01*
Y133094D01*
X204168D01*
Y133028D01*
Y132962D01*
Y132896D01*
X204234D01*
Y132830D01*
Y132764D01*
X204300D01*
Y132699D01*
Y132633D01*
X204366D01*
Y132567D01*
Y132501D01*
Y132435D01*
Y132369D01*
X204432D01*
Y132304D01*
Y132238D01*
Y132172D01*
Y132106D01*
Y132040D01*
Y131974D01*
Y131909D01*
X204498D01*
Y131843D01*
Y131777D01*
Y131711D01*
Y131645D01*
Y131579D01*
Y131514D01*
Y131448D01*
Y131382D01*
Y131316D01*
Y131250D01*
Y131184D01*
Y131119D01*
X204432D01*
Y131053D01*
Y130987D01*
Y130921D01*
Y130855D01*
Y130789D01*
Y130724D01*
Y130658D01*
Y130592D01*
X204366D01*
Y130526D01*
Y130460D01*
Y130394D01*
Y130329D01*
Y130263D01*
Y130197D01*
Y130131D01*
Y130065D01*
Y129999D01*
Y129934D01*
Y129868D01*
Y129802D01*
Y129736D01*
Y129670D01*
X204432D01*
Y129604D01*
Y129539D01*
Y129473D01*
Y129407D01*
Y129341D01*
X204498D01*
Y129275D01*
Y129209D01*
Y129144D01*
X204563D01*
Y129078D01*
Y129012D01*
Y128946D01*
X204629D01*
Y128880D01*
X204695D01*
Y128814D01*
Y128749D01*
X204761D01*
Y128683D01*
Y128617D01*
X204827D01*
Y128551D01*
X204892D01*
Y128485D01*
X204958D01*
Y128419D01*
X205024D01*
Y128354D01*
X205090D01*
Y128288D01*
X205156D01*
Y128222D01*
X205222D01*
Y128156D01*
X205353D01*
Y128090D01*
X205419D01*
Y128024D01*
X205551D01*
Y127959D01*
X205682D01*
Y127893D01*
X205880D01*
Y127827D01*
X206078D01*
Y127761D01*
X206933D01*
Y127827D01*
X207197D01*
Y127893D01*
X207394D01*
Y127959D01*
X207592D01*
Y128024D01*
X207657D01*
Y128090D01*
X207789D01*
Y128156D01*
X207921D01*
Y128222D01*
X207986D01*
Y128288D01*
X208052D01*
Y128354D01*
X208184D01*
Y128419D01*
X208250D01*
Y128485D01*
Y128551D01*
X208316D01*
Y128617D01*
X208382D01*
Y128683D01*
X208447D01*
Y128749D01*
X208513D01*
Y128814D01*
Y128880D01*
X208579D01*
Y128946D01*
Y129012D01*
X208645D01*
Y129078D01*
Y129144D01*
Y129209D01*
Y129275D01*
X208711D01*
Y129341D01*
Y129407D01*
Y129473D01*
Y129539D01*
Y129604D01*
Y129670D01*
X208776D01*
Y129736D01*
Y129802D01*
Y129868D01*
Y129934D01*
Y129999D01*
Y130065D01*
Y130131D01*
Y130197D01*
X208842D01*
Y130263D01*
Y130329D01*
Y130394D01*
Y130460D01*
Y130526D01*
Y130592D01*
Y130658D01*
Y130724D01*
Y130789D01*
Y130855D01*
X208908D01*
Y130921D01*
Y130987D01*
Y131053D01*
Y131119D01*
Y131184D01*
Y131250D01*
Y131316D01*
Y131382D01*
Y131448D01*
Y131514D01*
Y131579D01*
Y131645D01*
Y131711D01*
Y131777D01*
Y131843D01*
Y131909D01*
Y131974D01*
Y132040D01*
Y132106D01*
Y132172D01*
X208842D01*
Y132238D01*
Y132304D01*
Y132369D01*
Y132435D01*
Y132501D01*
Y132567D01*
Y132633D01*
Y132699D01*
Y132764D01*
Y132830D01*
X208776D01*
Y132896D01*
Y132962D01*
Y133028D01*
Y133094D01*
Y133159D01*
Y133225D01*
Y133291D01*
X208711D01*
Y133357D01*
Y133423D01*
Y133489D01*
Y133554D01*
X208645D01*
Y133620D01*
Y133686D01*
Y133752D01*
Y133818D01*
X208579D01*
Y133884D01*
Y133949D01*
Y134015D01*
X208513D01*
Y134081D01*
Y134147D01*
Y134213D01*
Y134279D01*
X208447D01*
Y134344D01*
Y134410D01*
X208382D01*
Y134476D01*
Y134542D01*
Y134608D01*
X208316D01*
Y134674D01*
Y134739D01*
X208250D01*
Y134805D01*
Y134871D01*
X208184D01*
Y134937D01*
Y135003D01*
Y135068D01*
X208118D01*
Y135134D01*
Y135200D01*
X208052D01*
Y135266D01*
X207986D01*
Y135332D01*
Y135398D01*
X207921D01*
Y135463D01*
Y135529D01*
X207855D01*
Y135595D01*
X207789D01*
Y135661D01*
Y135727D01*
X207723D01*
Y135793D01*
X207657D01*
Y135858D01*
Y135924D01*
X207592D01*
Y135990D01*
X207526D01*
Y136056D01*
Y136122D01*
X207460D01*
Y136188D01*
X207394D01*
Y136253D01*
X207328D01*
Y136319D01*
X207262D01*
Y136385D01*
Y136451D01*
X207197D01*
Y136517D01*
X207131D01*
Y136583D01*
X207065D01*
Y136648D01*
X206999D01*
Y136714D01*
X206933D01*
Y136780D01*
X206867D01*
Y136846D01*
X206802D01*
Y136912D01*
X206736D01*
Y136978D01*
X206670D01*
Y137043D01*
X206604D01*
Y137109D01*
X206538D01*
Y137175D01*
X206407D01*
Y137241D01*
X206341D01*
Y137307D01*
X206275D01*
Y137373D01*
X206209D01*
Y137438D01*
X206143D01*
Y137504D01*
X206012D01*
Y137570D01*
X205946D01*
Y137636D01*
X205880D01*
Y137702D01*
X205748D01*
Y137768D01*
X205682D01*
Y137833D01*
X205551D01*
Y137899D01*
X205485D01*
Y137965D01*
X205353D01*
Y138031D01*
X205288D01*
Y138097D01*
X205156D01*
Y138163D01*
X205090D01*
Y138228D01*
X204958D01*
Y138294D01*
X204827D01*
Y138360D01*
X204695D01*
Y138426D01*
X204629D01*
Y138492D01*
X204498D01*
Y138558D01*
X204366D01*
Y138623D01*
X204234D01*
Y138689D01*
X204102D01*
Y138755D01*
X203971D01*
Y138821D01*
X203839D01*
Y138887D01*
X203642D01*
Y138952D01*
X203510D01*
Y139018D01*
X203378D01*
Y139084D01*
X203181D01*
Y139150D01*
X203049D01*
Y139216D01*
X202852D01*
Y139282D01*
X202654D01*
Y139347D01*
X202457D01*
Y139413D01*
X202259D01*
Y139479D01*
X202062D01*
Y139545D01*
X201799D01*
Y139611D01*
X201535D01*
Y139677D01*
X201272D01*
Y139742D01*
X200943D01*
Y139808D01*
X200482D01*
Y139874D01*
X199626D01*
Y139940D01*
D02*
G37*
G36*
X169828Y196547D02*
X169775D01*
Y196493D01*
X169828D01*
Y196547D01*
D02*
G37*
%LPD*%
G36*
X207789Y133291D02*
X207921D01*
Y133225D01*
X208052D01*
Y133159D01*
X208118D01*
Y133094D01*
Y133028D01*
X208184D01*
Y132962D01*
X208250D01*
Y132896D01*
Y132830D01*
Y132764D01*
Y132699D01*
X208316D01*
Y132633D01*
Y132567D01*
X208250D01*
Y132501D01*
Y132435D01*
Y132369D01*
Y132304D01*
X208184D01*
Y132238D01*
X208118D01*
Y132172D01*
Y132106D01*
X207986D01*
Y132040D01*
X207921D01*
Y131974D01*
X207723D01*
Y131909D01*
X207394D01*
Y131974D01*
X207197D01*
Y132040D01*
X207131D01*
Y132106D01*
X206999D01*
Y132172D01*
Y132238D01*
X206933D01*
Y132304D01*
X206867D01*
Y132369D01*
Y132435D01*
Y132501D01*
Y132567D01*
Y132633D01*
Y132699D01*
Y132764D01*
Y132830D01*
Y132896D01*
Y132962D01*
X206933D01*
Y133028D01*
X206999D01*
Y133094D01*
Y133159D01*
X207065D01*
Y133225D01*
X207197D01*
Y133291D01*
X207328D01*
Y133357D01*
X207789D01*
Y133291D01*
D02*
G37*
G36*
X204958Y134410D02*
X205024D01*
Y134344D01*
X205090D01*
Y134279D01*
X205156D01*
Y134213D01*
Y134147D01*
Y134081D01*
Y134015D01*
Y133949D01*
Y133884D01*
X205090D01*
Y133818D01*
Y133752D01*
X204958D01*
Y133686D01*
X204563D01*
Y133752D01*
X204498D01*
Y133818D01*
X204432D01*
Y133884D01*
Y133949D01*
X204366D01*
Y134015D01*
Y134081D01*
Y134147D01*
Y134213D01*
X204432D01*
Y134279D01*
Y134344D01*
X204498D01*
Y134410D01*
X204629D01*
Y134476D01*
X204958D01*
Y134410D01*
D02*
G37*
G36*
X206209Y131711D02*
X206407D01*
Y131645D01*
X206472D01*
Y131579D01*
X206538D01*
Y131514D01*
X206604D01*
Y131448D01*
Y131382D01*
Y131316D01*
Y131250D01*
Y131184D01*
Y131119D01*
Y131053D01*
Y130987D01*
X206538D01*
Y130921D01*
X206472D01*
Y130855D01*
X206407D01*
Y130789D01*
X206341D01*
Y130724D01*
X205946D01*
Y130789D01*
X205814D01*
Y130855D01*
X205748D01*
Y130921D01*
X205682D01*
Y130987D01*
X205617D01*
Y131053D01*
Y131119D01*
Y131184D01*
Y131250D01*
Y131316D01*
Y131382D01*
Y131448D01*
X205682D01*
Y131514D01*
Y131579D01*
X205748D01*
Y131645D01*
X205814D01*
Y131711D01*
X206012D01*
Y131777D01*
X206209D01*
Y131711D01*
D02*
G37*
G36*
X205617Y129868D02*
X205880D01*
Y129802D01*
X205946D01*
Y129736D01*
X206012D01*
Y129670D01*
X206078D01*
Y129604D01*
Y129539D01*
X206143D01*
Y129473D01*
Y129407D01*
Y129341D01*
Y129275D01*
Y129209D01*
Y129144D01*
X206078D01*
Y129078D01*
Y129012D01*
X206012D01*
Y128946D01*
X205946D01*
Y128880D01*
X205880D01*
Y128814D01*
X205682D01*
Y128749D01*
X205419D01*
Y128814D01*
X205288D01*
Y128880D01*
X205156D01*
Y128946D01*
X205090D01*
Y129012D01*
Y129078D01*
X205024D01*
Y129144D01*
Y129209D01*
Y129275D01*
Y129341D01*
Y129407D01*
Y129473D01*
Y129539D01*
Y129604D01*
X205090D01*
Y129670D01*
Y129736D01*
X205156D01*
Y129802D01*
X205288D01*
Y129868D01*
X205485D01*
Y129934D01*
X205617D01*
Y129868D01*
D02*
G37*
G36*
X207394Y129670D02*
X207460D01*
Y129604D01*
X207526D01*
Y129539D01*
X207592D01*
Y129473D01*
Y129407D01*
Y129341D01*
Y129275D01*
Y129209D01*
Y129144D01*
X207526D01*
Y129078D01*
Y129012D01*
X207394D01*
Y128946D01*
X206999D01*
Y129012D01*
X206933D01*
Y129078D01*
X206867D01*
Y129144D01*
Y129209D01*
X206802D01*
Y129275D01*
Y129341D01*
Y129407D01*
Y129473D01*
X206867D01*
Y129539D01*
Y129604D01*
X206933D01*
Y129670D01*
X207065D01*
Y129736D01*
X207394D01*
Y129670D01*
D02*
G37*
G36*
X206670Y135332D02*
X206736D01*
Y135266D01*
X206802D01*
Y135200D01*
X206867D01*
Y135134D01*
Y135068D01*
Y135003D01*
Y134937D01*
Y134871D01*
Y134805D01*
X206802D01*
Y134739D01*
Y134674D01*
X206670D01*
Y134608D01*
X206275D01*
Y134674D01*
X206209D01*
Y134739D01*
X206143D01*
Y134805D01*
X206078D01*
Y134871D01*
Y134937D01*
Y135003D01*
Y135068D01*
Y135134D01*
Y135200D01*
X206143D01*
Y135266D01*
X206209D01*
Y135332D01*
X206275D01*
Y135398D01*
X206670D01*
Y135332D01*
D02*
G37*
G36*
X198309Y137307D02*
X198375D01*
Y137241D01*
X198441D01*
Y137175D01*
Y137109D01*
Y137043D01*
Y136978D01*
Y136912D01*
X198375D01*
Y136846D01*
Y136780D01*
X198178D01*
Y136714D01*
X198112D01*
Y136780D01*
X197915D01*
Y136846D01*
X197849D01*
Y136912D01*
Y136978D01*
Y137043D01*
Y137109D01*
Y137175D01*
Y137241D01*
X197915D01*
Y137307D01*
X197980D01*
Y137373D01*
X198309D01*
Y137307D01*
D02*
G37*
G36*
X202588Y138426D02*
X202720D01*
Y138360D01*
X202786D01*
Y138294D01*
X202852D01*
Y138228D01*
Y138163D01*
Y138097D01*
X202918D01*
Y138031D01*
Y137965D01*
Y137899D01*
Y137833D01*
X202852D01*
Y137768D01*
Y137702D01*
X202786D01*
Y137636D01*
X202720D01*
Y137570D01*
X202654D01*
Y137504D01*
X202457D01*
Y137438D01*
X202325D01*
Y137504D01*
X202128D01*
Y137570D01*
X202062D01*
Y137636D01*
X201996D01*
Y137702D01*
X201930D01*
Y137768D01*
Y137833D01*
X201864D01*
Y137899D01*
Y137965D01*
Y138031D01*
Y138097D01*
Y138163D01*
X201930D01*
Y138228D01*
Y138294D01*
X201996D01*
Y138360D01*
X202062D01*
Y138426D01*
X202193D01*
Y138492D01*
X202588D01*
Y138426D01*
D02*
G37*
G36*
X199363Y139150D02*
X199560D01*
Y139084D01*
X199626D01*
Y139018D01*
X199692D01*
Y138952D01*
X199758D01*
Y138887D01*
X199824D01*
Y138821D01*
Y138755D01*
Y138689D01*
X199889D01*
Y138623D01*
Y138558D01*
Y138492D01*
Y138426D01*
Y138360D01*
Y138294D01*
Y138228D01*
X199824D01*
Y138163D01*
Y138097D01*
X199758D01*
Y138031D01*
Y137965D01*
X199692D01*
Y137899D01*
X199560D01*
Y137833D01*
X199494D01*
Y137768D01*
X199297D01*
Y137702D01*
X199034D01*
Y137768D01*
X198770D01*
Y137833D01*
X198704D01*
Y137899D01*
X198573D01*
Y137965D01*
Y138031D01*
X198507D01*
Y138097D01*
X198441D01*
Y138163D01*
Y138228D01*
Y138294D01*
Y138360D01*
X198375D01*
Y138426D01*
Y138492D01*
Y138558D01*
Y138623D01*
X198441D01*
Y138689D01*
Y138755D01*
Y138821D01*
X198507D01*
Y138887D01*
Y138952D01*
X198573D01*
Y139018D01*
X198639D01*
Y139084D01*
X198770D01*
Y139150D01*
X198902D01*
Y139216D01*
X199363D01*
Y139150D01*
D02*
G37*
G36*
X203049Y136780D02*
X203247D01*
Y136714D01*
X203313D01*
Y136648D01*
X203444D01*
Y136583D01*
Y136517D01*
X203510D01*
Y136451D01*
X203576D01*
Y136385D01*
Y136319D01*
Y136253D01*
X203642D01*
Y136188D01*
Y136122D01*
Y136056D01*
Y135990D01*
Y135924D01*
X203576D01*
Y135858D01*
Y135793D01*
Y135727D01*
X203510D01*
Y135661D01*
X203444D01*
Y135595D01*
Y135529D01*
X203378D01*
Y135463D01*
X203247D01*
Y135398D01*
X203049D01*
Y135332D01*
X202654D01*
Y135398D01*
X202523D01*
Y135463D01*
X202391D01*
Y135529D01*
X202325D01*
Y135595D01*
X202259D01*
Y135661D01*
Y135727D01*
X202193D01*
Y135793D01*
Y135858D01*
X202128D01*
Y135924D01*
Y135990D01*
Y136056D01*
Y136122D01*
Y136188D01*
Y136253D01*
Y136319D01*
X202193D01*
Y136385D01*
Y136451D01*
X202259D01*
Y136517D01*
Y136583D01*
X202325D01*
Y136648D01*
X202391D01*
Y136714D01*
X202523D01*
Y136780D01*
X202720D01*
Y136846D01*
X203049D01*
Y136780D01*
D02*
G37*
G36*
X200021Y137043D02*
X200153D01*
Y136978D01*
X200284D01*
Y136912D01*
X200350D01*
Y136846D01*
Y136780D01*
X200416D01*
Y136714D01*
Y136648D01*
Y136583D01*
Y136517D01*
Y136451D01*
Y136385D01*
X200350D01*
Y136319D01*
Y136253D01*
X200284D01*
Y136188D01*
X200219D01*
Y136122D01*
X200087D01*
Y136056D01*
X199692D01*
Y136122D01*
X199626D01*
Y136188D01*
X199494D01*
Y136253D01*
Y136319D01*
X199429D01*
Y136385D01*
Y136451D01*
Y136517D01*
X199363D01*
Y136583D01*
Y136648D01*
X199429D01*
Y136714D01*
Y136780D01*
Y136846D01*
X199494D01*
Y136912D01*
X199560D01*
Y136978D01*
X199626D01*
Y137043D01*
X199824D01*
Y137109D01*
X200021D01*
Y137043D01*
D02*
G37*
G36*
X204892Y137175D02*
X204958D01*
Y137109D01*
Y137043D01*
X205024D01*
Y136978D01*
Y136912D01*
Y136846D01*
X204958D01*
Y136780D01*
Y136714D01*
X204892D01*
Y136648D01*
X204498D01*
Y136714D01*
X204432D01*
Y136780D01*
X204366D01*
Y136846D01*
Y136912D01*
Y136978D01*
Y137043D01*
X204432D01*
Y137109D01*
Y137175D01*
X204498D01*
Y137241D01*
X204892D01*
Y137175D01*
D02*
G37*
D95*
X181988Y147146D02*
D03*
X174075Y235827D02*
D03*
X164075D02*
D03*
X126614Y236221D02*
D03*
X136614D02*
D03*
X212362D02*
D03*
X202362D02*
D03*
X181653Y105512D02*
D03*
X171653D02*
D03*
X161653D02*
D03*
X136378Y221850D02*
D03*
X126378D02*
D03*
D96*
X107283Y205118D02*
D03*
Y200787D02*
D03*
Y196457D02*
D03*
Y192126D02*
D03*
Y187795D02*
D03*
Y183465D02*
D03*
Y179134D02*
D03*
Y174803D02*
D03*
D97*
X117047Y170276D02*
D03*
D98*
X114075Y211516D02*
D03*
D99*
X118996Y212402D02*
D03*
D100*
X122835Y208760D02*
D03*
D101*
X221285Y210236D02*
D03*
Y206299D02*
D03*
X221334Y202362D02*
D03*
Y198425D02*
D03*
X221432Y129921D02*
D03*
Y133858D02*
D03*
X221383Y137795D02*
D03*
Y141732D02*
D03*
D102*
X236591Y215354D02*
D03*
Y193307D02*
D03*
X236689Y124803D02*
D03*
Y146850D02*
D03*
D103*
X134449Y149409D02*
D03*
X127559D02*
D03*
D104*
X176378Y176575D02*
D03*
Y173031D02*
D03*
X192913Y229724D02*
D03*
Y226181D02*
D03*
X183465Y229724D02*
D03*
Y226181D02*
D03*
X188189Y229724D02*
D03*
Y226181D02*
D03*
X152657Y104232D02*
D03*
Y107776D02*
D03*
X158760Y214272D02*
D03*
Y210728D02*
D03*
D105*
X212992Y162205D02*
D03*
Y159055D02*
D03*
X172835Y176378D02*
D03*
Y173228D02*
D03*
D106*
X169753Y162272D02*
D03*
X171980Y164499D02*
D03*
D107*
X127165Y131890D02*
D03*
Y125984D02*
D03*
D108*
X205433Y216535D02*
D03*
Y214173D02*
D03*
X212677D02*
D03*
Y216535D02*
D03*
D109*
X206693Y211732D02*
D03*
X209055D02*
D03*
X211417D02*
D03*
Y218976D02*
D03*
X209055D02*
D03*
X206693D02*
D03*
D110*
X106496Y136221D02*
D03*
Y145669D02*
D03*
D111*
X116142Y128347D02*
D03*
Y153543D02*
D03*
D112*
X117028Y140945D02*
D03*
Y143504D02*
D03*
Y146063D02*
D03*
Y135827D02*
D03*
Y138386D02*
D03*
D113*
X126476Y165256D02*
D03*
Y157776D02*
D03*
X118602Y161516D02*
D03*
D114*
X141240Y106929D02*
D03*
Y116929D02*
D03*
X198622Y106535D02*
D03*
Y116535D02*
D03*
X127953Y106929D02*
D03*
Y116929D02*
D03*
X212106Y106437D02*
D03*
Y116437D02*
D03*
D115*
X200000Y222441D02*
D03*
Y216929D02*
D03*
X142618Y194095D02*
D03*
Y188583D02*
D03*
X148031Y188484D02*
D03*
Y182973D02*
D03*
D116*
X210630Y222835D02*
D03*
X207480D02*
D03*
D117*
X156819Y232579D02*
D03*
Y238878D02*
D03*
X144095Y232579D02*
D03*
Y238878D02*
D03*
X150457Y232579D02*
D03*
Y238878D02*
D03*
D118*
X153606Y226984D02*
D03*
X147307D02*
D03*
D119*
X188189Y239469D02*
D03*
Y233760D02*
D03*
X192913Y239469D02*
D03*
Y233760D02*
D03*
D120*
X183465D02*
D03*
Y239469D02*
D03*
D121*
X127756Y142126D02*
D03*
X132087D02*
D03*
X127756Y138189D02*
D03*
X132087D02*
D03*
X164370Y132480D02*
D03*
X168701D02*
D03*
D122*
X194095Y170866D02*
D03*
D123*
X182283Y187500D02*
D03*
Y184941D02*
D03*
Y182382D02*
D03*
Y179823D02*
D03*
Y177264D02*
D03*
Y174705D02*
D03*
Y172146D02*
D03*
Y169587D02*
D03*
Y167027D02*
D03*
Y164469D02*
D03*
Y161909D02*
D03*
Y159350D02*
D03*
Y156791D02*
D03*
Y154232D02*
D03*
X205906Y187500D02*
D03*
Y184941D02*
D03*
Y182382D02*
D03*
Y179823D02*
D03*
Y177264D02*
D03*
Y174705D02*
D03*
Y172146D02*
D03*
Y169587D02*
D03*
Y167027D02*
D03*
Y164469D02*
D03*
Y161909D02*
D03*
Y159350D02*
D03*
Y156791D02*
D03*
Y154232D02*
D03*
D124*
X171653Y113386D02*
D03*
Y125984D02*
D03*
X161417Y113386D02*
D03*
Y125984D02*
D03*
D125*
X226969Y169882D02*
D03*
Y161221D02*
D03*
X220669Y169882D02*
D03*
Y161221D02*
D03*
D126*
X236516Y186713D02*
D03*
Y173327D02*
D03*
Y168110D02*
D03*
Y154724D02*
D03*
D127*
X137894Y194783D02*
D03*
Y187303D02*
D03*
X128445D02*
D03*
Y191043D02*
D03*
Y194783D02*
D03*
D128*
X130413Y181299D02*
D03*
X135925D02*
D03*
D129*
X145669Y199016D02*
D03*
X149606D02*
D03*
D130*
X149311Y203248D02*
D03*
X145768D02*
D03*
D131*
X147638Y217913D02*
D03*
D132*
X151378Y209154D02*
D03*
X143898D02*
D03*
D133*
X107185Y164370D02*
D03*
Y160039D02*
D03*
X102953Y164370D02*
D03*
Y160039D02*
D03*
D134*
X172539Y212402D02*
D03*
X163484Y208661D02*
D03*
Y216142D02*
D03*
D135*
X163287Y223031D02*
D03*
X175689D02*
D03*
D136*
X147835Y134350D02*
D03*
Y123721D02*
D03*
D137*
X231004Y230807D02*
D03*
X110925D02*
D03*
D138*
Y110728D02*
D03*
X231004D02*
D03*
D139*
X106496Y127953D02*
D03*
Y153937D02*
D03*
D140*
X164961Y208169D02*
D03*
M02*
