G04 Layer_Physical_Order=3*
G04 Layer_Color=56745*
%FSLAX25Y25*%
%MOIN*%
G70*
G01*
G75*
%ADD52C,0.00787*%
%ADD53C,0.01969*%
%ADD58C,0.03937*%
%ADD62C,0.18701*%
%ADD63C,0.17716*%
%ADD64C,0.01969*%
%ADD65C,0.03150*%
%ADD66C,0.02362*%
%ADD67C,0.02756*%
%ADD68C,0.05000*%
G36*
X160569Y240269D02*
X160389Y240000D01*
X160264Y239370D01*
X160389Y238740D01*
X160746Y238206D01*
X161280Y237850D01*
X161697Y237767D01*
X161648Y237266D01*
X143555D01*
X142877Y237177D01*
X142245Y236915D01*
X141702Y236499D01*
X111139Y205936D01*
X110722Y205393D01*
X110461Y204761D01*
X110371Y204082D01*
Y187992D01*
Y161417D01*
Y155422D01*
X109871Y155271D01*
X109605Y155668D01*
X108811Y156199D01*
X107874Y156386D01*
X105118D01*
X104181Y156199D01*
X103387Y155668D01*
X102856Y154874D01*
X102670Y153937D01*
X102856Y153000D01*
X103387Y152206D01*
X104181Y151675D01*
X105118Y151488D01*
X107874D01*
X108811Y151675D01*
X109605Y152206D01*
X109871Y152603D01*
X110371Y152452D01*
Y144097D01*
X110461Y143419D01*
X110722Y142787D01*
X111139Y142244D01*
X120195Y133188D01*
X120738Y132771D01*
X121370Y132510D01*
X122048Y132420D01*
X122727Y132510D01*
X123359Y132771D01*
X123901Y133188D01*
X125593Y134879D01*
X142418D01*
X145981Y131316D01*
X146037Y131273D01*
X146080Y131218D01*
X146623Y130801D01*
X147255Y130539D01*
X147933Y130450D01*
X148346Y130504D01*
X148846Y130142D01*
Y113091D01*
X148972Y112461D01*
X149328Y111927D01*
X149862Y111570D01*
X150492Y111445D01*
X151122Y111570D01*
X151656Y111927D01*
X152013Y112461D01*
X152138Y113091D01*
Y133788D01*
X152335Y134263D01*
X152424Y134941D01*
X152335Y135619D01*
X152073Y136251D01*
X151656Y136794D01*
X151114Y137211D01*
X150481Y137472D01*
X149803Y137562D01*
X149125Y137472D01*
X148493Y137211D01*
X147950Y136794D01*
X147916D01*
X145357Y139353D01*
X144814Y139770D01*
X144182Y140032D01*
X143504Y140121D01*
X124507D01*
X123829Y140032D01*
X123197Y139770D01*
X122654Y139353D01*
X122298Y138997D01*
X121798D01*
X115613Y145183D01*
Y161417D01*
Y186543D01*
X123416D01*
X123506Y186483D01*
X124213Y186343D01*
X124919Y186483D01*
X125518Y186883D01*
X125918Y187482D01*
X126059Y188189D01*
X125918Y188896D01*
X125858Y188986D01*
Y193003D01*
X125918Y193093D01*
X126059Y193799D01*
X125918Y194506D01*
X125518Y195105D01*
X124919Y195505D01*
X124213Y195646D01*
X123506Y195505D01*
X122907Y195105D01*
X122507Y194506D01*
X122366Y193799D01*
X122507Y193093D01*
X122412Y192727D01*
X121988Y192465D01*
X121358Y192591D01*
X121254Y192570D01*
X120900Y192923D01*
X120937Y193110D01*
X120812Y193740D01*
X120455Y194274D01*
X120035Y194555D01*
X119999Y194708D01*
Y194958D01*
X120035Y195110D01*
X120455Y195391D01*
X120812Y195925D01*
X120937Y196555D01*
X120812Y197185D01*
X120455Y197719D01*
X120290Y197829D01*
Y198431D01*
X120455Y198541D01*
X120812Y199075D01*
X120937Y199705D01*
X120812Y200335D01*
X120455Y200869D01*
X120339Y200946D01*
Y201547D01*
X120554Y201691D01*
X120910Y202224D01*
X121036Y202854D01*
X120910Y203484D01*
X120554Y204018D01*
X120020Y204375D01*
X119390Y204500D01*
X118760Y204375D01*
X118226Y204018D01*
X117869Y203484D01*
X117744Y202854D01*
X117869Y202224D01*
X118226Y201691D01*
X118342Y201613D01*
Y201012D01*
X118128Y200869D01*
X117771Y200335D01*
X117646Y199705D01*
X117771Y199075D01*
X118128Y198541D01*
X118293Y198431D01*
Y197829D01*
X118128Y197719D01*
X117771Y197185D01*
X117646Y196555D01*
X117771Y195925D01*
X118128Y195391D01*
X118548Y195110D01*
X118584Y194958D01*
Y194708D01*
X118548Y194555D01*
X118128Y194274D01*
X117771Y193740D01*
X117646Y193110D01*
X117771Y192480D01*
X118128Y191946D01*
X118661Y191590D01*
X119291Y191464D01*
X119396Y191485D01*
X119750Y191132D01*
X119712Y190945D01*
X119834Y190335D01*
X119843Y190246D01*
X119579Y189835D01*
X115613D01*
Y202997D01*
X120745Y208129D01*
X121311Y207988D01*
X121572Y207596D01*
X122106Y207239D01*
X122736Y207114D01*
X123366Y207239D01*
X123900Y207596D01*
X124257Y208130D01*
X124382Y208760D01*
X124257Y209390D01*
X123900Y209924D01*
X123508Y210185D01*
X123367Y210751D01*
X144641Y232025D01*
X167454D01*
X167606Y231525D01*
X167537Y231479D01*
X167180Y230945D01*
X167055Y230315D01*
X167180Y229685D01*
X167537Y229151D01*
X168071Y228795D01*
X168701Y228669D01*
X169331Y228795D01*
X169864Y229151D01*
X170221Y229685D01*
X170347Y230315D01*
X170221Y230945D01*
X169864Y231479D01*
X169796Y231525D01*
X169947Y232025D01*
X172340D01*
X174033Y230332D01*
X174575Y229915D01*
X175207Y229654D01*
X175886Y229564D01*
X207326D01*
X207593Y229064D01*
X207535Y228976D01*
X207409Y228346D01*
X207535Y227717D01*
X207891Y227183D01*
X208425Y226826D01*
X209055Y226701D01*
X209685Y226826D01*
X210219Y227183D01*
X210576Y227717D01*
X210701Y228346D01*
X210576Y228976D01*
X210517Y229064D01*
X210747Y229494D01*
X211246Y229536D01*
X216316Y224466D01*
X216859Y224049D01*
X217491Y223787D01*
X218162Y223699D01*
X219073Y222788D01*
X219161Y222117D01*
X219423Y221485D01*
X219840Y220942D01*
X220108Y220674D01*
X219862Y220213D01*
X219685Y220248D01*
X219055Y220123D01*
X218521Y219766D01*
X218164Y219232D01*
X218039Y218602D01*
X218164Y217972D01*
X218521Y217439D01*
X219055Y217082D01*
X219685Y216957D01*
X220315Y217082D01*
X220849Y217439D01*
X221205Y217972D01*
X221331Y218602D01*
X221296Y218779D01*
X221757Y219025D01*
X224938Y215844D01*
Y210928D01*
X224131Y210121D01*
X223714Y209578D01*
X223453Y208946D01*
X223363Y208268D01*
Y207362D01*
X223259Y206905D01*
X222852Y206921D01*
X222826Y207056D01*
X222780Y207283D01*
X222723Y207369D01*
X222424Y207817D01*
X221890Y208174D01*
X221260Y208299D01*
X220630Y208174D01*
X220096Y207817D01*
X219739Y207283D01*
X219614Y206653D01*
X219739Y206024D01*
X220096Y205490D01*
X220630Y205133D01*
X221260Y205008D01*
X221890Y205133D01*
X222424Y205490D01*
X222723Y205939D01*
X222780Y206024D01*
X222826Y206251D01*
X222852Y206386D01*
X223259Y206402D01*
X223363Y205946D01*
Y203464D01*
X223259Y203007D01*
X222852Y203023D01*
X222826Y203159D01*
X222780Y203386D01*
X222723Y203471D01*
X222424Y203920D01*
X221890Y204276D01*
X221260Y204402D01*
X220630Y204276D01*
X220096Y203920D01*
X219739Y203386D01*
X219614Y202756D01*
X219739Y202126D01*
X220096Y201592D01*
X220630Y201235D01*
X221260Y201110D01*
X221890Y201235D01*
X222424Y201592D01*
X222723Y202041D01*
X222780Y202126D01*
X222826Y202353D01*
X222852Y202489D01*
X223259Y202505D01*
X223363Y202048D01*
Y185185D01*
X223453Y184506D01*
X223714Y183874D01*
X224131Y183332D01*
X225058Y182405D01*
X224917Y181839D01*
X224525Y181577D01*
X224168Y181043D01*
X224043Y180413D01*
X224168Y179784D01*
X224525Y179250D01*
X224917Y178988D01*
X225058Y178422D01*
X224131Y177495D01*
X223714Y176952D01*
X223453Y176320D01*
X223363Y175642D01*
Y162503D01*
X222832Y161971D01*
X222163D01*
X221879Y162381D01*
X221897Y162471D01*
X222020Y163091D01*
X221895Y163720D01*
X221538Y164254D01*
X221004Y164611D01*
X220374Y164736D01*
X219744Y164611D01*
X219210Y164254D01*
X218853Y163720D01*
X218728Y163091D01*
X218851Y162471D01*
X218869Y162381D01*
X218585Y161971D01*
X212120D01*
X211441Y161882D01*
X210994Y161697D01*
X210809Y161620D01*
X210266Y161204D01*
X207589Y158526D01*
X183172D01*
X175278Y166420D01*
X174736Y166837D01*
X174718Y166844D01*
X174711Y166862D01*
X174294Y167404D01*
X170259Y171440D01*
X169716Y171856D01*
X169084Y172118D01*
X168405Y172207D01*
X167727Y172118D01*
X167095Y171856D01*
X166552Y171440D01*
X166136Y170897D01*
X165874Y170265D01*
X165785Y169587D01*
X165874Y168908D01*
X166136Y168276D01*
X166552Y167733D01*
X169835Y164450D01*
X169909Y163889D01*
X170171Y163257D01*
X170588Y162714D01*
X171131Y162297D01*
X171763Y162035D01*
X172324Y161961D01*
X180233Y154052D01*
X180776Y153636D01*
X180961Y153559D01*
X181408Y153374D01*
X182087Y153285D01*
X208675D01*
X209353Y153374D01*
X209985Y153636D01*
X210528Y154052D01*
X213205Y156729D01*
X213903D01*
Y153233D01*
X213403Y153081D01*
X213369Y153132D01*
X212835Y153489D01*
X212205Y153614D01*
X211575Y153489D01*
X211041Y153132D01*
X210684Y152598D01*
X210559Y151969D01*
X210684Y151339D01*
X211041Y150805D01*
X211575Y150448D01*
X212205Y150323D01*
X212835Y150448D01*
X213369Y150805D01*
X213403Y150856D01*
X213903Y150704D01*
Y143713D01*
X213992Y143034D01*
X214254Y142402D01*
X214670Y141859D01*
X224072Y132458D01*
X224615Y132041D01*
X224800Y131965D01*
X225247Y131780D01*
X225925Y131690D01*
X233917D01*
X234596Y131780D01*
X235228Y132041D01*
X235771Y132458D01*
X235908Y132596D01*
X236325Y133138D01*
X236587Y133771D01*
X236676Y134449D01*
X236587Y135127D01*
X236325Y135759D01*
X235908Y136302D01*
X235366Y136718D01*
X234733Y136980D01*
X234055Y137070D01*
X233377Y136980D01*
X233260Y136932D01*
X232563D01*
X232263Y137432D01*
X232354Y137894D01*
X232229Y138523D01*
X231872Y139058D01*
X231339Y139414D01*
X230709Y139540D01*
X230079Y139414D01*
X229545Y139058D01*
X229188Y138523D01*
X229063Y137894D01*
X229155Y137432D01*
X228854Y136932D01*
X227011D01*
X219144Y144798D01*
Y153463D01*
X219644Y153730D01*
X219843Y153598D01*
X220472Y153472D01*
X221102Y153598D01*
X221636Y153954D01*
X221993Y154488D01*
X222118Y155118D01*
X221993Y155748D01*
X221671Y156229D01*
X221731Y156467D01*
X221866Y156729D01*
X223409D01*
X223544Y156467D01*
X223604Y156229D01*
X223283Y155748D01*
X223157Y155118D01*
X223283Y154488D01*
X223639Y153954D01*
X224173Y153598D01*
X224803Y153472D01*
X225433Y153598D01*
X225967Y153954D01*
X226324Y154488D01*
X226449Y155118D01*
X226324Y155748D01*
X225967Y156282D01*
X225433Y156639D01*
X225382Y156747D01*
X225340Y157167D01*
X225770Y157497D01*
X225860Y157587D01*
X231031Y152416D01*
Y151781D01*
X230971Y151691D01*
X230831Y150984D01*
X230971Y150278D01*
X231371Y149679D01*
X231971Y149278D01*
X232677Y149138D01*
X233384Y149278D01*
X233983Y149679D01*
X234383Y150278D01*
X234524Y150984D01*
X234383Y151691D01*
X234323Y151781D01*
Y153097D01*
X234198Y153727D01*
X233841Y154261D01*
X228142Y159960D01*
X228254Y160107D01*
X228516Y160739D01*
X228605Y161417D01*
Y174556D01*
X231125Y177076D01*
X231541Y177619D01*
X231618Y177804D01*
X231803Y178251D01*
X231892Y178929D01*
Y181897D01*
X231803Y182576D01*
X231618Y183023D01*
X231541Y183208D01*
X231125Y183751D01*
X228605Y186270D01*
Y207182D01*
X229412Y207989D01*
X229829Y208532D01*
X229906Y208717D01*
X230091Y209164D01*
X230180Y209842D01*
Y216929D01*
X230091Y217607D01*
X229829Y218240D01*
X229412Y218782D01*
X226082Y222112D01*
X226383Y222518D01*
X227355Y221999D01*
X229144Y221456D01*
X231004Y221273D01*
X232864Y221456D01*
X234652Y221999D01*
X236038Y222740D01*
X236038D01*
X236301Y222880D01*
X236301Y222879D01*
X236320Y222869D01*
X236514Y222351D01*
X236459Y222264D01*
X236444Y222242D01*
X236444Y222242D01*
X236275Y221988D01*
X236150Y221358D01*
X236275Y220728D01*
X236631Y220195D01*
X237165Y219838D01*
X237795Y219712D01*
X238425Y219838D01*
X238959Y220195D01*
X239316Y220728D01*
X239441Y221358D01*
X239316Y221988D01*
X238959Y222522D01*
X238425Y222879D01*
X237795Y223004D01*
X237165Y222879D01*
X237036Y222792D01*
X237036Y222792D01*
X236838Y222660D01*
X236649Y222731D01*
X236532Y222890D01*
X236488Y222948D01*
X236684Y223194D01*
X236449Y223001D01*
Y223001D01*
X236715Y223220D01*
X237746Y224065D01*
X238931Y225510D01*
X239812Y227159D01*
X240269Y228664D01*
X240769Y228590D01*
Y114622D01*
X240274Y114549D01*
X240269Y114566D01*
X239342Y116300D01*
X238095Y117820D01*
X236576Y119067D01*
X234842Y119994D01*
X232960Y120564D01*
X231004Y120757D01*
X229047Y120564D01*
X227166Y119994D01*
X225432Y119067D01*
X223913Y117820D01*
X222666Y116300D01*
X221739Y114566D01*
X221168Y112685D01*
X220975Y110728D01*
X221168Y108772D01*
X221739Y106891D01*
X222666Y105157D01*
X223913Y103637D01*
X225432Y102390D01*
X227166Y101463D01*
X227183Y101458D01*
X227110Y100963D01*
X151944D01*
X151645Y101463D01*
X151738Y101929D01*
X151612Y102559D01*
X151256Y103093D01*
X150847Y103366D01*
X150996Y103866D01*
X168971D01*
X169421Y103279D01*
X170075Y102778D01*
X170836Y102462D01*
X171653Y102355D01*
X172471Y102462D01*
X173232Y102778D01*
X173886Y103279D01*
X174388Y103933D01*
X174703Y104695D01*
X174811Y105512D01*
X174703Y106329D01*
X174388Y107090D01*
X173886Y107744D01*
X173232Y108246D01*
X172471Y108561D01*
X171653Y108669D01*
X170836Y108561D01*
X170075Y108246D01*
X169421Y107744D01*
X168971Y107158D01*
X148835D01*
X148205Y107032D01*
X147671Y106676D01*
X147554Y106559D01*
X146793Y106407D01*
X146064Y105920D01*
X145577Y105191D01*
X145406Y104331D01*
X145484Y103938D01*
X145130Y103585D01*
X144980Y103614D01*
X144351Y103489D01*
X143817Y103132D01*
X143460Y102598D01*
X143334Y101969D01*
X143435Y101463D01*
X143155Y100963D01*
X114819D01*
X114746Y101458D01*
X114763Y101463D01*
X116497Y102390D01*
X118017Y103637D01*
X119264Y105157D01*
X120190Y106891D01*
X120761Y108772D01*
X120954Y110728D01*
X120761Y112685D01*
X120190Y114566D01*
X119264Y116300D01*
X118017Y117820D01*
X116497Y119067D01*
X114763Y119994D01*
X112882Y120564D01*
X110925Y120757D01*
X108969Y120564D01*
X107087Y119994D01*
X105354Y119067D01*
X103834Y117820D01*
X102587Y116300D01*
X101660Y114566D01*
X101463Y113918D01*
X100963Y113992D01*
Y230048D01*
X101463Y230073D01*
X101574Y228947D01*
X102117Y227159D01*
X102998Y225510D01*
X104184Y224065D01*
X105628Y222880D01*
X107277Y221999D01*
X109065Y221456D01*
X110925Y221273D01*
X112785Y221456D01*
X114574Y221999D01*
X116222Y222880D01*
X117667Y224065D01*
X118852Y225510D01*
X119734Y227159D01*
X120276Y228947D01*
X120343Y229630D01*
X120848Y229655D01*
X120920Y229291D01*
X121277Y228758D01*
X121811Y228401D01*
X122441Y228275D01*
X123071Y228401D01*
X123605Y228758D01*
X123961Y229291D01*
X124087Y229921D01*
X123961Y230551D01*
X123605Y231085D01*
X123071Y231442D01*
X122441Y231567D01*
X121811Y231442D01*
X121277Y231085D01*
X120920Y230551D01*
X120446Y230673D01*
X120459Y230807D01*
X120276Y232667D01*
X119734Y234456D01*
X118852Y236104D01*
X117667Y237549D01*
X116222Y238734D01*
X114574Y239616D01*
X112785Y240158D01*
X111659Y240269D01*
X111684Y240769D01*
X160301D01*
X160569Y240269D01*
D02*
G37*
G36*
X230270D02*
X229144Y240158D01*
X227355Y239616D01*
X225707Y238734D01*
X224262Y237549D01*
X223077Y236104D01*
X222196Y234456D01*
X221653Y232667D01*
X221470Y230807D01*
X221653Y228947D01*
X221923Y228058D01*
X221481Y227793D01*
X221101Y228172D01*
X220559Y228589D01*
X219927Y228851D01*
X219256Y228939D01*
X214156Y234038D01*
X213614Y234455D01*
X212982Y234717D01*
X212303Y234806D01*
X189288D01*
X189136Y235306D01*
X189353Y235450D01*
X189709Y235984D01*
X189835Y236614D01*
X189709Y237244D01*
X189353Y237778D01*
X188819Y238135D01*
X188189Y238260D01*
X187559Y238135D01*
X187033Y237783D01*
X186594Y238076D01*
X185965Y238201D01*
X185335Y238076D01*
X184833Y237740D01*
X184331Y238076D01*
X183701Y238201D01*
X183071Y238076D01*
X182537Y237719D01*
X182180Y237185D01*
X182055Y236555D01*
X182180Y235925D01*
X182537Y235391D01*
X182665Y235306D01*
X182513Y234806D01*
X176971D01*
X175278Y236499D01*
X174736Y236915D01*
X174103Y237177D01*
X173425Y237266D01*
X169484D01*
X169333Y237767D01*
X169431Y237832D01*
X169788Y238366D01*
X169913Y238996D01*
X169788Y239626D01*
X169431Y240160D01*
X169268Y240269D01*
X169420Y240769D01*
X177559D01*
X177826Y240269D01*
X177712Y240098D01*
X177586Y239469D01*
X177712Y238839D01*
X178068Y238305D01*
X178603Y237948D01*
X179232Y237823D01*
X179862Y237948D01*
X180396Y238305D01*
X180753Y238839D01*
X180878Y239469D01*
X180753Y240098D01*
X180639Y240269D01*
X180906Y240769D01*
X230245D01*
X230270Y240269D01*
D02*
G37*
%LPC*%
G36*
X211319Y138949D02*
X210689Y138824D01*
X210155Y138467D01*
X209798Y137933D01*
X209673Y137303D01*
X209798Y136673D01*
X210155Y136139D01*
X210689Y135783D01*
X211319Y135657D01*
X211949Y135783D01*
X212483Y136139D01*
X212839Y136673D01*
X212965Y137303D01*
X212839Y137933D01*
X212483Y138467D01*
X211949Y138824D01*
X211319Y138949D01*
D02*
G37*
G36*
X190256Y136095D02*
X189626Y135969D01*
X189092Y135613D01*
X188735Y135079D01*
X188610Y134449D01*
X188735Y133819D01*
X189092Y133285D01*
X189626Y132928D01*
X190256Y132803D01*
X190886Y132928D01*
X191420Y133285D01*
X191776Y133819D01*
X191902Y134449D01*
X191776Y135079D01*
X191420Y135613D01*
X190886Y135969D01*
X190256Y136095D01*
D02*
G37*
G36*
X174016Y139835D02*
X173386Y139709D01*
X172852Y139353D01*
X172495Y138819D01*
X172370Y138189D01*
X172495Y137559D01*
X172852Y137025D01*
X173386Y136669D01*
X174016Y136543D01*
X174646Y136669D01*
X175180Y137025D01*
X175536Y137559D01*
X175662Y138189D01*
X175536Y138819D01*
X175180Y139353D01*
X174646Y139709D01*
X174016Y139835D01*
D02*
G37*
G36*
X169095Y138260D02*
X168465Y138135D01*
X167931Y137778D01*
X167800Y137582D01*
X167309Y137484D01*
X167070Y137644D01*
X166440Y137770D01*
X165810Y137644D01*
X165277Y137288D01*
X164920Y136754D01*
X164795Y136124D01*
X164920Y135494D01*
X165277Y134960D01*
X165810Y134603D01*
X166440Y134478D01*
X167070Y134603D01*
X167604Y134960D01*
X167735Y135156D01*
X168225Y135254D01*
X168465Y135094D01*
X169095Y134968D01*
X169724Y135094D01*
X170258Y135450D01*
X170615Y135984D01*
X170740Y136614D01*
X170615Y137244D01*
X170258Y137778D01*
X169724Y138135D01*
X169095Y138260D01*
D02*
G37*
G36*
X189862Y140524D02*
X189232Y140399D01*
X188698Y140042D01*
X188342Y139508D01*
X188216Y138878D01*
X188342Y138248D01*
X188698Y137714D01*
X189232Y137357D01*
X189862Y137232D01*
X190492Y137357D01*
X191026Y137714D01*
X191383Y138248D01*
X191508Y138878D01*
X191383Y139508D01*
X191026Y140042D01*
X190492Y140399D01*
X189862Y140524D01*
D02*
G37*
G36*
X183465Y130787D02*
X182681Y130631D01*
X182017Y130188D01*
X181573Y129524D01*
X181417Y128740D01*
X181573Y127957D01*
X182017Y127293D01*
X182681Y126849D01*
X183465Y126693D01*
X184248Y126849D01*
X184912Y127293D01*
X185356Y127957D01*
X185512Y128740D01*
X185356Y129524D01*
X184912Y130188D01*
X184248Y130631D01*
X183465Y130787D01*
D02*
G37*
G36*
X142913Y132748D02*
X142284Y132623D01*
X141750Y132266D01*
X141393Y131732D01*
X141268Y131102D01*
X141393Y130473D01*
X141750Y129939D01*
X142275Y129588D01*
X142284Y129539D01*
Y129123D01*
X142275Y129074D01*
X141750Y128723D01*
X141393Y128189D01*
X141268Y127559D01*
X141393Y126929D01*
X141750Y126395D01*
X142284Y126039D01*
X142913Y125913D01*
X143543Y126039D01*
X144077Y126395D01*
X144434Y126929D01*
X144559Y127559D01*
X144434Y128189D01*
X144077Y128723D01*
X143552Y129074D01*
X143543Y129123D01*
Y129539D01*
X143552Y129588D01*
X144077Y129939D01*
X144434Y130473D01*
X144559Y131102D01*
X144434Y131732D01*
X144077Y132266D01*
X143543Y132623D01*
X142913Y132748D01*
D02*
G37*
G36*
X125984Y133536D02*
X125354Y133410D01*
X124820Y133054D01*
X124464Y132520D01*
X124338Y131890D01*
X124464Y131260D01*
X124820Y130726D01*
X125354Y130369D01*
X125984Y130244D01*
X126614Y130369D01*
X127148Y130726D01*
X127505Y131260D01*
X127630Y131890D01*
X127505Y132520D01*
X127148Y133054D01*
X126614Y133410D01*
X125984Y133536D01*
D02*
G37*
G36*
X214764Y135307D02*
X214134Y135182D01*
X213600Y134825D01*
X213243Y134291D01*
X213118Y133661D01*
X213243Y133032D01*
X213600Y132498D01*
X214134Y132141D01*
X214764Y132016D01*
X215394Y132141D01*
X215928Y132498D01*
X216284Y133032D01*
X216410Y133661D01*
X216284Y134291D01*
X215928Y134825D01*
X215394Y135182D01*
X214764Y135307D01*
D02*
G37*
G36*
X168701Y134126D02*
X168071Y134001D01*
X167537Y133644D01*
X167180Y133110D01*
X167055Y132480D01*
X167180Y131851D01*
X167537Y131317D01*
X168071Y130960D01*
X168701Y130834D01*
X169331Y130960D01*
X169864Y131317D01*
X170221Y131851D01*
X170347Y132480D01*
X170221Y133110D01*
X169864Y133644D01*
X169331Y134001D01*
X168701Y134126D01*
D02*
G37*
G36*
X177953Y143772D02*
X177323Y143647D01*
X176789Y143290D01*
X176432Y142756D01*
X176307Y142126D01*
X176432Y141496D01*
X176789Y140962D01*
X177323Y140605D01*
X177953Y140480D01*
X178583Y140605D01*
X179116Y140962D01*
X179473Y141496D01*
X179599Y142126D01*
X179473Y142756D01*
X179116Y143290D01*
X178583Y143647D01*
X177953Y143772D01*
D02*
G37*
G36*
X174213Y156272D02*
X173583Y156147D01*
X173049Y155790D01*
X172692Y155256D01*
X172567Y154626D01*
X172692Y153996D01*
X173049Y153462D01*
X173583Y153105D01*
X174213Y152980D01*
X174842Y153105D01*
X175376Y153462D01*
X175733Y153996D01*
X175858Y154626D01*
X175733Y155256D01*
X175376Y155790D01*
X174842Y156147D01*
X174213Y156272D01*
D02*
G37*
G36*
X142520Y159717D02*
X141890Y159591D01*
X141356Y159235D01*
X140999Y158701D01*
X140874Y158071D01*
X140999Y157441D01*
X141245Y157073D01*
X141260Y156481D01*
X140903Y155947D01*
X140778Y155318D01*
X140903Y154688D01*
X141260Y154154D01*
X141794Y153797D01*
X142057Y153745D01*
X142460Y153208D01*
X142449Y153150D01*
X142574Y152520D01*
X142931Y151986D01*
X143465Y151629D01*
X144095Y151504D01*
X144724Y151629D01*
X145258Y151986D01*
X145615Y152520D01*
X145740Y153150D01*
X145615Y153779D01*
X145258Y154313D01*
X144724Y154670D01*
X144460Y154723D01*
X144057Y155259D01*
X144069Y155318D01*
X143944Y155947D01*
X143698Y156316D01*
X143683Y156907D01*
X144040Y157441D01*
X144166Y158071D01*
X144040Y158701D01*
X143683Y159235D01*
X143149Y159591D01*
X142520Y159717D01*
D02*
G37*
G36*
X134744Y156961D02*
X134114Y156835D01*
X133580Y156479D01*
X133224Y155945D01*
X133098Y155315D01*
X133224Y154685D01*
X133580Y154151D01*
X134114Y153795D01*
X134744Y153669D01*
X135374Y153795D01*
X135908Y154151D01*
X136265Y154685D01*
X136390Y155315D01*
X136265Y155945D01*
X135908Y156479D01*
X135374Y156835D01*
X134744Y156961D01*
D02*
G37*
G36*
X165354Y159914D02*
X164725Y159788D01*
X164191Y159432D01*
X163834Y158897D01*
X163708Y158268D01*
X163834Y157638D01*
X164191Y157104D01*
X164725Y156747D01*
X165354Y156622D01*
X165984Y156747D01*
X166518Y157104D01*
X166875Y157638D01*
X167000Y158268D01*
X166875Y158897D01*
X166518Y159432D01*
X165984Y159788D01*
X165354Y159914D01*
D02*
G37*
G36*
X155512Y158339D02*
X154882Y158213D01*
X154348Y157857D01*
X153991Y157323D01*
X153866Y156693D01*
X153991Y156063D01*
X154348Y155529D01*
X154882Y155172D01*
X155512Y155047D01*
X156141Y155172D01*
X156406Y155349D01*
X157036Y155237D01*
X157104Y155136D01*
X157638Y154779D01*
X158268Y154653D01*
X158897Y154779D01*
X159432Y155136D01*
X159788Y155669D01*
X159914Y156299D01*
X159788Y156929D01*
X159432Y157463D01*
X158897Y157820D01*
X158268Y157945D01*
X157638Y157820D01*
X157374Y157643D01*
X156743Y157755D01*
X156676Y157857D01*
X156141Y158213D01*
X155512Y158339D01*
D02*
G37*
G36*
X163976Y144854D02*
X163347Y144729D01*
X162813Y144372D01*
X162456Y143839D01*
X162331Y143209D01*
X162456Y142579D01*
X162813Y142045D01*
X163347Y141688D01*
X163976Y141563D01*
X164606Y141688D01*
X165140Y142045D01*
X165497Y142579D01*
X165622Y143209D01*
X165497Y143839D01*
X165140Y144372D01*
X164606Y144729D01*
X163976Y144854D01*
D02*
G37*
G36*
X236713Y144366D02*
X236006Y144226D01*
X235407Y143825D01*
X235007Y143226D01*
X234866Y142520D01*
X235007Y141813D01*
X235407Y141214D01*
X236006Y140814D01*
X236713Y140673D01*
X237419Y140814D01*
X238018Y141214D01*
X238419Y141813D01*
X238559Y142520D01*
X238419Y143226D01*
X238018Y143825D01*
X237419Y144226D01*
X236713Y144366D01*
D02*
G37*
G36*
X222736Y146528D02*
X222106Y146402D01*
X221572Y146046D01*
X221216Y145512D01*
X221090Y144882D01*
X221216Y144252D01*
X221572Y143718D01*
X222106Y143361D01*
X222736Y143236D01*
X223366Y143361D01*
X223900Y143718D01*
X224257Y144252D01*
X224382Y144882D01*
X224257Y145512D01*
X223900Y146046D01*
X223366Y146402D01*
X222736Y146528D01*
D02*
G37*
G36*
X201969Y151449D02*
X201339Y151324D01*
X200805Y150967D01*
X200448Y150433D01*
X200323Y149803D01*
X200448Y149173D01*
X200805Y148639D01*
X201339Y148283D01*
X201969Y148157D01*
X202598Y148283D01*
X203132Y148639D01*
X203489Y149173D01*
X203614Y149803D01*
X203489Y150433D01*
X203132Y150967D01*
X202598Y151324D01*
X201969Y151449D01*
D02*
G37*
G36*
X207776Y147315D02*
X207146Y147190D01*
X206612Y146833D01*
X206255Y146299D01*
X206130Y145669D01*
X206255Y145039D01*
X206612Y144506D01*
X207146Y144149D01*
X207776Y144024D01*
X208405Y144149D01*
X208939Y144506D01*
X209296Y145039D01*
X209421Y145669D01*
X209296Y146299D01*
X208939Y146833D01*
X208405Y147190D01*
X207776Y147315D01*
D02*
G37*
G36*
X137638Y132748D02*
X137008Y132623D01*
X136474Y132266D01*
X136117Y131732D01*
X135992Y131102D01*
X136117Y130473D01*
X136474Y129939D01*
X137008Y129582D01*
X137068Y129570D01*
X137136Y129226D01*
X137121Y129050D01*
X136632Y128723D01*
X136275Y128189D01*
X136150Y127559D01*
X136275Y126929D01*
X136632Y126395D01*
X137165Y126039D01*
X137795Y125913D01*
X138425Y126039D01*
X138959Y126395D01*
X139316Y126929D01*
X139441Y127559D01*
X139316Y128189D01*
X138959Y128723D01*
X138425Y129080D01*
X138365Y129092D01*
X138296Y129436D01*
X138312Y129612D01*
X138801Y129939D01*
X139158Y130473D01*
X139283Y131102D01*
X139158Y131732D01*
X138801Y132266D01*
X138267Y132623D01*
X137638Y132748D01*
D02*
G37*
G36*
X200394Y108181D02*
X199764Y108056D01*
X199230Y107699D01*
X198873Y107165D01*
X198748Y106535D01*
X198873Y105906D01*
X199230Y105372D01*
X199764Y105015D01*
X200394Y104890D01*
X201024Y105015D01*
X201557Y105372D01*
X201914Y105906D01*
X202040Y106535D01*
X201914Y107165D01*
X201557Y107699D01*
X201024Y108056D01*
X200394Y108181D01*
D02*
G37*
G36*
X219291Y104795D02*
X218661Y104670D01*
X218128Y104313D01*
X217771Y103779D01*
X217646Y103150D01*
X217771Y102520D01*
X218128Y101986D01*
X218661Y101629D01*
X219291Y101504D01*
X219921Y101629D01*
X220455Y101986D01*
X220812Y102520D01*
X220937Y103150D01*
X220812Y103779D01*
X220455Y104313D01*
X219921Y104670D01*
X219291Y104795D01*
D02*
G37*
G36*
X127795Y108339D02*
X127165Y108213D01*
X126631Y107857D01*
X126275Y107323D01*
X126149Y106693D01*
X126275Y106063D01*
X126631Y105529D01*
X127165Y105172D01*
X127795Y105047D01*
X128425Y105172D01*
X128959Y105529D01*
X129316Y106063D01*
X129441Y106693D01*
X129316Y107323D01*
X128959Y107857D01*
X128425Y108213D01*
X127795Y108339D01*
D02*
G37*
G36*
X138583Y108575D02*
X137953Y108450D01*
X137419Y108093D01*
X137062Y107559D01*
X136937Y106929D01*
X137062Y106299D01*
X137419Y105765D01*
X137953Y105409D01*
X138583Y105283D01*
X139213Y105409D01*
X139746Y105765D01*
X140103Y106299D01*
X140228Y106929D01*
X140103Y107559D01*
X139746Y108093D01*
X139213Y108450D01*
X138583Y108575D01*
D02*
G37*
G36*
X211024Y108339D02*
X210394Y108213D01*
X209860Y107857D01*
X209503Y107323D01*
X209378Y106693D01*
X209503Y106063D01*
X209860Y105529D01*
X210394Y105172D01*
X211024Y105047D01*
X211653Y105172D01*
X212187Y105529D01*
X212544Y106063D01*
X212669Y106693D01*
X212544Y107323D01*
X212187Y107857D01*
X211653Y108213D01*
X211024Y108339D01*
D02*
G37*
G36*
X133465Y104795D02*
X132835Y104670D01*
X132301Y104313D01*
X131944Y103779D01*
X131819Y103150D01*
X131944Y102520D01*
X132301Y101986D01*
X132835Y101629D01*
X133465Y101504D01*
X134094Y101629D01*
X134628Y101986D01*
X134985Y102520D01*
X135110Y103150D01*
X134985Y103779D01*
X134628Y104313D01*
X134094Y104670D01*
X133465Y104795D01*
D02*
G37*
G36*
X120472D02*
X119843Y104670D01*
X119309Y104313D01*
X118952Y103779D01*
X118827Y103150D01*
X118952Y102520D01*
X119309Y101986D01*
X119843Y101629D01*
X120472Y101504D01*
X121102Y101629D01*
X121636Y101986D01*
X121993Y102520D01*
X122118Y103150D01*
X121993Y103779D01*
X121636Y104313D01*
X121102Y104670D01*
X120472Y104795D01*
D02*
G37*
G36*
X188976D02*
X188347Y104670D01*
X187813Y104313D01*
X187456Y103779D01*
X187331Y103150D01*
X187456Y102520D01*
X187813Y101986D01*
X188347Y101629D01*
X188976Y101504D01*
X189606Y101629D01*
X190140Y101986D01*
X190497Y102520D01*
X190622Y103150D01*
X190497Y103779D01*
X190140Y104313D01*
X189606Y104670D01*
X188976Y104795D01*
D02*
G37*
G36*
X205512D02*
X204882Y104670D01*
X204348Y104313D01*
X203991Y103779D01*
X203866Y103150D01*
X203991Y102520D01*
X204348Y101986D01*
X204882Y101629D01*
X205512Y101504D01*
X206142Y101629D01*
X206676Y101986D01*
X207032Y102520D01*
X207158Y103150D01*
X207032Y103779D01*
X206676Y104313D01*
X206142Y104670D01*
X205512Y104795D01*
D02*
G37*
G36*
X193701D02*
X193071Y104670D01*
X192537Y104313D01*
X192180Y103779D01*
X192055Y103150D01*
X192180Y102520D01*
X192537Y101986D01*
X193071Y101629D01*
X193701Y101504D01*
X194331Y101629D01*
X194864Y101986D01*
X195221Y102520D01*
X195347Y103150D01*
X195221Y103779D01*
X194864Y104313D01*
X194331Y104670D01*
X193701Y104795D01*
D02*
G37*
G36*
X146063Y112374D02*
X145433Y112249D01*
X144899Y111892D01*
X144543Y111358D01*
X144417Y110728D01*
X144543Y110099D01*
X144899Y109565D01*
X145433Y109208D01*
X146063Y109083D01*
X146693Y109208D01*
X147227Y109565D01*
X147583Y110099D01*
X147709Y110728D01*
X147583Y111358D01*
X147227Y111892D01*
X146693Y112249D01*
X146063Y112374D01*
D02*
G37*
G36*
X142224Y124284D02*
X141595Y124158D01*
X141061Y123802D01*
X140704Y123268D01*
X140579Y122638D01*
X140704Y122008D01*
X141061Y121474D01*
X141595Y121117D01*
X142224Y120992D01*
X142854Y121117D01*
X143388Y121474D01*
X143745Y122008D01*
X143870Y122638D01*
X143745Y123268D01*
X143388Y123802D01*
X142854Y124158D01*
X142224Y124284D01*
D02*
G37*
G36*
X158268Y133150D02*
X157484Y132994D01*
X156820Y132550D01*
X156376Y131886D01*
X156220Y131102D01*
X156376Y130319D01*
X156820Y129655D01*
X157484Y129211D01*
X157918Y129125D01*
X166553Y120490D01*
X167087Y120133D01*
X167717Y120008D01*
X171850D01*
X172480Y120133D01*
X173014Y120490D01*
X173371Y121024D01*
X173496Y121653D01*
X173371Y122283D01*
X173014Y122817D01*
X172480Y123174D01*
X171850Y123299D01*
X168398D01*
X160245Y131452D01*
X160159Y131886D01*
X159715Y132550D01*
X159051Y132994D01*
X158268Y133150D01*
D02*
G37*
G36*
X236984Y125268D02*
X236354Y125143D01*
X235821Y124786D01*
X235464Y124252D01*
X235338Y123622D01*
X235464Y122992D01*
X235821Y122458D01*
X236354Y122101D01*
X236984Y121976D01*
X237614Y122101D01*
X238148Y122458D01*
X238505Y122992D01*
X238630Y123622D01*
X238505Y124252D01*
X238148Y124786D01*
X237614Y125143D01*
X236984Y125268D01*
D02*
G37*
G36*
X107874Y130401D02*
X105118D01*
X104181Y130215D01*
X103387Y129684D01*
X102856Y128890D01*
X102670Y127953D01*
X102856Y127016D01*
X103387Y126221D01*
X104181Y125690D01*
X105118Y125504D01*
X107874D01*
X108811Y125690D01*
X109605Y126221D01*
X110136Y127016D01*
X110323Y127953D01*
X110136Y128890D01*
X109605Y129684D01*
X108811Y130215D01*
X107874Y130401D01*
D02*
G37*
G36*
X127165Y127630D02*
X126535Y127505D01*
X126002Y127148D01*
X125645Y126614D01*
X125520Y125984D01*
X125645Y125354D01*
X126002Y124820D01*
X126535Y124464D01*
X127165Y124338D01*
X127795Y124464D01*
X128329Y124820D01*
X128686Y125354D01*
X128811Y125984D01*
X128686Y126614D01*
X128329Y127148D01*
X127795Y127505D01*
X127165Y127630D01*
D02*
G37*
G36*
X155807Y117591D02*
X155177Y117465D01*
X154643Y117109D01*
X154287Y116575D01*
X154161Y115945D01*
X154287Y115315D01*
X154643Y114781D01*
X155177Y114424D01*
X155807Y114299D01*
X156437Y114424D01*
X156971Y114781D01*
X157328Y115315D01*
X157453Y115945D01*
X157328Y116575D01*
X156971Y117109D01*
X156437Y117465D01*
X155807Y117591D01*
D02*
G37*
G36*
X180709Y114244D02*
X180079Y114119D01*
X179545Y113762D01*
X179188Y113228D01*
X179063Y112598D01*
X179188Y111969D01*
X179545Y111435D01*
X180079Y111078D01*
X180709Y110953D01*
X181339Y111078D01*
X181872Y111435D01*
X182229Y111969D01*
X182354Y112598D01*
X182229Y113228D01*
X181872Y113762D01*
X181339Y114119D01*
X180709Y114244D01*
D02*
G37*
G36*
X186319Y122217D02*
X185689Y122091D01*
X185155Y121735D01*
X184798Y121201D01*
X184673Y120571D01*
X184798Y119941D01*
X185155Y119407D01*
X185689Y119050D01*
X186319Y118925D01*
X186949Y119050D01*
X187483Y119407D01*
X187839Y119941D01*
X187965Y120571D01*
X187839Y121201D01*
X187483Y121735D01*
X186949Y122091D01*
X186319Y122217D01*
D02*
G37*
G36*
X160138Y123102D02*
X159508Y122977D01*
X158974Y122620D01*
X158617Y122087D01*
X158492Y121457D01*
X158617Y120827D01*
X158974Y120293D01*
X159508Y119936D01*
X160138Y119811D01*
X160768Y119936D01*
X161302Y120293D01*
X161658Y120827D01*
X161784Y121457D01*
X161658Y122087D01*
X161302Y122620D01*
X160768Y122977D01*
X160138Y123102D01*
D02*
G37*
G36*
X216344Y122316D02*
X215714Y122191D01*
X215180Y121834D01*
X214824Y121300D01*
X214699Y120670D01*
X214824Y120041D01*
X215180Y119507D01*
X215714Y119150D01*
X216344Y119025D01*
X216974Y119150D01*
X217508Y119507D01*
X217865Y120041D01*
X217990Y120670D01*
X217865Y121300D01*
X217508Y121834D01*
X216974Y122191D01*
X216344Y122316D01*
D02*
G37*
G36*
X126378Y162669D02*
X125748Y162544D01*
X125214Y162187D01*
X124857Y161653D01*
X124732Y161024D01*
X124857Y160394D01*
X125214Y159860D01*
X125748Y159503D01*
X126378Y159378D01*
X127008Y159503D01*
X127542Y159860D01*
X127899Y160394D01*
X128024Y161024D01*
X127899Y161653D01*
X127542Y162187D01*
X127008Y162544D01*
X126378Y162669D01*
D02*
G37*
G36*
X193012Y206469D02*
X192382Y206343D01*
X191848Y205987D01*
X191491Y205453D01*
X191366Y204823D01*
X191491Y204193D01*
X191848Y203659D01*
X192382Y203302D01*
X193012Y203177D01*
X193642Y203302D01*
X194176Y203659D01*
X194532Y204193D01*
X194658Y204823D01*
X194532Y205453D01*
X194176Y205987D01*
X193642Y206343D01*
X193012Y206469D01*
D02*
G37*
G36*
X136025Y203816D02*
X135396Y203691D01*
X134862Y203334D01*
X134505Y202800D01*
X134380Y202170D01*
X134505Y201540D01*
X134862Y201007D01*
X135396Y200650D01*
X136025Y200525D01*
X136655Y200650D01*
X137189Y201007D01*
X137546Y201540D01*
X137671Y202170D01*
X137546Y202800D01*
X137189Y203334D01*
X136655Y203691D01*
X136025Y203816D01*
D02*
G37*
G36*
X237008Y209126D02*
X236378Y209001D01*
X235844Y208644D01*
X235487Y208110D01*
X235362Y207480D01*
X235487Y206851D01*
X235844Y206317D01*
X236378Y205960D01*
X237008Y205835D01*
X237638Y205960D01*
X238172Y206317D01*
X238528Y206851D01*
X238654Y207480D01*
X238528Y208110D01*
X238172Y208644D01*
X237638Y209001D01*
X237008Y209126D01*
D02*
G37*
G36*
X151378Y210799D02*
X150748Y210674D01*
X150214Y210317D01*
X149857Y209783D01*
X149732Y209154D01*
X149857Y208524D01*
X150214Y207990D01*
X150748Y207633D01*
X151378Y207508D01*
X152008Y207633D01*
X152542Y207990D01*
X152899Y208524D01*
X153024Y209154D01*
X152899Y209783D01*
X152542Y210317D01*
X152008Y210674D01*
X151378Y210799D01*
D02*
G37*
G36*
X181496Y210307D02*
X180866Y210182D01*
X180332Y209825D01*
X179975Y209291D01*
X179850Y208661D01*
X179975Y208032D01*
X180332Y207498D01*
X180866Y207141D01*
X181496Y207016D01*
X182126Y207141D01*
X182660Y207498D01*
X183017Y208032D01*
X183142Y208661D01*
X183017Y209291D01*
X182660Y209825D01*
X182126Y210182D01*
X181496Y210307D01*
D02*
G37*
G36*
X186417Y201449D02*
X185787Y201324D01*
X185254Y200967D01*
X184897Y200433D01*
X184772Y199803D01*
X184897Y199173D01*
X185254Y198639D01*
X185787Y198283D01*
X186417Y198157D01*
X187047Y198283D01*
X187581Y198639D01*
X187938Y199173D01*
X188063Y199803D01*
X187938Y200433D01*
X187581Y200967D01*
X187047Y201324D01*
X186417Y201449D01*
D02*
G37*
G36*
X214961Y200465D02*
X214331Y200339D01*
X213797Y199983D01*
X213440Y199449D01*
X213315Y198819D01*
X213440Y198189D01*
X213797Y197655D01*
X214331Y197298D01*
X214961Y197173D01*
X215591Y197298D01*
X216124Y197655D01*
X216481Y198189D01*
X216606Y198819D01*
X216481Y199449D01*
X216124Y199983D01*
X215591Y200339D01*
X214961Y200465D01*
D02*
G37*
G36*
X176969Y202532D02*
X176339Y202406D01*
X175805Y202050D01*
X175448Y201516D01*
X175323Y200886D01*
X175448Y200256D01*
X175805Y199722D01*
X176339Y199365D01*
X176969Y199240D01*
X177598Y199365D01*
X178132Y199722D01*
X178489Y200256D01*
X178614Y200886D01*
X178489Y201516D01*
X178132Y202050D01*
X177598Y202406D01*
X176969Y202532D01*
D02*
G37*
G36*
X131496Y203122D02*
X130866Y202997D01*
X130332Y202640D01*
X129975Y202106D01*
X129850Y201476D01*
X129975Y200847D01*
X130332Y200313D01*
X130866Y199956D01*
X131496Y199831D01*
X132126Y199956D01*
X132660Y200313D01*
X133017Y200847D01*
X133142Y201476D01*
X133017Y202106D01*
X132660Y202640D01*
X132126Y202997D01*
X131496Y203122D01*
D02*
G37*
G36*
X237008Y202827D02*
X236378Y202702D01*
X235844Y202345D01*
X235487Y201811D01*
X235362Y201181D01*
X235487Y200551D01*
X235844Y200017D01*
X236378Y199661D01*
X237008Y199535D01*
X237638Y199661D01*
X238172Y200017D01*
X238528Y200551D01*
X238654Y201181D01*
X238528Y201811D01*
X238172Y202345D01*
X237638Y202702D01*
X237008Y202827D01*
D02*
G37*
G36*
X188583Y208732D02*
X187953Y208607D01*
X187419Y208250D01*
X187275Y208036D01*
X186808Y207862D01*
X186660Y207946D01*
X186260Y208213D01*
X185630Y208339D01*
X185000Y208213D01*
X184466Y207857D01*
X184109Y207323D01*
X183984Y206693D01*
X184109Y206063D01*
X184466Y205529D01*
X185000Y205172D01*
X185630Y205047D01*
X186260Y205172D01*
X186794Y205529D01*
X186937Y205744D01*
X187405Y205918D01*
X187553Y205834D01*
X187953Y205566D01*
X188583Y205441D01*
X189213Y205566D01*
X189746Y205923D01*
X190103Y206457D01*
X190228Y207087D01*
X190103Y207716D01*
X189746Y208250D01*
X189213Y208607D01*
X188583Y208732D01*
D02*
G37*
G36*
X188193Y222715D02*
X187563Y222589D01*
X187030Y222233D01*
X186673Y221699D01*
X186548Y221069D01*
X186673Y220439D01*
X187030Y219905D01*
X187563Y219548D01*
X188193Y219423D01*
X188823Y219548D01*
X189357Y219905D01*
X189714Y220439D01*
X189839Y221069D01*
X189714Y221699D01*
X189357Y222233D01*
X188823Y222589D01*
X188193Y222715D01*
D02*
G37*
G36*
X118996Y220642D02*
X118366Y220517D01*
X117832Y220160D01*
X117475Y219626D01*
X117350Y218996D01*
X117475Y218366D01*
X117832Y217832D01*
X118366Y217476D01*
X118996Y217350D01*
X119626Y217476D01*
X120160Y217832D01*
X120517Y218366D01*
X120642Y218996D01*
X120517Y219626D01*
X120160Y220160D01*
X119626Y220517D01*
X118996Y220642D01*
D02*
G37*
G36*
X183465Y227827D02*
X182835Y227702D01*
X182301Y227345D01*
X181944Y226811D01*
X181819Y226181D01*
X181944Y225551D01*
X182301Y225017D01*
X182835Y224661D01*
X183465Y224535D01*
X184094Y224661D01*
X184628Y225017D01*
X184985Y225551D01*
X185110Y226181D01*
X184985Y226811D01*
X184628Y227345D01*
X184094Y227702D01*
X183465Y227827D01*
D02*
G37*
G36*
X126614Y237866D02*
X125984Y237741D01*
X125450Y237384D01*
X125094Y236850D01*
X124968Y236221D01*
X125094Y235591D01*
X125450Y235057D01*
X125984Y234700D01*
X126614Y234575D01*
X127244Y234700D01*
X127778Y235057D01*
X128135Y235591D01*
X128260Y236221D01*
X128135Y236850D01*
X127778Y237384D01*
X127244Y237741D01*
X126614Y237866D01*
D02*
G37*
G36*
X160332Y230351D02*
X159702Y230226D01*
X159168Y229869D01*
X158811Y229335D01*
X158686Y228705D01*
X158811Y228075D01*
X159168Y227541D01*
X159702Y227185D01*
X160332Y227059D01*
X160962Y227185D01*
X161496Y227541D01*
X161852Y228075D01*
X161978Y228705D01*
X161852Y229335D01*
X161496Y229869D01*
X160962Y230226D01*
X160332Y230351D01*
D02*
G37*
G36*
X197047Y213457D02*
X196417Y213332D01*
X195884Y212975D01*
X195752Y212778D01*
X195151D01*
X195019Y212975D01*
X194485Y213332D01*
X193856Y213457D01*
X193226Y213332D01*
X192692Y212975D01*
X192561Y212778D01*
X191959D01*
X191828Y212975D01*
X191294Y213332D01*
X190664Y213457D01*
X190034Y213332D01*
X189500Y212975D01*
X189369Y212778D01*
X188768D01*
X188636Y212975D01*
X188102Y213332D01*
X187473Y213457D01*
X186843Y213332D01*
X186309Y212975D01*
X185952Y212441D01*
X185827Y211811D01*
X185952Y211181D01*
X186309Y210647D01*
X186843Y210291D01*
X187473Y210165D01*
X188102Y210291D01*
X188636Y210647D01*
X188768Y210844D01*
X189369D01*
X189500Y210647D01*
X190034Y210291D01*
X190664Y210165D01*
X191294Y210291D01*
X191828Y210647D01*
X191959Y210844D01*
X192561D01*
X192692Y210647D01*
X193226Y210291D01*
X193856Y210165D01*
X194485Y210291D01*
X195019Y210647D01*
X195151Y210844D01*
X195752D01*
X195884Y210647D01*
X196417Y210291D01*
X197047Y210165D01*
X197677Y210291D01*
X198211Y210647D01*
X198568Y211181D01*
X198693Y211811D01*
X198568Y212441D01*
X198211Y212975D01*
X197677Y213332D01*
X197047Y213457D01*
D02*
G37*
G36*
X179134Y214638D02*
X178504Y214513D01*
X177970Y214156D01*
X177613Y213622D01*
X177488Y212992D01*
X177613Y212362D01*
X177970Y211828D01*
X178504Y211472D01*
X179134Y211346D01*
X179764Y211472D01*
X180298Y211828D01*
X180654Y212362D01*
X180780Y212992D01*
X180654Y213622D01*
X180298Y214156D01*
X179764Y214513D01*
X179134Y214638D01*
D02*
G37*
G36*
X192913Y218575D02*
X192284Y218450D01*
X191750Y218093D01*
X191393Y217559D01*
X191268Y216929D01*
X191393Y216299D01*
X191750Y215765D01*
X192284Y215409D01*
X192913Y215283D01*
X193543Y215409D01*
X194077Y215765D01*
X194434Y216299D01*
X194559Y216929D01*
X194434Y217559D01*
X194077Y218093D01*
X193543Y218450D01*
X192913Y218575D01*
D02*
G37*
G36*
X160355Y220453D02*
X159726Y220328D01*
X159192Y219971D01*
X158835Y219437D01*
X158710Y218807D01*
X158835Y218177D01*
X159192Y217643D01*
X159726Y217287D01*
X160355Y217161D01*
X160985Y217287D01*
X161519Y217643D01*
X161876Y218177D01*
X162001Y218807D01*
X161876Y219437D01*
X161519Y219971D01*
X160985Y220328D01*
X160355Y220453D01*
D02*
G37*
G36*
X184646Y220150D02*
X184016Y220024D01*
X183482Y219668D01*
X183125Y219134D01*
X183000Y218504D01*
X183125Y217874D01*
X183482Y217340D01*
X184016Y216983D01*
X184646Y216858D01*
X185275Y216983D01*
X185809Y217340D01*
X186166Y217874D01*
X186292Y218504D01*
X186166Y219134D01*
X185809Y219668D01*
X185275Y220024D01*
X184646Y220150D01*
D02*
G37*
G36*
X133171Y199091D02*
X132541Y198966D01*
X132007Y198609D01*
X131650Y198075D01*
X131525Y197446D01*
X131650Y196816D01*
X132007Y196282D01*
X132541Y195925D01*
X133171Y195800D01*
X133801Y195925D01*
X134335Y196282D01*
X134691Y196816D01*
X134817Y197446D01*
X134691Y198075D01*
X134335Y198609D01*
X133801Y198966D01*
X133171Y199091D01*
D02*
G37*
G36*
X141043Y170051D02*
X140413Y169926D01*
X139880Y169569D01*
X139523Y169035D01*
X139490Y168868D01*
X138913Y168473D01*
X138880Y168480D01*
X138250Y168354D01*
X137716Y167998D01*
X137359Y167464D01*
X137234Y166834D01*
X137359Y166204D01*
X137716Y165670D01*
X138250Y165313D01*
X138880Y165188D01*
X139510Y165313D01*
X140044Y165670D01*
X140400Y166204D01*
X140434Y166371D01*
X141010Y166766D01*
X141043Y166760D01*
X141673Y166885D01*
X142207Y167242D01*
X142564Y167776D01*
X142689Y168405D01*
X142564Y169035D01*
X142207Y169569D01*
X141673Y169926D01*
X141043Y170051D01*
D02*
G37*
G36*
X160236Y170543D02*
X159606Y170418D01*
X159072Y170061D01*
X158716Y169527D01*
X158590Y168898D01*
X158716Y168268D01*
X159072Y167734D01*
X159606Y167377D01*
X160236Y167252D01*
X160866Y167377D01*
X161400Y167734D01*
X161757Y168268D01*
X161882Y168898D01*
X161757Y169527D01*
X161400Y170061D01*
X160866Y170418D01*
X160236Y170543D01*
D02*
G37*
G36*
X158268Y174480D02*
X157638Y174355D01*
X157104Y173998D01*
X156747Y173465D01*
X156622Y172835D01*
X156747Y172205D01*
X157104Y171671D01*
X157638Y171314D01*
X158268Y171189D01*
X158897Y171314D01*
X159432Y171671D01*
X159788Y172205D01*
X159914Y172835D01*
X159788Y173465D01*
X159432Y173998D01*
X158897Y174355D01*
X158268Y174480D01*
D02*
G37*
G36*
X133858Y177630D02*
X133228Y177505D01*
X132694Y177148D01*
X132338Y176614D01*
X132212Y175984D01*
X132338Y175354D01*
X132694Y174820D01*
X132969Y174637D01*
X132774Y174166D01*
X132677Y174185D01*
X132047Y174060D01*
X131513Y173703D01*
X131157Y173169D01*
X131031Y172539D01*
X131157Y171910D01*
X131513Y171376D01*
X132047Y171019D01*
X132677Y170894D01*
X133307Y171019D01*
X133841Y171376D01*
X134198Y171910D01*
X134323Y172539D01*
X134198Y173169D01*
X133841Y173703D01*
X133566Y173887D01*
X133761Y174358D01*
X133858Y174338D01*
X134488Y174464D01*
X135022Y174820D01*
X135379Y175354D01*
X135504Y175984D01*
X135379Y176614D01*
X135022Y177148D01*
X134488Y177505D01*
X133858Y177630D01*
D02*
G37*
G36*
X187303Y176350D02*
X186673Y176225D01*
X186139Y175868D01*
X185783Y175335D01*
X185657Y174705D01*
X185783Y174075D01*
X186139Y173541D01*
X186673Y173184D01*
X187303Y173059D01*
X187933Y173184D01*
X188467Y173541D01*
X188824Y174075D01*
X188949Y174705D01*
X188824Y175335D01*
X188467Y175868D01*
X187933Y176225D01*
X187303Y176350D01*
D02*
G37*
G36*
X232087Y164638D02*
X231457Y164513D01*
X230923Y164156D01*
X230566Y163622D01*
X230441Y162992D01*
X230566Y162362D01*
X230923Y161828D01*
X231457Y161472D01*
X232087Y161346D01*
X232716Y161472D01*
X233250Y161828D01*
X233607Y162362D01*
X233732Y162992D01*
X233607Y163622D01*
X233250Y164156D01*
X232716Y164513D01*
X232087Y164638D01*
D02*
G37*
G36*
X205906Y163555D02*
X205276Y163430D01*
X204742Y163073D01*
X204385Y162539D01*
X204260Y161909D01*
X204385Y161280D01*
X204742Y160746D01*
X205276Y160389D01*
X205906Y160264D01*
X206535Y160389D01*
X207069Y160746D01*
X207426Y161280D01*
X207551Y161909D01*
X207426Y162539D01*
X207069Y163073D01*
X206535Y163430D01*
X205906Y163555D01*
D02*
G37*
G36*
X158465Y165130D02*
X157835Y165005D01*
X157301Y164648D01*
X156944Y164114D01*
X156819Y163484D01*
X156879Y163182D01*
Y163182D01*
X156922Y162967D01*
X156918Y162965D01*
X156901Y162958D01*
X156861Y162942D01*
X156516Y162799D01*
X156481Y162784D01*
X156457Y162774D01*
X156451Y162772D01*
X156332Y162949D01*
Y162949D01*
X156183Y163172D01*
X155649Y163528D01*
X155020Y163654D01*
X154390Y163528D01*
X153856Y163172D01*
X153499Y162638D01*
X153374Y162008D01*
X153499Y161378D01*
X153856Y160844D01*
X154390Y160487D01*
X155020Y160362D01*
X155649Y160487D01*
X156183Y160844D01*
X156540Y161378D01*
X156666Y162008D01*
X156605Y162310D01*
Y162310D01*
X156562Y162525D01*
X156567Y162527D01*
X156583Y162534D01*
X156623Y162550D01*
X156968Y162694D01*
X157003Y162708D01*
X157028Y162718D01*
X157034Y162721D01*
X157152Y162543D01*
Y162543D01*
X157301Y162320D01*
X157835Y161964D01*
X158465Y161838D01*
X159094Y161964D01*
X159628Y162320D01*
X159985Y162854D01*
X160110Y163484D01*
X159985Y164114D01*
X159628Y164648D01*
X159094Y165005D01*
X158465Y165130D01*
D02*
G37*
G36*
X216142Y170543D02*
X215512Y170418D01*
X214978Y170061D01*
X214621Y169527D01*
X214496Y168898D01*
X214621Y168268D01*
X214978Y167734D01*
X215512Y167377D01*
X216142Y167252D01*
X216772Y167377D01*
X217305Y167734D01*
X217662Y168268D01*
X217788Y168898D01*
X217662Y169527D01*
X217305Y170061D01*
X216772Y170418D01*
X216142Y170543D01*
D02*
G37*
G36*
X184350Y168673D02*
X183721Y168548D01*
X183187Y168191D01*
X182830Y167657D01*
X182705Y167027D01*
X182830Y166398D01*
X183187Y165864D01*
X183721Y165507D01*
X184350Y165382D01*
X184980Y165507D01*
X185514Y165864D01*
X185871Y166398D01*
X185996Y167027D01*
X185871Y167657D01*
X185514Y168191D01*
X184980Y168548D01*
X184350Y168673D01*
D02*
G37*
G36*
X141142Y181370D02*
X140512Y181245D01*
X139978Y180888D01*
X139621Y180354D01*
X139496Y179724D01*
X139621Y179095D01*
X139978Y178561D01*
X140503Y178210D01*
X140512Y178161D01*
Y177745D01*
X140503Y177696D01*
X139978Y177345D01*
X139621Y176811D01*
X139496Y176181D01*
X139621Y175551D01*
X139978Y175017D01*
X140512Y174661D01*
X141142Y174535D01*
X141772Y174661D01*
X142306Y175017D01*
X142662Y175551D01*
X142788Y176181D01*
X142662Y176811D01*
X142306Y177345D01*
X141780Y177696D01*
X141772Y177745D01*
Y178161D01*
X141780Y178210D01*
X142306Y178561D01*
X142662Y179095D01*
X142788Y179724D01*
X142662Y180354D01*
X142306Y180888D01*
X141772Y181245D01*
X141142Y181370D01*
D02*
G37*
G36*
X217717Y191016D02*
X217087Y190891D01*
X216553Y190534D01*
X216196Y190000D01*
X216071Y189370D01*
X216196Y188740D01*
X216553Y188206D01*
X217087Y187850D01*
X217717Y187724D01*
X218346Y187850D01*
X218880Y188206D01*
X219237Y188740D01*
X219362Y189370D01*
X219237Y190000D01*
X218880Y190534D01*
X218346Y190891D01*
X217717Y191016D01*
D02*
G37*
G36*
X151772Y197217D02*
X151142Y197091D01*
X150608Y196735D01*
X150251Y196201D01*
X150126Y195571D01*
X150251Y194941D01*
X150608Y194407D01*
X151028Y194126D01*
X151064Y193974D01*
Y193723D01*
X151028Y193571D01*
X150608Y193290D01*
X150251Y192756D01*
X150126Y192126D01*
X150251Y191496D01*
X150608Y190962D01*
X150847Y190803D01*
Y190201D01*
X150608Y190042D01*
X150251Y189508D01*
X150126Y188878D01*
X150251Y188248D01*
X150608Y187714D01*
X151142Y187357D01*
X151772Y187232D01*
X152401Y187357D01*
X152935Y187714D01*
X153292Y188248D01*
X153417Y188878D01*
X153292Y189508D01*
X152935Y190042D01*
X152697Y190201D01*
Y190803D01*
X152935Y190962D01*
X153292Y191496D01*
X153417Y192126D01*
X153292Y192756D01*
X152935Y193290D01*
X152515Y193571D01*
X152479Y193723D01*
Y193974D01*
X152515Y194126D01*
X152935Y194407D01*
X153292Y194941D01*
X153417Y195571D01*
X153292Y196201D01*
X152935Y196735D01*
X152401Y197091D01*
X151772Y197217D01*
D02*
G37*
G36*
X198425Y194362D02*
X197795Y194237D01*
X197261Y193880D01*
X196905Y193346D01*
X196779Y192717D01*
X196905Y192087D01*
X197261Y191553D01*
X197795Y191196D01*
X198425Y191071D01*
X199055Y191196D01*
X199378Y191412D01*
X199569Y191396D01*
X199731Y191196D01*
X199632Y190540D01*
X199624Y190534D01*
X199267Y190000D01*
X199142Y189370D01*
X199267Y188740D01*
X199624Y188206D01*
X200158Y187850D01*
X200787Y187724D01*
X201417Y187850D01*
X201951Y188206D01*
X202308Y188740D01*
X202433Y189370D01*
X202308Y190000D01*
X201951Y190534D01*
X201949Y190536D01*
X201930Y190597D01*
X201983Y191114D01*
X202345Y191356D01*
X202696Y191881D01*
X202745Y191890D01*
X203161D01*
X203210Y191881D01*
X203561Y191356D01*
X204095Y190999D01*
X204724Y190874D01*
X205354Y190999D01*
X205888Y191356D01*
X206245Y191890D01*
X206370Y192520D01*
X206245Y193149D01*
X205888Y193683D01*
X205354Y194040D01*
X204724Y194166D01*
X204095Y194040D01*
X203561Y193683D01*
X203210Y193158D01*
X203161Y193149D01*
X202745D01*
X202696Y193158D01*
X202345Y193683D01*
X201811Y194040D01*
X201181Y194166D01*
X200551Y194040D01*
X200228Y193824D01*
X199591Y193877D01*
X199589Y193880D01*
X199055Y194237D01*
X198425Y194362D01*
D02*
G37*
G36*
X233071Y196921D02*
X232441Y196796D01*
X231907Y196439D01*
X231550Y195905D01*
X231425Y195276D01*
X231550Y194646D01*
X231907Y194112D01*
X232441Y193755D01*
X233071Y193630D01*
X233701Y193755D01*
X234235Y194112D01*
X234591Y194646D01*
X234717Y195276D01*
X234591Y195905D01*
X234235Y196439D01*
X233701Y196796D01*
X233071Y196921D01*
D02*
G37*
G36*
X215945Y195740D02*
X215315Y195615D01*
X214781Y195258D01*
X214424Y194724D01*
X214299Y194095D01*
X214424Y193465D01*
X214781Y192931D01*
X215315Y192574D01*
X215945Y192449D01*
X216575Y192574D01*
X217109Y192931D01*
X217465Y193465D01*
X217591Y194095D01*
X217465Y194724D01*
X217109Y195258D01*
X216575Y195615D01*
X215945Y195740D01*
D02*
G37*
G36*
X169885Y211198D02*
X169255Y211073D01*
X168721Y210716D01*
X168365Y210182D01*
X168239Y209553D01*
X168365Y208923D01*
X168641Y208509D01*
Y181165D01*
X168521Y181085D01*
X168165Y180551D01*
X168039Y179921D01*
X168165Y179291D01*
X168521Y178758D01*
X169055Y178401D01*
X169685Y178276D01*
X170315Y178401D01*
X170849Y178758D01*
X171205Y179291D01*
X171331Y179921D01*
X171205Y180551D01*
X170849Y181085D01*
X170729Y181165D01*
Y208175D01*
X171049Y208389D01*
X171406Y208923D01*
X171531Y209553D01*
X171406Y210182D01*
X171049Y210716D01*
X170515Y211073D01*
X169885Y211198D01*
D02*
G37*
G36*
X216142Y181961D02*
X215512Y181835D01*
X214978Y181479D01*
X214621Y180945D01*
X214496Y180315D01*
X214621Y179685D01*
X214978Y179151D01*
X215512Y178795D01*
X215550Y178787D01*
X215639Y178599D01*
X215709Y178245D01*
X215409Y177795D01*
X215283Y177165D01*
X215409Y176535D01*
X215765Y176002D01*
X216299Y175645D01*
X216929Y175520D01*
X217559Y175645D01*
X218093Y176002D01*
X218450Y176535D01*
X218575Y177165D01*
X218450Y177795D01*
X218093Y178329D01*
X217559Y178686D01*
X217520Y178693D01*
X217432Y178882D01*
X217361Y179235D01*
X217662Y179685D01*
X217788Y180315D01*
X217662Y180945D01*
X217305Y181479D01*
X216772Y181835D01*
X216142Y181961D01*
D02*
G37*
G36*
X220866Y183142D02*
X220236Y183017D01*
X219702Y182660D01*
X219346Y182126D01*
X219220Y181496D01*
X219346Y180866D01*
X219702Y180332D01*
X220236Y179975D01*
X220866Y179850D01*
X221496Y179975D01*
X222030Y180332D01*
X222387Y180866D01*
X222512Y181496D01*
X222387Y182126D01*
X222030Y182660D01*
X221496Y183017D01*
X220866Y183142D01*
D02*
G37*
G36*
X156595Y188850D02*
X155965Y188725D01*
X155431Y188368D01*
X155074Y187835D01*
X154949Y187205D01*
X155074Y186575D01*
X155431Y186041D01*
X155965Y185684D01*
X156595Y185559D01*
X157224Y185684D01*
X157758Y186041D01*
X158115Y186575D01*
X158240Y187205D01*
X158115Y187835D01*
X157758Y188368D01*
X157224Y188725D01*
X156595Y188850D01*
D02*
G37*
G36*
X212598Y185898D02*
X211969Y185773D01*
X211435Y185416D01*
X211078Y184882D01*
X210953Y184252D01*
X211078Y183622D01*
X211435Y183088D01*
X211969Y182731D01*
X212598Y182606D01*
X213228Y182731D01*
X213762Y183088D01*
X214119Y183622D01*
X214244Y184252D01*
X214119Y184882D01*
X213762Y185416D01*
X213228Y185773D01*
X212598Y185898D01*
D02*
G37*
%LPD*%
D52*
X169685Y179921D02*
Y209352D01*
X169885Y209553D01*
D53*
X225984Y159790D02*
Y161417D01*
X167717Y121653D02*
X169488D01*
X158268Y131102D02*
X167717Y121653D01*
X147653Y104331D02*
X148835Y105512D01*
X171653D01*
X150492Y113091D02*
Y134252D01*
X149803Y134941D02*
X150492Y134252D01*
X169488Y121653D02*
X171850D01*
X112992Y187992D02*
X113189Y188189D01*
X124213Y188189D02*
Y193799D01*
X225984Y159790D02*
X232677Y153097D01*
Y150984D02*
Y153097D01*
X113189Y188189D02*
X124213D01*
X124213Y188189D02*
X124213Y188189D01*
D58*
X212120Y159350D02*
X216587D01*
X208675Y155905D02*
X212120Y159350D01*
X182087Y155905D02*
X208675D01*
X173425Y164567D02*
X182087Y155905D01*
X225925Y134311D02*
X233917D01*
X216524Y143713D02*
X225925Y134311D01*
X216524Y143713D02*
Y159287D01*
X172441Y164567D02*
X173425D01*
X172441D02*
Y165551D01*
X168405Y169587D02*
X172441Y165551D01*
X143504Y137500D02*
X147835Y133169D01*
X147933Y133071D02*
X149803Y134941D01*
X122048Y135041D02*
X124507Y137500D01*
X143504D01*
X112992Y144097D02*
Y161417D01*
Y144097D02*
X122048Y135041D01*
X225984Y208268D02*
X227559Y209842D01*
X221693Y222795D02*
X227559Y216929D01*
X221693Y222795D02*
Y223874D01*
X219248Y226319D02*
X221693Y223874D01*
X218169Y226319D02*
X219248D01*
X212303Y232185D02*
X218169Y226319D01*
X227559Y209842D02*
Y216929D01*
X175886Y232185D02*
X212303D01*
X112992Y187992D02*
Y204082D01*
Y161417D02*
Y187992D01*
X143555Y234646D02*
X149409D01*
X173425D01*
X223917Y159350D02*
X225984Y161417D01*
X216587Y159350D02*
X223917D01*
X173425Y234646D02*
X175886Y232185D01*
X233917Y134311D02*
X234055Y134449D01*
X229272Y178929D02*
Y181897D01*
X225984Y185185D02*
Y208268D01*
Y161417D02*
Y175642D01*
X229272Y178929D01*
X225984Y185185D02*
X229272Y181897D01*
X216524Y159287D02*
X216587Y159350D01*
X112992Y204082D02*
X143555Y234646D01*
D62*
X231004Y110728D02*
D03*
X110925D02*
D03*
D63*
Y230807D02*
D03*
X231004D02*
D03*
D64*
X207776Y140650D02*
D03*
X150492Y115551D02*
D03*
Y113091D02*
D03*
X149803Y134941D02*
D03*
X147933Y133071D02*
D03*
X145866Y134843D02*
D03*
X169488Y121653D02*
D03*
X171850D02*
D03*
X177067Y134350D02*
D03*
X231004Y238484D02*
D03*
X236319Y225492D02*
D03*
Y236122D02*
D03*
X231004Y223130D02*
D03*
X225689Y225492D02*
D03*
Y236122D02*
D03*
X238681Y230807D02*
D03*
X223327D02*
D03*
X110925Y238484D02*
D03*
X116240Y225492D02*
D03*
Y236122D02*
D03*
X110925Y223130D02*
D03*
X105610Y225492D02*
D03*
Y236122D02*
D03*
X118602Y230807D02*
D03*
X103248D02*
D03*
X169885Y209553D02*
D03*
X231004Y118405D02*
D03*
X236319Y105413D02*
D03*
Y116043D02*
D03*
X231004Y103051D02*
D03*
X225689Y105413D02*
D03*
Y116043D02*
D03*
X238681Y110728D02*
D03*
X223425D02*
D03*
X103248D02*
D03*
X118602D02*
D03*
X105610Y116043D02*
D03*
Y105413D02*
D03*
X110925Y103051D02*
D03*
X116240Y116043D02*
D03*
Y105413D02*
D03*
X110925Y118405D02*
D03*
X212303Y169095D02*
D03*
X153740Y234646D02*
D03*
X151575D02*
D03*
X155905D02*
D03*
X149409D02*
D03*
X124409Y181496D02*
D03*
X229921Y195276D02*
D03*
X133465Y122047D02*
D03*
X169685Y179921D02*
D03*
X170079Y176378D02*
D03*
X176969Y155512D02*
D03*
X239272Y186713D02*
D03*
X204232Y224803D02*
D03*
X202716Y216535D02*
D03*
X116929Y191535D02*
D03*
D65*
X147653Y104331D02*
D03*
X217520Y222146D02*
D03*
X220768Y235925D02*
D03*
D66*
X168405Y169587D02*
D03*
X148425Y191437D02*
D03*
Y188976D02*
D03*
X148327Y194095D02*
D03*
X145472D02*
D03*
X128543Y219587D02*
D03*
X106890Y210138D02*
D03*
X121431Y157703D02*
D03*
X194291Y189370D02*
D03*
X216587Y159350D02*
D03*
X151181Y144488D02*
D03*
X227559Y209842D02*
D03*
X172441Y164567D02*
D03*
X188189Y193012D02*
D03*
X234055Y134449D02*
D03*
X232677Y150984D02*
D03*
X124213Y188189D02*
D03*
Y193799D02*
D03*
D67*
X158268Y131102D02*
D03*
X122048Y135041D02*
D03*
X112992Y161417D02*
D03*
D68*
X171653Y105512D02*
D03*
M02*
