G04 Layer_Color=8150272*
%FSLAX25Y25*%
%MOIN*%
G70*
G01*
G75*
G04:AMPARAMS|DCode=95|XSize=78.87mil|YSize=78.87mil|CornerRadius=21.72mil|HoleSize=0mil|Usage=FLASHONLY|Rotation=0.000|XOffset=0mil|YOffset=0mil|HoleType=Round|Shape=RoundedRectangle|*
%AMROUNDEDRECTD95*
21,1,0.07887,0.03543,0,0,0.0*
21,1,0.03543,0.07887,0,0,0.0*
1,1,0.04343,0.01772,-0.01772*
1,1,0.04343,-0.01772,-0.01772*
1,1,0.04343,-0.01772,0.01772*
1,1,0.04343,0.01772,0.01772*
%
%ADD95ROUNDEDRECTD95*%
%ADD101R,0.06902X0.03162*%
%ADD102R,0.07887X0.05524*%
%ADD104R,0.02965X0.02572*%
%ADD105R,0.02847X0.02847*%
%ADD106P,0.04027X4X180.0*%
%ADD113R,0.03556X0.03162*%
G04:AMPARAMS|DCode=114|XSize=78.87mil|YSize=78.87mil|CornerRadius=21.72mil|HoleSize=0mil|Usage=FLASHONLY|Rotation=270.000|XOffset=0mil|YOffset=0mil|HoleType=Round|Shape=RoundedRectangle|*
%AMROUNDEDRECTD114*
21,1,0.07887,0.03543,0,0,270.0*
21,1,0.03543,0.07887,0,0,270.0*
1,1,0.04343,-0.01772,-0.01772*
1,1,0.04343,-0.01772,0.01772*
1,1,0.04343,0.01772,0.01772*
1,1,0.04343,0.01772,-0.01772*
%
%ADD114ROUNDEDRECTD114*%
%ADD115R,0.04343X0.03556*%
%ADD116R,0.02847X0.02847*%
%ADD117R,0.04737X0.04343*%
%ADD118R,0.04343X0.04737*%
%ADD128R,0.03556X0.04343*%
%ADD129R,0.02965X0.03359*%
%ADD137C,0.18517*%
%ADD138C,0.19501*%
%ADD139O,0.07099X0.04343*%
%ADD140C,0.02769*%
%ADD141C,0.04737*%
G04:AMPARAMS|DCode=142|XSize=67.06mil|YSize=78.87mil|CornerRadius=18.76mil|HoleSize=0mil|Usage=FLASHONLY|Rotation=270.000|XOffset=0mil|YOffset=0mil|HoleType=Round|Shape=RoundedRectangle|*
%AMROUNDEDRECTD142*
21,1,0.06706,0.04134,0,0,270.0*
21,1,0.02953,0.07887,0,0,270.0*
1,1,0.03753,-0.02067,-0.01476*
1,1,0.03753,-0.02067,0.01476*
1,1,0.03753,0.02067,0.01476*
1,1,0.03753,0.02067,-0.01476*
%
%ADD142ROUNDEDRECTD142*%
%ADD143R,0.04540X0.11036*%
%ADD144O,0.09068X0.01981*%
%ADD145O,0.01981X0.09068*%
G04:AMPARAMS|DCode=146|XSize=19.81mil|YSize=47.37mil|CornerRadius=5.95mil|HoleSize=0mil|Usage=FLASHONLY|Rotation=180.000|XOffset=0mil|YOffset=0mil|HoleType=Round|Shape=RoundedRectangle|*
%AMROUNDEDRECTD146*
21,1,0.01981,0.03547,0,0,180.0*
21,1,0.00791,0.04737,0,0,180.0*
1,1,0.01190,-0.00396,0.01774*
1,1,0.01190,0.00396,0.01774*
1,1,0.01190,0.00396,-0.01774*
1,1,0.01190,-0.00396,-0.01774*
%
%ADD146ROUNDEDRECTD146*%
%ADD147R,0.01981X0.02375*%
%ADD148R,0.02375X0.01981*%
G04:AMPARAMS|DCode=149|XSize=19.81mil|YSize=39.5mil|CornerRadius=5.95mil|HoleSize=0mil|Usage=FLASHONLY|Rotation=90.000|XOffset=0mil|YOffset=0mil|HoleType=Round|Shape=RoundedRectangle|*
%AMROUNDEDRECTD149*
21,1,0.01981,0.02760,0,0,90.0*
21,1,0.00791,0.03950,0,0,90.0*
1,1,0.01190,0.01380,0.00396*
1,1,0.01190,0.01380,-0.00396*
1,1,0.01190,-0.01380,-0.00396*
1,1,0.01190,-0.01380,0.00396*
%
%ADD149ROUNDEDRECTD149*%
%ADD150R,0.07099X0.01981*%
G04:AMPARAMS|DCode=151|XSize=29.65mil|YSize=25.72mil|CornerRadius=0mil|HoleSize=0mil|Usage=FLASHONLY|Rotation=315.000|XOffset=0mil|YOffset=0mil|HoleType=Round|Shape=Rectangle|*
%AMROTATEDRECTD151*
4,1,4,-0.01958,0.00139,-0.00139,0.01958,0.01958,-0.00139,0.00139,-0.01958,-0.01958,0.00139,0.0*
%
%ADD151ROTATEDRECTD151*%

%ADD152R,0.03635X0.03635*%
%ADD153R,0.05131X0.05131*%
%ADD154R,0.01784X0.04737*%
%ADD155O,0.03359X0.01784*%
%ADD156R,0.07296X0.10249*%
%ADD157R,0.09934X0.06430*%
%ADD158R,0.06902X0.06115*%
%ADD159R,0.06115X0.06902*%
%ADD160R,0.02572X0.01981*%
%ADD161R,0.01981X0.02572*%
G04:AMPARAMS|DCode=162|XSize=114mil|YSize=33mil|CornerRadius=0mil|HoleSize=0mil|Usage=FLASHONLY|Rotation=225.000|XOffset=0mil|YOffset=0mil|HoleType=Round|Shape=Rectangle|*
%AMROTATEDRECTD162*
4,1,4,0.02864,0.05197,0.05197,0.02864,-0.02864,-0.05197,-0.05197,-0.02864,0.02864,0.05197,0.0*
%
%ADD162ROTATEDRECTD162*%

%ADD163R,0.04343X0.02473*%
%ADD164R,0.03359X0.04343*%
D95*
X161653Y105512D02*
D03*
X171653D02*
D03*
X181653D02*
D03*
D101*
X120792Y135039D02*
D03*
Y138976D02*
D03*
X120842Y142913D02*
D03*
Y146850D02*
D03*
X120546Y178839D02*
D03*
Y174902D02*
D03*
X120497Y170965D02*
D03*
Y167028D02*
D03*
D102*
X105535Y129921D02*
D03*
Y151969D02*
D03*
X105240Y183957D02*
D03*
Y161909D02*
D03*
D104*
X184646Y214961D02*
D03*
Y218504D02*
D03*
X128740Y152559D02*
D03*
Y156102D02*
D03*
X141142Y179724D02*
D03*
Y176181D02*
D03*
X188740Y215018D02*
D03*
Y218562D02*
D03*
D105*
X143307Y188189D02*
D03*
Y191339D02*
D03*
X237402Y175591D02*
D03*
Y178740D02*
D03*
D106*
X191012Y195835D02*
D03*
X193239Y198062D02*
D03*
D113*
X125591Y122047D02*
D03*
X133465Y125787D02*
D03*
Y118307D02*
D03*
D114*
X128445Y229823D02*
D03*
Y219823D02*
D03*
X234941Y142756D02*
D03*
Y152756D02*
D03*
Y162756D02*
D03*
D115*
X133071Y188583D02*
D03*
Y194095D02*
D03*
D116*
X183169Y120571D02*
D03*
X180020D02*
D03*
X216535Y172441D02*
D03*
X219685D02*
D03*
X151969Y148819D02*
D03*
X148819D02*
D03*
X184646Y142626D02*
D03*
X187795D02*
D03*
X197638Y189370D02*
D03*
X200787D02*
D03*
X229921Y195276D02*
D03*
X233071D02*
D03*
D117*
X144095Y235039D02*
D03*
Y228740D02*
D03*
D118*
X151181Y144488D02*
D03*
X144882D02*
D03*
X168504Y112598D02*
D03*
X162205D02*
D03*
X174409D02*
D03*
X180709D02*
D03*
D128*
X226772Y176378D02*
D03*
X232283D02*
D03*
X150787Y138976D02*
D03*
X145276D02*
D03*
X174311Y126279D02*
D03*
X168799D02*
D03*
X154626Y126969D02*
D03*
X160138D02*
D03*
X154626Y121457D02*
D03*
X160138D02*
D03*
X149508Y109941D02*
D03*
X143996D02*
D03*
D129*
X212205Y168701D02*
D03*
X216142D02*
D03*
D137*
X231004Y230807D02*
D03*
X110925D02*
D03*
D138*
Y110728D02*
D03*
X231004D02*
D03*
D139*
X106496Y127953D02*
D03*
Y153937D02*
D03*
D140*
X164961Y208169D02*
D03*
D141*
D03*
X131004Y238484D02*
D03*
X106890Y211713D02*
D03*
X159547Y132382D02*
D03*
X164961Y214419D02*
D03*
X214173Y162795D02*
D03*
D142*
X112205Y176673D02*
D03*
Y168799D02*
D03*
D143*
X199016Y234842D02*
D03*
X210039D02*
D03*
X199016Y221752D02*
D03*
X210039D02*
D03*
D144*
X192913Y185630D02*
D03*
Y183661D02*
D03*
Y181693D02*
D03*
Y179724D02*
D03*
Y177756D02*
D03*
Y175787D02*
D03*
Y173819D02*
D03*
Y171850D02*
D03*
Y169882D02*
D03*
Y167913D02*
D03*
Y165945D02*
D03*
Y163976D02*
D03*
Y162008D02*
D03*
Y160039D02*
D03*
Y158071D02*
D03*
Y156102D02*
D03*
X148819D02*
D03*
Y158071D02*
D03*
Y160039D02*
D03*
Y162008D02*
D03*
Y163976D02*
D03*
Y165945D02*
D03*
Y167913D02*
D03*
Y169882D02*
D03*
Y171850D02*
D03*
Y173819D02*
D03*
Y175787D02*
D03*
Y177756D02*
D03*
Y179724D02*
D03*
Y181693D02*
D03*
Y183661D02*
D03*
Y185630D02*
D03*
D145*
X185630Y148819D02*
D03*
X183661D02*
D03*
X181693D02*
D03*
X179724D02*
D03*
X177756D02*
D03*
X175787D02*
D03*
X173819D02*
D03*
X171850D02*
D03*
X169882D02*
D03*
X167913D02*
D03*
X165945D02*
D03*
X163976D02*
D03*
X162008D02*
D03*
X160039D02*
D03*
X158071D02*
D03*
X156102D02*
D03*
Y192913D02*
D03*
X158071D02*
D03*
X160039D02*
D03*
X162008D02*
D03*
X163976D02*
D03*
X165945D02*
D03*
X167913D02*
D03*
X169882D02*
D03*
X171850D02*
D03*
X173819D02*
D03*
X175787D02*
D03*
X177756D02*
D03*
X179724D02*
D03*
X181693D02*
D03*
X183661D02*
D03*
X185630D02*
D03*
D146*
X134449Y134646D02*
D03*
X132480D02*
D03*
X130512D02*
D03*
X128543D02*
D03*
X134449Y148031D02*
D03*
X132480D02*
D03*
X130512D02*
D03*
X128543D02*
D03*
D147*
X179528Y133563D02*
D03*
X181496D02*
D03*
X183465D02*
D03*
X185433D02*
D03*
X187402D02*
D03*
Y123917D02*
D03*
X185433D02*
D03*
X183465D02*
D03*
X181496D02*
D03*
X179528D02*
D03*
D148*
X188287Y130709D02*
D03*
Y128740D02*
D03*
Y126772D02*
D03*
X178642D02*
D03*
Y128740D02*
D03*
Y130709D02*
D03*
D149*
X129724Y179921D02*
D03*
Y175984D02*
D03*
X137992D02*
D03*
Y177953D02*
D03*
Y179921D02*
D03*
D150*
X207480Y180512D02*
D03*
Y176772D02*
D03*
Y173031D02*
D03*
D151*
X178615Y204599D02*
D03*
X176109Y202094D02*
D03*
D152*
X199213Y162992D02*
D03*
X203150D02*
D03*
X173425Y134350D02*
D03*
X169488D02*
D03*
X169390Y130512D02*
D03*
X173327D02*
D03*
D153*
X138583Y189370D02*
D03*
Y196457D02*
D03*
D154*
X171063Y237008D02*
D03*
X169095D02*
D03*
Y226772D02*
D03*
X171063D02*
D03*
D155*
X164665Y227953D02*
D03*
Y229921D02*
D03*
Y231890D02*
D03*
Y233858D02*
D03*
Y235827D02*
D03*
X175492D02*
D03*
Y233858D02*
D03*
Y231890D02*
D03*
Y229921D02*
D03*
Y227953D02*
D03*
D156*
X170079Y231890D02*
D03*
D157*
X153150Y227224D02*
D03*
Y236555D02*
D03*
D158*
X184055Y227165D02*
D03*
Y235039D02*
D03*
X191831D02*
D03*
Y227165D02*
D03*
D159*
X152756Y220472D02*
D03*
X144882D02*
D03*
D160*
X226476Y189567D02*
D03*
Y187599D02*
D03*
Y185631D02*
D03*
Y183662D02*
D03*
X236515D02*
D03*
Y185631D02*
D03*
Y187599D02*
D03*
Y189567D02*
D03*
D161*
X228543Y181595D02*
D03*
X230512D02*
D03*
X232480D02*
D03*
X234449D02*
D03*
Y191634D02*
D03*
X232480D02*
D03*
X230512D02*
D03*
X228543D02*
D03*
D162*
X210298Y143043D02*
D03*
X198985Y131729D02*
D03*
X213834Y139507D02*
D03*
X202520Y128194D02*
D03*
X217369Y135972D02*
D03*
X206056Y124658D02*
D03*
X220905Y132436D02*
D03*
X209591Y121123D02*
D03*
X224441Y128901D02*
D03*
X213127Y117587D02*
D03*
D163*
X106890Y206004D02*
D03*
Y202854D02*
D03*
Y199705D02*
D03*
Y196555D02*
D03*
X113583D02*
D03*
Y199705D02*
D03*
Y202854D02*
D03*
X113583Y206004D02*
D03*
D164*
X150492Y123917D02*
D03*
X143012D02*
D03*
Y114469D02*
D03*
X146752D02*
D03*
X150492D02*
D03*
M02*
