G04 Layer_Physical_Order=4*
G04 Layer_Color=12500520*
%FSLAX25Y25*%
%MOIN*%
G70*
G01*
G75*
%ADD13R,0.02165X0.01772*%
%ADD19R,0.02165X0.02559*%
G04:AMPARAMS|DCode=20|XSize=70.87mil|YSize=70.87mil|CornerRadius=17.72mil|HoleSize=0mil|Usage=FLASHONLY|Rotation=0.000|XOffset=0mil|YOffset=0mil|HoleType=Round|Shape=RoundedRectangle|*
%AMROUNDEDRECTD20*
21,1,0.07087,0.03543,0,0,0.0*
21,1,0.03543,0.07087,0,0,0.0*
1,1,0.03543,0.01772,-0.01772*
1,1,0.03543,-0.01772,-0.01772*
1,1,0.03543,-0.01772,0.01772*
1,1,0.03543,0.01772,0.01772*
%
%ADD20ROUNDEDRECTD20*%
%ADD21R,0.02756X0.03543*%
%ADD22R,0.03543X0.02756*%
%ADD31R,0.03543X0.03937*%
%ADD32R,0.03937X0.03543*%
%ADD33R,0.02047X0.02047*%
G04:AMPARAMS|DCode=34|XSize=70.87mil|YSize=70.87mil|CornerRadius=17.72mil|HoleSize=0mil|Usage=FLASHONLY|Rotation=270.000|XOffset=0mil|YOffset=0mil|HoleType=Round|Shape=RoundedRectangle|*
%AMROUNDEDRECTD34*
21,1,0.07087,0.03543,0,0,270.0*
21,1,0.03543,0.07087,0,0,270.0*
1,1,0.03543,-0.01772,-0.01772*
1,1,0.03543,-0.01772,0.01772*
1,1,0.03543,0.01772,0.01772*
1,1,0.03543,0.01772,-0.01772*
%
%ADD34ROUNDEDRECTD34*%
%ADD35R,0.02756X0.02362*%
%ADD42R,0.02047X0.02047*%
%ADD43P,0.02895X4X180.0*%
%ADD45R,0.06102X0.02362*%
%ADD46R,0.07087X0.04724*%
%ADD52C,0.00787*%
%ADD53C,0.01969*%
%ADD54C,0.01378*%
%ADD55C,0.00630*%
%ADD56C,0.01181*%
%ADD58C,0.03937*%
%ADD59C,0.00984*%
%ADD61O,0.06299X0.03543*%
%ADD62C,0.18701*%
%ADD63C,0.17716*%
%ADD64C,0.01969*%
%ADD65C,0.03150*%
%ADD66C,0.02362*%
%ADD67C,0.02756*%
%ADD68C,0.05000*%
%ADD69R,0.02559X0.03543*%
%ADD70R,0.02835X0.02835*%
%ADD71R,0.03543X0.01673*%
G04:AMPARAMS|DCode=72|XSize=110mil|YSize=29mil|CornerRadius=0mil|HoleSize=0mil|Usage=FLASHONLY|Rotation=225.000|XOffset=0mil|YOffset=0mil|HoleType=Round|Shape=Rectangle|*
%AMROTATEDRECTD72*
4,1,4,0.02864,0.04914,0.04914,0.02864,-0.02864,-0.04914,-0.04914,-0.02864,0.02864,0.04914,0.0*
%
%ADD72ROTATEDRECTD72*%

%ADD73R,0.03740X0.10236*%
%ADD74R,0.01181X0.01772*%
%ADD75R,0.01772X0.01181*%
%ADD76R,0.05315X0.06102*%
%ADD77R,0.06102X0.05315*%
%ADD78R,0.09134X0.05630*%
%ADD79R,0.06496X0.09449*%
%ADD80O,0.02559X0.00984*%
%ADD81R,0.00984X0.03937*%
%ADD82R,0.04331X0.04331*%
G04:AMPARAMS|DCode=83|XSize=21.65mil|YSize=17.72mil|CornerRadius=0mil|HoleSize=0mil|Usage=FLASHONLY|Rotation=315.000|XOffset=0mil|YOffset=0mil|HoleType=Round|Shape=Rectangle|*
%AMROTATEDRECTD83*
4,1,4,-0.01392,0.00139,-0.00139,0.01392,0.01392,-0.00139,0.00139,-0.01392,-0.01392,0.00139,0.0*
%
%ADD83ROTATEDRECTD83*%

%ADD84R,0.06299X0.01181*%
G04:AMPARAMS|DCode=85|XSize=11.81mil|YSize=31.5mil|CornerRadius=1.95mil|HoleSize=0mil|Usage=FLASHONLY|Rotation=90.000|XOffset=0mil|YOffset=0mil|HoleType=Round|Shape=RoundedRectangle|*
%AMROUNDEDRECTD85*
21,1,0.01181,0.02760,0,0,90.0*
21,1,0.00791,0.03150,0,0,90.0*
1,1,0.00390,0.01380,0.00396*
1,1,0.00390,0.01380,-0.00396*
1,1,0.00390,-0.01380,-0.00396*
1,1,0.00390,-0.01380,0.00396*
%
%ADD85ROUNDEDRECTD85*%
%ADD86R,0.01575X0.01181*%
%ADD87R,0.01181X0.01575*%
G04:AMPARAMS|DCode=88|XSize=11.81mil|YSize=39.37mil|CornerRadius=1.95mil|HoleSize=0mil|Usage=FLASHONLY|Rotation=180.000|XOffset=0mil|YOffset=0mil|HoleType=Round|Shape=RoundedRectangle|*
%AMROUNDEDRECTD88*
21,1,0.01181,0.03547,0,0,180.0*
21,1,0.00791,0.03937,0,0,180.0*
1,1,0.00390,-0.00396,0.01774*
1,1,0.00390,0.00396,0.01774*
1,1,0.00390,0.00396,-0.01774*
1,1,0.00390,-0.00396,-0.01774*
%
%ADD88ROUNDEDRECTD88*%
%ADD89C,0.03937*%
%ADD90O,0.01181X0.08268*%
%ADD91O,0.08268X0.01181*%
G04:AMPARAMS|DCode=92|XSize=59.06mil|YSize=70.87mil|CornerRadius=14.76mil|HoleSize=0mil|Usage=FLASHONLY|Rotation=270.000|XOffset=0mil|YOffset=0mil|HoleType=Round|Shape=RoundedRectangle|*
%AMROUNDEDRECTD92*
21,1,0.05906,0.04134,0,0,270.0*
21,1,0.02953,0.07087,0,0,270.0*
1,1,0.02953,-0.02067,-0.01476*
1,1,0.02953,-0.02067,0.01476*
1,1,0.02953,0.02067,0.01476*
1,1,0.02953,0.02067,-0.01476*
%
%ADD92ROUNDEDRECTD92*%
G36*
X219903Y184029D02*
Y182794D01*
X219702Y182660D01*
X219346Y182126D01*
X219220Y181496D01*
X219346Y180866D01*
X219702Y180332D01*
X220236Y179975D01*
X220866Y179850D01*
X221496Y179975D01*
X221685Y180102D01*
X222185Y179834D01*
Y175923D01*
X221685Y175656D01*
X221628Y175693D01*
X221260Y175767D01*
X217815D01*
X217446Y175693D01*
X217134Y175484D01*
X216248Y174599D01*
X216039Y174286D01*
X216001Y174094D01*
X214882D01*
Y172150D01*
X214818Y172085D01*
X211260D01*
Y174252D01*
X204138D01*
X203708Y174681D01*
X203916Y175181D01*
X206980D01*
Y176772D01*
Y178362D01*
X203916D01*
X203708Y178862D01*
X204138Y179291D01*
X211260D01*
Y181320D01*
X213358D01*
X213727Y181393D01*
X214039Y181602D01*
X214664Y182227D01*
X215099Y182048D01*
X215118Y181572D01*
X214978Y181479D01*
X214621Y180945D01*
X214496Y180315D01*
X214621Y179685D01*
X214978Y179151D01*
X215512Y178795D01*
X216142Y178669D01*
X216772Y178795D01*
X217305Y179151D01*
X217662Y179685D01*
X217788Y180315D01*
X217662Y180945D01*
X217305Y181479D01*
X217271Y182051D01*
X219441Y184220D01*
X219903Y184029D01*
D02*
G37*
G36*
X191476Y141497D02*
Y136176D01*
X190976Y135909D01*
X190886Y135969D01*
X190256Y136095D01*
X189626Y135969D01*
X189092Y135613D01*
X188921Y135356D01*
X188856Y135275D01*
X188365Y135424D01*
Y136221D01*
X188292Y136589D01*
X188083Y136902D01*
X185344Y139640D01*
X185535Y140102D01*
X185721D01*
Y142126D01*
X186221D01*
Y142626D01*
X188244D01*
Y144022D01*
X188688Y144285D01*
X191476Y141497D01*
D02*
G37*
G36*
X186870Y131929D02*
Y129488D01*
Y127520D01*
Y125705D01*
X185933D01*
Y123917D01*
X184933D01*
Y125705D01*
X183965D01*
Y123917D01*
X182965D01*
Y125705D01*
X181996D01*
Y123917D01*
X180996D01*
Y125705D01*
X180059D01*
Y127150D01*
X180429D01*
Y128240D01*
X178642D01*
Y129240D01*
X180429D01*
Y130331D01*
X180413D01*
X180059Y130684D01*
Y131929D01*
X180469Y132146D01*
X186460D01*
X186870Y131929D01*
D02*
G37*
G36*
X172781Y166856D02*
X172534Y166395D01*
X172441Y166413D01*
X171734Y166273D01*
X171135Y165873D01*
X170735Y165274D01*
X170594Y164567D01*
X170735Y163860D01*
X171135Y163261D01*
X171734Y162861D01*
X172441Y162720D01*
X173148Y162861D01*
X173747Y163261D01*
X174147Y163860D01*
X174287Y164567D01*
X174269Y164660D01*
X174730Y164907D01*
X185541Y154095D01*
X185374Y153556D01*
X185154Y153512D01*
X185071Y153457D01*
X184808Y153509D01*
X184282Y153860D01*
X184161Y153884D01*
Y148819D01*
X183161D01*
Y154100D01*
X182900Y154322D01*
X182843Y154610D01*
X182573Y155014D01*
X181195Y156392D01*
X180791Y156661D01*
X180315Y156756D01*
X178012D01*
X177598Y157032D01*
X176969Y157158D01*
X176339Y157032D01*
X175805Y156676D01*
X175520Y156249D01*
X175448Y156142D01*
X174928Y156089D01*
X174842Y156147D01*
X174213Y156272D01*
X173583Y156147D01*
X173049Y155790D01*
X172969Y155670D01*
X170965D01*
X170565Y155590D01*
X170227Y155364D01*
X169144Y154281D01*
X168918Y153943D01*
X168886Y153782D01*
X168414Y153525D01*
X168338Y153522D01*
X167913Y153607D01*
X167437Y153512D01*
X167305Y153424D01*
X166929Y153281D01*
X166553Y153424D01*
X166421Y153512D01*
X165945Y153607D01*
X165469Y153512D01*
X165336Y153424D01*
X164961Y153281D01*
X164585Y153424D01*
X164453Y153512D01*
X163976Y153607D01*
X163500Y153512D01*
X163368Y153424D01*
X162992Y153281D01*
X162616Y153424D01*
X162484Y153512D01*
X162008Y153607D01*
X161532Y153512D01*
X161399Y153424D01*
X161024Y153281D01*
X160648Y153424D01*
X160516Y153512D01*
X160039Y153607D01*
X159563Y153512D01*
X159431Y153424D01*
X159055Y153281D01*
X158679Y153424D01*
X158547Y153512D01*
X158071Y153607D01*
X157595Y153512D01*
X157462Y153424D01*
X157087Y153281D01*
X156711Y153424D01*
X156579Y153512D01*
X156102Y153607D01*
X155626Y153512D01*
X155222Y153242D01*
X154953Y152838D01*
X154858Y152362D01*
Y150063D01*
X153622D01*
Y150472D01*
X150842D01*
Y150842D01*
X149319D01*
Y148819D01*
X148819D01*
Y148319D01*
X146795D01*
Y147457D01*
X145382D01*
Y144488D01*
X144882D01*
Y143988D01*
X142110D01*
Y141520D01*
X142898D01*
Y139476D01*
X145276D01*
Y138476D01*
X142898D01*
Y136205D01*
X144234D01*
X144501Y135705D01*
X144346Y135472D01*
X144220Y134843D01*
X144346Y134213D01*
X144702Y133679D01*
X145236Y133322D01*
X145866Y133197D01*
X146345Y132782D01*
X146380Y132607D01*
X146080Y132107D01*
X144184D01*
X144077Y132266D01*
X143543Y132623D01*
X142913Y132748D01*
X142284Y132623D01*
X141750Y132266D01*
X141701Y132194D01*
X141201Y132345D01*
Y153592D01*
X141701Y153859D01*
X141794Y153797D01*
X142423Y153672D01*
X143053Y153797D01*
X143587Y154154D01*
X143944Y154688D01*
X144034Y155139D01*
X144521D01*
X144799Y154953D01*
X145276Y154858D01*
X152362D01*
X152838Y154953D01*
X153242Y155222D01*
X153512Y155626D01*
X153560Y155866D01*
X154082Y155928D01*
X154348Y155529D01*
X154882Y155172D01*
X155512Y155047D01*
X156141Y155172D01*
X156406Y155349D01*
X157036Y155237D01*
X157104Y155136D01*
X157638Y154779D01*
X158268Y154653D01*
X158897Y154779D01*
X159432Y155136D01*
X159788Y155669D01*
X159842Y155942D01*
X166126Y162225D01*
X166374Y162597D01*
X166461Y163034D01*
Y168337D01*
X166961Y168488D01*
X167100Y168281D01*
X167699Y167881D01*
X168405Y167740D01*
X169112Y167881D01*
X169711Y168281D01*
X170087Y168843D01*
X170187Y168920D01*
X170594Y169043D01*
X172781Y166856D01*
D02*
G37*
G36*
X220185Y170417D02*
X221709D01*
X221773Y169944D01*
Y156792D01*
X221273Y156525D01*
X221102Y156639D01*
X220472Y156764D01*
X219843Y156639D01*
X219309Y156282D01*
X219175Y156081D01*
X217510D01*
X216551Y157040D01*
X216760Y157538D01*
X217293Y157644D01*
X217892Y158045D01*
X218293Y158644D01*
X218433Y159350D01*
X218293Y160057D01*
X217892Y160656D01*
X217293Y161056D01*
X216817Y161151D01*
X216740Y161220D01*
X216532Y161616D01*
X216524Y161680D01*
X216705Y162117D01*
X216794Y162795D01*
X216705Y163474D01*
X216443Y164106D01*
X216026Y164648D01*
X215812Y164813D01*
X215798Y165384D01*
X215826Y165433D01*
X216880Y166486D01*
X217084Y166791D01*
X217854D01*
Y170064D01*
X218208Y170417D01*
X219185D01*
Y172441D01*
X220185D01*
Y170417D01*
D02*
G37*
G36*
X240769Y185216D02*
Y109843D01*
X240782Y109778D01*
X240617Y108107D01*
X240111Y106437D01*
X239288Y104899D01*
X238182Y103550D01*
X236833Y102444D01*
X235295Y101621D01*
X233626Y101115D01*
X231954Y100951D01*
X231890Y100963D01*
X185181D01*
X185011Y101463D01*
X185402Y101763D01*
X185846Y102342D01*
X186126Y103017D01*
X186221Y103740D01*
Y105012D01*
X181653D01*
X177086D01*
Y103740D01*
X177182Y103017D01*
X177461Y102342D01*
X177905Y101763D01*
X178296Y101463D01*
X178126Y100963D01*
X174338D01*
X174289Y101463D01*
X174362Y101478D01*
X175157Y102009D01*
X175687Y102803D01*
X175874Y103740D01*
Y107283D01*
X175687Y108221D01*
X175157Y109015D01*
X174431Y109500D01*
X174439Y109776D01*
X174514Y110000D01*
X176811D01*
Y115197D01*
X177189Y115492D01*
X177929D01*
X178307Y115197D01*
Y110000D01*
X178307Y110000D01*
X178249Y109524D01*
X177905Y109260D01*
X177461Y108681D01*
X177182Y108007D01*
X177086Y107283D01*
Y106012D01*
X181653D01*
X186221D01*
Y107283D01*
X186126Y108007D01*
X185846Y108681D01*
X185402Y109260D01*
X184823Y109704D01*
X184149Y109984D01*
X183425Y110079D01*
X183110Y110394D01*
Y115197D01*
X183488Y115492D01*
X189961D01*
X198776Y106677D01*
X198748Y106535D01*
X198873Y105906D01*
X199230Y105372D01*
X199764Y105015D01*
X200394Y104890D01*
X201024Y105015D01*
X201557Y105372D01*
X201914Y105906D01*
X202018Y106429D01*
X202325Y106588D01*
X202528Y106625D01*
X203199Y105955D01*
X203199Y105955D01*
X203538Y105729D01*
X203937Y105649D01*
X209780D01*
X209860Y105529D01*
X210394Y105172D01*
X211024Y105047D01*
X211653Y105172D01*
X212187Y105529D01*
X212544Y106063D01*
X212669Y106693D01*
X212544Y107323D01*
X212187Y107857D01*
X211653Y108213D01*
X211024Y108339D01*
X210394Y108213D01*
X209860Y107857D01*
X209780Y107737D01*
X204369D01*
X193563Y118543D01*
Y127828D01*
X194025Y128020D01*
X196121Y125924D01*
X204790Y134593D01*
X201849Y137534D01*
X198768Y134454D01*
X198306Y134645D01*
Y142985D01*
X198768Y143177D01*
X206714Y135231D01*
Y133750D01*
X206173Y133209D01*
X205384Y133999D01*
X196715Y125330D01*
X199656Y122388D01*
X208325Y131057D01*
X207536Y131847D01*
X208358Y132669D01*
X208567Y132982D01*
X208641Y133351D01*
Y134855D01*
X209103Y135046D01*
X210970Y133179D01*
X211041Y133108D01*
X212420Y131729D01*
X217016Y136325D01*
X217723Y135618D01*
X213127Y131022D01*
X214506Y129643D01*
X214716Y129854D01*
X215100Y129572D01*
X215121Y129551D01*
X218020Y126652D01*
X218041Y126631D01*
X218322Y126248D01*
X218112Y126037D01*
X219491Y124658D01*
X224087Y129254D01*
X228683Y133851D01*
X227304Y135229D01*
X227094Y135019D01*
X227094D01*
X226710Y135300D01*
X226689Y135321D01*
X225641Y136369D01*
X225729Y136660D01*
X225867Y136850D01*
X229465D01*
X229545Y136730D01*
X230079Y136373D01*
X230709Y136248D01*
X231339Y136373D01*
X231872Y136730D01*
X232229Y137264D01*
X232340Y137822D01*
X232357Y137896D01*
X232796Y138238D01*
X233169Y138189D01*
X234441D01*
Y142256D01*
X230374D01*
Y140984D01*
X230469Y140261D01*
X230568Y140021D01*
X230263Y139451D01*
X230079Y139414D01*
X229545Y139058D01*
X229465Y138937D01*
X226220D01*
X222355Y142802D01*
X222601Y143263D01*
X222736Y143236D01*
X223366Y143361D01*
X223900Y143718D01*
X224257Y144252D01*
X224382Y144882D01*
X224257Y145512D01*
X223900Y146046D01*
X223700Y146179D01*
Y153340D01*
X224112Y153596D01*
X224200Y153592D01*
X224803Y153472D01*
X225433Y153598D01*
X225967Y153954D01*
X226324Y154488D01*
X226449Y155118D01*
X226324Y155748D01*
X225967Y156282D01*
X225847Y156362D01*
Y173228D01*
X226157Y173606D01*
X226272D01*
Y176378D01*
X227272D01*
Y173606D01*
X228570D01*
X228790Y173278D01*
X229577Y172490D01*
X229577Y172490D01*
X229916Y172264D01*
X230315Y172185D01*
X236220D01*
X236221Y172185D01*
X236620Y172264D01*
X236959Y172490D01*
X238140Y173671D01*
X238140Y173671D01*
X238317Y173937D01*
X239055D01*
Y177087D01*
Y180394D01*
X238546D01*
Y182776D01*
X238458Y183214D01*
X238211Y183585D01*
X238031Y183764D01*
Y184410D01*
Y184999D01*
X238531Y185266D01*
X238642Y185192D01*
X239272Y185067D01*
X239901Y185192D01*
X240269Y185438D01*
X240769Y185216D01*
D02*
G37*
G36*
X220096Y201592D02*
X220630Y201235D01*
X221260Y201110D01*
X221890Y201235D01*
X222200Y200842D01*
X221615Y200256D01*
X218194D01*
X217794Y200177D01*
X217456Y199951D01*
X216952Y199447D01*
X216387Y199589D01*
X216124Y199983D01*
X215591Y200339D01*
X214961Y200465D01*
X214331Y200339D01*
X213797Y199983D01*
X213440Y199449D01*
X213315Y198819D01*
X213420Y198291D01*
X203273Y188144D01*
X202811Y188335D01*
Y188870D01*
X200787D01*
Y189370D01*
X200287D01*
Y191394D01*
X200084D01*
X199817Y191894D01*
X199946Y192087D01*
X200071Y192717D01*
X199946Y193346D01*
X199589Y193880D01*
X199055Y194237D01*
X198425Y194362D01*
X197795Y194237D01*
X197318Y193918D01*
X197000Y194307D01*
X204405Y201712D01*
X220016D01*
X220096Y201592D01*
D02*
G37*
G36*
X158604Y198105D02*
X158357Y197644D01*
X158071Y197701D01*
X157595Y197606D01*
X157191Y197337D01*
X156982D01*
X156579Y197606D01*
X156102Y197701D01*
X155626Y197606D01*
X155222Y197337D01*
X154953Y196933D01*
X154858Y196457D01*
Y193031D01*
X153748Y191921D01*
X153539Y191609D01*
X153466Y191240D01*
Y186962D01*
X152966Y186695D01*
X152838Y186780D01*
X152362Y186874D01*
X149670D01*
Y187630D01*
X149731Y187671D01*
X150131Y188270D01*
X150272Y188976D01*
X150131Y189683D01*
X149781Y190207D01*
X150131Y190730D01*
X150272Y191437D01*
X150131Y192144D01*
X149731Y192743D01*
X149642Y192802D01*
X150033Y193388D01*
X150173Y194095D01*
X150033Y194801D01*
X149632Y195400D01*
X149033Y195800D01*
X148327Y195941D01*
X147620Y195800D01*
X147269Y195566D01*
X146900Y195441D01*
X146530Y195566D01*
X146179Y195800D01*
X145472Y195941D01*
X144766Y195800D01*
X144167Y195400D01*
X143766Y194801D01*
X143626Y194095D01*
X143672Y193862D01*
X143262Y193362D01*
X141748D01*
Y195957D01*
X138583D01*
Y196957D01*
X141748D01*
Y199278D01*
X157431D01*
X158604Y198105D01*
D02*
G37*
G36*
X195768Y213031D02*
X195768Y213031D01*
X197600D01*
X200640Y209990D01*
X200979Y209764D01*
X201045Y209751D01*
X201378Y209685D01*
X201378Y209685D01*
X221812D01*
X222972Y208524D01*
Y207896D01*
X222472Y207745D01*
X222424Y207817D01*
X221890Y208174D01*
X221260Y208299D01*
X220630Y208174D01*
X220096Y207817D01*
X219739Y207283D01*
X219614Y206653D01*
X219642Y206512D01*
X218505Y205374D01*
X203543D01*
X203543Y205374D01*
X203210Y205308D01*
X203144Y205295D01*
X202805Y205069D01*
X202805Y205069D01*
X195950Y198214D01*
X195024Y199140D01*
X193593Y197709D01*
X193239Y198062D01*
X192886Y197709D01*
X191455Y199140D01*
X190378Y198062D01*
X190639Y197801D01*
X188674Y195835D01*
X188679Y195830D01*
X187589Y194739D01*
X187482Y194718D01*
X187374Y194646D01*
X186874Y194913D01*
Y196457D01*
X186780Y196933D01*
X186510Y197337D01*
X186106Y197606D01*
X185630Y197701D01*
X185154Y197606D01*
X185071Y197551D01*
X184808Y197603D01*
X184282Y197955D01*
X184161Y197979D01*
Y192913D01*
X183161D01*
Y197979D01*
X183156Y197978D01*
X182656Y198254D01*
Y200487D01*
X183765Y201596D01*
X194291D01*
X194660Y201669D01*
X194973Y201878D01*
X196055Y202960D01*
X196264Y203273D01*
X196337Y203642D01*
Y206551D01*
X196264Y206920D01*
X196055Y207232D01*
X194959Y208328D01*
Y210607D01*
X195019Y210647D01*
X195376Y211181D01*
X195501Y211811D01*
X195376Y212441D01*
X195245Y212638D01*
X195318Y212815D01*
X195555Y213073D01*
X195768Y213031D01*
D02*
G37*
G36*
X158986Y229597D02*
X158811Y229335D01*
X158686Y228705D01*
X158811Y228075D01*
X159168Y227541D01*
X159702Y227185D01*
X160332Y227059D01*
X160962Y227185D01*
X161496Y227541D01*
X161852Y228075D01*
X161955Y228589D01*
X165354Y228346D01*
Y227559D01*
X164173Y226378D01*
X155512Y217323D01*
X150000D01*
Y222143D01*
X148395Y223747D01*
X148169Y224153D01*
D01*
X147953Y224639D01*
X147953Y230282D01*
X158260Y230323D01*
X158986Y229597D01*
D02*
G37*
G36*
X169406Y188220D02*
X169882Y188126D01*
X170358Y188220D01*
X170490Y188309D01*
X170866Y188451D01*
X171242Y188309D01*
X171374Y188220D01*
X171850Y188126D01*
X172275Y188210D01*
X172371Y188191D01*
X172775Y187919D01*
Y187205D01*
X172775Y187205D01*
X172855Y186805D01*
X173081Y186467D01*
X175640Y183908D01*
X175979Y183681D01*
X176378Y183602D01*
X185863D01*
X185863Y183602D01*
X186262Y183681D01*
X186601Y183908D01*
X187683Y184990D01*
X188194Y184900D01*
X188396Y184500D01*
X188309Y184270D01*
X188220Y184138D01*
X188126Y183661D01*
X188220Y183185D01*
X188490Y182782D01*
Y182573D01*
X188220Y182169D01*
X188126Y181693D01*
X188220Y181217D01*
X188309Y181085D01*
X188451Y180709D01*
X188309Y180333D01*
X188220Y180201D01*
X188126Y179724D01*
X188220Y179248D01*
X188490Y178844D01*
Y178636D01*
X188220Y178232D01*
X188126Y177756D01*
X188220Y177280D01*
X188490Y176876D01*
Y176667D01*
X188220Y176264D01*
X188126Y175787D01*
X188220Y175311D01*
X188309Y175179D01*
X188451Y174803D01*
X188309Y174427D01*
X188220Y174295D01*
X188126Y173819D01*
X188220Y173343D01*
X188490Y172939D01*
Y172730D01*
X188220Y172327D01*
X188126Y171850D01*
X188210Y171426D01*
X188191Y171330D01*
X187919Y170926D01*
X186062D01*
X183021Y173966D01*
X183021Y173966D01*
X177903Y179084D01*
X177903Y179084D01*
X177565Y179311D01*
X177165Y179390D01*
X177165Y179390D01*
X171735D01*
X171325Y179890D01*
X171331Y179921D01*
X171205Y180551D01*
X170849Y181085D01*
X170315Y181442D01*
X169685Y181567D01*
X169055Y181442D01*
X168521Y181085D01*
X168165Y180551D01*
X168039Y179921D01*
X168165Y179291D01*
X168521Y178758D01*
X169055Y178401D01*
X169287Y177880D01*
X169258Y177771D01*
X168915Y177542D01*
X168558Y177008D01*
X168527Y176850D01*
X167984Y176685D01*
X159244Y185425D01*
X158932Y185634D01*
X158563Y185707D01*
X158091D01*
X157870Y186207D01*
X158115Y186575D01*
X158240Y187205D01*
X158212Y187346D01*
X158809Y187943D01*
X158809Y187943D01*
X159035Y188282D01*
X159536Y188238D01*
X159563Y188220D01*
X160039Y188126D01*
X160516Y188220D01*
X160919Y188490D01*
X161128D01*
X161532Y188220D01*
X162008Y188126D01*
X162484Y188220D01*
X162888Y188490D01*
X163096D01*
X163500Y188220D01*
X163976Y188126D01*
X164453Y188220D01*
X164585Y188309D01*
X164961Y188451D01*
X165336Y188309D01*
X165469Y188220D01*
X165945Y188126D01*
X166421Y188220D01*
X166825Y188490D01*
X167034D01*
X167437Y188220D01*
X167913Y188126D01*
X168390Y188220D01*
X168793Y188490D01*
X169002D01*
X169406Y188220D01*
D02*
G37*
G36*
X216429Y154437D02*
X216742Y154228D01*
X217110Y154155D01*
X219175D01*
X219309Y153954D01*
X219843Y153598D01*
X220472Y153472D01*
X221102Y153598D01*
X221273Y153712D01*
X221773Y153444D01*
Y146179D01*
X221572Y146046D01*
X221216Y145512D01*
X221090Y144882D01*
X221117Y144747D01*
X220656Y144501D01*
X215108Y150049D01*
X214770Y150275D01*
X214370Y150355D01*
X214370Y150355D01*
X209094D01*
X199004Y160445D01*
X199211Y160945D01*
X200732D01*
Y160575D01*
X202650D01*
Y162992D01*
X203150D01*
Y163492D01*
X205567D01*
Y164592D01*
X206067Y164799D01*
X216429Y154437D01*
D02*
G37*
G36*
X166440Y134478D02*
X166571Y134504D01*
X167071Y134094D01*
Y132929D01*
X166972D01*
Y131012D01*
X169390D01*
Y130012D01*
X166972D01*
Y129051D01*
X166421D01*
Y126779D01*
X168799D01*
Y125779D01*
X166421D01*
Y123508D01*
X168458D01*
X168610Y123008D01*
X168324Y122817D01*
X167968Y122283D01*
X167842Y121653D01*
X167968Y121024D01*
X168324Y120490D01*
X168858Y120133D01*
X169488Y120008D01*
X170118Y120133D01*
X170652Y120490D01*
X170687D01*
X171221Y120133D01*
X171850Y120008D01*
X172146D01*
X172775Y120133D01*
X173309Y120490D01*
X175475Y122655D01*
X175831Y123189D01*
X175915Y123607D01*
X176180Y123661D01*
X176614Y123271D01*
Y121358D01*
X176614Y121358D01*
X176693Y120959D01*
X176919Y120620D01*
X177707Y119833D01*
X177707Y119833D01*
X178045Y119607D01*
X178366Y119543D01*
Y118917D01*
X181146D01*
Y118547D01*
X182669D01*
Y120571D01*
X183169D01*
Y121071D01*
X185193D01*
Y122130D01*
X186902D01*
Y123917D01*
X187402D01*
Y124417D01*
X188992D01*
Y125551D01*
X189705D01*
Y127520D01*
Y129488D01*
Y130763D01*
X190937Y131996D01*
X190976Y132054D01*
X191476Y131903D01*
Y118110D01*
X191476Y118110D01*
X191555Y117711D01*
X191782Y117372D01*
X200126Y109028D01*
X200129Y108902D01*
X199946Y108500D01*
X199902Y108503D01*
X191132Y117273D01*
X190793Y117500D01*
X190394Y117579D01*
X190394Y117579D01*
X166968D01*
X165453Y119094D01*
Y134286D01*
X165953Y134575D01*
X166440Y134478D01*
D02*
G37*
G36*
X199508Y238229D02*
Y233071D01*
X179921D01*
X177953Y231102D01*
X174016Y231102D01*
Y234209D01*
X174452Y234646D01*
X177165D01*
X181102Y238583D01*
X199154Y238583D01*
X199508Y238229D01*
D02*
G37*
G36*
X162992Y234646D02*
X165705D01*
X166142Y234209D01*
Y233071D01*
X148031D01*
Y239764D01*
X157874D01*
X162992Y234646D01*
D02*
G37*
G36*
X157760Y127614D02*
Y127469D01*
X160138D01*
Y126469D01*
X157760D01*
Y124197D01*
Y121957D01*
X160138D01*
Y121457D01*
X160638D01*
Y118240D01*
X160645Y118223D01*
X152388Y109966D01*
X151983Y110252D01*
X152013Y110295D01*
X152138Y110925D01*
Y112067D01*
X152402D01*
Y116870D01*
X152138D01*
Y118307D01*
X152013Y118937D01*
X151656Y119471D01*
X150376Y120750D01*
X150070Y120955D01*
X150218Y121439D01*
X150598Y121484D01*
X151789Y120293D01*
X152323Y119936D01*
X152618Y119878D01*
Y119055D01*
X156634D01*
Y123858D01*
X156272D01*
Y124567D01*
X156634D01*
Y127141D01*
X157298Y127805D01*
X157760Y127614D01*
D02*
G37*
G36*
X181545Y172490D02*
X181545Y172490D01*
X184892Y169144D01*
X185231Y168918D01*
X185297Y168904D01*
X185630Y168838D01*
X185630Y168838D01*
X187919D01*
X188191Y168434D01*
X188210Y168338D01*
X188126Y167913D01*
X188220Y167437D01*
X188490Y167034D01*
Y166825D01*
X188220Y166421D01*
X188126Y165945D01*
X188220Y165469D01*
X188276Y165386D01*
X188223Y165123D01*
X187872Y164597D01*
X187848Y164476D01*
X192913D01*
Y163476D01*
X187568D01*
X187385Y163252D01*
X184964D01*
X171696Y176520D01*
X171640Y176803D01*
X171958Y177303D01*
X176733D01*
X181545Y172490D01*
D02*
G37*
G36*
X233626Y240617D02*
X235295Y240111D01*
X236833Y239288D01*
X238182Y238182D01*
X239288Y236833D01*
X240111Y235295D01*
X240617Y233626D01*
X240782Y231954D01*
X240769Y231890D01*
Y188209D01*
X240269Y187988D01*
X239901Y188233D01*
X239272Y188358D01*
X238642Y188233D01*
X238531Y188159D01*
X238194Y188286D01*
X238031Y188426D01*
Y190788D01*
X237815D01*
Y197011D01*
X237815Y197011D01*
X237749Y197344D01*
X237736Y197411D01*
X237510Y197749D01*
X235544Y199714D01*
X235206Y199941D01*
X234806Y200020D01*
X234806Y200020D01*
X227323D01*
X227323Y200020D01*
X226990Y199954D01*
X226923Y199941D01*
X226585Y199714D01*
X217858Y190988D01*
X217717Y191016D01*
X217087Y190891D01*
X216553Y190534D01*
X216196Y190000D01*
X216071Y189370D01*
X216099Y189228D01*
X212740Y185870D01*
X212598Y185898D01*
X211969Y185773D01*
X211435Y185416D01*
X211078Y184882D01*
X210953Y184252D01*
X211053Y183747D01*
X210773Y183247D01*
X204357D01*
X204166Y183709D01*
X213948Y193491D01*
X214506Y193342D01*
X214781Y192931D01*
X215315Y192574D01*
X215945Y192449D01*
X216575Y192574D01*
X217109Y192931D01*
X217465Y193465D01*
X217591Y194095D01*
X217465Y194724D01*
X217109Y195258D01*
X216697Y195533D01*
X216548Y196091D01*
X218626Y198169D01*
X222047D01*
X222047Y198169D01*
X222447Y198248D01*
X222785Y198475D01*
X224754Y200443D01*
X224754Y200443D01*
X224980Y200782D01*
X225059Y201181D01*
Y208957D01*
X225059Y208957D01*
X224980Y209356D01*
X224905Y209468D01*
X224754Y209695D01*
X224754Y209695D01*
X222982Y211466D01*
X222643Y211693D01*
X222244Y211772D01*
X222244Y211772D01*
X201811D01*
X198770Y214813D01*
X198431Y215039D01*
X198032Y215119D01*
X198032Y215119D01*
X196200D01*
X194531Y216788D01*
X194559Y216929D01*
X194434Y217559D01*
X194077Y218093D01*
X193543Y218450D01*
X192913Y218575D01*
X192284Y218450D01*
X191750Y218093D01*
X191393Y217559D01*
X191268Y216929D01*
X191393Y216299D01*
X191750Y215765D01*
X192284Y215409D01*
X192913Y215283D01*
X193055Y215312D01*
X194535Y213831D01*
X194289Y213371D01*
X193856Y213457D01*
X193226Y213332D01*
X192692Y212975D01*
X192335Y212441D01*
X192210Y211811D01*
X192335Y211181D01*
X192692Y210647D01*
X193033Y210420D01*
Y207929D01*
X193106Y207560D01*
X193315Y207248D01*
X193727Y206836D01*
X193480Y206375D01*
X193012Y206469D01*
X192382Y206343D01*
X191848Y205987D01*
X191676Y205729D01*
X190218D01*
X189951Y206229D01*
X190103Y206457D01*
X190228Y207087D01*
X190103Y207716D01*
X189746Y208250D01*
X189213Y208607D01*
X188583Y208732D01*
X188441Y208704D01*
X185738Y211407D01*
X185399Y211633D01*
X185000Y211713D01*
X185000Y211713D01*
X180822D01*
X180555Y212213D01*
X180654Y212362D01*
X180780Y212992D01*
X180654Y213622D01*
X180298Y214156D01*
X179764Y214513D01*
X179134Y214638D01*
X178504Y214513D01*
X177970Y214156D01*
X177613Y213622D01*
X177612Y213616D01*
X167175Y203179D01*
X166949Y202840D01*
X166870Y202441D01*
X166870Y202441D01*
Y200357D01*
X166370Y200150D01*
X159638Y206882D01*
X159325Y207091D01*
X158957Y207164D01*
X128937D01*
X128568Y207091D01*
X128256Y206882D01*
X121386Y200012D01*
X120843Y200177D01*
X120812Y200335D01*
X120455Y200869D01*
X120339Y200946D01*
Y201547D01*
X120554Y201691D01*
X120910Y202224D01*
X121036Y202854D01*
X120910Y203484D01*
X120554Y204018D01*
X120020Y204375D01*
X119390Y204500D01*
X118760Y204375D01*
X118226Y204018D01*
X118146Y203898D01*
X116427D01*
X116422Y203899D01*
X115984Y204398D01*
X115984Y204537D01*
X115984Y204821D01*
Y206929D01*
X116771Y207716D01*
X121492D01*
X121572Y207596D01*
X122106Y207239D01*
X122736Y207114D01*
X123366Y207239D01*
X123900Y207596D01*
X124257Y208130D01*
X124382Y208760D01*
X124257Y209390D01*
X123900Y209924D01*
X123366Y210280D01*
X122736Y210406D01*
X122106Y210280D01*
X121572Y209924D01*
X121492Y209804D01*
X116339D01*
X115939Y209724D01*
X115601Y209498D01*
X113574Y207470D01*
X111181D01*
Y204821D01*
Y204814D01*
X111181Y204321D01*
X111181Y204037D01*
Y201388D01*
X111181D01*
Y201171D01*
X111181D01*
Y198238D01*
X111181D01*
Y198022D01*
X111181D01*
Y195089D01*
X115984D01*
Y195511D01*
X118047D01*
X118128Y195391D01*
X118548Y195110D01*
X118584Y194958D01*
Y194708D01*
X118548Y194555D01*
X118128Y194274D01*
X117771Y193740D01*
X117722Y193494D01*
X117580Y193113D01*
X117179Y193132D01*
X116929Y193181D01*
X116299Y193056D01*
X115765Y192699D01*
X115409Y192165D01*
X115283Y191535D01*
X115409Y190906D01*
X115765Y190372D01*
X116299Y190015D01*
X116929Y189890D01*
X117559Y190015D01*
X118093Y190372D01*
X118450Y190906D01*
X118499Y191151D01*
X118640Y191532D01*
X119042Y191514D01*
X119291Y191464D01*
X119921Y191590D01*
X120455Y191946D01*
X120812Y192480D01*
X120937Y193110D01*
X120890Y193347D01*
X121984Y194440D01*
X122445Y194194D01*
X122366Y193799D01*
X122507Y193093D01*
X122907Y192494D01*
X123506Y192093D01*
X124213Y191953D01*
X124919Y192093D01*
X125518Y192494D01*
X125918Y193093D01*
X126059Y193799D01*
X125918Y194506D01*
X125518Y195105D01*
X124919Y195505D01*
X124213Y195646D01*
X123818Y195567D01*
X123572Y196028D01*
X129420Y201876D01*
X129881Y201630D01*
X129850Y201476D01*
X129975Y200847D01*
X130332Y200313D01*
X130866Y199956D01*
X131496Y199831D01*
X131732Y199878D01*
X132050Y199560D01*
X132304Y199390D01*
X132359Y199095D01*
X132356Y198843D01*
X132007Y198609D01*
X131927Y198489D01*
X131402D01*
X131402Y198489D01*
X131069Y198423D01*
X131003Y198410D01*
X130664Y198184D01*
X130664Y198184D01*
X128986Y196506D01*
X128760Y196167D01*
X128681Y195768D01*
X128681Y195768D01*
Y186417D01*
X128681Y186417D01*
X128760Y186018D01*
X128986Y185679D01*
X133514Y181152D01*
X133853Y180926D01*
X134252Y180846D01*
X135418D01*
X135777Y180346D01*
X135771Y180317D01*
Y179526D01*
X135793Y179416D01*
X135510Y178975D01*
X135426Y178916D01*
X132290D01*
X132207Y178975D01*
X131923Y179416D01*
X131945Y179526D01*
Y180317D01*
X131881Y180639D01*
X131699Y180912D01*
X131426Y181094D01*
X131104Y181158D01*
X129318D01*
X128171Y182305D01*
X127800Y182553D01*
X127362Y182640D01*
X125586D01*
X125573Y182660D01*
X125039Y183017D01*
X124409Y183142D01*
X123780Y183017D01*
X123246Y182660D01*
X122889Y182126D01*
X122764Y181496D01*
X122782Y181406D01*
X122464Y181020D01*
X121046D01*
Y178839D01*
X120046D01*
Y181020D01*
X116495D01*
Y179513D01*
X115995Y179361D01*
X115790Y179668D01*
X115094Y180134D01*
X114272Y180297D01*
X110160D01*
X110098Y180346D01*
X109783Y180736D01*
Y183457D01*
X105740D01*
Y180595D01*
X108879D01*
X108959Y180496D01*
X108858Y179828D01*
X108619Y179668D01*
X108154Y178971D01*
X107990Y178150D01*
Y175197D01*
X108154Y174375D01*
X108619Y173678D01*
X109316Y173213D01*
X110138Y173049D01*
X114272D01*
X115094Y173213D01*
X115764Y173661D01*
X116865D01*
Y173091D01*
X116865Y173091D01*
D01*
X116865Y173091D01*
X116816Y172776D01*
X116816D01*
X116816Y172776D01*
X116816D01*
X116816Y172611D01*
Y171811D01*
X115764D01*
X115094Y172260D01*
X114272Y172423D01*
X110138D01*
X109316Y172260D01*
X108619Y171794D01*
X108154Y171097D01*
X107990Y170276D01*
Y167323D01*
X108154Y166501D01*
X108619Y165804D01*
X108668Y165772D01*
X108516Y165272D01*
X105740D01*
Y162409D01*
X109783D01*
Y164827D01*
Y164884D01*
X110138Y165175D01*
X114272D01*
X115094Y165339D01*
X115790Y165804D01*
X116256Y166501D01*
X116316Y166804D01*
X116816Y166754D01*
Y165217D01*
X117674D01*
X117865Y164755D01*
X116174Y163063D01*
X114143D01*
X113776Y163309D01*
X112992Y163464D01*
X112209Y163309D01*
X111545Y162865D01*
X111101Y162201D01*
X110945Y161417D01*
X111101Y160634D01*
X111545Y159970D01*
X112209Y159526D01*
X112992Y159370D01*
X113776Y159526D01*
X114143Y159772D01*
X116855D01*
X117485Y159897D01*
X118019Y160254D01*
X121562Y163797D01*
X121919Y164331D01*
X122044Y164961D01*
Y165217D01*
X124178D01*
Y168654D01*
X124178Y168839D01*
Y168996D01*
Y169154D01*
X124178Y169304D01*
X124261Y169804D01*
X130905D01*
X131274Y169878D01*
X131587Y170087D01*
X132441Y170941D01*
X132677Y170894D01*
X133307Y171019D01*
X133841Y171376D01*
X134198Y171910D01*
X134323Y172539D01*
X134198Y173169D01*
X133841Y173703D01*
X133566Y173887D01*
X133761Y174358D01*
X133858Y174338D01*
X134488Y174464D01*
X135022Y174820D01*
X135063Y174882D01*
X135656Y174869D01*
X135751Y174727D01*
X136146Y174463D01*
X136612Y174370D01*
X137595D01*
X137787Y173908D01*
X126520Y162641D01*
X126378Y162669D01*
X125748Y162544D01*
X125214Y162187D01*
X124857Y161653D01*
X124732Y161024D01*
X124857Y160394D01*
X125214Y159860D01*
X125748Y159503D01*
X126378Y159378D01*
X127008Y159503D01*
X127542Y159860D01*
X127899Y160394D01*
X128024Y161024D01*
X127996Y161165D01*
X134663Y167832D01*
X134989Y167718D01*
X135139Y167602D01*
Y161061D01*
X135139Y161061D01*
X135219Y160662D01*
X135445Y160323D01*
X139114Y156654D01*
Y140533D01*
X138614Y140381D01*
X138533Y140502D01*
X138533Y140502D01*
X134495Y144540D01*
X134703Y145040D01*
X134845D01*
X135311Y145132D01*
X135706Y145396D01*
X135970Y145792D01*
X136063Y146258D01*
Y147531D01*
X134449D01*
Y148031D01*
X133949D01*
Y151003D01*
X133587Y150931D01*
X133192Y150667D01*
X133143Y150593D01*
X132876Y150646D01*
X132085D01*
X131763Y150582D01*
X131496Y150404D01*
X131229Y150582D01*
X130938Y150640D01*
X130877Y150698D01*
X130634Y151118D01*
X130750Y151399D01*
X131791D01*
X132160Y151472D01*
X132473Y151681D01*
X134508Y153716D01*
X134744Y153669D01*
X135374Y153795D01*
X135908Y154151D01*
X136265Y154685D01*
X136390Y155315D01*
X136265Y155945D01*
X135908Y156479D01*
X135374Y156835D01*
X134744Y156961D01*
X134114Y156835D01*
X133580Y156479D01*
X133224Y155945D01*
X133098Y155315D01*
X133145Y155079D01*
X131392Y153326D01*
X130806D01*
X130651Y153481D01*
X130559Y153993D01*
X130823Y154217D01*
D01*
Y154334D01*
X130823Y154388D01*
Y155602D01*
X126657D01*
Y154388D01*
X126657Y154334D01*
Y154217D01*
Y154217D01*
X127028Y153903D01*
X127028Y153717D01*
Y151043D01*
X127500D01*
Y150320D01*
X127371Y150127D01*
X127307Y149805D01*
Y146258D01*
X127371Y145936D01*
X127500Y145743D01*
Y144291D01*
X127500Y144291D01*
X127514Y144221D01*
X127138Y143721D01*
X124523D01*
Y144669D01*
X124893D01*
Y146350D01*
X120842D01*
X116790D01*
Y144669D01*
X117160D01*
Y141102D01*
X117160Y141102D01*
D01*
X117160Y141102D01*
X117111Y140787D01*
X117111D01*
X117111Y140787D01*
X117111D01*
X117111Y140623D01*
Y140078D01*
X116885Y140033D01*
X116514Y139785D01*
X114545Y137817D01*
X114297Y137446D01*
X114210Y137008D01*
Y126772D01*
X114297Y126334D01*
X114545Y125963D01*
X119270Y121238D01*
X119641Y120990D01*
X120079Y120903D01*
X123583D01*
Y120236D01*
X127598D01*
Y123858D01*
X127598D01*
X127516Y124358D01*
X127533Y124412D01*
X127795Y124464D01*
X128329Y124820D01*
X128378Y124893D01*
X128878Y124741D01*
Y123228D01*
X128878Y123228D01*
X128957Y122829D01*
X129183Y122490D01*
X130364Y121309D01*
X130364Y121309D01*
X130703Y121083D01*
X130769Y121070D01*
X131102Y121004D01*
X131102Y121004D01*
X132221D01*
X132301Y120884D01*
X132698Y120618D01*
X132546Y120118D01*
X131457D01*
Y116496D01*
X135415D01*
X135729Y116102D01*
X127937Y108310D01*
X127795Y108339D01*
X127165Y108213D01*
X126631Y107857D01*
X126275Y107323D01*
X126149Y106693D01*
X126275Y106063D01*
X126631Y105529D01*
X127165Y105172D01*
X127795Y105047D01*
X128425Y105172D01*
X128959Y105529D01*
X129316Y106063D01*
X129441Y106693D01*
X129413Y106834D01*
X140895Y118317D01*
X140954Y118405D01*
X141425Y118210D01*
X141366Y117913D01*
Y116870D01*
X141102D01*
Y112067D01*
X141618D01*
Y110441D01*
X143996D01*
Y109441D01*
X141618D01*
Y107973D01*
X139827D01*
X139746Y108093D01*
X139213Y108450D01*
X138583Y108575D01*
X137953Y108450D01*
X137419Y108093D01*
X137062Y107559D01*
X136937Y106929D01*
X137062Y106299D01*
X137419Y105765D01*
X137953Y105409D01*
X138583Y105283D01*
X139213Y105409D01*
X139746Y105765D01*
X139827Y105886D01*
X145510D01*
X145746Y105445D01*
X145577Y105191D01*
X145406Y104331D01*
X145577Y103471D01*
X146064Y102741D01*
X146793Y102254D01*
X147653Y102083D01*
X148514Y102254D01*
X149243Y102741D01*
X149730Y103471D01*
X149901Y104331D01*
X149730Y105191D01*
X149561Y105445D01*
X149797Y105886D01*
X151811D01*
X151811Y105886D01*
X152210Y105965D01*
X152549Y106191D01*
X153864Y107506D01*
X154090Y107845D01*
X154103Y107911D01*
X154170Y108244D01*
X154170Y108244D01*
Y108796D01*
X158971Y113598D01*
X159433Y113406D01*
Y113098D01*
X162205D01*
Y112098D01*
X159433D01*
Y109643D01*
X158945Y109546D01*
X158150Y109015D01*
X157620Y108221D01*
X157433Y107283D01*
Y103740D01*
X157620Y102803D01*
X158150Y102009D01*
X158945Y101478D01*
X159018Y101463D01*
X158969Y100963D01*
X109843D01*
X109778Y100951D01*
X108107Y101115D01*
X106437Y101621D01*
X104899Y102444D01*
X103550Y103550D01*
X102444Y104899D01*
X101621Y106437D01*
X101115Y108107D01*
X100951Y109778D01*
X100963Y109843D01*
Y126071D01*
X100992Y126559D01*
X101463Y126559D01*
X105035D01*
Y129921D01*
Y133283D01*
X101463D01*
X100992Y133283D01*
X100963Y133772D01*
Y148118D01*
X100992Y148606D01*
X101463Y148606D01*
X105035D01*
Y151969D01*
Y155331D01*
X101463D01*
X100992Y155331D01*
X100963Y155819D01*
Y158547D01*
X104740D01*
Y161909D01*
Y165272D01*
X100963D01*
Y180595D01*
X104740D01*
Y183957D01*
Y187319D01*
X100963D01*
Y231890D01*
X100951Y231954D01*
X101115Y233626D01*
X101621Y235295D01*
X102444Y236833D01*
X103550Y238182D01*
X104899Y239288D01*
X106437Y240111D01*
X108107Y240617D01*
X109778Y240782D01*
X109843Y240769D01*
X147502D01*
X147654Y240269D01*
X147577Y240218D01*
X147438Y240010D01*
X147389Y239764D01*
Y234085D01*
X146889Y233838D01*
X146693Y233988D01*
Y237441D01*
X141496D01*
Y232638D01*
X145134D01*
X145798Y231974D01*
X145606Y231512D01*
X144595D01*
Y228740D01*
Y225969D01*
X146810D01*
X147310Y225571D01*
Y225109D01*
X147310Y224639D01*
X147036Y224222D01*
X147004Y224192D01*
X146936Y224153D01*
X141595D01*
Y216791D01*
X143919D01*
Y216142D01*
X143992Y215773D01*
X144201Y215460D01*
X145382Y214279D01*
X145694Y214071D01*
X146063Y213997D01*
X156299D01*
X156668Y214071D01*
X156980Y214279D01*
X159944Y217243D01*
X160355Y217161D01*
X160985Y217287D01*
X161519Y217643D01*
X161876Y218177D01*
X162001Y218807D01*
X161876Y219437D01*
X161519Y219971D01*
X160985Y220328D01*
X160355Y220453D01*
X160023Y220387D01*
X159771Y220846D01*
X164632Y225929D01*
X165331Y226627D01*
X165831Y226420D01*
Y226165D01*
X167602D01*
Y223803D01*
X168595D01*
Y226772D01*
X169595D01*
Y223803D01*
X170563D01*
Y226772D01*
X171563D01*
Y223803D01*
X172555D01*
Y226165D01*
X174327D01*
Y226165D01*
X174661Y226440D01*
X174705Y226431D01*
X174992D01*
Y227953D01*
X175492D01*
Y228453D01*
X177701D01*
X177685Y228535D01*
X177416Y228937D01*
X177685Y229339D01*
X177701Y229421D01*
X175492D01*
Y230421D01*
X177938D01*
X177953Y230460D01*
X178199Y230509D01*
X178407Y230648D01*
X178407Y230648D01*
X179874Y232115D01*
X180374Y231908D01*
Y231752D01*
X187736D01*
Y231752D01*
X188150D01*
Y231752D01*
X195512D01*
Y232429D01*
X196516D01*
Y229095D01*
X197370D01*
Y227500D01*
X196516D01*
Y222796D01*
X191930D01*
X191930Y222796D01*
X191597Y222729D01*
X191531Y222716D01*
X191192Y222490D01*
X191192Y222490D01*
X190250Y221547D01*
X189759Y221637D01*
X189706Y221710D01*
X189357Y222233D01*
X188823Y222589D01*
X188193Y222715D01*
X187563Y222589D01*
X187030Y222233D01*
X186673Y221699D01*
X186548Y221069D01*
X186583Y220890D01*
X186173Y220390D01*
X185146D01*
Y218504D01*
X184646D01*
Y218004D01*
X182563D01*
Y217540D01*
X176711D01*
X176711Y217540D01*
X176378Y217474D01*
X176312Y217460D01*
X175973Y217234D01*
X175973Y217234D01*
X169929Y211190D01*
X169885Y211198D01*
X169255Y211073D01*
X168721Y210716D01*
X168365Y210182D01*
X168239Y209553D01*
X168365Y208923D01*
X168721Y208389D01*
X169255Y208032D01*
X169885Y207907D01*
X170515Y208032D01*
X171049Y208389D01*
X171406Y208923D01*
X171531Y209553D01*
X171483Y209792D01*
X177144Y215452D01*
X182678D01*
X182933Y215197D01*
Y213445D01*
X186358D01*
Y213997D01*
X187028D01*
Y213503D01*
X190453D01*
Y216534D01*
X187579D01*
X187442Y216638D01*
X187344Y216840D01*
X187389Y216968D01*
X187449Y217046D01*
X190453D01*
Y218798D01*
X192363Y220708D01*
X196516D01*
Y216004D01*
X201176D01*
X201196Y215905D01*
X201553Y215371D01*
X202087Y215014D01*
X202716Y214889D01*
X203346Y215014D01*
X203880Y215371D01*
X204237Y215905D01*
X204362Y216535D01*
X204237Y217165D01*
X203880Y217699D01*
X203346Y218056D01*
X202716Y218181D01*
X202087Y218056D01*
X202016Y218008D01*
X201516Y218275D01*
Y227500D01*
X200661D01*
Y229095D01*
X201516D01*
Y240269D01*
X201516Y240591D01*
X201942Y240769D01*
X201942D01*
X207169D01*
Y235343D01*
X210039D01*
X212910D01*
Y240769D01*
X231890D01*
X231954Y240782D01*
X233626Y240617D01*
D02*
G37*
G36*
X196516Y240591D02*
X196516Y240269D01*
Y239225D01*
X181102Y239225D01*
X180857Y239176D01*
X180648Y239037D01*
X178133Y236522D01*
X177536Y236632D01*
X177355Y236902D01*
X176862Y237232D01*
X176279Y237348D01*
X175992D01*
Y235827D01*
X174992D01*
Y237348D01*
X174705D01*
X174662Y237339D01*
X174327Y237614D01*
Y237614D01*
X172555D01*
Y239976D01*
X171563D01*
Y237008D01*
X170563D01*
Y239976D01*
X169595D01*
Y237008D01*
X168595D01*
Y239976D01*
X167602D01*
Y237614D01*
X165831D01*
Y237614D01*
X165496Y237339D01*
X165453Y237348D01*
X165165D01*
Y235827D01*
X164165D01*
Y237348D01*
X163878D01*
X163296Y237232D01*
X162802Y236902D01*
X162621Y236632D01*
X162024Y236522D01*
X158328Y240218D01*
X158252Y240269D01*
X158404Y240769D01*
X196090D01*
X196516Y240591D01*
D02*
G37*
%LPC*%
G36*
X124893Y149031D02*
X121342D01*
Y147350D01*
X124893D01*
Y149031D01*
D02*
G37*
G36*
X134949Y151003D02*
Y148531D01*
X136063D01*
Y149805D01*
X135970Y150271D01*
X135706Y150667D01*
X135311Y150931D01*
X134949Y151003D01*
D02*
G37*
G36*
X236713Y156976D02*
X233169D01*
X232232Y156790D01*
X231438Y156259D01*
X230907Y155465D01*
X230721Y154528D01*
Y150984D01*
X230907Y150047D01*
X231438Y149253D01*
X232232Y148722D01*
X233169Y148536D01*
X236713D01*
X237650Y148722D01*
X238444Y149253D01*
X238975Y150047D01*
X239161Y150984D01*
Y154528D01*
X238975Y155465D01*
X238444Y156259D01*
X237650Y156790D01*
X236713Y156976D01*
D02*
G37*
G36*
X148319Y150842D02*
X146795D01*
Y149319D01*
X148319D01*
Y150842D01*
D02*
G37*
G36*
X106035Y155331D02*
Y152469D01*
X110079D01*
Y155331D01*
X106035D01*
D02*
G37*
G36*
X121431Y159550D02*
X120724Y159409D01*
X120125Y159009D01*
X119725Y158410D01*
X119584Y157703D01*
X119725Y156997D01*
X120125Y156398D01*
X120724Y155997D01*
X121431Y155857D01*
X122137Y155997D01*
X122736Y156398D01*
X123136Y156997D01*
X123277Y157703D01*
X123136Y158410D01*
X122736Y159009D01*
X122137Y159409D01*
X121431Y159550D01*
D02*
G37*
G36*
X130823Y157988D02*
X129240D01*
Y156602D01*
X130823D01*
Y157988D01*
D02*
G37*
G36*
X128240D02*
X126657D01*
Y156602D01*
X128240D01*
Y157988D01*
D02*
G37*
G36*
X110079Y151469D02*
X106035D01*
Y148606D01*
X110079D01*
Y151469D01*
D02*
G37*
G36*
X188992Y123417D02*
X187902D01*
Y122130D01*
X188992D01*
Y123417D01*
D02*
G37*
G36*
X208920Y130463D02*
X200251Y121794D01*
X203192Y118853D01*
X211861Y127522D01*
X208920Y130463D01*
D02*
G37*
G36*
X110079Y129421D02*
X106035D01*
Y126559D01*
X110079D01*
Y129421D01*
D02*
G37*
G36*
X224441Y128194D02*
X220198Y123951D01*
X221577Y122572D01*
X225819Y126815D01*
X224441Y128194D01*
D02*
G37*
G36*
X212455Y126928D02*
X203786Y118259D01*
X206728Y115317D01*
X215396Y123986D01*
X212455Y126928D01*
D02*
G37*
G36*
X215991Y123392D02*
X207322Y114723D01*
X210263Y111782D01*
X218932Y120451D01*
X215991Y123392D01*
D02*
G37*
G36*
X159638Y120957D02*
X157760D01*
Y118685D01*
X159638D01*
Y120957D01*
D02*
G37*
G36*
X185193Y120071D02*
X183669D01*
Y118547D01*
X185193D01*
Y120071D01*
D02*
G37*
G36*
X229390Y133143D02*
X225148Y128901D01*
X226526Y127522D01*
X230769Y131764D01*
X229390Y133143D01*
D02*
G37*
G36*
X236713Y147323D02*
X235441D01*
Y143256D01*
X239508D01*
Y144528D01*
X239413Y145251D01*
X239134Y145925D01*
X238689Y146504D01*
X238110Y146949D01*
X237436Y147228D01*
X236713Y147323D01*
D02*
G37*
G36*
X234441D02*
X233169D01*
X232446Y147228D01*
X231771Y146949D01*
X231192Y146504D01*
X230748Y145925D01*
X230469Y145251D01*
X230374Y144528D01*
Y143256D01*
X234441D01*
Y147323D01*
D02*
G37*
G36*
X120342Y149031D02*
X116790D01*
Y147350D01*
X120342D01*
Y149031D01*
D02*
G37*
G36*
X144382Y147457D02*
X142110D01*
Y144988D01*
X144382D01*
Y147457D01*
D02*
G37*
G36*
X234055Y136295D02*
X233348Y136155D01*
X232749Y135755D01*
X232349Y135155D01*
X232209Y134449D01*
X232349Y133742D01*
X232749Y133143D01*
X233348Y132743D01*
X234055Y132602D01*
X234762Y132743D01*
X235361Y133143D01*
X235761Y133742D01*
X235902Y134449D01*
X235761Y135155D01*
X235361Y135755D01*
X234762Y136155D01*
X234055Y136295D01*
D02*
G37*
G36*
X106035Y133283D02*
Y130421D01*
X110079D01*
Y133283D01*
X106035D01*
D02*
G37*
G36*
X188244Y141626D02*
X186721D01*
Y140102D01*
X188244D01*
Y141626D01*
D02*
G37*
G36*
X239508Y142256D02*
X235441D01*
Y138189D01*
X236713D01*
X237436Y138284D01*
X238110Y138563D01*
X238689Y139007D01*
X239134Y139586D01*
X239413Y140261D01*
X239508Y140984D01*
Y142256D01*
D02*
G37*
G36*
X183555Y226665D02*
X180004D01*
Y223508D01*
X183555D01*
Y226665D01*
D02*
G37*
G36*
X191331Y230823D02*
X184555D01*
Y227165D01*
Y223508D01*
X191331D01*
Y227165D01*
Y230823D01*
D02*
G37*
G36*
X195882Y226665D02*
X192331D01*
Y223508D01*
X195882D01*
Y226665D01*
D02*
G37*
G36*
X204232Y226449D02*
X203603Y226324D01*
X203068Y225967D01*
X202712Y225433D01*
X202587Y224803D01*
X202712Y224173D01*
X203068Y223639D01*
X203603Y223283D01*
X204232Y223157D01*
X204862Y223283D01*
X205396Y223639D01*
X205753Y224173D01*
X205878Y224803D01*
X205753Y225433D01*
X205396Y225967D01*
X204862Y226324D01*
X204232Y226449D01*
D02*
G37*
G36*
X220768Y238173D02*
X219907Y238002D01*
X219178Y237515D01*
X218691Y236785D01*
X218520Y235925D01*
X218691Y235065D01*
X218826Y234862D01*
X216255Y223952D01*
X215930Y223735D01*
X215443Y223006D01*
X215272Y222146D01*
X215443Y221285D01*
X215930Y220556D01*
X216659Y220069D01*
X217520Y219898D01*
X218380Y220069D01*
X219109Y220556D01*
X219597Y221285D01*
X219768Y222146D01*
X219597Y223006D01*
X219461Y223208D01*
X222033Y234119D01*
X222357Y234336D01*
X222845Y235065D01*
X223016Y235925D01*
X222845Y236785D01*
X222357Y237515D01*
X221628Y238002D01*
X220768Y238173D01*
D02*
G37*
G36*
X209539Y227870D02*
X207169D01*
Y222252D01*
X209539D01*
Y227870D01*
D02*
G37*
G36*
X212910D02*
X210539D01*
Y222252D01*
X212910D01*
Y227870D01*
D02*
G37*
G36*
X143595Y228240D02*
X141126D01*
Y225969D01*
X143595D01*
Y228240D01*
D02*
G37*
G36*
X212910Y234343D02*
X210539D01*
Y228724D01*
X212910D01*
Y234343D01*
D02*
G37*
G36*
X143595Y231512D02*
X141126D01*
Y229240D01*
X143595D01*
Y231512D01*
D02*
G37*
G36*
X126614Y237866D02*
X125984Y237741D01*
X125450Y237384D01*
X125094Y236850D01*
X124968Y236221D01*
X125094Y235591D01*
X125450Y235057D01*
X125984Y234700D01*
X126614Y234575D01*
X127244Y234700D01*
X127778Y235057D01*
X128135Y235591D01*
X128260Y236221D01*
X128135Y236850D01*
X127778Y237384D01*
X127244Y237741D01*
X126614Y237866D01*
D02*
G37*
G36*
X209539Y234343D02*
X207169D01*
Y228724D01*
X209539D01*
Y234343D01*
D02*
G37*
G36*
X177701Y227453D02*
X175992D01*
Y226431D01*
X176279D01*
X176862Y226547D01*
X177355Y226877D01*
X177685Y227371D01*
X177701Y227453D01*
D02*
G37*
G36*
X183555Y230823D02*
X180004D01*
Y227665D01*
X183555D01*
Y230823D01*
D02*
G37*
G36*
X195882D02*
X192331D01*
Y227665D01*
X195882D01*
Y230823D01*
D02*
G37*
G36*
X211630Y178362D02*
X207980D01*
Y177272D01*
X211630D01*
Y178362D01*
D02*
G37*
G36*
X109783Y187319D02*
X105740D01*
Y184457D01*
X109783D01*
Y187319D01*
D02*
G37*
G36*
X124213Y190035D02*
X123506Y189895D01*
X122907Y189495D01*
X122507Y188896D01*
X122366Y188189D01*
X122507Y187482D01*
X122907Y186883D01*
X123506Y186483D01*
X124213Y186343D01*
X124919Y186483D01*
X125518Y186883D01*
X125918Y187482D01*
X126059Y188189D01*
X125918Y188896D01*
X125518Y189495D01*
X124919Y189895D01*
X124213Y190035D01*
D02*
G37*
G36*
X211630Y176272D02*
X207980D01*
Y175181D01*
X211630D01*
Y176272D01*
D02*
G37*
G36*
X236713Y166976D02*
X233169D01*
X232232Y166790D01*
X231438Y166259D01*
X230907Y165465D01*
X230721Y164528D01*
Y163853D01*
X230566Y163622D01*
X230441Y162992D01*
X230566Y162362D01*
X230721Y162131D01*
Y160984D01*
X230907Y160047D01*
X231438Y159253D01*
X232232Y158722D01*
X233169Y158536D01*
X236713D01*
X237650Y158722D01*
X238444Y159253D01*
X238975Y160047D01*
X239161Y160984D01*
Y164528D01*
X238975Y165465D01*
X238444Y166259D01*
X237650Y166790D01*
X236713Y166976D01*
D02*
G37*
G36*
X109783Y161409D02*
X105740D01*
Y158547D01*
X109783D01*
Y161409D01*
D02*
G37*
G36*
X205567Y162492D02*
X203650D01*
Y160575D01*
X205567D01*
Y162492D01*
D02*
G37*
G36*
X202811Y191394D02*
X201287D01*
Y189870D01*
X202811D01*
Y191394D01*
D02*
G37*
G36*
X209539Y221252D02*
X207169D01*
Y215634D01*
X209539D01*
Y221252D01*
D02*
G37*
G36*
X212910D02*
X210539D01*
Y215634D01*
X212910D01*
Y221252D01*
D02*
G37*
G36*
X184146Y220390D02*
X182563D01*
Y219004D01*
X184146D01*
Y220390D01*
D02*
G37*
G36*
X130217Y234043D02*
X126673D01*
X125736Y233857D01*
X124942Y233326D01*
X124411Y232531D01*
X124225Y231594D01*
Y228051D01*
X124411Y227114D01*
X124942Y226320D01*
X125736Y225789D01*
X125923Y225752D01*
Y223894D01*
X125736Y223857D01*
X124942Y223326D01*
X124411Y222532D01*
X124225Y221595D01*
Y218051D01*
X124411Y217114D01*
X124942Y216320D01*
X125736Y215789D01*
X126673Y215603D01*
X130217D01*
X131154Y215789D01*
X131948Y216320D01*
X132479Y217114D01*
X132665Y218051D01*
Y221595D01*
X132479Y222532D01*
X131948Y223326D01*
X131164Y223850D01*
Y225796D01*
X131948Y226320D01*
X132479Y227114D01*
X132665Y228051D01*
Y231594D01*
X132479Y232531D01*
X131948Y233326D01*
X131154Y233857D01*
X130217Y234043D01*
D02*
G37*
G36*
X106890Y211984D02*
X106183Y211844D01*
X105584Y211443D01*
X105184Y210844D01*
X105043Y210138D01*
X105184Y209431D01*
X105244Y209341D01*
Y207470D01*
X104488D01*
Y204537D01*
X104488D01*
Y204321D01*
X104488D01*
Y201388D01*
X104488D01*
Y201171D01*
X104488D01*
Y198238D01*
X104488D01*
Y198022D01*
X104488D01*
Y195089D01*
X106179D01*
X106260Y195035D01*
X106890Y194909D01*
X107520Y195035D01*
X107600Y195089D01*
X109291D01*
Y198022D01*
X109291D01*
Y198238D01*
X109291D01*
Y201171D01*
X109291D01*
Y201388D01*
X109291D01*
Y204321D01*
X109291D01*
Y204537D01*
X109291D01*
Y207470D01*
X108536D01*
Y209341D01*
X108596Y209431D01*
X108736Y210138D01*
X108596Y210844D01*
X108195Y211443D01*
X107596Y211844D01*
X106890Y211984D01*
D02*
G37*
G36*
X193239Y200924D02*
X192162Y199847D01*
X193239Y198769D01*
X194317Y199847D01*
X193239Y200924D01*
D02*
G37*
G36*
X227559Y211689D02*
X226852Y211548D01*
X226253Y211148D01*
X225853Y210549D01*
X225713Y209842D01*
X225853Y209136D01*
X226253Y208537D01*
X226852Y208137D01*
X227559Y207996D01*
X228266Y208137D01*
X228865Y208537D01*
X229265Y209136D01*
X229405Y209842D01*
X229265Y210549D01*
X228865Y211148D01*
X228266Y211548D01*
X227559Y211689D01*
D02*
G37*
%LPD*%
D13*
X188740Y218562D02*
D03*
Y215018D02*
D03*
X141142Y176181D02*
D03*
Y179724D02*
D03*
X128740Y156102D02*
D03*
Y152559D02*
D03*
X184646Y218504D02*
D03*
Y214961D02*
D03*
D19*
X216142Y168701D02*
D03*
X212205D02*
D03*
D20*
X181653Y105512D02*
D03*
X171653D02*
D03*
X161653D02*
D03*
D21*
X143996Y109941D02*
D03*
X149508D02*
D03*
X160138Y121457D02*
D03*
X154626D02*
D03*
X160138Y126969D02*
D03*
X154626D02*
D03*
X168799Y126279D02*
D03*
X174311D02*
D03*
X145276Y138976D02*
D03*
X150787D02*
D03*
X232283Y176378D02*
D03*
X226772D02*
D03*
D22*
X133071Y194095D02*
D03*
Y188583D02*
D03*
D31*
X180709Y112598D02*
D03*
X174409D02*
D03*
X162205D02*
D03*
X168504D02*
D03*
X144882Y144488D02*
D03*
X151181D02*
D03*
D32*
X144095Y228740D02*
D03*
Y235039D02*
D03*
D33*
X233071Y195276D02*
D03*
X229921D02*
D03*
X200787Y189370D02*
D03*
X197638D02*
D03*
X186221Y142126D02*
D03*
X183071D02*
D03*
X148819Y148819D02*
D03*
X151969D02*
D03*
X219685Y172441D02*
D03*
X216535D02*
D03*
X180020Y120571D02*
D03*
X183169D02*
D03*
D34*
X234941Y162756D02*
D03*
Y152756D02*
D03*
Y142756D02*
D03*
X128445Y219823D02*
D03*
Y229823D02*
D03*
D35*
X133465Y118307D02*
D03*
Y125787D02*
D03*
X125591Y122047D02*
D03*
D42*
X237402Y178740D02*
D03*
Y175591D02*
D03*
X143307Y191339D02*
D03*
Y188189D02*
D03*
D43*
X193239Y198062D02*
D03*
X191012Y195835D02*
D03*
D45*
X120497Y167028D02*
D03*
Y170965D02*
D03*
X120546Y174902D02*
D03*
Y178839D02*
D03*
X120842Y146850D02*
D03*
Y142913D02*
D03*
X120792Y138976D02*
D03*
Y135039D02*
D03*
D46*
X105240Y161909D02*
D03*
Y183957D02*
D03*
X105535Y151969D02*
D03*
Y129921D02*
D03*
D52*
X142520Y181890D02*
X143504Y180905D01*
Y177245D02*
Y180905D01*
Y177245D02*
X144961Y175787D01*
X214370Y149311D02*
X225787Y137894D01*
X208661Y149311D02*
X214370D01*
X197933Y160039D02*
X208661Y149311D01*
X153126Y108244D02*
Y109228D01*
X151811Y106929D02*
X153126Y108244D01*
X138583Y106929D02*
X151811D01*
X153126Y109228D02*
X162992Y119095D01*
X138583Y106929D02*
X138583Y106929D01*
X164409Y137602D02*
X167913Y141106D01*
X162992Y138189D02*
X165984Y141181D01*
X162008Y139567D02*
Y142338D01*
X150000Y127559D02*
X162008Y139567D01*
X162992Y119095D02*
Y138189D01*
X156595Y187205D02*
X158071Y188681D01*
X150748Y131063D02*
X160039Y140354D01*
X142953Y131063D02*
X150748D01*
X142913Y131102D02*
X142953Y131063D01*
X125984Y131890D02*
Y140508D01*
X178445Y120571D02*
X180020D01*
X177657Y121358D02*
X178445Y120571D01*
X177657Y125787D02*
X178642Y126772D01*
X177657Y121358D02*
Y125787D01*
X178740Y134350D02*
X179528Y133563D01*
X173425Y134350D02*
X178740D01*
X191930Y221752D02*
X199016D01*
X188740Y218562D02*
X191930Y221752D01*
X167913Y192913D02*
Y202441D01*
X178799Y213327D01*
X179134Y212992D01*
X178815Y210669D02*
X185000D01*
X169882Y201736D02*
X178815Y210669D01*
X179064Y208661D02*
X181496D01*
X176711Y216496D02*
X183110D01*
X185000Y210669D02*
X188583Y207087D01*
X171850Y201448D02*
X179064Y208661D01*
X183110Y216496D02*
X184646Y214961D01*
X169885Y209670D02*
X176711Y216496D01*
X169885Y209553D02*
Y209670D01*
X229528Y174016D02*
Y178740D01*
Y174016D02*
X230315Y173228D01*
X236221D01*
X237402Y174409D01*
X232480Y176575D02*
Y181595D01*
X154109Y160039D02*
X154149Y160000D01*
X148819Y160039D02*
X154109D01*
X158465Y162613D02*
Y163484D01*
X155851Y160000D02*
X158465Y162613D01*
X154149Y160000D02*
X155851D01*
X148819Y162008D02*
X155020D01*
X136183Y167666D02*
X140368Y171850D01*
X136183Y161061D02*
Y167666D01*
X140368Y171850D02*
X148819D01*
X131402Y197446D02*
X133171D01*
X129724Y195768D02*
X131402Y197446D01*
X129724Y186417D02*
Y195768D01*
Y186417D02*
X134252Y181890D01*
X113583Y202854D02*
X119390D01*
X134252Y181890D02*
X142520D01*
X203937Y106693D02*
X211024D01*
X192520Y118110D02*
X203937Y106693D01*
X192520Y118110D02*
Y141929D01*
X185630Y148819D02*
X192520Y141929D01*
X128543Y148031D02*
Y152362D01*
Y144291D02*
Y148031D01*
X216142Y167224D02*
Y168898D01*
X215059Y166142D02*
X216142Y167224D01*
X227323Y198976D02*
X234806D01*
X185863Y184646D02*
X203973Y202756D01*
X185531Y186319D02*
X203543Y204331D01*
X158071Y188681D02*
Y192913D01*
X177264Y186319D02*
X185531D01*
X175787Y187795D02*
X177264Y186319D01*
X176378Y184646D02*
X185863D01*
X173819Y187205D02*
X176378Y184646D01*
X173819Y187205D02*
Y192913D01*
X175787Y187795D02*
Y192913D01*
X210138Y166142D02*
X215059D01*
X206791Y169488D02*
X210138Y166142D01*
X222244Y210728D02*
X224016Y208957D01*
Y201181D02*
Y208957D01*
X200394Y169488D02*
X206791D01*
X198031Y171850D02*
X200394Y169488D01*
X192913Y171850D02*
X198031D01*
X137205Y175984D02*
X140354D01*
X137205Y179921D02*
X140354D01*
X144961Y175787D02*
X148819D01*
X222047Y199213D02*
X224016Y201181D01*
X218194Y199213D02*
X222047D01*
X192913Y183661D02*
X200267D01*
X214961Y198355D01*
Y198819D01*
X190394Y116535D02*
X200394Y106535D01*
X171850Y192913D02*
Y201448D01*
X169882Y192913D02*
Y201736D01*
X223228Y174803D02*
X224803Y173228D01*
X192913Y181693D02*
X200666D01*
X202595Y183622D02*
X202603D01*
X218194Y199213D01*
X200666Y181693D02*
X202595Y183622D01*
X225132Y187599D02*
X226476D01*
X236515Y189567D02*
X236772Y189824D01*
X226476Y183662D02*
X228544D01*
X230512Y185630D01*
Y191634D01*
X120842Y142913D02*
X121078Y142677D01*
X128153D01*
X132480Y138350D01*
Y135433D02*
Y138350D01*
X134449Y135433D02*
Y138386D01*
X128543Y144291D02*
X134449Y138386D01*
X130512Y145043D02*
Y147244D01*
X132480Y145079D02*
Y147244D01*
X130512Y145043D02*
X136221Y139334D01*
X132480Y145079D02*
X137795Y139764D01*
X136221Y132525D02*
Y139334D01*
X167913Y141106D02*
Y148819D01*
X142913Y127559D02*
X150000D01*
X139173Y173819D02*
X148819D01*
X237402Y174409D02*
Y175591D01*
X137638Y131102D02*
X137795Y131260D01*
Y139764D01*
X135630Y129725D02*
X137795Y127559D01*
X135630Y129725D02*
Y131934D01*
X136221Y132525D01*
X125984Y140508D02*
X128153Y142677D01*
X236772Y189824D02*
Y197011D01*
X234806Y198976D02*
X236772Y197011D01*
X164409Y118661D02*
Y137602D01*
Y118661D02*
X166535Y116535D01*
X190394D01*
X130512Y128740D02*
Y135433D01*
Y128740D02*
X133465Y125787D01*
X128543Y128150D02*
Y134646D01*
Y128150D02*
X129921Y126772D01*
Y123228D02*
Y126772D01*
Y123228D02*
X131102Y122047D01*
X133465D01*
X185630Y169882D02*
X192913D01*
X182283Y173228D02*
X185630Y169882D01*
X169685Y179528D02*
Y179921D01*
Y179528D02*
X170866Y178347D01*
X177165D02*
X182283Y173228D01*
X170866Y178347D02*
X177165D01*
X179724Y192913D02*
Y202165D01*
X182244Y204685D01*
X192874D01*
X193012Y204823D01*
X203543Y204331D02*
X218937D01*
X221260Y206653D01*
X203973Y202756D02*
X221260D01*
X160039Y140354D02*
Y148819D01*
X165945D02*
X165984Y148779D01*
Y141181D02*
Y148779D01*
X163976Y143209D02*
Y148819D01*
X161969Y142377D02*
X162008Y142338D01*
X161969Y142377D02*
Y144040D01*
X162008Y144080D01*
Y148819D01*
X225787Y137894D02*
X230709D01*
X228543Y179725D02*
X229528Y178740D01*
X228543Y179725D02*
Y181595D01*
X217717Y189370D02*
X227323Y198976D01*
X223228Y185695D02*
X225132Y187599D01*
X212598Y184252D02*
X217717Y189370D01*
X223228Y174803D02*
Y185695D01*
X224803Y155118D02*
Y173228D01*
X169882Y148819D02*
Y153543D01*
X170965Y154626D01*
X174213D01*
X192913Y158071D02*
X197441D01*
X207776Y147736D01*
Y145669D02*
Y147736D01*
X192913Y160039D02*
X197933D01*
X113583Y206004D02*
X116339Y208760D01*
X122736D01*
X201378Y210728D02*
X222244D01*
X192913Y216929D02*
X195768Y214075D01*
X198032D01*
X201378Y210728D01*
X127795Y106693D02*
X140157Y119055D01*
X136183Y161061D02*
X140157Y157087D01*
Y119055D02*
Y157087D01*
X126378Y161024D02*
X139173Y173819D01*
X114173Y174705D02*
X120448D01*
X112205Y176673D02*
X114173Y174705D01*
X114173Y170768D02*
X120399D01*
X112205Y168799D02*
X114173Y170768D01*
X113583Y199705D02*
X119291D01*
X113583Y196555D02*
X119291D01*
D53*
X150492Y114469D02*
Y118307D01*
Y110925D02*
Y114469D01*
X149508Y109941D02*
X150492Y110925D01*
X143996Y109941D02*
X146752Y112697D01*
Y114469D01*
X171850Y121653D02*
X172146D01*
X174311Y123819D02*
Y126279D01*
X172146Y121653D02*
X174311Y123819D01*
X154626Y127461D02*
X158268Y131102D01*
X154626Y126969D02*
Y127461D01*
Y121457D02*
Y126969D01*
X152953Y121457D02*
X154626D01*
X149213Y119587D02*
X150492Y118307D01*
X144685Y119587D02*
X149213D01*
X143012Y117913D02*
X144685Y119587D01*
X143012Y114469D02*
Y117913D01*
X150492Y123917D02*
X152953Y121457D01*
X199016Y221752D02*
Y234842D01*
X106890Y206004D02*
Y210138D01*
Y202854D02*
Y206004D01*
Y199705D02*
Y202854D01*
Y196555D02*
Y199705D01*
Y210138D02*
X106890Y210138D01*
X194291Y189370D02*
X197638D01*
X217520Y222146D02*
X220768Y235925D01*
X112992Y161417D02*
X116855D01*
X120399Y164961D01*
X133071Y194095D02*
X136221D01*
X138583Y196063D02*
Y196457D01*
Y196063D02*
X143307Y191339D01*
X136221Y194095D02*
X138583Y196457D01*
X188189Y193012D02*
X191012Y195835D01*
X120399Y164961D02*
Y166831D01*
D54*
X161614Y105413D02*
Y105709D01*
X168504Y112598D01*
X174409D01*
X185630Y192913D02*
X188189D01*
D55*
X197343Y133371D02*
X198985Y131729D01*
X197343Y133371D02*
Y143656D01*
X202520Y128194D02*
X207677Y133351D01*
Y135630D01*
X166440Y136124D02*
Y137201D01*
X166437Y137205D02*
X166440Y137201D01*
X148819Y181693D02*
X159306D01*
X197343Y143656D01*
X190256Y132677D02*
Y134449D01*
X188287Y130709D02*
X190256Y132677D01*
X166437Y137205D02*
X171850Y142618D01*
Y148819D01*
X154429Y191240D02*
X156102Y192913D01*
X154429Y186417D02*
Y191240D01*
X188682Y214961D02*
X188740Y215018D01*
X184646Y214961D02*
X188682D01*
X180709Y206693D02*
X185630D01*
X178615Y204599D02*
X180709Y206693D01*
X156299Y214961D02*
X160251Y218912D01*
X146063Y214961D02*
X156299D01*
X148819Y163976D02*
X155315D01*
X138880Y166834D02*
X140064Y165650D01*
X138880Y166528D02*
Y166834D01*
X144488Y167913D02*
X148819D01*
X142224Y165650D02*
X144488Y167913D01*
X140064Y165650D02*
X142224D01*
X142520Y169882D02*
X148819D01*
X141043Y168405D02*
X142520Y169882D01*
X130512Y175984D02*
X133858D01*
X132731Y200241D02*
X157830D01*
X131496Y201476D02*
X132731Y200241D01*
X157830D02*
X160039Y198031D01*
X158957Y206201D02*
X165945Y199213D01*
X128937Y206201D02*
X158957D01*
X158696Y204099D02*
X163976Y198819D01*
X130281Y204099D02*
X158696D01*
X119291Y193110D02*
X130281Y204099D01*
X136025Y202170D02*
X158656D01*
X162008Y198819D01*
X160039Y192913D02*
Y198031D01*
X162008Y192913D02*
Y198819D01*
X163976Y192913D02*
Y198819D01*
X165945Y192913D02*
Y199213D01*
X155315Y163976D02*
X160236Y168898D01*
X154528Y165945D02*
X158268Y169685D01*
X148819Y165945D02*
X154528D01*
X128543Y152362D02*
X131791D01*
X142423Y155318D02*
X142621D01*
X143405Y156102D01*
X148819D01*
X142520Y158071D02*
X148819D01*
X228713Y197638D02*
X234252D01*
X203150Y182283D02*
X213358D01*
X154429Y186417D02*
X156102Y184744D01*
X158563D01*
X187835Y155472D01*
X213189Y163779D02*
X214173Y162795D01*
X210531Y163779D02*
X213189D01*
X202106Y171122D02*
X215216D01*
X199409Y173819D02*
X202106Y171122D01*
X192913Y173819D02*
X199409D01*
X217815Y174803D02*
X221260D01*
X216929Y173917D02*
X217815Y174803D01*
X216929Y172835D02*
Y173917D01*
X217110Y155118D02*
X220472D01*
X215216Y171122D02*
X216929Y172835D01*
X188740Y154567D02*
X207677Y135630D01*
X188734Y154567D02*
X188740D01*
X187835Y155466D02*
X188734Y154567D01*
X187835Y155466D02*
Y155472D01*
X158268Y169685D02*
Y172835D01*
X147244Y231890D02*
X164665D01*
X144095Y235039D02*
X147244Y231890D01*
X181496Y133563D02*
Y135433D01*
X179724Y148819D02*
X179882Y148661D01*
X177756Y148819D02*
X177953Y148622D01*
Y142126D02*
Y148622D01*
X175787Y141563D02*
Y148819D01*
X173819Y141750D02*
Y148819D01*
X179882Y141378D02*
Y148661D01*
X180551Y136378D02*
X181496Y135433D01*
X175827Y136378D02*
X180551D01*
X173819Y141750D02*
X177931Y137638D01*
X175787Y141563D02*
X178453Y138898D01*
X179882Y141378D02*
X181102Y140157D01*
X174016Y138189D02*
X175827Y136378D01*
X192913Y179724D02*
X200591D01*
X203150Y182283D01*
X220866Y185226D02*
X225207Y189567D01*
X226476D01*
X216142Y180315D02*
Y182283D01*
X225493Y191634D02*
X228543D01*
X234449D02*
X235433Y192619D01*
X183465Y133563D02*
Y136221D01*
X182047Y137638D02*
X183465Y136221D01*
X177931Y137638D02*
X182047D01*
X185433Y133563D02*
Y136221D01*
X182756Y138898D02*
X185433Y136221D01*
X178453Y138898D02*
X182756D01*
X187402Y133563D02*
Y136221D01*
X181102Y140157D02*
X183465D01*
X187402Y136221D01*
X235433Y192619D02*
Y196457D01*
X234252Y197638D02*
X235433Y196457D01*
X179528Y123917D02*
X181496D01*
X183465D01*
X185433D01*
X187402D01*
X144882Y216142D02*
Y220472D01*
Y216142D02*
X146063Y214961D01*
X177756Y192913D02*
Y200447D01*
X193996Y207929D02*
Y211713D01*
X181693Y192913D02*
Y200886D01*
X183366Y202559D01*
X194291D01*
X195374Y203642D01*
Y206551D01*
X193996Y207929D02*
X195374Y206551D01*
X221260Y174803D02*
X222736Y173327D01*
X192913Y167913D02*
X206398D01*
X192913Y165945D02*
X206284D01*
X206398Y167913D02*
X210531Y163779D01*
X206284Y165945D02*
X217110Y155118D01*
X216142Y182283D02*
X225493Y191634D01*
X213358Y182283D02*
X228713Y197638D01*
X220866Y181496D02*
Y185226D01*
X222736Y144882D02*
Y173327D01*
X192913Y156102D02*
X195669D01*
X201969Y149803D01*
X160332Y228705D02*
X161548Y229921D01*
X164665D01*
X131791Y152362D02*
X134744Y155315D01*
Y155315D01*
X120399Y170768D02*
X130905D01*
X132677Y172539D01*
X126083Y174705D02*
X126772Y175394D01*
X120448Y174705D02*
X126083D01*
X126772Y175394D02*
Y177362D01*
X127362Y177953D01*
X137205D01*
X119291Y196555D02*
X128937Y206201D01*
D56*
X148425Y186024D02*
Y188976D01*
X173327Y127264D02*
X174311Y126279D01*
X173327Y127264D02*
Y130512D01*
X173524Y130709D02*
X178642D01*
X173327Y130512D02*
X173524Y130709D01*
X136811Y183661D02*
X148819D01*
X197638Y186614D02*
Y189370D01*
X196653Y185630D02*
X197638Y186614D01*
X192913Y185630D02*
X196653D01*
X144488D02*
X148819D01*
X143307Y186811D02*
X144488Y185630D01*
X143307Y186811D02*
Y188189D01*
X156102Y148819D02*
X156260D01*
X197835Y162008D02*
X198819Y162992D01*
X192913Y162008D02*
X197835D01*
X151969Y148819D02*
X156102D01*
X139764Y188189D02*
X143307D01*
X181693Y143504D02*
Y148819D01*
Y143504D02*
X182677Y142520D01*
X150000Y138976D02*
X155118D01*
X184449Y162008D02*
X192913D01*
X181693Y148819D02*
Y154134D01*
X133071Y187402D02*
Y188583D01*
Y187402D02*
X136811Y183661D01*
X170079Y176378D02*
X184449Y162008D01*
X188189Y192913D02*
Y193012D01*
X151181Y144488D02*
X155512D01*
X156260Y145236D01*
Y148819D01*
X155118Y138976D02*
X158071Y141929D01*
Y148819D01*
X176969Y155512D02*
X180315D01*
X181693Y154134D01*
D58*
X128445Y229823D02*
X128543Y229724D01*
Y219587D02*
Y229724D01*
D59*
X125591Y124409D02*
X127165Y125984D01*
X237402Y178740D02*
Y182776D01*
X236515Y183662D02*
X237402Y182776D01*
X157677Y179724D02*
X165317Y172084D01*
Y163034D02*
Y172084D01*
X158582Y156299D02*
X165317Y163034D01*
X155512Y156693D02*
X162343Y163524D01*
Y172303D01*
X158268Y156299D02*
X158582D01*
X170079Y231890D02*
X174016Y235827D01*
X175492D01*
X166142D02*
X170079Y231890D01*
X164665Y235827D02*
X166142D01*
X172047Y229921D02*
X174016Y227953D01*
X170079Y231890D02*
X172047Y229921D01*
X174016Y227953D02*
X175492D01*
X172047Y229921D02*
X175492D01*
X148819Y179724D02*
X157677D01*
X156890Y177756D02*
X162343Y172303D01*
X148819Y177756D02*
X156890D01*
X203740Y173031D02*
X207480D01*
X200984Y175787D02*
X203740Y173031D01*
X192913Y175787D02*
X200984D01*
X192913Y177756D02*
X200984D01*
X203740Y180512D01*
X207480D01*
X230512Y191634D02*
Y194685D01*
X124409Y181496D02*
X127362D01*
X128937Y179921D01*
X129724D01*
X115354Y137008D02*
X117323Y138976D01*
X120792D01*
X115354Y126772D02*
Y137008D01*
Y126772D02*
X120079Y122047D01*
X125591D01*
Y124409D01*
X229921Y195276D02*
X230512Y194685D01*
D61*
X106496Y153937D02*
D03*
Y127953D02*
D03*
D62*
X231004Y110728D02*
D03*
X110925D02*
D03*
D63*
Y230807D02*
D03*
X231004D02*
D03*
D64*
X216344Y120670D02*
D03*
X214764Y133661D02*
D03*
X211319Y137303D02*
D03*
X207776Y140650D02*
D03*
X160138Y121457D02*
D03*
X155807Y115945D02*
D03*
X150092Y101929D02*
D03*
X146063Y110728D02*
D03*
X150492Y115551D02*
D03*
Y113091D02*
D03*
X144980Y101969D02*
D03*
X168701Y132480D02*
D03*
X142224Y122638D02*
D03*
X166440Y136124D02*
D03*
X169095Y136614D02*
D03*
X149803Y134941D02*
D03*
X147933Y133071D02*
D03*
X145866Y134843D02*
D03*
X169488Y121653D02*
D03*
X171850D02*
D03*
X190256Y134449D02*
D03*
X177067Y134350D02*
D03*
X156595Y187205D02*
D03*
X151772Y195571D02*
D03*
Y192126D02*
D03*
Y188878D02*
D03*
X125984Y131890D02*
D03*
X127165Y125984D02*
D03*
X231004Y238484D02*
D03*
X236319Y225492D02*
D03*
Y236122D02*
D03*
X231004Y223130D02*
D03*
X225689Y225492D02*
D03*
Y236122D02*
D03*
X238681Y230807D02*
D03*
X223327D02*
D03*
X110925Y238484D02*
D03*
X116240Y225492D02*
D03*
Y236122D02*
D03*
X110925Y223130D02*
D03*
X105610Y225492D02*
D03*
Y236122D02*
D03*
X118602Y230807D02*
D03*
X103248D02*
D03*
X168268Y238996D02*
D03*
X168701Y230315D02*
D03*
X188193Y221069D02*
D03*
X179134Y212992D02*
D03*
X181496Y208661D02*
D03*
X184646Y218504D02*
D03*
X176969Y200886D02*
D03*
X169885Y209553D02*
D03*
X232087Y162992D02*
D03*
X231004Y118405D02*
D03*
X236319Y105413D02*
D03*
Y116043D02*
D03*
X231004Y103051D02*
D03*
X225689Y105413D02*
D03*
Y116043D02*
D03*
X238681Y110728D02*
D03*
X223425D02*
D03*
X103248D02*
D03*
X118602D02*
D03*
X105610Y116043D02*
D03*
Y105413D02*
D03*
X110925Y103051D02*
D03*
X116240Y116043D02*
D03*
Y105413D02*
D03*
X110925Y118405D02*
D03*
X155020Y162008D02*
D03*
X138880Y166834D02*
D03*
X141043Y168405D02*
D03*
X132677Y172539D02*
D03*
X131496Y201476D02*
D03*
X136025Y202170D02*
D03*
X133171Y197446D02*
D03*
X119291Y193110D02*
D03*
X119390Y202854D02*
D03*
X122736Y208760D02*
D03*
X158465Y163484D02*
D03*
X141142Y179724D02*
D03*
X142423Y155318D02*
D03*
X142520Y158071D02*
D03*
X215945Y194095D02*
D03*
X216142Y168898D02*
D03*
X212303Y169095D02*
D03*
X200787Y189370D02*
D03*
X198425Y192717D02*
D03*
X205906Y161909D02*
D03*
X185965Y236555D02*
D03*
X183701D02*
D03*
X161909Y239370D02*
D03*
X165256D02*
D03*
X188189Y236614D02*
D03*
X179232Y239469D02*
D03*
X153740Y234646D02*
D03*
X151575D02*
D03*
X155905D02*
D03*
X149409D02*
D03*
X237795Y221358D02*
D03*
X183465Y226181D02*
D03*
X186417Y199803D02*
D03*
X209055Y228346D02*
D03*
X219685Y218602D02*
D03*
X187303Y174705D02*
D03*
X141142Y176181D02*
D03*
X220472Y155118D02*
D03*
X201181Y192520D02*
D03*
X204724D02*
D03*
X133858Y175984D02*
D03*
X221260Y206653D02*
D03*
Y202756D02*
D03*
X158268Y172835D02*
D03*
X214961Y198819D02*
D03*
X200394Y106535D02*
D03*
X138583Y106929D02*
D03*
X158268Y156299D02*
D03*
X192913Y216929D02*
D03*
X160236Y168898D02*
D03*
X126614Y236221D02*
D03*
X127795Y106693D02*
D03*
X211024D02*
D03*
X174016Y138189D02*
D03*
X177953Y142126D02*
D03*
X188583Y207087D02*
D03*
X180709Y112598D02*
D03*
X212598Y184252D02*
D03*
X216142Y180315D02*
D03*
X124409Y181496D02*
D03*
X142913Y127559D02*
D03*
Y131102D02*
D03*
X137795Y127559D02*
D03*
X137638Y131102D02*
D03*
X155512Y156693D02*
D03*
X229921Y195276D02*
D03*
X233071D02*
D03*
X186319Y120571D02*
D03*
X120472Y103150D02*
D03*
X133465D02*
D03*
X188976D02*
D03*
X193701D02*
D03*
X205512D02*
D03*
X219291D02*
D03*
X133465Y122047D02*
D03*
X216929Y177165D02*
D03*
X144095Y153150D02*
D03*
X165354Y158268D02*
D03*
X189862Y138878D02*
D03*
X151378Y209154D02*
D03*
X118996Y218996D02*
D03*
X122441Y229921D02*
D03*
X184350Y167027D02*
D03*
X169685Y179921D02*
D03*
X187473Y211811D02*
D03*
X190664D02*
D03*
X197047D02*
D03*
X237008Y207480D02*
D03*
Y201181D02*
D03*
X236984Y123622D02*
D03*
X160355Y218807D02*
D03*
X170079Y176378D02*
D03*
X193012Y204823D02*
D03*
X185630Y206693D02*
D03*
X193856Y211811D02*
D03*
X163976Y143209D02*
D03*
X222736Y144882D02*
D03*
X207776Y145669D02*
D03*
X212205Y151969D02*
D03*
X230709Y137894D02*
D03*
X217717Y189370D02*
D03*
X220866Y181496D02*
D03*
X225689Y180413D02*
D03*
X220374Y163091D02*
D03*
X224803Y155118D02*
D03*
X201969Y149803D02*
D03*
X176969Y155512D02*
D03*
X174213Y154626D02*
D03*
X239272Y186713D02*
D03*
X204232Y224803D02*
D03*
X202716Y216535D02*
D03*
X160332Y228705D02*
D03*
X134744Y155315D02*
D03*
X126378Y161024D02*
D03*
X116929Y191535D02*
D03*
X121358Y190945D02*
D03*
X119291Y199705D02*
D03*
X119291Y196555D02*
D03*
D65*
X147653Y104331D02*
D03*
X217520Y222146D02*
D03*
X220768Y235925D02*
D03*
D66*
X168405Y169587D02*
D03*
X148425Y191437D02*
D03*
Y188976D02*
D03*
X148327Y194095D02*
D03*
X145472D02*
D03*
X128543Y219587D02*
D03*
X106890Y210138D02*
D03*
X121431Y157703D02*
D03*
X194291Y189370D02*
D03*
X216587Y159350D02*
D03*
X151181Y144488D02*
D03*
X227559Y209842D02*
D03*
X172441Y164567D02*
D03*
X188189Y193012D02*
D03*
X234055Y134449D02*
D03*
X236713Y142520D02*
D03*
X232677Y150984D02*
D03*
X124213Y188189D02*
D03*
Y193799D02*
D03*
D67*
X158268Y131102D02*
D03*
X122048Y135041D02*
D03*
X112992Y161417D02*
D03*
X183465Y128740D02*
D03*
D68*
X171653Y105512D02*
D03*
D69*
X150492Y114469D02*
D03*
X146752D02*
D03*
X143012D02*
D03*
Y123917D02*
D03*
X150492D02*
D03*
D70*
X173327Y130512D02*
D03*
X169390D02*
D03*
X169488Y134350D02*
D03*
X173425D02*
D03*
X203150Y162992D02*
D03*
X199213D02*
D03*
D71*
X113583Y206004D02*
D03*
X113583Y202854D02*
D03*
Y199705D02*
D03*
Y196555D02*
D03*
X106890D02*
D03*
Y199705D02*
D03*
Y202854D02*
D03*
Y206004D02*
D03*
D72*
X213127Y117587D02*
D03*
X224441Y128901D02*
D03*
X209591Y121123D02*
D03*
X220905Y132436D02*
D03*
X206056Y124658D02*
D03*
X217369Y135972D02*
D03*
X202520Y128194D02*
D03*
X213834Y139507D02*
D03*
X198985Y131729D02*
D03*
X210298Y143043D02*
D03*
D73*
X210039Y221752D02*
D03*
X199016D02*
D03*
X210039Y234842D02*
D03*
X199016D02*
D03*
D74*
X228543Y191634D02*
D03*
X230512D02*
D03*
X232480D02*
D03*
X234449D02*
D03*
Y181595D02*
D03*
X232480D02*
D03*
X230512D02*
D03*
X228543D02*
D03*
D75*
X236515Y189567D02*
D03*
Y187599D02*
D03*
Y185631D02*
D03*
Y183662D02*
D03*
X226476D02*
D03*
Y185631D02*
D03*
Y187599D02*
D03*
Y189567D02*
D03*
D76*
X144882Y220472D02*
D03*
X152756D02*
D03*
D77*
X191831Y227165D02*
D03*
Y235039D02*
D03*
X184055D02*
D03*
Y227165D02*
D03*
D78*
X153150Y236555D02*
D03*
Y227224D02*
D03*
D79*
X170079Y231890D02*
D03*
D80*
X175492Y227953D02*
D03*
Y229921D02*
D03*
Y231890D02*
D03*
Y233858D02*
D03*
Y235827D02*
D03*
X164665D02*
D03*
Y233858D02*
D03*
Y231890D02*
D03*
Y229921D02*
D03*
Y227953D02*
D03*
D81*
X171063Y226772D02*
D03*
X169095D02*
D03*
Y237008D02*
D03*
X171063D02*
D03*
D82*
X138583Y196457D02*
D03*
Y189370D02*
D03*
D83*
X176109Y202094D02*
D03*
X178615Y204599D02*
D03*
D84*
X207480Y173031D02*
D03*
Y176772D02*
D03*
Y180512D02*
D03*
D85*
X137992Y179921D02*
D03*
Y177953D02*
D03*
Y175984D02*
D03*
X129724D02*
D03*
Y179921D02*
D03*
D86*
X178642Y130709D02*
D03*
Y128740D02*
D03*
Y126772D02*
D03*
X188287D02*
D03*
Y128740D02*
D03*
Y130709D02*
D03*
D87*
X179528Y123917D02*
D03*
X181496D02*
D03*
X183465D02*
D03*
X185433D02*
D03*
X187402D02*
D03*
Y133563D02*
D03*
X185433D02*
D03*
X183465D02*
D03*
X181496D02*
D03*
X179528D02*
D03*
D88*
X128543Y148031D02*
D03*
X130512D02*
D03*
X132480D02*
D03*
X134449D02*
D03*
X128543Y134646D02*
D03*
X130512D02*
D03*
X132480D02*
D03*
X134449D02*
D03*
D89*
X214173Y162795D02*
D03*
D90*
X185630Y192913D02*
D03*
X183661D02*
D03*
X181693D02*
D03*
X179724D02*
D03*
X177756D02*
D03*
X175787D02*
D03*
X173819D02*
D03*
X171850D02*
D03*
X169882D02*
D03*
X167913D02*
D03*
X165945D02*
D03*
X163976D02*
D03*
X162008D02*
D03*
X160039D02*
D03*
X158071D02*
D03*
X156102D02*
D03*
Y148819D02*
D03*
X158071D02*
D03*
X160039D02*
D03*
X162008D02*
D03*
X163976D02*
D03*
X165945D02*
D03*
X167913D02*
D03*
X169882D02*
D03*
X171850D02*
D03*
X173819D02*
D03*
X175787D02*
D03*
X177756D02*
D03*
X179724D02*
D03*
X181693D02*
D03*
X183661D02*
D03*
X185630D02*
D03*
D91*
X148819Y185630D02*
D03*
Y183661D02*
D03*
Y181693D02*
D03*
Y179724D02*
D03*
Y177756D02*
D03*
Y175787D02*
D03*
Y173819D02*
D03*
Y171850D02*
D03*
Y169882D02*
D03*
Y167913D02*
D03*
Y165945D02*
D03*
Y163976D02*
D03*
Y162008D02*
D03*
Y160039D02*
D03*
Y158071D02*
D03*
Y156102D02*
D03*
X192913D02*
D03*
Y158071D02*
D03*
Y160039D02*
D03*
Y162008D02*
D03*
Y163976D02*
D03*
Y165945D02*
D03*
Y167913D02*
D03*
Y169882D02*
D03*
Y171850D02*
D03*
Y173819D02*
D03*
Y175787D02*
D03*
Y177756D02*
D03*
Y179724D02*
D03*
Y181693D02*
D03*
Y183661D02*
D03*
Y185630D02*
D03*
D92*
X112205Y168799D02*
D03*
Y176673D02*
D03*
M02*
